  0
SECTION
  2
HEADER
  9
$ACADVER
  1
AC1014
  9
$HANDSEED
  5
FFFF
  9
$MEASUREMENT
 70
     1
  0
ENDSEC
  0
SECTION
  2
TABLES
  0
TABLE
  2
VPORT
  5
8
330
0
100
AcDbSymbolTable
 70
     4
  0
VPORT
  5
2E
330
8
100
AcDbSymbolTableRecord
100
AcDbViewportTableRecord
  2
*ACTIVE
 70
     0
 10
0.0
 20
0.0
 11
1.0
 21
1.0
 12
210.0
 22
148.5
 13
0.0
 23
0.0
 14
10.0
 24
10.0
 15
10.0
 25
10.0
 16
0.0
 26
0.0
 36
1.0
 17
0.0
 27
0.0
 37
0.0
 40
341.0
 41
1.24
 42
50.0
 43
0.0
 44
0.0
 50
0.0
 51
0.0
 71
     0
 72
   100
 73
     1
 74
     3
 75
     0
 76
     0
 77
     0
 78
     0
  0
ENDTAB
  0
TABLE
  2
LTYPE
  5
5
330
0
100
AcDbSymbolTable
 70
     1
  0
LTYPE
  5
14
330
5
100
AcDbSymbolTableRecord
100
AcDbLinetypeTableRecord
  2
BYBLOCK
 70
     0
  3

 72
    65
 73
     0
 40
0.0
  0
LTYPE
  5
15
330
5
100
AcDbSymbolTableRecord
100
AcDbLinetypeTableRecord
  2
BYLAYER
 70
     0
  3

 72
    65
 73
     0
 40
0.0
  0
LTYPE
  5
16
330
5
100
AcDbSymbolTableRecord
100
AcDbLinetypeTableRecord
  2
CONTINUOUS
 70
     0
  3
Solid line
 72
    65
 73
     0
 40
0.0
  0
ENDTAB
  0
TABLE
  2
LAYER
  5
2
100
AcDbSymbolTable
 70
2
  0
LAYER
  5
50
100
AcDbSymbolTableRecord
100
AcDbLayerTableRecord
  2
0
 70
0
  6
CONTINUOUS
  0
LAYER
  5
51
100
AcDbSymbolTableRecord
100
AcDbLayerTableRecord
  2
FORMAT
 70
0
  6
CONTINUOUS
  0
ENDTAB
  0
TABLE
  2
STYLE
  5
3
330
0
100
AcDbSymbolTable
 70
     1
  0
STYLE
  5
11
330
3
100
AcDbSymbolTableRecord
100
AcDbTextStyleTableRecord
  2
STANDARD
 70
     0
 40
0.0
 41
1.0
 50
0.0
 71
     0
 42
2.5
  3
txt
  4

  0
ENDTAB
  0
TABLE
  2
VIEW
  5
6
330
0
100
AcDbSymbolTable
 70
     0
  0
ENDTAB
  0
TABLE
  2
UCS
  5
7
330
0
100
AcDbSymbolTable
 70
     0
  0
ENDTAB
  0
TABLE
  2
APPID
  5
9
330
0
100
AcDbSymbolTable
 70
     2
  0
APPID
  5
12
330
9
100
AcDbSymbolTableRecord
100
AcDbRegAppTableRecord
  2
ACAD
 70
     0
  0
ENDTAB
  0
TABLE
  2
DIMSTYLE
  5
A
330
0
100
AcDbSymbolTable
 70
     1
  0
DIMSTYLE
105
27
330
A
100
AcDbSymbolTableRecord
100
AcDbDimStyleTableRecord
  2
ISO-25
 70
     0
  3

  4

  5

  6

  7

 40
1.0
 41
2.5
 42
0.625
 43
3.75
 44
1.25
 45
0.0
 46
0.0
 47
0.0
 48
0.0
140
2.5
141
2.5
142
0.0
143
0.03937007874016
144
1.0
145
0.0
146
1.0
147
0.625
 71
     0
 72
     0
 73
     0
 74
     0
 75
     0
 76
     0
 77
     1
 78
     8
170
     0
171
     3
172
     1
173
     0
174
     0
175
     0
176
     0
177
     0
178
     0
270
     2
271
     2
272
     2
273
     2
274
     3
340
11
275
     0
280
     0
281
     0
282
     0
283
     0
284
     8
285
     0
286
     0
287
     3
288
     0
  0
ENDTAB
  0
TABLE
  2
BLOCK_RECORD
  5
1
330
0
100
AcDbSymbolTable
 70
     1
  0
BLOCK_RECORD
  5
1F
330
1
100
AcDbSymbolTableRecord
100
AcDbBlockTableRecord
  2
*MODEL_SPACE
  0
BLOCK_RECORD
  5
1B
330
1
100
AcDbSymbolTableRecord
100
AcDbBlockTableRecord
  2
*PAPER_SPACE
  0
ENDTAB
  0
ENDSEC
  0
SECTION
  2
BLOCKS
  0
BLOCK
  5
20
330
1F
100
AcDbEntity
  8
0
100
AcDbBlockBegin
  2
*MODEL_SPACE
 70
     0
 10
0.0
 20
0.0
 30
0.0
  3
*MODEL_SPACE
  1

  0
ENDBLK
  5
21
330
1F
100
AcDbEntity
  8
0
100
AcDbBlockEnd
  0
BLOCK
  5
1C
330
1B
100
AcDbEntity
 67
     1
  8
0
100
AcDbBlockBegin
  2
*PAPER_SPACE
  1

  0
ENDBLK
  5
1D
330
1B
100
AcDbEntity
 67
     1
  8
0
100
AcDbBlockEnd
  0
ENDSEC
  0
SECTION
  2
ENTITIES
  0
LWPOLYLINE
  5
100
100
AcDbEntity
  8
0
 62
7
100
AcDbPolyline
 90
2
 70
0
 10
431.620771
 20
180.120793
 30
0.0
 10
381.620765
 20
180.120793
 30
0.0
  0
LWPOLYLINE
  5
101
100
AcDbEntity
  8
0
 62
7
100
AcDbPolyline
 90
2
 70
0
 10
461.620764
 20
150.120747
 30
0.0
 10
461.620764
 20
230.120799
 30
0.0
  0
LWPOLYLINE
  5
102
100
AcDbEntity
  8
0
 62
7
100
AcDbPolyline
 90
2
 70
0
 10
381.620765
 20
150.120747
 30
0.0
 10
461.620764
 20
150.120747
 30
0.0
  0
LWPOLYLINE
  5
103
100
AcDbEntity
  8
0
 62
7
100
AcDbPolyline
 90
2
 70
0
 10
381.620765
 20
180.120793
 30
0.0
 10
381.620765
 20
150.120747
 30
0.0
  0
SPLINE
  5
104
100
AcDbEntity
  8
0
 62
7
100
AcDbSpline
 70
8
 71
3
 72
8
 73
4
 74
0
 40
0
 40
0
 40
0
 40
0
 40
1
 40
1
 40
1
 40
1
 10
130.020774
 20
203.920778
 30
0.0
 10
130.022500
 20
205.350989
 30
0.0
 10
129.260482
 20
206.673297
 30
0.0
 10
128.022170
 20
207.388900
 30
0.0
  0
SPLINE
  5
105
100
AcDbEntity
  8
0
 62
7
100
AcDbSpline
 70
8
 71
3
 72
8
 73
4
 74
0
 40
0
 40
0
 40
0
 40
0
 40
1
 40
1
 40
1
 40
1
 10
128.022170
 20
207.388900
 30
0.0
 10
126.783858
 20
208.104504
 30
0.0
 10
125.257696
 20
208.104504
 30
0.0
 10
124.019384
 20
207.388900
 30
0.0
  0
SPLINE
  5
106
100
AcDbEntity
  8
0
 62
7
100
AcDbSpline
 70
8
 71
3
 72
8
 73
4
 74
0
 40
0
 40
0
 40
0
 40
0
 40
1
 40
1
 40
1
 40
1
 10
124.019384
 20
207.388900
 30
0.0
 10
122.781072
 20
206.673297
 30
0.0
 10
122.019054
 20
205.350989
 30
0.0
 10
122.020780
 20
203.920778
 30
0.0
  0
SPLINE
  5
107
100
AcDbEntity
  8
0
 62
7
100
AcDbSpline
 70
8
 71
3
 72
8
 73
4
 74
0
 40
0
 40
0
 40
0
 40
0
 40
1
 40
1
 40
1
 40
1
 10
122.020780
 20
203.920778
 30
0.0
 10
122.019135
 20
202.490621
 30
0.0
 10
122.781170
 20
201.168397
 30
0.0
 10
124.019449
 20
200.452843
 30
0.0
  0
SPLINE
  5
108
100
AcDbEntity
  8
0
 62
7
100
AcDbSpline
 70
8
 71
3
 72
8
 73
4
 74
0
 40
0
 40
0
 40
0
 40
0
 40
1
 40
1
 40
1
 40
1
 10
124.019449
 20
200.452843
 30
0.0
 10
125.257728
 20
199.737289
 30
0.0
 10
126.783826
 20
199.737289
 30
0.0
 10
128.022105
 20
200.452843
 30
0.0
  0
SPLINE
  5
109
100
AcDbEntity
  8
0
 62
7
100
AcDbSpline
 70
8
 71
3
 72
8
 73
4
 74
0
 40
0
 40
0
 40
0
 40
0
 40
1
 40
1
 40
1
 40
1
 10
128.022105
 20
200.452843
 30
0.0
 10
129.260384
 20
201.168397
 30
0.0
 10
130.022419
 20
202.490621
 30
0.0
 10
130.020774
 20
203.920778
 30
0.0
  0
LWPOLYLINE
  5
10a
100
AcDbEntity
  8
0
 62
7
100
AcDbPolyline
 90
3
 70
0
 10
461.620764
 20
230.120799
 30
0.0
 10
431.620771
 20
230.120799
 30
0.0
 10
431.620771
 20
180.120793
 30
0.0
  0
LWPOLYLINE
  5
10b
100
AcDbEntity
  8
0
 62
7
100
AcDbPolyline
 90
1
 70
1
 10
130.020774
 20
203.920778
 30
0.0
  0
LWPOLYLINE
  5
10c
100
AcDbEntity
  8
0
 62
7
100
AcDbPolyline
 90
2
 70
0
 10
10.120762
 20
193.770779
 30
0.0
 10
0.120782
 20
203.770759
 30
0.0
  0
LWPOLYLINE
  5
10d
100
AcDbEntity
  8
0
 62
7
100
AcDbPolyline
 90
2
 70
0
 10
10.120762
 20
243.770785
 30
0.0
 10
10.120762
 20
193.770779
 30
0.0
  0
LWPOLYLINE
  5
10e
100
AcDbEntity
  8
0
 62
7
100
AcDbPolyline
 90
2
 70
0
 10
0.120782
 20
233.770805
 30
0.0
 10
10.120762
 20
243.770785
 30
0.0
  0
LWPOLYLINE
  5
10f
100
AcDbEntity
  8
0
 62
7
100
AcDbPolyline
 90
2
 70
0
 10
0.120782
 20
287.420764
 30
0.0
 10
0.120782
 20
233.770805
 30
0.0
  0
LWPOLYLINE
  5
110
100
AcDbEntity
  8
0
 62
7
100
AcDbPolyline
 90
2
 70
0
 10
180.620776
 20
287.420764
 30
0.0
 10
0.120782
 20
287.420764
 30
0.0
  0
LWPOLYLINE
  5
111
100
AcDbEntity
  8
0
 62
7
100
AcDbPolyline
 90
2
 70
0
 10
0.120782
 20
150.120747
 30
0.0
 10
180.620776
 20
150.120747
 30
0.0
  0
LWPOLYLINE
  5
112
100
AcDbEntity
  8
0
 62
7
100
AcDbPolyline
 90
2
 70
0
 10
0.120782
 20
203.770759
 30
0.0
 10
0.120782
 20
150.120747
 30
0.0
  0
LWPOLYLINE
  5
113
100
AcDbEntity
  8
0
 62
7
100
AcDbPolyline
 90
2
 70
0
 10
180.620776
 20
293.770738
 30
0.0
 10
180.620776
 20
287.420764
 30
0.0
  0
LWPOLYLINE
  5
114
100
AcDbEntity
  8
0
 62
7
100
AcDbPolyline
 90
2
 70
0
 10
274.270787
 20
293.770738
 30
0.0
 10
180.620776
 20
293.770738
 30
0.0
  0
LWPOLYLINE
  5
115
100
AcDbEntity
  8
0
 62
7
100
AcDbPolyline
 90
2
 70
0
 10
274.270787
 20
143.770773
 30
0.0
 10
274.270787
 20
293.770738
 30
0.0
  0
LWPOLYLINE
  5
116
100
AcDbEntity
  8
0
 62
7
100
AcDbPolyline
 90
2
 70
0
 10
180.620776
 20
143.770773
 30
0.0
 10
274.270787
 20
143.770773
 30
0.0
  0
LWPOLYLINE
  5
117
100
AcDbEntity
  8
0
 62
7
100
AcDbPolyline
 90
2
 70
0
 10
180.620776
 20
150.120747
 30
0.0
 10
180.620776
 20
143.770773
 30
0.0
  0
LWPOLYLINE
  5
118
100
AcDbEntity
  8
0
 62
7
100
AcDbPolyline
 90
4
 70
1
 10
342.770777
 20
37.420762
 30
0.0
 10
362.770790
 20
37.420762
 30
0.0
 10
362.770790
 20
43.770735
 30
0.0
 10
342.770777
 20
43.770735
 30
0.0
  0
LWPOLYLINE
  5
119
100
AcDbEntity
  8
0
 62
7
100
AcDbPolyline
 90
4
 70
0
 10
427.770766
 20
150.120747
 30
0.0
 10
427.770766
 20
130.120760
 30
0.0
 10
434.120766
 20
130.120760
 30
0.0
 10
434.120766
 20
150.120747
 30
0.0
  0
LWPOLYLINE
  5
11a
100
AcDbEntity
  8
0
 62
7
100
AcDbPolyline
 90
4
 70
0
 10
271.420749
 20
143.770773
 30
0.0
 10
271.420749
 20
130.120760
 30
0.0
 10
277.770775
 20
130.120760
 30
0.0
 10
277.770775
 20
143.770773
 30
0.0
  0
SPLINE
  5
11b
100
AcDbEntity
  8
0
 62
7
100
AcDbSpline
 70
8
 71
3
 72
8
 73
4
 74
0
 40
0
 40
0
 40
0
 40
0
 40
1
 40
1
 40
1
 40
1
 10
232.160762
 20
136.690761
 30
0.0
 10
232.159493
 20
137.794432
 30
0.0
 10
231.264435
 20
138.688461
 30
0.0
 10
230.160764
 20
138.688461
 30
0.0
  0
SPLINE
  5
11c
100
AcDbEntity
  8
0
 62
7
100
AcDbSpline
 70
8
 71
3
 72
8
 73
4
 74
0
 40
0
 40
0
 40
0
 40
0
 40
1
 40
1
 40
1
 40
1
 10
230.160764
 20
138.688461
 30
0.0
 10
229.057093
 20
138.688461
 30
0.0
 10
228.162035
 20
137.794432
 30
0.0
 10
228.160765
 20
136.690761
 30
0.0
  0
LWPOLYLINE
  5
11d
100
AcDbEntity
  8
0
 62
7
100
AcDbPolyline
 90
2
 70
0
 10
232.160762
 20
126.690755
 30
0.0
 10
232.160762
 20
136.690761
 30
0.0
  0
SPLINE
  5
11e
100
AcDbEntity
  8
0
 62
7
100
AcDbSpline
 70
8
 71
3
 72
8
 73
4
 74
0
 40
0
 40
0
 40
0
 40
0
 40
1
 40
1
 40
1
 40
1
 10
228.160765
 20
126.690781
 30
0.0
 10
228.162035
 20
125.587111
 30
0.0
 10
229.057093
 20
124.693082
 30
0.0
 10
230.160764
 20
124.693082
 30
0.0
  0
SPLINE
  5
11f
100
AcDbEntity
  8
0
 62
7
100
AcDbSpline
 70
8
 71
3
 72
8
 73
4
 74
0
 40
0
 40
0
 40
0
 40
0
 40
1
 40
1
 40
1
 40
1
 10
230.160764
 20
124.693082
 30
0.0
 10
231.264435
 20
124.693082
 30
0.0
 10
232.159493
 20
125.587111
 30
0.0
 10
232.160762
 20
126.690781
 30
0.0
  0
LWPOLYLINE
  5
120
100
AcDbEntity
  8
0
 62
7
100
AcDbPolyline
 90
2
 70
0
 10
228.160765
 20
136.690761
 30
0.0
 10
228.160765
 20
126.690755
 30
0.0
  0
SPLINE
  5
121
100
AcDbEntity
  8
0
 62
7
100
AcDbSpline
 70
8
 71
3
 72
8
 73
4
 74
0
 40
0
 40
0
 40
0
 40
0
 40
1
 40
1
 40
1
 40
1
 10
192.160763
 20
136.690761
 30
0.0
 10
192.159494
 20
137.794432
 30
0.0
 10
191.264436
 20
138.688461
 30
0.0
 10
190.160764
 20
138.688461
 30
0.0
  0
SPLINE
  5
122
100
AcDbEntity
  8
0
 62
7
100
AcDbSpline
 70
8
 71
3
 72
8
 73
4
 74
0
 40
0
 40
0
 40
0
 40
0
 40
1
 40
1
 40
1
 40
1
 10
190.160764
 20
138.688461
 30
0.0
 10
189.057093
 20
138.688461
 30
0.0
 10
188.162035
 20
137.794432
 30
0.0
 10
188.160766
 20
136.690761
 30
0.0
  0
LWPOLYLINE
  5
123
100
AcDbEntity
  8
0
 62
7
100
AcDbPolyline
 90
2
 70
0
 10
192.160763
 20
126.690755
 30
0.0
 10
192.160763
 20
136.690761
 30
0.0
  0
SPLINE
  5
124
100
AcDbEntity
  8
0
 62
7
100
AcDbSpline
 70
8
 71
3
 72
8
 73
4
 74
0
 40
0
 40
0
 40
0
 40
0
 40
1
 40
1
 40
1
 40
1
 10
188.160766
 20
126.690781
 30
0.0
 10
188.162035
 20
125.587111
 30
0.0
 10
189.057093
 20
124.693082
 30
0.0
 10
190.160764
 20
124.693082
 30
0.0
  0
SPLINE
  5
125
100
AcDbEntity
  8
0
 62
7
100
AcDbSpline
 70
8
 71
3
 72
8
 73
4
 74
0
 40
0
 40
0
 40
0
 40
0
 40
1
 40
1
 40
1
 40
1
 10
190.160764
 20
124.693082
 30
0.0
 10
191.264436
 20
124.693082
 30
0.0
 10
192.159494
 20
125.587111
 30
0.0
 10
192.160763
 20
126.690781
 30
0.0
  0
SPLINE
  5
126
100
AcDbEntity
  8
0
 62
7
100
AcDbSpline
 70
8
 71
3
 72
8
 73
4
 74
0
 40
0
 40
0
 40
0
 40
0
 40
1
 40
1
 40
1
 40
1
 10
89.445782
 20
137.960761
 30
0.0
 10
89.445998
 20
138.452145
 30
0.0
 10
89.183972
 20
138.906295
 30
0.0
 10
88.758457
 20
139.152049
 30
0.0
  0
SPLINE
  5
127
100
AcDbEntity
  8
0
 62
7
100
AcDbSpline
 70
8
 71
3
 72
8
 73
4
 74
0
 40
0
 40
0
 40
0
 40
0
 40
1
 40
1
 40
1
 40
1
 10
88.758457
 20
139.152049
 30
0.0
 10
88.332942
 20
139.397803
 30
0.0
 10
87.808623
 20
139.397803
 30
0.0
 10
87.383108
 20
139.152049
 30
0.0
  0
SPLINE
  5
128
100
AcDbEntity
  8
0
 62
7
100
AcDbSpline
 70
8
 71
3
 72
8
 73
4
 74
0
 40
0
 40
0
 40
0
 40
0
 40
1
 40
1
 40
1
 40
1
 10
87.383108
 20
139.152049
 30
0.0
 10
86.957594
 20
138.906295
 30
0.0
 10
86.695567
 20
138.452145
 30
0.0
 10
86.695783
 20
137.960761
 30
0.0
  0
SPLINE
  5
129
100
AcDbEntity
  8
0
 62
7
100
AcDbSpline
 70
8
 71
3
 72
8
 73
4
 74
0
 40
0
 40
0
 40
0
 40
0
 40
1
 40
1
 40
1
 40
1
 10
86.695783
 20
137.960761
 30
0.0
 10
86.695567
 20
137.469378
 30
0.0
 10
86.957594
 20
137.015228
 30
0.0
 10
87.383108
 20
136.769474
 30
0.0
  0
SPLINE
  5
12a
100
AcDbEntity
  8
0
 62
7
100
AcDbSpline
 70
8
 71
3
 72
8
 73
4
 74
0
 40
0
 40
0
 40
0
 40
0
 40
1
 40
1
 40
1
 40
1
 10
87.383108
 20
136.769474
 30
0.0
 10
87.808623
 20
136.523720
 30
0.0
 10
88.332942
 20
136.523720
 30
0.0
 10
88.758457
 20
136.769474
 30
0.0
  0
SPLINE
  5
12b
100
AcDbEntity
  8
0
 62
7
100
AcDbSpline
 70
8
 71
3
 72
8
 73
4
 74
0
 40
0
 40
0
 40
0
 40
0
 40
1
 40
1
 40
1
 40
1
 10
88.758457
 20
136.769474
 30
0.0
 10
89.183972
 20
137.015228
 30
0.0
 10
89.445998
 20
137.469378
 30
0.0
 10
89.445782
 20
137.960761
 30
0.0
  0
LWPOLYLINE
  5
12c
100
AcDbEntity
  8
0
 62
7
100
AcDbPolyline
 90
2
 70
0
 10
188.160766
 20
136.690761
 30
0.0
 10
188.160766
 20
126.690755
 30
0.0
  0
SPLINE
  5
12d
100
AcDbEntity
  8
0
 62
7
100
AcDbSpline
 70
8
 71
3
 72
8
 73
4
 74
0
 40
0
 40
0
 40
0
 40
0
 40
1
 40
1
 40
1
 40
1
 10
89.445782
 20
94.780761
 30
0.0
 10
89.445998
 20
95.272145
 30
0.0
 10
89.183972
 20
95.726295
 30
0.0
 10
88.758457
 20
95.972049
 30
0.0
  0
SPLINE
  5
12e
100
AcDbEntity
  8
0
 62
7
100
AcDbSpline
 70
8
 71
3
 72
8
 73
4
 74
0
 40
0
 40
0
 40
0
 40
0
 40
1
 40
1
 40
1
 40
1
 10
88.758457
 20
95.972049
 30
0.0
 10
88.332942
 20
96.217803
 30
0.0
 10
87.808623
 20
96.217803
 30
0.0
 10
87.383108
 20
95.972049
 30
0.0
  0
SPLINE
  5
12f
100
AcDbEntity
  8
0
 62
7
100
AcDbSpline
 70
8
 71
3
 72
8
 73
4
 74
0
 40
0
 40
0
 40
0
 40
0
 40
1
 40
1
 40
1
 40
1
 10
87.383108
 20
95.972049
 30
0.0
 10
86.957594
 20
95.726295
 30
0.0
 10
86.695567
 20
95.272145
 30
0.0
 10
86.695783
 20
94.780761
 30
0.0
  0
SPLINE
  5
130
100
AcDbEntity
  8
0
 62
7
100
AcDbSpline
 70
8
 71
3
 72
8
 73
4
 74
0
 40
0
 40
0
 40
0
 40
0
 40
1
 40
1
 40
1
 40
1
 10
86.695783
 20
94.780761
 30
0.0
 10
86.695567
 20
94.289378
 30
0.0
 10
86.957594
 20
93.835228
 30
0.0
 10
87.383108
 20
93.589474
 30
0.0
  0
SPLINE
  5
131
100
AcDbEntity
  8
0
 62
7
100
AcDbSpline
 70
8
 71
3
 72
8
 73
4
 74
0
 40
0
 40
0
 40
0
 40
0
 40
1
 40
1
 40
1
 40
1
 10
87.383108
 20
93.589474
 30
0.0
 10
87.808623
 20
93.343720
 30
0.0
 10
88.332942
 20
93.343720
 30
0.0
 10
88.758457
 20
93.589474
 30
0.0
  0
SPLINE
  5
132
100
AcDbEntity
  8
0
 62
7
100
AcDbSpline
 70
8
 71
3
 72
8
 73
4
 74
0
 40
0
 40
0
 40
0
 40
0
 40
1
 40
1
 40
1
 40
1
 10
88.758457
 20
93.589474
 30
0.0
 10
89.183972
 20
93.835228
 30
0.0
 10
89.445998
 20
94.289378
 30
0.0
 10
89.445782
 20
94.780761
 30
0.0
  0
LWPOLYLINE
  5
133
100
AcDbEntity
  8
0
 62
7
100
AcDbPolyline
 90
1
 70
1
 10
89.445782
 20
137.960761
 30
0.0
  0
SPLINE
  5
134
100
AcDbEntity
  8
0
 62
7
100
AcDbSpline
 70
8
 71
3
 72
8
 73
4
 74
0
 40
0
 40
0
 40
0
 40
0
 40
1
 40
1
 40
1
 40
1
 10
126.275782
 20
94.780761
 30
0.0
 10
126.275998
 20
95.272145
 30
0.0
 10
126.013972
 20
95.726295
 30
0.0
 10
125.588457
 20
95.972049
 30
0.0
  0
SPLINE
  5
135
100
AcDbEntity
  8
0
 62
7
100
AcDbSpline
 70
8
 71
3
 72
8
 73
4
 74
0
 40
0
 40
0
 40
0
 40
0
 40
1
 40
1
 40
1
 40
1
 10
125.588457
 20
95.972049
 30
0.0
 10
125.162942
 20
96.217803
 30
0.0
 10
124.638623
 20
96.217803
 30
0.0
 10
124.213108
 20
95.972049
 30
0.0
  0
SPLINE
  5
136
100
AcDbEntity
  8
0
 62
7
100
AcDbSpline
 70
8
 71
3
 72
8
 73
4
 74
0
 40
0
 40
0
 40
0
 40
0
 40
1
 40
1
 40
1
 40
1
 10
124.213108
 20
95.972049
 30
0.0
 10
123.787594
 20
95.726295
 30
0.0
 10
123.525567
 20
95.272145
 30
0.0
 10
123.525783
 20
94.780761
 30
0.0
  0
SPLINE
  5
137
100
AcDbEntity
  8
0
 62
7
100
AcDbSpline
 70
8
 71
3
 72
8
 73
4
 74
0
 40
0
 40
0
 40
0
 40
0
 40
1
 40
1
 40
1
 40
1
 10
123.525783
 20
94.780761
 30
0.0
 10
123.525567
 20
94.289378
 30
0.0
 10
123.787594
 20
93.835228
 30
0.0
 10
124.213108
 20
93.589474
 30
0.0
  0
SPLINE
  5
138
100
AcDbEntity
  8
0
 62
7
100
AcDbSpline
 70
8
 71
3
 72
8
 73
4
 74
0
 40
0
 40
0
 40
0
 40
0
 40
1
 40
1
 40
1
 40
1
 10
124.213108
 20
93.589474
 30
0.0
 10
124.638623
 20
93.343720
 30
0.0
 10
125.162942
 20
93.343720
 30
0.0
 10
125.588457
 20
93.589474
 30
0.0
  0
SPLINE
  5
139
100
AcDbEntity
  8
0
 62
7
100
AcDbSpline
 70
8
 71
3
 72
8
 73
4
 74
0
 40
0
 40
0
 40
0
 40
0
 40
1
 40
1
 40
1
 40
1
 10
125.588457
 20
93.589474
 30
0.0
 10
126.013972
 20
93.835228
 30
0.0
 10
126.275998
 20
94.289378
 30
0.0
 10
126.275782
 20
94.780761
 30
0.0
  0
LWPOLYLINE
  5
13a
100
AcDbEntity
  8
0
 62
7
100
AcDbPolyline
 90
1
 70
1
 10
89.445782
 20
94.780761
 30
0.0
  0
SPLINE
  5
13b
100
AcDbEntity
  8
0
 62
7
100
AcDbSpline
 70
8
 71
3
 72
8
 73
4
 74
0
 40
0
 40
0
 40
0
 40
0
 40
1
 40
1
 40
1
 40
1
 10
126.275782
 20
138.600762
 30
0.0
 10
126.275998
 20
139.092146
 30
0.0
 10
126.013972
 20
139.546296
 30
0.0
 10
125.588457
 20
139.792050
 30
0.0
  0
SPLINE
  5
13c
100
AcDbEntity
  8
0
 62
7
100
AcDbSpline
 70
8
 71
3
 72
8
 73
4
 74
0
 40
0
 40
0
 40
0
 40
0
 40
1
 40
1
 40
1
 40
1
 10
125.588457
 20
139.792050
 30
0.0
 10
125.162942
 20
140.037804
 30
0.0
 10
124.638623
 20
140.037804
 30
0.0
 10
124.213108
 20
139.792050
 30
0.0
  0
SPLINE
  5
13d
100
AcDbEntity
  8
0
 62
7
100
AcDbSpline
 70
8
 71
3
 72
8
 73
4
 74
0
 40
0
 40
0
 40
0
 40
0
 40
1
 40
1
 40
1
 40
1
 10
124.213108
 20
139.792050
 30
0.0
 10
123.787594
 20
139.546296
 30
0.0
 10
123.525567
 20
139.092146
 30
0.0
 10
123.525783
 20
138.600762
 30
0.0
  0
SPLINE
  5
13e
100
AcDbEntity
  8
0
 62
7
100
AcDbSpline
 70
8
 71
3
 72
8
 73
4
 74
0
 40
0
 40
0
 40
0
 40
0
 40
1
 40
1
 40
1
 40
1
 10
123.525783
 20
138.600762
 30
0.0
 10
123.525567
 20
138.109378
 30
0.0
 10
123.787594
 20
137.655229
 30
0.0
 10
124.213108
 20
137.409475
 30
0.0
  0
SPLINE
  5
13f
100
AcDbEntity
  8
0
 62
7
100
AcDbSpline
 70
8
 71
3
 72
8
 73
4
 74
0
 40
0
 40
0
 40
0
 40
0
 40
1
 40
1
 40
1
 40
1
 10
124.213108
 20
137.409475
 30
0.0
 10
124.638623
 20
137.163720
 30
0.0
 10
125.162942
 20
137.163720
 30
0.0
 10
125.588457
 20
137.409475
 30
0.0
  0
SPLINE
  5
140
100
AcDbEntity
  8
0
 62
7
100
AcDbSpline
 70
8
 71
3
 72
8
 73
4
 74
0
 40
0
 40
0
 40
0
 40
0
 40
1
 40
1
 40
1
 40
1
 10
125.588457
 20
137.409475
 30
0.0
 10
126.013972
 20
137.655229
 30
0.0
 10
126.275998
 20
138.109378
 30
0.0
 10
126.275782
 20
138.600762
 30
0.0
  0
LWPOLYLINE
  5
141
100
AcDbEntity
  8
0
 62
7
100
AcDbPolyline
 90
1
 70
1
 10
126.275782
 20
94.780761
 30
0.0
  0
LWPOLYLINE
  5
142
100
AcDbEntity
  8
0
 62
7
100
AcDbPolyline
 90
1
 70
1
 10
126.275782
 20
138.600762
 30
0.0
  0
LWPOLYLINE
  5
143
100
AcDbEntity
  8
0
 62
7
100
AcDbPolyline
 90
4
 70
1
 10
422.770776
 20
138.770783
 30
0.0
 10
282.770765
 20
138.770783
 30
0.0
 10
282.770765
 20
63.770775
 30
0.0
 10
422.770776
 20
63.770775
 30
0.0
  0
LWPOLYLINE
  5
144
100
AcDbEntity
  8
0
 62
7
100
AcDbPolyline
 90
4
 70
1
 10
434.120766
 20
57.420748
 30
0.0
 10
427.770766
 20
57.420748
 30
0.0
 10
427.770766
 20
37.420762
 30
0.0
 10
434.120766
 20
37.420762
 30
0.0
  0
SPLINE
  5
145
100
AcDbEntity
  8
0
 62
7
100
AcDbSpline
 70
8
 71
3
 72
8
 73
4
 74
0
 40
0
 40
0
 40
0
 40
0
 40
1
 40
1
 40
1
 40
1
 10
165.165775
 20
136.690761
 30
0.0
 10
165.165991
 20
137.182145
 30
0.0
 10
164.903965
 20
137.636295
 30
0.0
 10
164.478450
 20
137.882049
 30
0.0
  0
SPLINE
  5
146
100
AcDbEntity
  8
0
 62
7
100
AcDbSpline
 70
8
 71
3
 72
8
 73
4
 74
0
 40
0
 40
0
 40
0
 40
0
 40
1
 40
1
 40
1
 40
1
 10
164.478450
 20
137.882049
 30
0.0
 10
164.052935
 20
138.127803
 30
0.0
 10
163.528616
 20
138.127803
 30
0.0
 10
163.103101
 20
137.882049
 30
0.0
  0
SPLINE
  5
147
100
AcDbEntity
  8
0
 62
7
100
AcDbSpline
 70
8
 71
3
 72
8
 73
4
 74
0
 40
0
 40
0
 40
0
 40
0
 40
1
 40
1
 40
1
 40
1
 10
163.103101
 20
137.882049
 30
0.0
 10
162.677586
 20
137.636295
 30
0.0
 10
162.415560
 20
137.182145
 30
0.0
 10
162.415776
 20
136.690761
 30
0.0
  0
SPLINE
  5
148
100
AcDbEntity
  8
0
 62
7
100
AcDbSpline
 70
8
 71
3
 72
8
 73
4
 74
0
 40
0
 40
0
 40
0
 40
0
 40
1
 40
1
 40
1
 40
1
 10
162.415776
 20
136.690761
 30
0.0
 10
162.415560
 20
136.199378
 30
0.0
 10
162.677586
 20
135.745228
 30
0.0
 10
163.103101
 20
135.499474
 30
0.0
  0
SPLINE
  5
149
100
AcDbEntity
  8
0
 62
7
100
AcDbSpline
 70
8
 71
3
 72
8
 73
4
 74
0
 40
0
 40
0
 40
0
 40
0
 40
1
 40
1
 40
1
 40
1
 10
163.103101
 20
135.499474
 30
0.0
 10
163.528616
 20
135.253720
 30
0.0
 10
164.052935
 20
135.253720
 30
0.0
 10
164.478450
 20
135.499474
 30
0.0
  0
SPLINE
  5
14a
100
AcDbEntity
  8
0
 62
7
100
AcDbSpline
 70
8
 71
3
 72
8
 73
4
 74
0
 40
0
 40
0
 40
0
 40
0
 40
1
 40
1
 40
1
 40
1
 10
164.478450
 20
135.499474
 30
0.0
 10
164.903965
 20
135.745228
 30
0.0
 10
165.165991
 20
136.199378
 30
0.0
 10
165.165775
 20
136.690761
 30
0.0
  0
LWPOLYLINE
  5
14b
100
AcDbEntity
  8
0
 62
7
100
AcDbPolyline
 90
4
 70
1
 10
277.770775
 20
57.420748
 30
0.0
 10
271.420749
 20
57.420748
 30
0.0
 10
271.420749
 20
37.420762
 30
0.0
 10
277.770775
 20
37.420762
 30
0.0
  0
SPLINE
  5
14c
100
AcDbEntity
  8
0
 62
7
100
AcDbSpline
 70
8
 71
3
 72
8
 73
4
 74
0
 40
0
 40
0
 40
0
 40
0
 40
1
 40
1
 40
1
 40
1
 10
254.065775
 20
136.690761
 30
0.0
 10
254.065991
 20
137.182145
 30
0.0
 10
253.803965
 20
137.636295
 30
0.0
 10
253.378450
 20
137.882049
 30
0.0
  0
SPLINE
  5
14d
100
AcDbEntity
  8
0
 62
7
100
AcDbSpline
 70
8
 71
3
 72
8
 73
4
 74
0
 40
0
 40
0
 40
0
 40
0
 40
1
 40
1
 40
1
 40
1
 10
253.378450
 20
137.882049
 30
0.0
 10
252.952935
 20
138.127803
 30
0.0
 10
252.428616
 20
138.127803
 30
0.0
 10
252.003101
 20
137.882049
 30
0.0
  0
SPLINE
  5
14e
100
AcDbEntity
  8
0
 62
7
100
AcDbSpline
 70
8
 71
3
 72
8
 73
4
 74
0
 40
0
 40
0
 40
0
 40
0
 40
1
 40
1
 40
1
 40
1
 10
252.003101
 20
137.882049
 30
0.0
 10
251.577586
 20
137.636295
 30
0.0
 10
251.315560
 20
137.182145
 30
0.0
 10
251.315776
 20
136.690761
 30
0.0
  0
SPLINE
  5
14f
100
AcDbEntity
  8
0
 62
7
100
AcDbSpline
 70
8
 71
3
 72
8
 73
4
 74
0
 40
0
 40
0
 40
0
 40
0
 40
1
 40
1
 40
1
 40
1
 10
251.315776
 20
136.690761
 30
0.0
 10
251.315560
 20
136.199378
 30
0.0
 10
251.577586
 20
135.745228
 30
0.0
 10
252.003101
 20
135.499474
 30
0.0
  0
SPLINE
  5
150
100
AcDbEntity
  8
0
 62
7
100
AcDbSpline
 70
8
 71
3
 72
8
 73
4
 74
0
 40
0
 40
0
 40
0
 40
0
 40
1
 40
1
 40
1
 40
1
 10
252.003101
 20
135.499474
 30
0.0
 10
252.428616
 20
135.253720
 30
0.0
 10
252.952935
 20
135.253720
 30
0.0
 10
253.378450
 20
135.499474
 30
0.0
  0
SPLINE
  5
151
100
AcDbEntity
  8
0
 62
7
100
AcDbSpline
 70
8
 71
3
 72
8
 73
4
 74
0
 40
0
 40
0
 40
0
 40
0
 40
1
 40
1
 40
1
 40
1
 10
253.378450
 20
135.499474
 30
0.0
 10
253.803965
 20
135.745228
 30
0.0
 10
254.065991
 20
136.199378
 30
0.0
 10
254.065775
 20
136.690761
 30
0.0
  0
LWPOLYLINE
  5
152
100
AcDbEntity
  8
0
 62
7
100
AcDbPolyline
 90
1
 70
1
 10
165.165775
 20
136.690761
 30
0.0
  0
SPLINE
  5
153
100
AcDbEntity
  8
0
 62
7
100
AcDbSpline
 70
8
 71
3
 72
8
 73
4
 74
0
 40
0
 40
0
 40
0
 40
0
 40
1
 40
1
 40
1
 40
1
 10
254.065775
 20
71.920761
 30
0.0
 10
254.065991
 20
72.412145
 30
0.0
 10
253.803965
 20
72.866295
 30
0.0
 10
253.378450
 20
73.112049
 30
0.0
  0
SPLINE
  5
154
100
AcDbEntity
  8
0
 62
7
100
AcDbSpline
 70
8
 71
3
 72
8
 73
4
 74
0
 40
0
 40
0
 40
0
 40
0
 40
1
 40
1
 40
1
 40
1
 10
253.378450
 20
73.112049
 30
0.0
 10
252.952935
 20
73.357803
 30
0.0
 10
252.428616
 20
73.357803
 30
0.0
 10
252.003101
 20
73.112049
 30
0.0
  0
SPLINE
  5
155
100
AcDbEntity
  8
0
 62
7
100
AcDbSpline
 70
8
 71
3
 72
8
 73
4
 74
0
 40
0
 40
0
 40
0
 40
0
 40
1
 40
1
 40
1
 40
1
 10
252.003101
 20
73.112049
 30
0.0
 10
251.577586
 20
72.866295
 30
0.0
 10
251.315560
 20
72.412145
 30
0.0
 10
251.315776
 20
71.920761
 30
0.0
  0
SPLINE
  5
156
100
AcDbEntity
  8
0
 62
7
100
AcDbSpline
 70
8
 71
3
 72
8
 73
4
 74
0
 40
0
 40
0
 40
0
 40
0
 40
1
 40
1
 40
1
 40
1
 10
251.315776
 20
71.920761
 30
0.0
 10
251.315560
 20
71.429378
 30
0.0
 10
251.577586
 20
70.975228
 30
0.0
 10
252.003101
 20
70.729474
 30
0.0
  0
SPLINE
  5
157
100
AcDbEntity
  8
0
 62
7
100
AcDbSpline
 70
8
 71
3
 72
8
 73
4
 74
0
 40
0
 40
0
 40
0
 40
0
 40
1
 40
1
 40
1
 40
1
 10
252.003101
 20
70.729474
 30
0.0
 10
252.428616
 20
70.483720
 30
0.0
 10
252.952935
 20
70.483720
 30
0.0
 10
253.378450
 20
70.729474
 30
0.0
  0
SPLINE
  5
158
100
AcDbEntity
  8
0
 62
7
100
AcDbSpline
 70
8
 71
3
 72
8
 73
4
 74
0
 40
0
 40
0
 40
0
 40
0
 40
1
 40
1
 40
1
 40
1
 10
253.378450
 20
70.729474
 30
0.0
 10
253.803965
 20
70.975228
 30
0.0
 10
254.065991
 20
71.429378
 30
0.0
 10
254.065775
 20
71.920761
 30
0.0
  0
LWPOLYLINE
  5
159
100
AcDbEntity
  8
0
 62
7
100
AcDbPolyline
 90
1
 70
1
 10
254.065775
 20
136.690761
 30
0.0
  0
SPLINE
  5
15a
100
AcDbEntity
  8
0
 62
7
100
AcDbSpline
 70
8
 71
3
 72
8
 73
4
 74
0
 40
0
 40
0
 40
0
 40
0
 40
1
 40
1
 40
1
 40
1
 10
165.165775
 20
71.920761
 30
0.0
 10
165.165991
 20
72.412145
 30
0.0
 10
164.903965
 20
72.866295
 30
0.0
 10
164.478450
 20
73.112049
 30
0.0
  0
SPLINE
  5
15b
100
AcDbEntity
  8
0
 62
7
100
AcDbSpline
 70
8
 71
3
 72
8
 73
4
 74
0
 40
0
 40
0
 40
0
 40
0
 40
1
 40
1
 40
1
 40
1
 10
164.478450
 20
73.112049
 30
0.0
 10
164.052935
 20
73.357803
 30
0.0
 10
163.528616
 20
73.357803
 30
0.0
 10
163.103101
 20
73.112049
 30
0.0
  0
SPLINE
  5
15c
100
AcDbEntity
  8
0
 62
7
100
AcDbSpline
 70
8
 71
3
 72
8
 73
4
 74
0
 40
0
 40
0
 40
0
 40
0
 40
1
 40
1
 40
1
 40
1
 10
163.103101
 20
73.112049
 30
0.0
 10
162.677586
 20
72.866295
 30
0.0
 10
162.415560
 20
72.412145
 30
0.0
 10
162.415776
 20
71.920761
 30
0.0
  0
SPLINE
  5
15d
100
AcDbEntity
  8
0
 62
7
100
AcDbSpline
 70
8
 71
3
 72
8
 73
4
 74
0
 40
0
 40
0
 40
0
 40
0
 40
1
 40
1
 40
1
 40
1
 10
162.415776
 20
71.920761
 30
0.0
 10
162.415560
 20
71.429378
 30
0.0
 10
162.677586
 20
70.975228
 30
0.0
 10
163.103101
 20
70.729474
 30
0.0
  0
SPLINE
  5
15e
100
AcDbEntity
  8
0
 62
7
100
AcDbSpline
 70
8
 71
3
 72
8
 73
4
 74
0
 40
0
 40
0
 40
0
 40
0
 40
1
 40
1
 40
1
 40
1
 10
163.103101
 20
70.729474
 30
0.0
 10
163.528616
 20
70.483720
 30
0.0
 10
164.052935
 20
70.483720
 30
0.0
 10
164.478450
 20
70.729474
 30
0.0
  0
SPLINE
  5
15f
100
AcDbEntity
  8
0
 62
7
100
AcDbSpline
 70
8
 71
3
 72
8
 73
4
 74
0
 40
0
 40
0
 40
0
 40
0
 40
1
 40
1
 40
1
 40
1
 10
164.478450
 20
70.729474
 30
0.0
 10
164.903965
 20
70.975228
 30
0.0
 10
165.165991
 20
71.429378
 30
0.0
 10
165.165775
 20
71.920761
 30
0.0
  0
LWPOLYLINE
  5
160
100
AcDbEntity
  8
0
 62
7
100
AcDbPolyline
 90
1
 70
1
 10
254.065775
 20
71.920761
 30
0.0
  0
SPLINE
  5
161
100
AcDbEntity
  8
0
 62
7
100
AcDbSpline
 70
8
 71
3
 72
8
 73
4
 74
0
 40
0
 40
0
 40
0
 40
0
 40
1
 40
1
 40
1
 40
1
 10
198.185775
 20
71.920761
 30
0.0
 10
198.185991
 20
72.412145
 30
0.0
 10
197.923965
 20
72.866295
 30
0.0
 10
197.498450
 20
73.112049
 30
0.0
  0
SPLINE
  5
162
100
AcDbEntity
  8
0
 62
7
100
AcDbSpline
 70
8
 71
3
 72
8
 73
4
 74
0
 40
0
 40
0
 40
0
 40
0
 40
1
 40
1
 40
1
 40
1
 10
197.498450
 20
73.112049
 30
0.0
 10
197.072935
 20
73.357803
 30
0.0
 10
196.548616
 20
73.357803
 30
0.0
 10
196.123101
 20
73.112049
 30
0.0
  0
SPLINE
  5
163
100
AcDbEntity
  8
0
 62
7
100
AcDbSpline
 70
8
 71
3
 72
8
 73
4
 74
0
 40
0
 40
0
 40
0
 40
0
 40
1
 40
1
 40
1
 40
1
 10
196.123101
 20
73.112049
 30
0.0
 10
195.697586
 20
72.866295
 30
0.0
 10
195.435560
 20
72.412145
 30
0.0
 10
195.435776
 20
71.920761
 30
0.0
  0
SPLINE
  5
164
100
AcDbEntity
  8
0
 62
7
100
AcDbSpline
 70
8
 71
3
 72
8
 73
4
 74
0
 40
0
 40
0
 40
0
 40
0
 40
1
 40
1
 40
1
 40
1
 10
195.435776
 20
71.920761
 30
0.0
 10
195.435560
 20
71.429378
 30
0.0
 10
195.697586
 20
70.975228
 30
0.0
 10
196.123101
 20
70.729474
 30
0.0
  0
SPLINE
  5
165
100
AcDbEntity
  8
0
 62
7
100
AcDbSpline
 70
8
 71
3
 72
8
 73
4
 74
0
 40
0
 40
0
 40
0
 40
0
 40
1
 40
1
 40
1
 40
1
 10
196.123101
 20
70.729474
 30
0.0
 10
196.548616
 20
70.483720
 30
0.0
 10
197.072935
 20
70.483720
 30
0.0
 10
197.498450
 20
70.729474
 30
0.0
  0
SPLINE
  5
166
100
AcDbEntity
  8
0
 62
7
100
AcDbSpline
 70
8
 71
3
 72
8
 73
4
 74
0
 40
0
 40
0
 40
0
 40
0
 40
1
 40
1
 40
1
 40
1
 10
197.498450
 20
70.729474
 30
0.0
 10
197.923965
 20
70.975228
 30
0.0
 10
198.185991
 20
71.429378
 30
0.0
 10
198.185775
 20
71.920761
 30
0.0
  0
LWPOLYLINE
  5
167
100
AcDbEntity
  8
0
 62
7
100
AcDbPolyline
 90
1
 70
1
 10
165.165775
 20
71.920761
 30
0.0
  0
SPLINE
  5
168
100
AcDbEntity
  8
0
 62
7
100
AcDbSpline
 70
8
 71
3
 72
8
 73
4
 74
0
 40
0
 40
0
 40
0
 40
0
 40
1
 40
1
 40
1
 40
1
 10
41.970775
 20
84.770780
 30
0.0
 10
41.970775
 20
85.663947
 30
0.0
 10
41.494276
 20
86.489267
 30
0.0
 10
40.720771
 20
86.935851
 30
0.0
  0
SPLINE
  5
169
100
AcDbEntity
  8
0
 62
7
100
AcDbSpline
 70
8
 71
3
 72
8
 73
4
 74
0
 40
0
 40
0
 40
0
 40
0
 40
1
 40
1
 40
1
 40
1
 10
40.720771
 20
86.935851
 30
0.0
 10
39.947265
 20
87.382434
 30
0.0
 10
38.994268
 20
87.382434
 30
0.0
 10
38.220762
 20
86.935851
 30
0.0
  0
SPLINE
  5
16a
100
AcDbEntity
  8
0
 62
7
100
AcDbSpline
 70
8
 71
3
 72
8
 73
4
 74
0
 40
0
 40
0
 40
0
 40
0
 40
1
 40
1
 40
1
 40
1
 10
38.220762
 20
86.935851
 30
0.0
 10
37.447257
 20
86.489267
 30
0.0
 10
36.970758
 20
85.663947
 30
0.0
 10
36.970758
 20
84.770780
 30
0.0
  0
SPLINE
  5
16b
100
AcDbEntity
  8
0
 62
7
100
AcDbSpline
 70
8
 71
3
 72
8
 73
4
 74
0
 40
0
 40
0
 40
0
 40
0
 40
1
 40
1
 40
1
 40
1
 10
36.970758
 20
84.770780
 30
0.0
 10
36.970758
 20
83.877613
 30
0.0
 10
37.447257
 20
83.052293
 30
0.0
 10
38.220762
 20
82.605710
 30
0.0
  0
SPLINE
  5
16c
100
AcDbEntity
  8
0
 62
7
100
AcDbSpline
 70
8
 71
3
 72
8
 73
4
 74
0
 40
0
 40
0
 40
0
 40
0
 40
1
 40
1
 40
1
 40
1
 10
38.220762
 20
82.605710
 30
0.0
 10
38.994268
 20
82.159126
 30
0.0
 10
39.947265
 20
82.159126
 30
0.0
 10
40.720771
 20
82.605710
 30
0.0
  0
SPLINE
  5
16d
100
AcDbEntity
  8
0
 62
7
100
AcDbSpline
 70
8
 71
3
 72
8
 73
4
 74
0
 40
0
 40
0
 40
0
 40
0
 40
1
 40
1
 40
1
 40
1
 10
40.720771
 20
82.605710
 30
0.0
 10
41.494276
 20
83.052293
 30
0.0
 10
41.970775
 20
83.877613
 30
0.0
 10
41.970775
 20
84.770780
 30
0.0
  0
LWPOLYLINE
  5
16e
100
AcDbEntity
  8
0
 62
7
100
AcDbPolyline
 90
1
 70
1
 10
198.185775
 20
71.920761
 30
0.0
  0
SPLINE
  5
16f
100
AcDbEntity
  8
0
 62
7
100
AcDbSpline
 70
8
 71
3
 72
8
 73
4
 74
0
 40
0
 40
0
 40
0
 40
0
 40
1
 40
1
 40
1
 40
1
 10
16.970772
 20
84.770780
 30
0.0
 10
16.972565
 20
85.665137
 30
0.0
 10
16.496462
 20
86.492324
 30
0.0
 10
15.722224
 20
86.940021
 30
0.0
  0
SPLINE
  5
170
100
AcDbEntity
  8
0
 62
7
100
AcDbSpline
 70
8
 71
3
 72
8
 73
4
 74
0
 40
0
 40
0
 40
0
 40
0
 40
1
 40
1
 40
1
 40
1
 10
15.722224
 20
86.940021
 30
0.0
 10
14.947986
 20
87.387718
 30
0.0
 10
13.993568
 20
87.387718
 30
0.0
 10
13.219330
 20
86.940021
 30
0.0
  0
SPLINE
  5
171
100
AcDbEntity
  8
0
 62
7
100
AcDbSpline
 70
8
 71
3
 72
8
 73
4
 74
0
 40
0
 40
0
 40
0
 40
0
 40
1
 40
1
 40
1
 40
1
 10
13.219330
 20
86.940021
 30
0.0
 10
12.445092
 20
86.492324
 30
0.0
 10
11.968988
 20
85.665137
 30
0.0
 10
11.970782
 20
84.770780
 30
0.0
  0
SPLINE
  5
172
100
AcDbEntity
  8
0
 62
7
100
AcDbSpline
 70
8
 71
3
 72
8
 73
4
 74
0
 40
0
 40
0
 40
0
 40
0
 40
1
 40
1
 40
1
 40
1
 10
11.970782
 20
84.770780
 30
0.0
 10
11.968988
 20
83.876424
 30
0.0
 10
12.445092
 20
83.049236
 30
0.0
 10
13.219330
 20
82.601539
 30
0.0
  0
SPLINE
  5
173
100
AcDbEntity
  8
0
 62
7
100
AcDbSpline
 70
8
 71
3
 72
8
 73
4
 74
0
 40
0
 40
0
 40
0
 40
0
 40
1
 40
1
 40
1
 40
1
 10
13.219330
 20
82.601539
 30
0.0
 10
13.993568
 20
82.153842
 30
0.0
 10
14.947986
 20
82.153842
 30
0.0
 10
15.722224
 20
82.601539
 30
0.0
  0
SPLINE
  5
174
100
AcDbEntity
  8
0
 62
7
100
AcDbSpline
 70
8
 71
3
 72
8
 73
4
 74
0
 40
0
 40
0
 40
0
 40
0
 40
1
 40
1
 40
1
 40
1
 10
15.722224
 20
82.601539
 30
0.0
 10
16.496462
 20
83.049236
 30
0.0
 10
16.972565
 20
83.876424
 30
0.0
 10
16.970772
 20
84.770780
 30
0.0
  0
LWPOLYLINE
  5
175
100
AcDbEntity
  8
0
 62
7
100
AcDbPolyline
 90
1
 70
1
 10
41.970775
 20
84.770780
 30
0.0
  0
SPLINE
  5
176
100
AcDbEntity
  8
0
 62
7
100
AcDbSpline
 70
8
 71
3
 72
8
 73
4
 74
0
 40
0
 40
0
 40
0
 40
0
 40
1
 40
1
 40
1
 40
1
 10
442.270780
 20
84.770780
 30
0.0
 10
442.270780
 20
85.663947
 30
0.0
 10
441.794281
 20
86.489267
 30
0.0
 10
441.020775
 20
86.935851
 30
0.0
  0
SPLINE
  5
177
100
AcDbEntity
  8
0
 62
7
100
AcDbSpline
 70
8
 71
3
 72
8
 73
4
 74
0
 40
0
 40
0
 40
0
 40
0
 40
1
 40
1
 40
1
 40
1
 10
441.020775
 20
86.935851
 30
0.0
 10
440.247270
 20
87.382434
 30
0.0
 10
439.294272
 20
87.382434
 30
0.0
 10
438.520767
 20
86.935851
 30
0.0
  0
SPLINE
  5
178
100
AcDbEntity
  8
0
 62
7
100
AcDbSpline
 70
8
 71
3
 72
8
 73
4
 74
0
 40
0
 40
0
 40
0
 40
0
 40
1
 40
1
 40
1
 40
1
 10
438.520767
 20
86.935851
 30
0.0
 10
437.747262
 20
86.489267
 30
0.0
 10
437.270763
 20
85.663947
 30
0.0
 10
437.270763
 20
84.770780
 30
0.0
  0
SPLINE
  5
179
100
AcDbEntity
  8
0
 62
7
100
AcDbSpline
 70
8
 71
3
 72
8
 73
4
 74
0
 40
0
 40
0
 40
0
 40
0
 40
1
 40
1
 40
1
 40
1
 10
437.270763
 20
84.770780
 30
0.0
 10
437.270763
 20
83.877613
 30
0.0
 10
437.747262
 20
83.052293
 30
0.0
 10
438.520767
 20
82.605710
 30
0.0
  0
SPLINE
  5
17a
100
AcDbEntity
  8
0
 62
7
100
AcDbSpline
 70
8
 71
3
 72
8
 73
4
 74
0
 40
0
 40
0
 40
0
 40
0
 40
1
 40
1
 40
1
 40
1
 10
438.520767
 20
82.605710
 30
0.0
 10
439.294272
 20
82.159126
 30
0.0
 10
440.247270
 20
82.159126
 30
0.0
 10
441.020775
 20
82.605710
 30
0.0
  0
SPLINE
  5
17b
100
AcDbEntity
  8
0
 62
7
100
AcDbSpline
 70
8
 71
3
 72
8
 73
4
 74
0
 40
0
 40
0
 40
0
 40
0
 40
1
 40
1
 40
1
 40
1
 10
441.020775
 20
82.605710
 30
0.0
 10
441.794281
 20
83.052293
 30
0.0
 10
442.270780
 20
83.877613
 30
0.0
 10
442.270780
 20
84.770780
 30
0.0
  0
LWPOLYLINE
  5
17c
100
AcDbEntity
  8
0
 62
7
100
AcDbPolyline
 90
1
 70
1
 10
16.970772
 20
84.770780
 30
0.0
  0
SPLINE
  5
17d
100
AcDbEntity
  8
0
 62
7
100
AcDbSpline
 70
8
 71
3
 72
8
 73
4
 74
0
 40
0
 40
0
 40
0
 40
0
 40
1
 40
1
 40
1
 40
1
 10
467.270782
 20
84.770780
 30
0.0
 10
467.270782
 20
85.663947
 30
0.0
 10
466.794284
 20
86.489267
 30
0.0
 10
466.020778
 20
86.935851
 30
0.0
  0
SPLINE
  5
17e
100
AcDbEntity
  8
0
 62
7
100
AcDbSpline
 70
8
 71
3
 72
8
 73
4
 74
0
 40
0
 40
0
 40
0
 40
0
 40
1
 40
1
 40
1
 40
1
 10
466.020778
 20
86.935851
 30
0.0
 10
465.247273
 20
87.382434
 30
0.0
 10
464.294275
 20
87.382434
 30
0.0
 10
463.520770
 20
86.935851
 30
0.0
  0
SPLINE
  5
17f
100
AcDbEntity
  8
0
 62
7
100
AcDbSpline
 70
8
 71
3
 72
8
 73
4
 74
0
 40
0
 40
0
 40
0
 40
0
 40
1
 40
1
 40
1
 40
1
 10
463.520770
 20
86.935851
 30
0.0
 10
462.747265
 20
86.489267
 30
0.0
 10
462.270766
 20
85.663947
 30
0.0
 10
462.270766
 20
84.770780
 30
0.0
  0
SPLINE
  5
180
100
AcDbEntity
  8
0
 62
7
100
AcDbSpline
 70
8
 71
3
 72
8
 73
4
 74
0
 40
0
 40
0
 40
0
 40
0
 40
1
 40
1
 40
1
 40
1
 10
462.270766
 20
84.770780
 30
0.0
 10
462.270766
 20
83.877613
 30
0.0
 10
462.747265
 20
83.052293
 30
0.0
 10
463.520770
 20
82.605710
 30
0.0
  0
SPLINE
  5
181
100
AcDbEntity
  8
0
 62
7
100
AcDbSpline
 70
8
 71
3
 72
8
 73
4
 74
0
 40
0
 40
0
 40
0
 40
0
 40
1
 40
1
 40
1
 40
1
 10
463.520770
 20
82.605710
 30
0.0
 10
464.294275
 20
82.159126
 30
0.0
 10
465.247273
 20
82.159126
 30
0.0
 10
466.020778
 20
82.605710
 30
0.0
  0
SPLINE
  5
182
100
AcDbEntity
  8
0
 62
7
100
AcDbSpline
 70
8
 71
3
 72
8
 73
4
 74
0
 40
0
 40
0
 40
0
 40
0
 40
1
 40
1
 40
1
 40
1
 10
466.020778
 20
82.605710
 30
0.0
 10
466.794284
 20
83.052293
 30
0.0
 10
467.270782
 20
83.877613
 30
0.0
 10
467.270782
 20
84.770780
 30
0.0
  0
LWPOLYLINE
  5
183
100
AcDbEntity
  8
0
 62
7
100
AcDbPolyline
 90
1
 70
1
 10
442.270780
 20
84.770780
 30
0.0
  0
LWPOLYLINE
  5
184
100
AcDbEntity
  8
0
 62
7
100
AcDbPolyline
 90
1
 70
1
 10
467.270782
 20
84.770780
 30
0.0
  0
LWPOLYLINE
  5
185
100
AcDbEntity
  8
0
 62
7
100
AcDbPolyline
 90
2
 70
0
 10
100.120767
 20
143.770773
 30
0.0
 10
100.120767
 20
150.120747
 30
0.0
  0
LWPOLYLINE
  5
186
100
AcDbEntity
  8
0
 62
7
100
AcDbPolyline
 90
2
 70
0
 10
271.420749
 20
143.770773
 30
0.0
 10
100.120767
 20
143.770773
 30
0.0
  0
LWPOLYLINE
  5
187
100
AcDbEntity
  8
0
 62
7
100
AcDbPolyline
 90
2
 70
0
 10
379.120770
 20
150.120747
 30
0.0
 10
379.120770
 20
143.770773
 30
0.0
  0
LWPOLYLINE
  5
188
100
AcDbEntity
  8
0
 62
7
100
AcDbPolyline
 90
2
 70
0
 10
427.770766
 20
150.120747
 30
0.0
 10
379.120770
 20
150.120747
 30
0.0
  0
LWPOLYLINE
  5
189
100
AcDbEntity
  8
0
 62
7
100
AcDbPolyline
 90
2
 70
0
 10
479.120782
 20
0.120782
 30
0.0
 10
479.120782
 20
150.120747
 30
0.0
  0
LWPOLYLINE
  5
18a
100
AcDbEntity
  8
0
 62
7
100
AcDbPolyline
 90
2
 70
0
 10
379.120770
 20
0.120782
 30
0.0
 10
479.120782
 20
0.120782
 30
0.0
  0
LWPOLYLINE
  5
18b
100
AcDbEntity
  8
0
 62
7
100
AcDbPolyline
 90
2
 70
0
 10
379.120770
 20
6.470756
 30
0.0
 10
379.120770
 20
0.120782
 30
0.0
  0
LWPOLYLINE
  5
18c
100
AcDbEntity
  8
0
 62
7
100
AcDbPolyline
 90
2
 70
0
 10
100.120767
 20
6.470756
 30
0.0
 10
379.120770
 20
6.470756
 30
0.0
  0
LWPOLYLINE
  5
18d
100
AcDbEntity
  8
0
 62
7
100
AcDbPolyline
 90
2
 70
0
 10
100.120767
 20
0.120782
 30
0.0
 10
100.120767
 20
6.470756
 30
0.0
  0
LWPOLYLINE
  5
18e
100
AcDbEntity
  8
0
 62
7
100
AcDbPolyline
 90
2
 70
0
 10
0.120782
 20
0.120782
 30
0.0
 10
100.120767
 20
0.120782
 30
0.0
  0
LWPOLYLINE
  5
18f
100
AcDbEntity
  8
0
 62
7
100
AcDbPolyline
 90
2
 70
0
 10
0.120782
 20
150.120747
 30
0.0
 10
0.120782
 20
0.120782
 30
0.0
  0
LWPOLYLINE
  5
190
100
AcDbEntity
  8
0
 62
7
100
AcDbPolyline
 90
2
 70
0
 10
100.120767
 20
150.120747
 30
0.0
 10
0.120782
 20
150.120747
 30
0.0
  0
LWPOLYLINE
  5
191
100
AcDbEntity
  8
0
 62
7
100
AcDbPolyline
 90
2
 70
0
 10
379.120770
 20
143.770773
 30
0.0
 10
277.770775
 20
143.770773
 30
0.0
  0
LWPOLYLINE
  5
192
100
AcDbEntity
  8
0
 62
7
100
AcDbPolyline
 90
2
 70
0
 10
479.120782
 20
150.120747
 30
0.0
 10
434.120766
 20
150.120747
 30
0.0
  0
LWPOLYLINE
  5
193
100
AcDbEntity
  8
0
 62
7
100
AcDbPolyline
 90
2
 70
0
 10
274.270787
 20
256.470759
 30
0.0
 10
274.270787
 20
236.470772
 30
0.0
  0
LWPOLYLINE
  5
194
100
AcDbEntity
  8
0
 62
7
100
AcDbPolyline
 90
2
 70
0
 10
294.270774
 20
256.470759
 30
0.0
 10
274.270787
 20
256.470759
 30
0.0
  0
SPLINE
  5
195
100
AcDbEntity
  8
0
 62
7
100
AcDbSpline
 70
8
 71
3
 72
8
 73
4
 74
0
 40
0
 40
0
 40
0
 40
0
 40
1
 40
1
 40
1
 40
1
 10
416.179714
 20
208.844594
 30
0.0
 10
397.805784
 20
230.028016
 30
0.0
 10
367.459538
 20
236.160447
 30
0.0
 10
342.301742
 20
223.774006
 30
0.0
  0
SPLINE
  5
196
100
AcDbEntity
  8
0
 62
7
100
AcDbSpline
 70
8
 71
3
 72
8
 73
4
 74
0
 40
0
 40
0
 40
0
 40
0
 40
1
 40
1
 40
1
 40
1
 10
342.301742
 20
223.774006
 30
0.0
 10
317.143946
 20
211.387564
 30
0.0
 10
303.499922
 20
183.596522
 30
0.0
 10
309.085350
 20
156.116681
 30
0.0
  0
SPLINE
  5
197
100
AcDbEntity
  8
0
 62
7
100
AcDbSpline
 70
8
 71
3
 72
8
 73
4
 74
0
 40
0
 40
0
 40
0
 40
0
 40
1
 40
1
 40
1
 40
1
 10
428.620767
 20
241.120771
 30
0.0
 10
428.622412
 20
242.550928
 30
0.0
 10
427.860376
 20
243.873153
 30
0.0
 10
426.622097
 20
244.588706
 30
0.0
  0
SPLINE
  5
198
100
AcDbEntity
  8
0
 62
7
100
AcDbSpline
 70
8
 71
3
 72
8
 73
4
 74
0
 40
0
 40
0
 40
0
 40
0
 40
1
 40
1
 40
1
 40
1
 10
426.622097
 20
244.588706
 30
0.0
 10
425.383818
 20
245.304260
 30
0.0
 10
423.857721
 20
245.304260
 30
0.0
 10
422.619441
 20
244.588706
 30
0.0
  0
SPLINE
  5
199
100
AcDbEntity
  8
0
 62
7
100
AcDbSpline
 70
8
 71
3
 72
8
 73
4
 74
0
 40
0
 40
0
 40
0
 40
0
 40
1
 40
1
 40
1
 40
1
 10
422.619441
 20
244.588706
 30
0.0
 10
421.381162
 20
243.873153
 30
0.0
 10
420.619127
 20
242.550928
 30
0.0
 10
420.620772
 20
241.120771
 30
0.0
  0
SPLINE
  5
19a
100
AcDbEntity
  8
0
 62
7
100
AcDbSpline
 70
8
 71
3
 72
8
 73
4
 74
0
 40
0
 40
0
 40
0
 40
0
 40
1
 40
1
 40
1
 40
1
 10
420.620772
 20
241.120771
 30
0.0
 10
420.619127
 20
239.690614
 30
0.0
 10
421.381162
 20
238.368390
 30
0.0
 10
422.619441
 20
237.652836
 30
0.0
  0
SPLINE
  5
19b
100
AcDbEntity
  8
0
 62
7
100
AcDbSpline
 70
8
 71
3
 72
8
 73
4
 74
0
 40
0
 40
0
 40
0
 40
0
 40
1
 40
1
 40
1
 40
1
 10
422.619441
 20
237.652836
 30
0.0
 10
423.857721
 20
236.937282
 30
0.0
 10
425.383818
 20
236.937282
 30
0.0
 10
426.622097
 20
237.652836
 30
0.0
  0
SPLINE
  5
19c
100
AcDbEntity
  8
0
 62
7
100
AcDbSpline
 70
8
 71
3
 72
8
 73
4
 74
0
 40
0
 40
0
 40
0
 40
0
 40
1
 40
1
 40
1
 40
1
 10
426.622097
 20
237.652836
 30
0.0
 10
427.860376
 20
238.368390
 30
0.0
 10
428.622412
 20
239.690614
 30
0.0
 10
428.620767
 20
241.120771
 30
0.0
  0
LWPOLYLINE
  5
19d
100
AcDbEntity
  8
0
 62
7
100
AcDbPolyline
 90
2
 70
0
 10
419.956853
 20
207.120781
 30
0.0
 10
426.620755
 20
207.120781
 30
0.0
  0
LWPOLYLINE
  5
19e
100
AcDbEntity
  8
0
 62
7
100
AcDbPolyline
 90
1
 70
1
 10
428.620767
 20
241.120771
 30
0.0
  0
LWPOLYLINE
  5
19f
100
AcDbEntity
  8
0
 62
7
100
AcDbPolyline
 90
2
 70
0
 10
411.620785
 20
256.470759
 30
0.0
 10
411.620785
 20
250.120785
 30
0.0
  0
SPLINE
  5
1a0
100
AcDbEntity
  8
0
 62
7
100
AcDbSpline
 70
8
 71
3
 72
8
 73
4
 74
0
 40
0
 40
0
 40
0
 40
0
 40
1
 40
1
 40
1
 40
1
 10
428.620767
 20
214.120783
 30
0.0
 10
428.622412
 20
215.550940
 30
0.0
 10
427.860376
 20
216.873164
 30
0.0
 10
426.622097
 20
217.588718
 30
0.0
  0
SPLINE
  5
1a1
100
AcDbEntity
  8
0
 62
7
100
AcDbSpline
 70
8
 71
3
 72
8
 73
4
 74
0
 40
0
 40
0
 40
0
 40
0
 40
1
 40
1
 40
1
 40
1
 10
426.622097
 20
217.588718
 30
0.0
 10
425.383818
 20
218.304272
 30
0.0
 10
423.857721
 20
218.304272
 30
0.0
 10
422.619441
 20
217.588718
 30
0.0
  0
SPLINE
  5
1a2
100
AcDbEntity
  8
0
 62
7
100
AcDbSpline
 70
8
 71
3
 72
8
 73
4
 74
0
 40
0
 40
0
 40
0
 40
0
 40
1
 40
1
 40
1
 40
1
 10
422.619441
 20
217.588718
 30
0.0
 10
421.381162
 20
216.873164
 30
0.0
 10
420.619127
 20
215.550940
 30
0.0
 10
420.620772
 20
214.120783
 30
0.0
  0
SPLINE
  5
1a3
100
AcDbEntity
  8
0
 62
7
100
AcDbSpline
 70
8
 71
3
 72
8
 73
4
 74
0
 40
0
 40
0
 40
0
 40
0
 40
1
 40
1
 40
1
 40
1
 10
420.620772
 20
214.120783
 30
0.0
 10
420.619127
 20
212.690626
 30
0.0
 10
421.381162
 20
211.368402
 30
0.0
 10
422.619441
 20
210.652848
 30
0.0
  0
SPLINE
  5
1a4
100
AcDbEntity
  8
0
 62
7
100
AcDbSpline
 70
8
 71
3
 72
8
 73
4
 74
0
 40
0
 40
0
 40
0
 40
0
 40
1
 40
1
 40
1
 40
1
 10
422.619441
 20
210.652848
 30
0.0
 10
423.857721
 20
209.937294
 30
0.0
 10
425.383818
 20
209.937294
 30
0.0
 10
426.622097
 20
210.652848
 30
0.0
  0
SPLINE
  5
1a5
100
AcDbEntity
  8
0
 62
7
100
AcDbSpline
 70
8
 71
3
 72
8
 73
4
 74
0
 40
0
 40
0
 40
0
 40
0
 40
1
 40
1
 40
1
 40
1
 10
426.622097
 20
210.652848
 30
0.0
 10
427.860376
 20
211.368402
 30
0.0
 10
428.622412
 20
212.690626
 30
0.0
 10
428.620767
 20
214.120783
 30
0.0
  0
LWPOLYLINE
  5
1a6
100
AcDbEntity
  8
0
 62
7
100
AcDbPolyline
 90
2
 70
0
 10
274.270787
 20
163.770760
 30
0.0
 10
274.270787
 20
143.770773
 30
0.0
  0
LWPOLYLINE
  5
1a7
100
AcDbEntity
  8
0
 62
7
100
AcDbPolyline
 90
1
 70
1
 10
428.620767
 20
214.120783
 30
0.0
  0
LWPOLYLINE
  5
1a8
100
AcDbEntity
  8
0
 62
7
100
AcDbPolyline
 90
2
 70
0
 10
290.620767
 20
150.120747
 30
0.0
 10
304.185532
 20
150.120747
 30
0.0
  0
SPLINE
  5
1a9
100
AcDbEntity
  8
0
 62
7
100
AcDbSpline
 70
8
 71
3
 72
8
 73
4
 74
0
 40
0
 40
0
 40
0
 40
0
 40
1
 40
1
 40
1
 40
1
 10
416.179714
 20
208.844594
 30
0.0
 10
417.129404
 20
207.749697
 30
0.0
 10
418.507470
 20
207.120774
 30
0.0
 10
419.956853
 20
207.120781
 30
0.0
  0
LWPOLYLINE
  5
1aa
100
AcDbEntity
  8
0
 62
7
100
AcDbPolyline
 90
2
 70
0
 10
290.620767
 20
143.770773
 30
0.0
 10
290.620767
 20
150.120747
 30
0.0
  0
LWPOLYLINE
  5
1ab
100
AcDbEntity
  8
0
 62
7
100
AcDbPolyline
 90
2
 70
0
 10
274.270787
 20
236.470772
 30
0.0
 10
280.620761
 20
236.470772
 30
0.0
  0
LWPOLYLINE
  5
1ac
100
AcDbEntity
  8
0
 62
7
100
AcDbPolyline
 90
2
 70
0
 10
280.620761
 20
163.770760
 30
0.0
 10
274.270787
 20
163.770760
 30
0.0
  0
LWPOLYLINE
  5
1ad
100
AcDbEntity
  8
0
 62
7
100
AcDbPolyline
 90
2
 70
0
 10
280.620761
 20
236.470772
 30
0.0
 10
280.620761
 20
163.770760
 30
0.0
  0
LWPOLYLINE
  5
1ae
100
AcDbEntity
  8
0
 62
7
100
AcDbPolyline
 90
2
 70
0
 10
294.270774
 20
250.120785
 30
0.0
 10
294.270774
 20
256.470759
 30
0.0
  0
LWPOLYLINE
  5
1af
100
AcDbEntity
  8
0
 62
7
100
AcDbPolyline
 90
2
 70
0
 10
411.620785
 20
250.120785
 30
0.0
 10
294.270774
 20
250.120785
 30
0.0
  0
LWPOLYLINE
  5
1b0
100
AcDbEntity
  8
0
 62
7
100
AcDbPolyline
 90
2
 70
0
 10
431.620771
 20
256.470759
 30
0.0
 10
411.620785
 20
256.470759
 30
0.0
  0
SPLINE
  5
1b1
100
AcDbEntity
  8
0
 62
7
100
AcDbSpline
 70
8
 71
3
 72
8
 73
4
 74
0
 40
0
 40
0
 40
0
 40
0
 40
1
 40
1
 40
1
 40
1
 10
304.185532
 20
150.120773
 30
0.0
 10
305.686236
 20
150.120772
 30
0.0
 10
307.107583
 20
150.794833
 30
0.0
 10
308.057198
 20
151.956876
 30
0.0
  0
SPLINE
  5
1b2
100
AcDbEntity
  8
0
 62
7
100
AcDbSpline
 70
8
 71
3
 72
8
 73
4
 74
0
 40
0
 40
0
 40
0
 40
0
 40
1
 40
1
 40
1
 40
1
 10
308.057198
 20
151.956876
 30
0.0
 10
309.006813
 20
153.118920
 30
0.0
 10
309.384263
 20
154.646047
 30
0.0
 10
309.085350
 20
156.116681
 30
0.0
  0
LWPOLYLINE
  5
1b3
100
AcDbEntity
  8
0
 62
7
100
AcDbPolyline
 90
2
 70
0
 10
431.620771
 20
212.120797
 30
0.0
 10
431.620771
 20
256.470759
 30
0.0
  0
SPLINE
  5
1b4
100
AcDbEntity
  8
0
 62
7
100
AcDbSpline
 70
8
 71
3
 72
8
 73
4
 74
0
 40
0
 40
0
 40
0
 40
0
 40
1
 40
1
 40
1
 40
1
 10
426.620781
 20
207.120781
 30
0.0
 10
429.382197
 20
207.120787
 30
0.0
 10
431.620766
 20
209.359355
 30
0.0
 10
431.620771
 20
212.120771
 30
0.0
  0
SPLINE
  5
1b5
100
AcDbEntity
  8
0
 62
7
100
AcDbSpline
 70
8
 71
3
 72
8
 73
4
 74
0
 40
0
 40
0
 40
0
 40
0
 40
1
 40
1
 40
1
 40
1
 10
290.270777
 20
108.770764
 30
0.0
 10
290.270777
 20
109.663931
 30
0.0
 10
289.794278
 20
110.489251
 30
0.0
 10
289.020773
 20
110.935835
 30
0.0
  0
SPLINE
  5
1b6
100
AcDbEntity
  8
0
 62
7
100
AcDbSpline
 70
8
 71
3
 72
8
 73
4
 74
0
 40
0
 40
0
 40
0
 40
0
 40
1
 40
1
 40
1
 40
1
 10
289.020773
 20
110.935835
 30
0.0
 10
288.247267
 20
111.382418
 30
0.0
 10
287.294270
 20
111.382418
 30
0.0
 10
286.520764
 20
110.935835
 30
0.0
  0
SPLINE
  5
1b7
100
AcDbEntity
  8
0
 62
7
100
AcDbSpline
 70
8
 71
3
 72
8
 73
4
 74
0
 40
0
 40
0
 40
0
 40
0
 40
1
 40
1
 40
1
 40
1
 10
286.520764
 20
110.935835
 30
0.0
 10
285.747259
 20
110.489251
 30
0.0
 10
285.270760
 20
109.663931
 30
0.0
 10
285.270760
 20
108.770764
 30
0.0
  0
SPLINE
  5
1b8
100
AcDbEntity
  8
0
 62
7
100
AcDbSpline
 70
8
 71
3
 72
8
 73
4
 74
0
 40
0
 40
0
 40
0
 40
0
 40
1
 40
1
 40
1
 40
1
 10
285.270760
 20
108.770764
 30
0.0
 10
285.270760
 20
107.877597
 30
0.0
 10
285.747259
 20
107.052277
 30
0.0
 10
286.520764
 20
106.605693
 30
0.0
  0
SPLINE
  5
1b9
100
AcDbEntity
  8
0
 62
7
100
AcDbSpline
 70
8
 71
3
 72
8
 73
4
 74
0
 40
0
 40
0
 40
0
 40
0
 40
1
 40
1
 40
1
 40
1
 10
286.520764
 20
106.605693
 30
0.0
 10
287.294270
 20
106.159110
 30
0.0
 10
288.247267
 20
106.159110
 30
0.0
 10
289.020773
 20
106.605693
 30
0.0
  0
SPLINE
  5
1ba
100
AcDbEntity
  8
0
 62
7
100
AcDbSpline
 70
8
 71
3
 72
8
 73
4
 74
0
 40
0
 40
0
 40
0
 40
0
 40
1
 40
1
 40
1
 40
1
 10
289.020773
 20
106.605693
 30
0.0
 10
289.794278
 20
107.052277
 30
0.0
 10
290.270777
 20
107.877597
 30
0.0
 10
290.270777
 20
108.770764
 30
0.0
  0
LWPOLYLINE
  5
1bb
100
AcDbEntity
  8
0
 62
7
100
AcDbPolyline
 90
2
 70
0
 10
274.270787
 20
143.770773
 30
0.0
 10
290.620767
 20
143.770773
 30
0.0
  0
SPLINE
  5
1bc
100
AcDbEntity
  8
0
 62
7
100
AcDbSpline
 70
8
 71
3
 72
8
 73
4
 74
0
 40
0
 40
0
 40
0
 40
0
 40
1
 40
1
 40
1
 40
1
 10
315.270780
 20
108.770764
 30
0.0
 10
315.270780
 20
109.663931
 30
0.0
 10
314.794281
 20
110.489251
 30
0.0
 10
314.020775
 20
110.935835
 30
0.0
  0
SPLINE
  5
1bd
100
AcDbEntity
  8
0
 62
7
100
AcDbSpline
 70
8
 71
3
 72
8
 73
4
 74
0
 40
0
 40
0
 40
0
 40
0
 40
1
 40
1
 40
1
 40
1
 10
314.020775
 20
110.935835
 30
0.0
 10
313.247270
 20
111.382418
 30
0.0
 10
312.294272
 20
111.382418
 30
0.0
 10
311.520767
 20
110.935835
 30
0.0
  0
SPLINE
  5
1be
100
AcDbEntity
  8
0
 62
7
100
AcDbSpline
 70
8
 71
3
 72
8
 73
4
 74
0
 40
0
 40
0
 40
0
 40
0
 40
1
 40
1
 40
1
 40
1
 10
311.520767
 20
110.935835
 30
0.0
 10
310.747262
 20
110.489251
 30
0.0
 10
310.270763
 20
109.663931
 30
0.0
 10
310.270763
 20
108.770764
 30
0.0
  0
SPLINE
  5
1bf
100
AcDbEntity
  8
0
 62
7
100
AcDbSpline
 70
8
 71
3
 72
8
 73
4
 74
0
 40
0
 40
0
 40
0
 40
0
 40
1
 40
1
 40
1
 40
1
 10
310.270763
 20
108.770764
 30
0.0
 10
310.270763
 20
107.877597
 30
0.0
 10
310.747262
 20
107.052277
 30
0.0
 10
311.520767
 20
106.605693
 30
0.0
  0
SPLINE
  5
1c0
100
AcDbEntity
  8
0
 62
7
100
AcDbSpline
 70
8
 71
3
 72
8
 73
4
 74
0
 40
0
 40
0
 40
0
 40
0
 40
1
 40
1
 40
1
 40
1
 10
311.520767
 20
106.605693
 30
0.0
 10
312.294272
 20
106.159110
 30
0.0
 10
313.247270
 20
106.159110
 30
0.0
 10
314.020775
 20
106.605693
 30
0.0
  0
SPLINE
  5
1c1
100
AcDbEntity
  8
0
 62
7
100
AcDbSpline
 70
8
 71
3
 72
8
 73
4
 74
0
 40
0
 40
0
 40
0
 40
0
 40
1
 40
1
 40
1
 40
1
 10
314.020775
 20
106.605693
 30
0.0
 10
314.794281
 20
107.052277
 30
0.0
 10
315.270780
 20
107.877597
 30
0.0
 10
315.270780
 20
108.770764
 30
0.0
  0
LWPOLYLINE
  5
1c2
100
AcDbEntity
  8
0
 62
7
100
AcDbPolyline
 90
1
 70
1
 10
290.270777
 20
108.770764
 30
0.0
  0
SPLINE
  5
1c3
100
AcDbEntity
  8
0
 62
7
100
AcDbSpline
 70
8
 71
3
 72
8
 73
4
 74
0
 40
0
 40
0
 40
0
 40
0
 40
1
 40
1
 40
1
 40
1
 10
307.270759
 20
108.770764
 30
0.0
 10
307.275273
 20
111.274625
 30
0.0
 10
305.942071
 20
113.590222
 30
0.0
 10
303.774413
 20
114.843458
 30
0.0
  0
SPLINE
  5
1c4
100
AcDbEntity
  8
0
 62
7
100
AcDbSpline
 70
8
 71
3
 72
8
 73
4
 74
0
 40
0
 40
0
 40
0
 40
0
 40
1
 40
1
 40
1
 40
1
 10
303.774413
 20
114.843458
 30
0.0
 10
301.606754
 20
116.096693
 30
0.0
 10
298.934785
 20
116.096693
 30
0.0
 10
296.767127
 20
114.843458
 30
0.0
  0
SPLINE
  5
1c5
100
AcDbEntity
  8
0
 62
7
100
AcDbSpline
 70
8
 71
3
 72
8
 73
4
 74
0
 40
0
 40
0
 40
0
 40
0
 40
1
 40
1
 40
1
 40
1
 10
296.767127
 20
114.843458
 30
0.0
 10
294.599469
 20
113.590222
 30
0.0
 10
293.266267
 20
111.274625
 30
0.0
 10
293.270781
 20
108.770764
 30
0.0
  0
SPLINE
  5
1c6
100
AcDbEntity
  8
0
 62
7
100
AcDbSpline
 70
8
 71
3
 72
8
 73
4
 74
0
 40
0
 40
0
 40
0
 40
0
 40
1
 40
1
 40
1
 40
1
 10
293.270781
 20
108.770764
 30
0.0
 10
293.266267
 20
106.266903
 30
0.0
 10
294.599469
 20
103.951306
 30
0.0
 10
296.767127
 20
102.698070
 30
0.0
  0
SPLINE
  5
1c7
100
AcDbEntity
  8
0
 62
7
100
AcDbSpline
 70
8
 71
3
 72
8
 73
4
 74
0
 40
0
 40
0
 40
0
 40
0
 40
1
 40
1
 40
1
 40
1
 10
296.767127
 20
102.698070
 30
0.0
 10
298.934785
 20
101.444834
 30
0.0
 10
301.606754
 20
101.444834
 30
0.0
 10
303.774413
 20
102.698070
 30
0.0
  0
SPLINE
  5
1c8
100
AcDbEntity
  8
0
 62
7
100
AcDbSpline
 70
8
 71
3
 72
8
 73
4
 74
0
 40
0
 40
0
 40
0
 40
0
 40
1
 40
1
 40
1
 40
1
 10
303.774413
 20
102.698070
 30
0.0
 10
305.942071
 20
103.951306
 30
0.0
 10
307.275273
 20
106.266903
 30
0.0
 10
307.270759
 20
108.770764
 30
0.0
  0
LWPOLYLINE
  5
1c9
100
AcDbEntity
  8
0
 62
7
100
AcDbPolyline
 90
1
 70
1
 10
315.270780
 20
108.770764
 30
0.0
  0
LWPOLYLINE
  5
1ca
100
AcDbEntity
  8
0
 62
7
100
AcDbPolyline
 90
1
 70
1
 10
307.270759
 20
108.770764
 30
0.0
  0
LWPOLYLINE
  5
1cb
100
AcDbEntity
  8
0
 62
7
100
AcDbPolyline
 90
2
 70
0
 10
282.770765
 20
98.770758
 30
0.0
 10
317.770748
 20
98.770758
 30
0.0
  0
LWPOLYLINE
  5
1cc
100
AcDbEntity
  8
0
 62
7
100
AcDbPolyline
 90
2
 70
0
 10
282.770765
 20
118.770797
 30
0.0
 10
282.770765
 20
98.770758
 30
0.0
  0
LWPOLYLINE
  5
1cd
100
AcDbEntity
  8
0
 62
7
100
AcDbPolyline
 90
2
 70
0
 10
317.770748
 20
118.770797
 30
0.0
 10
282.770765
 20
118.770797
 30
0.0
  0
SPLINE
  5
1ce
100
AcDbEntity
  8
0
 62
7
100
AcDbSpline
 70
8
 71
3
 72
8
 73
4
 74
0
 40
0
 40
0
 40
0
 40
0
 40
1
 40
1
 40
1
 40
1
 10
290.270777
 20
128.770777
 30
0.0
 10
290.270777
 20
129.663944
 30
0.0
 10
289.794278
 20
130.489264
 30
0.0
 10
289.020773
 20
130.935848
 30
0.0
  0
SPLINE
  5
1cf
100
AcDbEntity
  8
0
 62
7
100
AcDbSpline
 70
8
 71
3
 72
8
 73
4
 74
0
 40
0
 40
0
 40
0
 40
0
 40
1
 40
1
 40
1
 40
1
 10
289.020773
 20
130.935848
 30
0.0
 10
288.247267
 20
131.382431
 30
0.0
 10
287.294270
 20
131.382431
 30
0.0
 10
286.520764
 20
130.935848
 30
0.0
  0
SPLINE
  5
1d0
100
AcDbEntity
  8
0
 62
7
100
AcDbSpline
 70
8
 71
3
 72
8
 73
4
 74
0
 40
0
 40
0
 40
0
 40
0
 40
1
 40
1
 40
1
 40
1
 10
286.520764
 20
130.935848
 30
0.0
 10
285.747259
 20
130.489264
 30
0.0
 10
285.270760
 20
129.663944
 30
0.0
 10
285.270760
 20
128.770777
 30
0.0
  0
SPLINE
  5
1d1
100
AcDbEntity
  8
0
 62
7
100
AcDbSpline
 70
8
 71
3
 72
8
 73
4
 74
0
 40
0
 40
0
 40
0
 40
0
 40
1
 40
1
 40
1
 40
1
 10
285.270760
 20
128.770777
 30
0.0
 10
285.270760
 20
127.877610
 30
0.0
 10
285.747259
 20
127.052290
 30
0.0
 10
286.520764
 20
126.605706
 30
0.0
  0
SPLINE
  5
1d2
100
AcDbEntity
  8
0
 62
7
100
AcDbSpline
 70
8
 71
3
 72
8
 73
4
 74
0
 40
0
 40
0
 40
0
 40
0
 40
1
 40
1
 40
1
 40
1
 10
286.520764
 20
126.605706
 30
0.0
 10
287.294270
 20
126.159123
 30
0.0
 10
288.247267
 20
126.159123
 30
0.0
 10
289.020773
 20
126.605706
 30
0.0
  0
SPLINE
  5
1d3
100
AcDbEntity
  8
0
 62
7
100
AcDbSpline
 70
8
 71
3
 72
8
 73
4
 74
0
 40
0
 40
0
 40
0
 40
0
 40
1
 40
1
 40
1
 40
1
 10
289.020773
 20
126.605706
 30
0.0
 10
289.794278
 20
127.052290
 30
0.0
 10
290.270777
 20
127.877610
 30
0.0
 10
290.270777
 20
128.770777
 30
0.0
  0
LWPOLYLINE
  5
1d4
100
AcDbEntity
  8
0
 62
7
100
AcDbPolyline
 90
2
 70
0
 10
317.770748
 20
98.770758
 30
0.0
 10
317.770748
 20
118.770797
 30
0.0
  0
SPLINE
  5
1d5
100
AcDbEntity
  8
0
 62
7
100
AcDbSpline
 70
8
 71
3
 72
8
 73
4
 74
0
 40
0
 40
0
 40
0
 40
0
 40
1
 40
1
 40
1
 40
1
 10
315.270780
 20
128.770777
 30
0.0
 10
315.270780
 20
129.663944
 30
0.0
 10
314.794281
 20
130.489264
 30
0.0
 10
314.020775
 20
130.935848
 30
0.0
  0
SPLINE
  5
1d6
100
AcDbEntity
  8
0
 62
7
100
AcDbSpline
 70
8
 71
3
 72
8
 73
4
 74
0
 40
0
 40
0
 40
0
 40
0
 40
1
 40
1
 40
1
 40
1
 10
314.020775
 20
130.935848
 30
0.0
 10
313.247270
 20
131.382431
 30
0.0
 10
312.294272
 20
131.382431
 30
0.0
 10
311.520767
 20
130.935848
 30
0.0
  0
SPLINE
  5
1d7
100
AcDbEntity
  8
0
 62
7
100
AcDbSpline
 70
8
 71
3
 72
8
 73
4
 74
0
 40
0
 40
0
 40
0
 40
0
 40
1
 40
1
 40
1
 40
1
 10
311.520767
 20
130.935848
 30
0.0
 10
310.747262
 20
130.489264
 30
0.0
 10
310.270763
 20
129.663944
 30
0.0
 10
310.270763
 20
128.770777
 30
0.0
  0
SPLINE
  5
1d8
100
AcDbEntity
  8
0
 62
7
100
AcDbSpline
 70
8
 71
3
 72
8
 73
4
 74
0
 40
0
 40
0
 40
0
 40
0
 40
1
 40
1
 40
1
 40
1
 10
310.270763
 20
128.770777
 30
0.0
 10
310.270763
 20
127.877610
 30
0.0
 10
310.747262
 20
127.052290
 30
0.0
 10
311.520767
 20
126.605706
 30
0.0
  0
SPLINE
  5
1d9
100
AcDbEntity
  8
0
 62
7
100
AcDbSpline
 70
8
 71
3
 72
8
 73
4
 74
0
 40
0
 40
0
 40
0
 40
0
 40
1
 40
1
 40
1
 40
1
 10
311.520767
 20
126.605706
 30
0.0
 10
312.294272
 20
126.159123
 30
0.0
 10
313.247270
 20
126.159123
 30
0.0
 10
314.020775
 20
126.605706
 30
0.0
  0
SPLINE
  5
1da
100
AcDbEntity
  8
0
 62
7
100
AcDbSpline
 70
8
 71
3
 72
8
 73
4
 74
0
 40
0
 40
0
 40
0
 40
0
 40
1
 40
1
 40
1
 40
1
 10
314.020775
 20
126.605706
 30
0.0
 10
314.794281
 20
127.052290
 30
0.0
 10
315.270780
 20
127.877610
 30
0.0
 10
315.270780
 20
128.770777
 30
0.0
  0
LWPOLYLINE
  5
1db
100
AcDbEntity
  8
0
 62
7
100
AcDbPolyline
 90
1
 70
1
 10
290.270777
 20
128.770777
 30
0.0
  0
SPLINE
  5
1dc
100
AcDbEntity
  8
0
 62
7
100
AcDbSpline
 70
8
 71
3
 72
8
 73
4
 74
0
 40
0
 40
0
 40
0
 40
0
 40
1
 40
1
 40
1
 40
1
 10
307.270759
 20
128.770777
 30
0.0
 10
307.275273
 20
131.274638
 30
0.0
 10
305.942071
 20
133.590235
 30
0.0
 10
303.774413
 20
134.843471
 30
0.0
  0
SPLINE
  5
1dd
100
AcDbEntity
  8
0
 62
7
100
AcDbSpline
 70
8
 71
3
 72
8
 73
4
 74
0
 40
0
 40
0
 40
0
 40
0
 40
1
 40
1
 40
1
 40
1
 10
303.774413
 20
134.843471
 30
0.0
 10
301.606754
 20
136.096706
 30
0.0
 10
298.934785
 20
136.096706
 30
0.0
 10
296.767127
 20
134.843471
 30
0.0
  0
SPLINE
  5
1de
100
AcDbEntity
  8
0
 62
7
100
AcDbSpline
 70
8
 71
3
 72
8
 73
4
 74
0
 40
0
 40
0
 40
0
 40
0
 40
1
 40
1
 40
1
 40
1
 10
296.767127
 20
134.843471
 30
0.0
 10
294.599469
 20
133.590235
 30
0.0
 10
293.266267
 20
131.274638
 30
0.0
 10
293.270781
 20
128.770777
 30
0.0
  0
SPLINE
  5
1df
100
AcDbEntity
  8
0
 62
7
100
AcDbSpline
 70
8
 71
3
 72
8
 73
4
 74
0
 40
0
 40
0
 40
0
 40
0
 40
1
 40
1
 40
1
 40
1
 10
293.270781
 20
128.770777
 30
0.0
 10
293.266267
 20
126.266916
 30
0.0
 10
294.599469
 20
123.951319
 30
0.0
 10
296.767127
 20
122.698083
 30
0.0
  0
SPLINE
  5
1e0
100
AcDbEntity
  8
0
 62
7
100
AcDbSpline
 70
8
 71
3
 72
8
 73
4
 74
0
 40
0
 40
0
 40
0
 40
0
 40
1
 40
1
 40
1
 40
1
 10
296.767127
 20
122.698083
 30
0.0
 10
298.934785
 20
121.444847
 30
0.0
 10
301.606754
 20
121.444847
 30
0.0
 10
303.774413
 20
122.698083
 30
0.0
  0
SPLINE
  5
1e1
100
AcDbEntity
  8
0
 62
7
100
AcDbSpline
 70
8
 71
3
 72
8
 73
4
 74
0
 40
0
 40
0
 40
0
 40
0
 40
1
 40
1
 40
1
 40
1
 10
303.774413
 20
122.698083
 30
0.0
 10
305.942071
 20
123.951319
 30
0.0
 10
307.275273
 20
126.266916
 30
0.0
 10
307.270759
 20
128.770777
 30
0.0
  0
LWPOLYLINE
  5
1e2
100
AcDbEntity
  8
0
 62
7
100
AcDbPolyline
 90
1
 70
1
 10
315.270780
 20
128.770777
 30
0.0
  0
LWPOLYLINE
  5
1e3
100
AcDbEntity
  8
0
 62
7
100
AcDbPolyline
 90
1
 70
1
 10
307.270759
 20
128.770777
 30
0.0
  0
LWPOLYLINE
  5
1e4
100
AcDbEntity
  8
0
 62
7
100
AcDbPolyline
 90
2
 70
0
 10
282.770765
 20
138.770783
 30
0.0
 10
282.770765
 20
118.770797
 30
0.0
  0
LWPOLYLINE
  5
1e5
100
AcDbEntity
  8
0
 62
7
100
AcDbPolyline
 90
2
 70
0
 10
317.770748
 20
138.770783
 30
0.0
 10
282.770765
 20
138.770783
 30
0.0
  0
LWPOLYLINE
  5
1e6
100
AcDbEntity
  8
0
 62
7
100
AcDbPolyline
 90
2
 70
0
 10
317.770748
 20
118.770797
 30
0.0
 10
317.770748
 20
138.770783
 30
0.0
  0
LWPOLYLINE
  5
1e7
100
AcDbEntity
  8
0
 62
7
100
AcDbPolyline
 90
2
 70
0
 10
317.770748
 20
98.770758
 30
0.0
 10
352.770757
 20
98.770758
 30
0.0
  0
LWPOLYLINE
  5
1e8
100
AcDbEntity
  8
0
 62
7
100
AcDbPolyline
 90
2
 70
0
 10
352.770757
 20
118.770797
 30
0.0
 10
317.770748
 20
118.770797
 30
0.0
  0
SPLINE
  5
1e9
100
AcDbEntity
  8
0
 62
7
100
AcDbSpline
 70
8
 71
3
 72
8
 73
4
 74
0
 40
0
 40
0
 40
0
 40
0
 40
1
 40
1
 40
1
 40
1
 10
350.270762
 20
108.770764
 30
0.0
 10
350.272556
 20
109.665120
 30
0.0
 10
349.796452
 20
110.492308
 30
0.0
 10
349.022215
 20
110.940005
 30
0.0
  0
SPLINE
  5
1ea
100
AcDbEntity
  8
0
 62
7
100
AcDbSpline
 70
8
 71
3
 72
8
 73
4
 74
0
 40
0
 40
0
 40
0
 40
0
 40
1
 40
1
 40
1
 40
1
 10
349.022215
 20
110.940005
 30
0.0
 10
348.247977
 20
111.387702
 30
0.0
 10
347.293558
 20
111.387702
 30
0.0
 10
346.519320
 20
110.940005
 30
0.0
  0
SPLINE
  5
1eb
100
AcDbEntity
  8
0
 62
7
100
AcDbSpline
 70
8
 71
3
 72
8
 73
4
 74
0
 40
0
 40
0
 40
0
 40
0
 40
1
 40
1
 40
1
 40
1
 10
346.519320
 20
110.940005
 30
0.0
 10
345.745083
 20
110.492308
 30
0.0
 10
345.268979
 20
109.665120
 30
0.0
 10
345.270773
 20
108.770764
 30
0.0
  0
SPLINE
  5
1ec
100
AcDbEntity
  8
0
 62
7
100
AcDbSpline
 70
8
 71
3
 72
8
 73
4
 74
0
 40
0
 40
0
 40
0
 40
0
 40
1
 40
1
 40
1
 40
1
 10
345.270773
 20
108.770764
 30
0.0
 10
345.268979
 20
107.876408
 30
0.0
 10
345.745083
 20
107.049220
 30
0.0
 10
346.519320
 20
106.601523
 30
0.0
  0
SPLINE
  5
1ed
100
AcDbEntity
  8
0
 62
7
100
AcDbSpline
 70
8
 71
3
 72
8
 73
4
 74
0
 40
0
 40
0
 40
0
 40
0
 40
1
 40
1
 40
1
 40
1
 10
346.519320
 20
106.601523
 30
0.0
 10
347.293558
 20
106.153826
 30
0.0
 10
348.247977
 20
106.153826
 30
0.0
 10
349.022215
 20
106.601523
 30
0.0
  0
SPLINE
  5
1ee
100
AcDbEntity
  8
0
 62
7
100
AcDbSpline
 70
8
 71
3
 72
8
 73
4
 74
0
 40
0
 40
0
 40
0
 40
0
 40
1
 40
1
 40
1
 40
1
 10
349.022215
 20
106.601523
 30
0.0
 10
349.796452
 20
107.049220
 30
0.0
 10
350.272556
 20
107.876408
 30
0.0
 10
350.270763
 20
108.770764
 30
0.0
  0
LWPOLYLINE
  5
1ef
100
AcDbEntity
  8
0
 62
7
100
AcDbPolyline
 90
2
 70
0
 10
352.770757
 20
98.770758
 30
0.0
 10
352.770757
 20
118.770797
 30
0.0
  0
SPLINE
  5
1f0
100
AcDbEntity
  8
0
 62
7
100
AcDbSpline
 70
8
 71
3
 72
8
 73
4
 74
0
 40
0
 40
0
 40
0
 40
0
 40
1
 40
1
 40
1
 40
1
 10
342.270768
 20
108.770764
 30
0.0
 10
342.270768
 20
111.271624
 30
0.0
 10
340.936575
 20
113.582514
 30
0.0
 10
338.770767
 20
114.832943
 30
0.0
  0
SPLINE
  5
1f1
100
AcDbEntity
  8
0
 62
7
100
AcDbSpline
 70
8
 71
3
 72
8
 73
4
 74
0
 40
0
 40
0
 40
0
 40
0
 40
1
 40
1
 40
1
 40
1
 10
338.770767
 20
114.832943
 30
0.0
 10
336.604959
 20
116.083373
 30
0.0
 10
333.936573
 20
116.083373
 30
0.0
 10
331.770765
 20
114.832943
 30
0.0
  0
SPLINE
  5
1f2
100
AcDbEntity
  8
0
 62
7
100
AcDbSpline
 70
8
 71
3
 72
8
 73
4
 74
0
 40
0
 40
0
 40
0
 40
0
 40
1
 40
1
 40
1
 40
1
 10
331.770765
 20
114.832943
 30
0.0
 10
329.604957
 20
113.582514
 30
0.0
 10
328.270764
 20
111.271624
 30
0.0
 10
328.270764
 20
108.770764
 30
0.0
  0
SPLINE
  5
1f3
100
AcDbEntity
  8
0
 62
7
100
AcDbSpline
 70
8
 71
3
 72
8
 73
4
 74
0
 40
0
 40
0
 40
0
 40
0
 40
1
 40
1
 40
1
 40
1
 10
328.270764
 20
108.770764
 30
0.0
 10
328.270764
 20
106.269904
 30
0.0
 10
329.604957
 20
103.959014
 30
0.0
 10
331.770765
 20
102.708585
 30
0.0
  0
SPLINE
  5
1f4
100
AcDbEntity
  8
0
 62
7
100
AcDbSpline
 70
8
 71
3
 72
8
 73
4
 74
0
 40
0
 40
0
 40
0
 40
0
 40
1
 40
1
 40
1
 40
1
 10
331.770765
 20
102.708585
 30
0.0
 10
333.936573
 20
101.458155
 30
0.0
 10
336.604959
 20
101.458155
 30
0.0
 10
338.770767
 20
102.708585
 30
0.0
  0
SPLINE
  5
1f5
100
AcDbEntity
  8
0
 62
7
100
AcDbSpline
 70
8
 71
3
 72
8
 73
4
 74
0
 40
0
 40
0
 40
0
 40
0
 40
1
 40
1
 40
1
 40
1
 10
338.770767
 20
102.708585
 30
0.0
 10
340.936575
 20
103.959014
 30
0.0
 10
342.270768
 20
106.269904
 30
0.0
 10
342.270768
 20
108.770764
 30
0.0
  0
LWPOLYLINE
  5
1f6
100
AcDbEntity
  8
0
 62
7
100
AcDbPolyline
 90
1
 70
1
 10
350.270763
 20
108.770764
 30
0.0
  0
SPLINE
  5
1f7
100
AcDbEntity
  8
0
 62
7
100
AcDbSpline
 70
8
 71
3
 72
8
 73
4
 74
0
 40
0
 40
0
 40
0
 40
0
 40
1
 40
1
 40
1
 40
1
 10
325.270760
 20
108.770764
 30
0.0
 10
325.272553
 20
109.665120
 30
0.0
 10
324.796449
 20
110.492308
 30
0.0
 10
324.022212
 20
110.940005
 30
0.0
  0
SPLINE
  5
1f8
100
AcDbEntity
  8
0
 62
7
100
AcDbSpline
 70
8
 71
3
 72
8
 73
4
 74
0
 40
0
 40
0
 40
0
 40
0
 40
1
 40
1
 40
1
 40
1
 10
324.022212
 20
110.940005
 30
0.0
 10
323.247974
 20
111.387702
 30
0.0
 10
322.293555
 20
111.387702
 30
0.0
 10
321.519318
 20
110.940005
 30
0.0
  0
SPLINE
  5
1f9
100
AcDbEntity
  8
0
 62
7
100
AcDbSpline
 70
8
 71
3
 72
8
 73
4
 74
0
 40
0
 40
0
 40
0
 40
0
 40
1
 40
1
 40
1
 40
1
 10
321.519318
 20
110.940005
 30
0.0
 10
320.745080
 20
110.492308
 30
0.0
 10
320.268976
 20
109.665120
 30
0.0
 10
320.270770
 20
108.770764
 30
0.0
  0
SPLINE
  5
1fa
100
AcDbEntity
  8
0
 62
7
100
AcDbSpline
 70
8
 71
3
 72
8
 73
4
 74
0
 40
0
 40
0
 40
0
 40
0
 40
1
 40
1
 40
1
 40
1
 10
320.270770
 20
108.770764
 30
0.0
 10
320.268976
 20
107.876408
 30
0.0
 10
320.745080
 20
107.049220
 30
0.0
 10
321.519318
 20
106.601523
 30
0.0
  0
SPLINE
  5
1fb
100
AcDbEntity
  8
0
 62
7
100
AcDbSpline
 70
8
 71
3
 72
8
 73
4
 74
0
 40
0
 40
0
 40
0
 40
0
 40
1
 40
1
 40
1
 40
1
 10
321.519318
 20
106.601523
 30
0.0
 10
322.293555
 20
106.153826
 30
0.0
 10
323.247974
 20
106.153826
 30
0.0
 10
324.022212
 20
106.601523
 30
0.0
  0
SPLINE
  5
1fc
100
AcDbEntity
  8
0
 62
7
100
AcDbSpline
 70
8
 71
3
 72
8
 73
4
 74
0
 40
0
 40
0
 40
0
 40
0
 40
1
 40
1
 40
1
 40
1
 10
324.022212
 20
106.601523
 30
0.0
 10
324.796449
 20
107.049220
 30
0.0
 10
325.272553
 20
107.876408
 30
0.0
 10
325.270760
 20
108.770764
 30
0.0
  0
LWPOLYLINE
  5
1fd
100
AcDbEntity
  8
0
 62
7
100
AcDbPolyline
 90
1
 70
1
 10
342.270768
 20
108.770764
 30
0.0
  0
SPLINE
  5
1fe
100
AcDbEntity
  8
0
 62
7
100
AcDbSpline
 70
8
 71
3
 72
8
 73
4
 74
0
 40
0
 40
0
 40
0
 40
0
 40
1
 40
1
 40
1
 40
1
 10
350.270762
 20
128.770777
 30
0.0
 10
350.272556
 20
129.665133
 30
0.0
 10
349.796452
 20
130.492321
 30
0.0
 10
349.022215
 20
130.940018
 30
0.0
  0
SPLINE
  5
1ff
100
AcDbEntity
  8
0
 62
7
100
AcDbSpline
 70
8
 71
3
 72
8
 73
4
 74
0
 40
0
 40
0
 40
0
 40
0
 40
1
 40
1
 40
1
 40
1
 10
349.022215
 20
130.940018
 30
0.0
 10
348.247977
 20
131.387715
 30
0.0
 10
347.293558
 20
131.387715
 30
0.0
 10
346.519320
 20
130.940018
 30
0.0
  0
SPLINE
  5
200
100
AcDbEntity
  8
0
 62
7
100
AcDbSpline
 70
8
 71
3
 72
8
 73
4
 74
0
 40
0
 40
0
 40
0
 40
0
 40
1
 40
1
 40
1
 40
1
 10
346.519320
 20
130.940018
 30
0.0
 10
345.745083
 20
130.492321
 30
0.0
 10
345.268979
 20
129.665133
 30
0.0
 10
345.270773
 20
128.770777
 30
0.0
  0
SPLINE
  5
201
100
AcDbEntity
  8
0
 62
7
100
AcDbSpline
 70
8
 71
3
 72
8
 73
4
 74
0
 40
0
 40
0
 40
0
 40
0
 40
1
 40
1
 40
1
 40
1
 10
345.270773
 20
128.770777
 30
0.0
 10
345.268979
 20
127.876420
 30
0.0
 10
345.745083
 20
127.049233
 30
0.0
 10
346.519320
 20
126.601536
 30
0.0
  0
SPLINE
  5
202
100
AcDbEntity
  8
0
 62
7
100
AcDbSpline
 70
8
 71
3
 72
8
 73
4
 74
0
 40
0
 40
0
 40
0
 40
0
 40
1
 40
1
 40
1
 40
1
 10
346.519320
 20
126.601536
 30
0.0
 10
347.293558
 20
126.153839
 30
0.0
 10
348.247977
 20
126.153839
 30
0.0
 10
349.022215
 20
126.601536
 30
0.0
  0
SPLINE
  5
203
100
AcDbEntity
  8
0
 62
7
100
AcDbSpline
 70
8
 71
3
 72
8
 73
4
 74
0
 40
0
 40
0
 40
0
 40
0
 40
1
 40
1
 40
1
 40
1
 10
349.022215
 20
126.601536
 30
0.0
 10
349.796452
 20
127.049233
 30
0.0
 10
350.272556
 20
127.876420
 30
0.0
 10
350.270763
 20
128.770777
 30
0.0
  0
LWPOLYLINE
  5
204
100
AcDbEntity
  8
0
 62
7
100
AcDbPolyline
 90
1
 70
1
 10
325.270760
 20
108.770764
 30
0.0
  0
SPLINE
  5
205
100
AcDbEntity
  8
0
 62
7
100
AcDbSpline
 70
8
 71
3
 72
8
 73
4
 74
0
 40
0
 40
0
 40
0
 40
0
 40
1
 40
1
 40
1
 40
1
 10
342.270768
 20
128.770777
 30
0.0
 10
342.270768
 20
131.271637
 30
0.0
 10
340.936575
 20
133.582526
 30
0.0
 10
338.770767
 20
134.832956
 30
0.0
  0
SPLINE
  5
206
100
AcDbEntity
  8
0
 62
7
100
AcDbSpline
 70
8
 71
3
 72
8
 73
4
 74
0
 40
0
 40
0
 40
0
 40
0
 40
1
 40
1
 40
1
 40
1
 10
338.770767
 20
134.832956
 30
0.0
 10
336.604959
 20
136.083386
 30
0.0
 10
333.936573
 20
136.083386
 30
0.0
 10
331.770765
 20
134.832956
 30
0.0
  0
SPLINE
  5
207
100
AcDbEntity
  8
0
 62
7
100
AcDbSpline
 70
8
 71
3
 72
8
 73
4
 74
0
 40
0
 40
0
 40
0
 40
0
 40
1
 40
1
 40
1
 40
1
 10
331.770765
 20
134.832956
 30
0.0
 10
329.604957
 20
133.582526
 30
0.0
 10
328.270764
 20
131.271637
 30
0.0
 10
328.270764
 20
128.770777
 30
0.0
  0
SPLINE
  5
208
100
AcDbEntity
  8
0
 62
7
100
AcDbSpline
 70
8
 71
3
 72
8
 73
4
 74
0
 40
0
 40
0
 40
0
 40
0
 40
1
 40
1
 40
1
 40
1
 10
328.270764
 20
128.770777
 30
0.0
 10
328.270764
 20
126.269917
 30
0.0
 10
329.604957
 20
123.959027
 30
0.0
 10
331.770765
 20
122.708597
 30
0.0
  0
SPLINE
  5
209
100
AcDbEntity
  8
0
 62
7
100
AcDbSpline
 70
8
 71
3
 72
8
 73
4
 74
0
 40
0
 40
0
 40
0
 40
0
 40
1
 40
1
 40
1
 40
1
 10
331.770765
 20
122.708597
 30
0.0
 10
333.936573
 20
121.458168
 30
0.0
 10
336.604959
 20
121.458168
 30
0.0
 10
338.770767
 20
122.708597
 30
0.0
  0
SPLINE
  5
20a
100
AcDbEntity
  8
0
 62
7
100
AcDbSpline
 70
8
 71
3
 72
8
 73
4
 74
0
 40
0
 40
0
 40
0
 40
0
 40
1
 40
1
 40
1
 40
1
 10
338.770767
 20
122.708597
 30
0.0
 10
340.936575
 20
123.959027
 30
0.0
 10
342.270768
 20
126.269917
 30
0.0
 10
342.270768
 20
128.770777
 30
0.0
  0
LWPOLYLINE
  5
20b
100
AcDbEntity
  8
0
 62
7
100
AcDbPolyline
 90
1
 70
1
 10
350.270763
 20
128.770777
 30
0.0
  0
LWPOLYLINE
  5
20c
100
AcDbEntity
  8
0
 62
7
100
AcDbPolyline
 90
1
 70
1
 10
342.270768
 20
128.770777
 30
0.0
  0
LWPOLYLINE
  5
20d
100
AcDbEntity
  8
0
 62
7
100
AcDbPolyline
 90
2
 70
0
 10
352.770757
 20
138.770783
 30
0.0
 10
317.770748
 20
138.770783
 30
0.0
  0
SPLINE
  5
20e
100
AcDbEntity
  8
0
 62
7
100
AcDbSpline
 70
8
 71
3
 72
8
 73
4
 74
0
 40
0
 40
0
 40
0
 40
0
 40
1
 40
1
 40
1
 40
1
 10
325.270760
 20
128.770777
 30
0.0
 10
325.272553
 20
129.665133
 30
0.0
 10
324.796449
 20
130.492321
 30
0.0
 10
324.022212
 20
130.940018
 30
0.0
  0
SPLINE
  5
20f
100
AcDbEntity
  8
0
 62
7
100
AcDbSpline
 70
8
 71
3
 72
8
 73
4
 74
0
 40
0
 40
0
 40
0
 40
0
 40
1
 40
1
 40
1
 40
1
 10
324.022212
 20
130.940018
 30
0.0
 10
323.247974
 20
131.387715
 30
0.0
 10
322.293555
 20
131.387715
 30
0.0
 10
321.519318
 20
130.940018
 30
0.0
  0
SPLINE
  5
210
100
AcDbEntity
  8
0
 62
7
100
AcDbSpline
 70
8
 71
3
 72
8
 73
4
 74
0
 40
0
 40
0
 40
0
 40
0
 40
1
 40
1
 40
1
 40
1
 10
321.519318
 20
130.940018
 30
0.0
 10
320.745080
 20
130.492321
 30
0.0
 10
320.268976
 20
129.665133
 30
0.0
 10
320.270770
 20
128.770777
 30
0.0
  0
SPLINE
  5
211
100
AcDbEntity
  8
0
 62
7
100
AcDbSpline
 70
8
 71
3
 72
8
 73
4
 74
0
 40
0
 40
0
 40
0
 40
0
 40
1
 40
1
 40
1
 40
1
 10
320.270770
 20
128.770777
 30
0.0
 10
320.268976
 20
127.876420
 30
0.0
 10
320.745080
 20
127.049233
 30
0.0
 10
321.519318
 20
126.601536
 30
0.0
  0
SPLINE
  5
212
100
AcDbEntity
  8
0
 62
7
100
AcDbSpline
 70
8
 71
3
 72
8
 73
4
 74
0
 40
0
 40
0
 40
0
 40
0
 40
1
 40
1
 40
1
 40
1
 10
321.519318
 20
126.601536
 30
0.0
 10
322.293555
 20
126.153839
 30
0.0
 10
323.247974
 20
126.153839
 30
0.0
 10
324.022212
 20
126.601536
 30
0.0
  0
SPLINE
  5
213
100
AcDbEntity
  8
0
 62
7
100
AcDbSpline
 70
8
 71
3
 72
8
 73
4
 74
0
 40
0
 40
0
 40
0
 40
0
 40
1
 40
1
 40
1
 40
1
 10
324.022212
 20
126.601536
 30
0.0
 10
324.796449
 20
127.049233
 30
0.0
 10
325.272553
 20
127.876420
 30
0.0
 10
325.270760
 20
128.770777
 30
0.0
  0
LWPOLYLINE
  5
214
100
AcDbEntity
  8
0
 62
7
100
AcDbPolyline
 90
2
 70
0
 10
352.770757
 20
118.770797
 30
0.0
 10
352.770757
 20
138.770783
 30
0.0
  0
LWPOLYLINE
  5
215
100
AcDbEntity
  8
0
 62
7
100
AcDbPolyline
 90
1
 70
1
 10
325.270760
 20
128.770777
 30
0.0
  0
ENDSEC
  0
SECTION
  2
OBJECTS
  0
DICTIONARY
  5
C
330
0
100
AcDbDictionary
  3
ACAD_GROUP
350
D
  3
ACAD_MLINESTYLE
350
17
  0
DICTIONARY
  5
D
330
C
100
AcDbDictionary
  0
DICTIONARY
  5
1A
330
C
100
AcDbDictionary
  0
DICTIONARY
  5
17
330
C
100
AcDbDictionary
  3
STANDARD
350
18
  0
DICTIONARY
  5
19
330
C
100
AcDbDictionary
  0
ENDSEC
  0
EOF
