  0
SECTION
  2
HEADER
  9
$ACADVER
  1
AC1014
  9
$HANDSEED
  5
FFFF
  9
$MEASUREMENT
 70
     1
  0
ENDSEC
  0
SECTION
  2
TABLES
  0
TABLE
  2
VPORT
  5
8
330
0
100
AcDbSymbolTable
 70
     4
  0
VPORT
  5
2E
330
8
100
AcDbSymbolTableRecord
100
AcDbViewportTableRecord
  2
*ACTIVE
 70
     0
 10
0.0
 20
0.0
 11
1.0
 21
1.0
 12
210.0
 22
148.5
 13
0.0
 23
0.0
 14
10.0
 24
10.0
 15
10.0
 25
10.0
 16
0.0
 26
0.0
 36
1.0
 17
0.0
 27
0.0
 37
0.0
 40
341.0
 41
1.24
 42
50.0
 43
0.0
 44
0.0
 50
0.0
 51
0.0
 71
     0
 72
   100
 73
     1
 74
     3
 75
     0
 76
     0
 77
     0
 78
     0
  0
ENDTAB
  0
TABLE
  2
LTYPE
  5
5
330
0
100
AcDbSymbolTable
 70
     1
  0
LTYPE
  5
14
330
5
100
AcDbSymbolTableRecord
100
AcDbLinetypeTableRecord
  2
BYBLOCK
 70
     0
  3

 72
    65
 73
     0
 40
0.0
  0
LTYPE
  5
15
330
5
100
AcDbSymbolTableRecord
100
AcDbLinetypeTableRecord
  2
BYLAYER
 70
     0
  3

 72
    65
 73
     0
 40
0.0
  0
LTYPE
  5
16
330
5
100
AcDbSymbolTableRecord
100
AcDbLinetypeTableRecord
  2
CONTINUOUS
 70
     0
  3
Solid line
 72
    65
 73
     0
 40
0.0
  0
ENDTAB
  0
TABLE
  2
LAYER
  5
2
100
AcDbSymbolTable
 70
2
  0
LAYER
  5
50
100
AcDbSymbolTableRecord
100
AcDbLayerTableRecord
  2
0
 70
0
  6
CONTINUOUS
  0
LAYER
  5
51
100
AcDbSymbolTableRecord
100
AcDbLayerTableRecord
  2
FORMAT
 70
0
  6
CONTINUOUS
  0
ENDTAB
  0
TABLE
  2
STYLE
  5
3
330
0
100
AcDbSymbolTable
 70
     1
  0
STYLE
  5
11
330
3
100
AcDbSymbolTableRecord
100
AcDbTextStyleTableRecord
  2
STANDARD
 70
     0
 40
0.0
 41
1.0
 50
0.0
 71
     0
 42
2.5
  3
txt
  4

  0
ENDTAB
  0
TABLE
  2
VIEW
  5
6
330
0
100
AcDbSymbolTable
 70
     0
  0
ENDTAB
  0
TABLE
  2
UCS
  5
7
330
0
100
AcDbSymbolTable
 70
     0
  0
ENDTAB
  0
TABLE
  2
APPID
  5
9
330
0
100
AcDbSymbolTable
 70
     2
  0
APPID
  5
12
330
9
100
AcDbSymbolTableRecord
100
AcDbRegAppTableRecord
  2
ACAD
 70
     0
  0
ENDTAB
  0
TABLE
  2
DIMSTYLE
  5
A
330
0
100
AcDbSymbolTable
 70
     1
  0
DIMSTYLE
105
27
330
A
100
AcDbSymbolTableRecord
100
AcDbDimStyleTableRecord
  2
ISO-25
 70
     0
  3

  4

  5

  6

  7

 40
1.0
 41
2.5
 42
0.625
 43
3.75
 44
1.25
 45
0.0
 46
0.0
 47
0.0
 48
0.0
140
2.5
141
2.5
142
0.0
143
0.03937007874016
144
1.0
145
0.0
146
1.0
147
0.625
 71
     0
 72
     0
 73
     0
 74
     0
 75
     0
 76
     0
 77
     1
 78
     8
170
     0
171
     3
172
     1
173
     0
174
     0
175
     0
176
     0
177
     0
178
     0
270
     2
271
     2
272
     2
273
     2
274
     3
340
11
275
     0
280
     0
281
     0
282
     0
283
     0
284
     8
285
     0
286
     0
287
     3
288
     0
  0
ENDTAB
  0
TABLE
  2
BLOCK_RECORD
  5
1
330
0
100
AcDbSymbolTable
 70
     1
  0
BLOCK_RECORD
  5
1F
330
1
100
AcDbSymbolTableRecord
100
AcDbBlockTableRecord
  2
*MODEL_SPACE
  0
BLOCK_RECORD
  5
1B
330
1
100
AcDbSymbolTableRecord
100
AcDbBlockTableRecord
  2
*PAPER_SPACE
  0
ENDTAB
  0
ENDSEC
  0
SECTION
  2
BLOCKS
  0
BLOCK
  5
20
330
1F
100
AcDbEntity
  8
0
100
AcDbBlockBegin
  2
*MODEL_SPACE
 70
     0
 10
0.0
 20
0.0
 30
0.0
  3
*MODEL_SPACE
  1

  0
ENDBLK
  5
21
330
1F
100
AcDbEntity
  8
0
100
AcDbBlockEnd
  0
BLOCK
  5
1C
330
1B
100
AcDbEntity
 67
     1
  8
0
100
AcDbBlockBegin
  2
*PAPER_SPACE
  1

  0
ENDBLK
  5
1D
330
1B
100
AcDbEntity
 67
     1
  8
0
100
AcDbBlockEnd
  0
ENDSEC
  0
SECTION
  2
ENTITIES
  0
LWPOLYLINE
  5
100
100
AcDbEntity
  8
0
 62
7
100
AcDbPolyline
 90
2
 70
0
 10
80.120702
 20
260.120739
 30
0.0
 10
0.120782
 20
260.120739
 30
0.0
  0
LWPOLYLINE
  5
101
100
AcDbEntity
  8
0
 62
7
100
AcDbPolyline
 90
2
 70
0
 10
80.120702
 20
180.120766
 30
0.0
 10
80.120702
 20
260.120739
 30
0.0
  0
LWPOLYLINE
  5
102
100
AcDbEntity
  8
0
 62
7
100
AcDbPolyline
 90
2
 70
0
 10
50.120735
 20
180.120766
 30
0.0
 10
80.120702
 20
180.120766
 30
0.0
  0
LWPOLYLINE
  5
103
100
AcDbEntity
  8
0
 62
7
100
AcDbPolyline
 90
2
 70
0
 10
50.120735
 20
230.120772
 30
0.0
 10
50.120735
 20
180.120766
 30
0.0
  0
LWPOLYLINE
  5
104
100
AcDbEntity
  8
0
 62
7
100
AcDbPolyline
 90
2
 70
0
 10
0.120782
 20
230.120772
 30
0.0
 10
50.120735
 20
230.120772
 30
0.0
  0
LWPOLYLINE
  5
105
100
AcDbEntity
  8
0
 62
7
100
AcDbPolyline
 90
2
 70
0
 10
0.120782
 20
260.120739
 30
0.0
 10
0.120782
 20
230.120772
 30
0.0
  0
LWPOLYLINE
  5
106
100
AcDbEntity
  8
0
 62
7
100
AcDbPolyline
 90
2
 70
0
 10
30.120749
 20
180.120766
 30
0.0
 10
30.120749
 20
230.120772
 30
0.0
  0
LWPOLYLINE
  5
107
100
AcDbEntity
  8
0
 62
7
100
AcDbPolyline
 90
2
 70
0
 10
80.120702
 20
180.120766
 30
0.0
 10
30.120749
 20
180.120766
 30
0.0
  0
LWPOLYLINE
  5
108
100
AcDbEntity
  8
0
 62
7
100
AcDbPolyline
 90
2
 70
0
 10
80.120702
 20
150.120720
 30
0.0
 10
80.120702
 20
180.120766
 30
0.0
  0
LWPOLYLINE
  5
109
100
AcDbEntity
  8
0
 62
7
100
AcDbPolyline
 90
2
 70
0
 10
0.120782
 20
150.120720
 30
0.0
 10
80.120702
 20
150.120720
 30
0.0
  0
LWPOLYLINE
  5
10a
100
AcDbEntity
  8
0
 62
7
100
AcDbPolyline
 90
2
 70
0
 10
0.120782
 20
230.120772
 30
0.0
 10
0.120782
 20
150.120720
 30
0.0
  0
SPLINE
  5
10b
100
AcDbEntity
  8
0
 62
7
100
AcDbSpline
 70
8
 71
3
 72
8
 73
4
 74
0
 40
0
 40
0
 40
0
 40
0
 40
1
 40
1
 40
1
 40
1
 10
134.420663
 20
234.920737
 30
0.0
 10
134.422719
 20
235.457999
 30
0.0
 10
134.137273
 20
235.955331
 30
0.0
 10
133.672330
 20
236.224557
 30
0.0
  0
SPLINE
  5
10c
100
AcDbEntity
  8
0
 62
7
100
AcDbSpline
 70
8
 71
3
 72
8
 73
4
 74
0
 40
0
 40
0
 40
0
 40
0
 40
1
 40
1
 40
1
 40
1
 10
133.672330
 20
236.224557
 30
0.0
 10
133.207387
 20
236.493783
 30
0.0
 10
132.633960
 20
236.493783
 30
0.0
 10
132.169018
 20
236.224557
 30
0.0
  0
SPLINE
  5
10d
100
AcDbEntity
  8
0
 62
7
100
AcDbSpline
 70
8
 71
3
 72
8
 73
4
 74
0
 40
0
 40
0
 40
0
 40
0
 40
1
 40
1
 40
1
 40
1
 10
132.169018
 20
236.224557
 30
0.0
 10
131.704075
 20
235.955331
 30
0.0
 10
131.418629
 20
235.457999
 30
0.0
 10
131.420685
 20
234.920737
 30
0.0
  0
SPLINE
  5
10e
100
AcDbEntity
  8
0
 62
7
100
AcDbSpline
 70
8
 71
3
 72
8
 73
4
 74
0
 40
0
 40
0
 40
0
 40
0
 40
1
 40
1
 40
1
 40
1
 10
131.420685
 20
234.920737
 30
0.0
 10
131.418629
 20
234.383475
 30
0.0
 10
131.704075
 20
233.886143
 30
0.0
 10
132.169018
 20
233.616917
 30
0.0
  0
SPLINE
  5
10f
100
AcDbEntity
  8
0
 62
7
100
AcDbSpline
 70
8
 71
3
 72
8
 73
4
 74
0
 40
0
 40
0
 40
0
 40
0
 40
1
 40
1
 40
1
 40
1
 10
132.169018
 20
233.616917
 30
0.0
 10
132.633960
 20
233.347691
 30
0.0
 10
133.207387
 20
233.347691
 30
0.0
 10
133.672330
 20
233.616917
 30
0.0
  0
SPLINE
  5
110
100
AcDbEntity
  8
0
 62
7
100
AcDbSpline
 70
8
 71
3
 72
8
 73
4
 74
0
 40
0
 40
0
 40
0
 40
0
 40
1
 40
1
 40
1
 40
1
 10
133.672330
 20
233.616917
 30
0.0
 10
134.137273
 20
233.886143
 30
0.0
 10
134.422719
 20
234.383475
 30
0.0
 10
134.420663
 20
234.920737
 30
0.0
  0
LWPOLYLINE
  5
111
100
AcDbEntity
  8
0
 62
7
100
AcDbPolyline
 90
2
 70
0
 10
30.120749
 20
230.120772
 30
0.0
 10
0.120782
 20
230.120772
 30
0.0
  0
SPLINE
  5
112
100
AcDbEntity
  8
0
 62
7
100
AcDbSpline
 70
8
 71
3
 72
8
 73
4
 74
0
 40
0
 40
0
 40
0
 40
0
 40
1
 40
1
 40
1
 40
1
 10
165.420675
 20
234.920737
 30
0.0
 10
165.420675
 20
235.456636
 30
0.0
 10
165.134776
 20
235.951828
 30
0.0
 10
164.670674
 20
236.219777
 30
0.0
  0
SPLINE
  5
113
100
AcDbEntity
  8
0
 62
7
100
AcDbSpline
 70
8
 71
3
 72
8
 73
4
 74
0
 40
0
 40
0
 40
0
 40
0
 40
1
 40
1
 40
1
 40
1
 10
164.670674
 20
236.219777
 30
0.0
 10
164.206572
 20
236.487727
 30
0.0
 10
163.634774
 20
236.487727
 30
0.0
 10
163.170672
 20
236.219777
 30
0.0
  0
SPLINE
  5
114
100
AcDbEntity
  8
0
 62
7
100
AcDbSpline
 70
8
 71
3
 72
8
 73
4
 74
0
 40
0
 40
0
 40
0
 40
0
 40
1
 40
1
 40
1
 40
1
 10
163.170672
 20
236.219777
 30
0.0
 10
162.706569
 20
235.951828
 30
0.0
 10
162.420670
 20
235.456636
 30
0.0
 10
162.420670
 20
234.920737
 30
0.0
  0
SPLINE
  5
115
100
AcDbEntity
  8
0
 62
7
100
AcDbSpline
 70
8
 71
3
 72
8
 73
4
 74
0
 40
0
 40
0
 40
0
 40
0
 40
1
 40
1
 40
1
 40
1
 10
162.420670
 20
234.920737
 30
0.0
 10
162.420670
 20
234.384838
 30
0.0
 10
162.706569
 20
233.889647
 30
0.0
 10
163.170672
 20
233.621697
 30
0.0
  0
SPLINE
  5
116
100
AcDbEntity
  8
0
 62
7
100
AcDbSpline
 70
8
 71
3
 72
8
 73
4
 74
0
 40
0
 40
0
 40
0
 40
0
 40
1
 40
1
 40
1
 40
1
 10
163.170672
 20
233.621697
 30
0.0
 10
163.634774
 20
233.353747
 30
0.0
 10
164.206572
 20
233.353747
 30
0.0
 10
164.670674
 20
233.621697
 30
0.0
  0
SPLINE
  5
117
100
AcDbEntity
  8
0
 62
7
100
AcDbSpline
 70
8
 71
3
 72
8
 73
4
 74
0
 40
0
 40
0
 40
0
 40
0
 40
1
 40
1
 40
1
 40
1
 10
164.670674
 20
233.621697
 30
0.0
 10
165.134776
 20
233.889647
 30
0.0
 10
165.420675
 20
234.384838
 30
0.0
 10
165.420675
 20
234.920737
 30
0.0
  0
LWPOLYLINE
  5
118
100
AcDbEntity
  8
0
 62
7
100
AcDbPolyline
 90
1
 70
1
 10
134.420663
 20
234.920737
 30
0.0
  0
SPLINE
  5
119
100
AcDbEntity
  8
0
 62
7
100
AcDbSpline
 70
8
 71
3
 72
8
 73
4
 74
0
 40
0
 40
0
 40
0
 40
0
 40
1
 40
1
 40
1
 40
1
 10
165.420675
 20
265.920749
 30
0.0
 10
165.420675
 20
266.456648
 30
0.0
 10
165.134776
 20
266.951840
 30
0.0
 10
164.670674
 20
267.219789
 30
0.0
  0
SPLINE
  5
11a
100
AcDbEntity
  8
0
 62
7
100
AcDbSpline
 70
8
 71
3
 72
8
 73
4
 74
0
 40
0
 40
0
 40
0
 40
0
 40
1
 40
1
 40
1
 40
1
 10
164.670674
 20
267.219789
 30
0.0
 10
164.206572
 20
267.487739
 30
0.0
 10
163.634774
 20
267.487739
 30
0.0
 10
163.170672
 20
267.219789
 30
0.0
  0
SPLINE
  5
11b
100
AcDbEntity
  8
0
 62
7
100
AcDbSpline
 70
8
 71
3
 72
8
 73
4
 74
0
 40
0
 40
0
 40
0
 40
0
 40
1
 40
1
 40
1
 40
1
 10
163.170672
 20
267.219789
 30
0.0
 10
162.706569
 20
266.951840
 30
0.0
 10
162.420670
 20
266.456648
 30
0.0
 10
162.420670
 20
265.920749
 30
0.0
  0
SPLINE
  5
11c
100
AcDbEntity
  8
0
 62
7
100
AcDbSpline
 70
8
 71
3
 72
8
 73
4
 74
0
 40
0
 40
0
 40
0
 40
0
 40
1
 40
1
 40
1
 40
1
 10
162.420670
 20
265.920749
 30
0.0
 10
162.420670
 20
265.384850
 30
0.0
 10
162.706569
 20
264.889659
 30
0.0
 10
163.170672
 20
264.621709
 30
0.0
  0
SPLINE
  5
11d
100
AcDbEntity
  8
0
 62
7
100
AcDbSpline
 70
8
 71
3
 72
8
 73
4
 74
0
 40
0
 40
0
 40
0
 40
0
 40
1
 40
1
 40
1
 40
1
 10
163.170672
 20
264.621709
 30
0.0
 10
163.634774
 20
264.353759
 30
0.0
 10
164.206572
 20
264.353759
 30
0.0
 10
164.670674
 20
264.621709
 30
0.0
  0
SPLINE
  5
11e
100
AcDbEntity
  8
0
 62
7
100
AcDbSpline
 70
8
 71
3
 72
8
 73
4
 74
0
 40
0
 40
0
 40
0
 40
0
 40
1
 40
1
 40
1
 40
1
 10
164.670674
 20
264.621709
 30
0.0
 10
165.134776
 20
264.889659
 30
0.0
 10
165.420675
 20
265.384850
 30
0.0
 10
165.420675
 20
265.920749
 30
0.0
  0
LWPOLYLINE
  5
11f
100
AcDbEntity
  8
0
 62
7
100
AcDbPolyline
 90
1
 70
1
 10
165.420675
 20
234.920737
 30
0.0
  0
SPLINE
  5
120
100
AcDbEntity
  8
0
 62
7
100
AcDbSpline
 70
8
 71
3
 72
8
 73
4
 74
0
 40
0
 40
0
 40
0
 40
0
 40
1
 40
1
 40
1
 40
1
 10
134.420663
 20
265.920749
 30
0.0
 10
134.422719
 20
266.458011
 30
0.0
 10
134.137273
 20
266.955343
 30
0.0
 10
133.672330
 20
267.224569
 30
0.0
  0
SPLINE
  5
121
100
AcDbEntity
  8
0
 62
7
100
AcDbSpline
 70
8
 71
3
 72
8
 73
4
 74
0
 40
0
 40
0
 40
0
 40
0
 40
1
 40
1
 40
1
 40
1
 10
133.672330
 20
267.224569
 30
0.0
 10
133.207387
 20
267.493795
 30
0.0
 10
132.633960
 20
267.493795
 30
0.0
 10
132.169018
 20
267.224569
 30
0.0
  0
SPLINE
  5
122
100
AcDbEntity
  8
0
 62
7
100
AcDbSpline
 70
8
 71
3
 72
8
 73
4
 74
0
 40
0
 40
0
 40
0
 40
0
 40
1
 40
1
 40
1
 40
1
 10
132.169018
 20
267.224569
 30
0.0
 10
131.704075
 20
266.955343
 30
0.0
 10
131.418629
 20
266.458011
 30
0.0
 10
131.420685
 20
265.920749
 30
0.0
  0
SPLINE
  5
123
100
AcDbEntity
  8
0
 62
7
100
AcDbSpline
 70
8
 71
3
 72
8
 73
4
 74
0
 40
0
 40
0
 40
0
 40
0
 40
1
 40
1
 40
1
 40
1
 10
131.420685
 20
265.920749
 30
0.0
 10
131.418629
 20
265.383487
 30
0.0
 10
131.704075
 20
264.886155
 30
0.0
 10
132.169018
 20
264.616929
 30
0.0
  0
SPLINE
  5
124
100
AcDbEntity
  8
0
 62
7
100
AcDbSpline
 70
8
 71
3
 72
8
 73
4
 74
0
 40
0
 40
0
 40
0
 40
0
 40
1
 40
1
 40
1
 40
1
 10
132.169018
 20
264.616929
 30
0.0
 10
132.633960
 20
264.347703
 30
0.0
 10
133.207387
 20
264.347703
 30
0.0
 10
133.672330
 20
264.616929
 30
0.0
  0
SPLINE
  5
125
100
AcDbEntity
  8
0
 62
7
100
AcDbSpline
 70
8
 71
3
 72
8
 73
4
 74
0
 40
0
 40
0
 40
0
 40
0
 40
1
 40
1
 40
1
 40
1
 10
133.672330
 20
264.616929
 30
0.0
 10
134.137273
 20
264.886155
 30
0.0
 10
134.422719
 20
265.383487
 30
0.0
 10
134.420663
 20
265.920749
 30
0.0
  0
LWPOLYLINE
  5
126
100
AcDbEntity
  8
0
 62
7
100
AcDbPolyline
 90
1
 70
1
 10
165.420675
 20
265.920749
 30
0.0
  0
SPLINE
  5
127
100
AcDbEntity
  8
0
 62
7
100
AcDbSpline
 70
8
 71
3
 72
8
 73
4
 74
0
 40
0
 40
0
 40
0
 40
0
 40
1
 40
1
 40
1
 40
1
 10
160.920668
 20
250.420743
 30
0.0
 10
160.920668
 20
254.886564
 30
0.0
 10
158.538181
 20
259.013152
 30
0.0
 10
154.670667
 20
261.246062
 30
0.0
  0
SPLINE
  5
128
100
AcDbEntity
  8
0
 62
7
100
AcDbSpline
 70
8
 71
3
 72
8
 73
4
 74
0
 40
0
 40
0
 40
0
 40
0
 40
1
 40
1
 40
1
 40
1
 10
154.670667
 20
261.246062
 30
0.0
 10
150.803153
 20
263.478972
 30
0.0
 10
146.038180
 20
263.478972
 30
0.0
 10
142.170666
 20
261.246062
 30
0.0
  0
SPLINE
  5
129
100
AcDbEntity
  8
0
 62
7
100
AcDbSpline
 70
8
 71
3
 72
8
 73
4
 74
0
 40
0
 40
0
 40
0
 40
0
 40
1
 40
1
 40
1
 40
1
 10
142.170666
 20
261.246062
 30
0.0
 10
138.303152
 20
259.013152
 30
0.0
 10
135.920665
 20
254.886564
 30
0.0
 10
135.920665
 20
250.420743
 30
0.0
  0
SPLINE
  5
12a
100
AcDbEntity
  8
0
 62
7
100
AcDbSpline
 70
8
 71
3
 72
8
 73
4
 74
0
 40
0
 40
0
 40
0
 40
0
 40
1
 40
1
 40
1
 40
1
 10
135.920665
 20
250.420743
 30
0.0
 10
135.920665
 20
245.954923
 30
0.0
 10
138.303152
 20
241.828335
 30
0.0
 10
142.170666
 20
239.595424
 30
0.0
  0
SPLINE
  5
12b
100
AcDbEntity
  8
0
 62
7
100
AcDbSpline
 70
8
 71
3
 72
8
 73
4
 74
0
 40
0
 40
0
 40
0
 40
0
 40
1
 40
1
 40
1
 40
1
 10
142.170666
 20
239.595424
 30
0.0
 10
146.038180
 20
237.362514
 30
0.0
 10
150.803153
 20
237.362514
 30
0.0
 10
154.670667
 20
239.595424
 30
0.0
  0
SPLINE
  5
12c
100
AcDbEntity
  8
0
 62
7
100
AcDbSpline
 70
8
 71
3
 72
8
 73
4
 74
0
 40
0
 40
0
 40
0
 40
0
 40
1
 40
1
 40
1
 40
1
 10
154.670667
 20
239.595424
 30
0.0
 10
158.538181
 20
241.828335
 30
0.0
 10
160.920668
 20
245.954923
 30
0.0
 10
160.920668
 20
250.420743
 30
0.0
  0
LWPOLYLINE
  5
12d
100
AcDbEntity
  8
0
 62
7
100
AcDbPolyline
 90
1
 70
1
 10
134.420663
 20
265.920749
 30
0.0
  0
LWPOLYLINE
  5
12e
100
AcDbEntity
  8
0
 62
7
100
AcDbPolyline
 90
1
 70
1
 10
160.920668
 20
250.420743
 30
0.0
  0
LWPOLYLINE
  5
12f
100
AcDbEntity
  8
0
 62
7
100
AcDbPolyline
 90
2
 70
0
 10
159.570579
 20
222.920772
 30
0.0
 10
169.570585
 20
222.920772
 30
0.0
  0
LWPOLYLINE
  5
130
100
AcDbEntity
  8
0
 62
7
100
AcDbPolyline
 90
2
 70
0
 10
159.570579
 20
229.270745
 30
0.0
 10
159.570579
 20
222.920772
 30
0.0
  0
LWPOLYLINE
  5
131
100
AcDbEntity
  8
0
 62
7
100
AcDbPolyline
 90
2
 70
0
 10
137.270569
 20
229.270745
 30
0.0
 10
159.570579
 20
229.270745
 30
0.0
  0
LWPOLYLINE
  5
132
100
AcDbEntity
  8
0
 62
7
100
AcDbPolyline
 90
2
 70
0
 10
137.270569
 20
222.920772
 30
0.0
 10
137.270569
 20
229.270745
 30
0.0
  0
LWPOLYLINE
  5
133
100
AcDbEntity
  8
0
 62
7
100
AcDbPolyline
 90
2
 70
0
 10
127.270589
 20
222.920772
 30
0.0
 10
137.270569
 20
222.920772
 30
0.0
  0
LWPOLYLINE
  5
134
100
AcDbEntity
  8
0
 62
7
100
AcDbPolyline
 90
2
 70
0
 10
127.270589
 20
271.570741
 30
0.0
 10
127.270589
 20
222.920772
 30
0.0
  0
LWPOLYLINE
  5
135
100
AcDbEntity
  8
0
 62
7
100
AcDbPolyline
 90
2
 70
0
 10
169.570585
 20
271.570741
 30
0.0
 10
127.270589
 20
271.570741
 30
0.0
  0
SPLINE
  5
136
100
AcDbEntity
  8
0
 62
7
100
AcDbSpline
 70
8
 71
3
 72
8
 73
4
 74
0
 40
0
 40
0
 40
0
 40
0
 40
1
 40
1
 40
1
 40
1
 10
309.920666
 20
60.270734
 30
0.0
 10
309.922392
 20
61.700945
 30
0.0
 10
309.160374
 20
63.023253
 30
0.0
 10
307.922062
 20
63.738857
 30
0.0
  0
SPLINE
  5
137
100
AcDbEntity
  8
0
 62
7
100
AcDbSpline
 70
8
 71
3
 72
8
 73
4
 74
0
 40
0
 40
0
 40
0
 40
0
 40
1
 40
1
 40
1
 40
1
 10
307.922062
 20
63.738857
 30
0.0
 10
306.683750
 20
64.454460
 30
0.0
 10
305.157588
 20
64.454460
 30
0.0
 10
303.919276
 20
63.738857
 30
0.0
  0
SPLINE
  5
138
100
AcDbEntity
  8
0
 62
7
100
AcDbSpline
 70
8
 71
3
 72
8
 73
4
 74
0
 40
0
 40
0
 40
0
 40
0
 40
1
 40
1
 40
1
 40
1
 10
303.919276
 20
63.738857
 30
0.0
 10
302.680964
 20
63.023253
 30
0.0
 10
301.918947
 20
61.700945
 30
0.0
 10
301.920672
 20
60.270734
 30
0.0
  0
SPLINE
  5
139
100
AcDbEntity
  8
0
 62
7
100
AcDbSpline
 70
8
 71
3
 72
8
 73
4
 74
0
 40
0
 40
0
 40
0
 40
0
 40
1
 40
1
 40
1
 40
1
 10
301.920672
 20
60.270734
 30
0.0
 10
301.919027
 20
58.840577
 30
0.0
 10
302.681062
 20
57.518353
 30
0.0
 10
303.919341
 20
56.802799
 30
0.0
  0
SPLINE
  5
13a
100
AcDbEntity
  8
0
 62
7
100
AcDbSpline
 70
8
 71
3
 72
8
 73
4
 74
0
 40
0
 40
0
 40
0
 40
0
 40
1
 40
1
 40
1
 40
1
 10
303.919341
 20
56.802799
 30
0.0
 10
305.157620
 20
56.087245
 30
0.0
 10
306.683718
 20
56.087245
 30
0.0
 10
307.921997
 20
56.802799
 30
0.0
  0
SPLINE
  5
13b
100
AcDbEntity
  8
0
 62
7
100
AcDbSpline
 70
8
 71
3
 72
8
 73
4
 74
0
 40
0
 40
0
 40
0
 40
0
 40
1
 40
1
 40
1
 40
1
 10
307.921997
 20
56.802799
 30
0.0
 10
309.160276
 20
57.518353
 30
0.0
 10
309.922311
 20
58.840577
 30
0.0
 10
309.920666
 20
60.270734
 30
0.0
  0
LWPOLYLINE
  5
13c
100
AcDbEntity
  8
0
 62
7
100
AcDbPolyline
 90
2
 70
0
 10
169.570585
 20
222.920772
 30
0.0
 10
169.570585
 20
271.570741
 30
0.0
  0
LWPOLYLINE
  5
13d
100
AcDbEntity
  8
0
 62
7
100
AcDbPolyline
 90
1
 70
1
 10
309.920666
 20
60.270734
 30
0.0
  0
LWPOLYLINE
  5
13e
100
AcDbEntity
  8
0
 62
7
100
AcDbPolyline
 90
2
 70
0
 10
190.020681
 20
50.120762
 30
0.0
 10
180.020701
 20
60.120742
 30
0.0
  0
LWPOLYLINE
  5
13f
100
AcDbEntity
  8
0
 62
7
100
AcDbPolyline
 90
2
 70
0
 10
190.020681
 20
100.120768
 30
0.0
 10
190.020681
 20
50.120762
 30
0.0
  0
LWPOLYLINE
  5
140
100
AcDbEntity
  8
0
 62
7
100
AcDbPolyline
 90
2
 70
0
 10
180.020701
 20
90.120708
 30
0.0
 10
190.020681
 20
100.120768
 30
0.0
  0
LWPOLYLINE
  5
141
100
AcDbEntity
  8
0
 62
7
100
AcDbPolyline
 90
2
 70
0
 10
180.020701
 20
143.770747
 30
0.0
 10
180.020701
 20
90.120708
 30
0.0
  0
LWPOLYLINE
  5
142
100
AcDbEntity
  8
0
 62
7
100
AcDbPolyline
 90
2
 70
0
 10
360.520721
 20
143.770747
 30
0.0
 10
180.020701
 20
143.770747
 30
0.0
  0
LWPOLYLINE
  5
143
100
AcDbEntity
  8
0
 62
7
100
AcDbPolyline
 90
2
 70
0
 10
180.020701
 20
6.470729
 30
0.0
 10
360.520721
 20
6.470729
 30
0.0
  0
LWPOLYLINE
  5
144
100
AcDbEntity
  8
0
 62
7
100
AcDbPolyline
 90
2
 70
0
 10
180.020701
 20
60.120742
 30
0.0
 10
180.020701
 20
6.470729
 30
0.0
  0
LWPOLYLINE
  5
145
100
AcDbEntity
  8
0
 62
7
100
AcDbPolyline
 90
2
 70
0
 10
360.520721
 20
150.120720
 30
0.0
 10
360.520721
 20
143.770747
 30
0.0
  0
LWPOLYLINE
  5
146
100
AcDbEntity
  8
0
 62
7
100
AcDbPolyline
 90
2
 70
0
 10
454.170600
 20
150.120720
 30
0.0
 10
360.520721
 20
150.120720
 30
0.0
  0
LWPOLYLINE
  5
147
100
AcDbEntity
  8
0
 62
7
100
AcDbPolyline
 90
2
 70
0
 10
454.170600
 20
0.120756
 30
0.0
 10
454.170600
 20
150.120720
 30
0.0
  0
LWPOLYLINE
  5
148
100
AcDbEntity
  8
0
 62
7
100
AcDbPolyline
 90
2
 70
0
 10
360.520721
 20
0.120756
 30
0.0
 10
454.170600
 20
0.120756
 30
0.0
  0
LWPOLYLINE
  5
149
100
AcDbEntity
  8
0
 62
7
100
AcDbPolyline
 90
2
 70
0
 10
360.520721
 20
6.470729
 30
0.0
 10
360.520721
 20
0.120756
 30
0.0
  0
LWPOLYLINE
  5
14a
100
AcDbEntity
  8
0
 62
7
100
AcDbPolyline
 90
2
 70
0
 10
180.020701
 20
99.879309
 30
0.0
 10
170.020721
 20
89.879329
 30
0.0
  0
LWPOLYLINE
  5
14b
100
AcDbEntity
  8
0
 62
7
100
AcDbPolyline
 90
2
 70
0
 10
180.020701
 20
50.362168
 30
0.0
 10
180.020701
 20
99.879309
 30
0.0
  0
LWPOLYLINE
  5
14c
100
AcDbEntity
  8
0
 62
7
100
AcDbPolyline
 90
2
 70
0
 10
170.020721
 20
60.362148
 30
0.0
 10
180.020701
 20
50.362168
 30
0.0
  0
LWPOLYLINE
  5
14d
100
AcDbEntity
  8
0
 62
7
100
AcDbPolyline
 90
2
 70
0
 10
170.020721
 20
6.470729
 30
0.0
 10
170.020721
 20
60.362148
 30
0.0
  0
LWPOLYLINE
  5
14e
100
AcDbEntity
  8
0
 62
7
100
AcDbPolyline
 90
2
 70
0
 10
93.770635
 20
0.120756
 30
0.0
 10
93.770635
 20
6.470729
 30
0.0
  0
LWPOLYLINE
  5
14f
100
AcDbEntity
  8
0
 62
7
100
AcDbPolyline
 90
2
 70
0
 10
0.120782
 20
0.120756
 30
0.0
 10
93.770635
 20
0.120756
 30
0.0
  0
LWPOLYLINE
  5
150
100
AcDbEntity
  8
0
 62
7
100
AcDbPolyline
 90
2
 70
0
 10
0.120782
 20
150.120720
 30
0.0
 10
0.120782
 20
0.120756
 30
0.0
  0
LWPOLYLINE
  5
151
100
AcDbEntity
  8
0
 62
7
100
AcDbPolyline
 90
2
 70
0
 10
93.770635
 20
150.120720
 30
0.0
 10
0.120782
 20
150.120720
 30
0.0
  0
LWPOLYLINE
  5
152
100
AcDbEntity
  8
0
 62
7
100
AcDbPolyline
 90
2
 70
0
 10
93.770635
 20
143.770747
 30
0.0
 10
93.770635
 20
150.120720
 30
0.0
  0
SPLINE
  5
153
100
AcDbEntity
  8
0
 62
7
100
AcDbSpline
 70
8
 71
3
 72
8
 73
4
 74
0
 40
0
 40
0
 40
0
 40
0
 40
1
 40
1
 40
1
 40
1
 10
32.170687
 20
60.270734
 30
0.0
 10
32.170688
 20
61.699800
 30
0.0
 10
31.408290
 20
63.020312
 30
0.0
 10
30.170683
 20
63.734845
 30
0.0
  0
SPLINE
  5
154
100
AcDbEntity
  8
0
 62
7
100
AcDbSpline
 70
8
 71
3
 72
8
 73
4
 74
0
 40
0
 40
0
 40
0
 40
0
 40
1
 40
1
 40
1
 40
1
 10
30.170683
 20
63.734845
 30
0.0
 10
28.933075
 20
64.449379
 30
0.0
 10
27.408279
 20
64.449379
 30
0.0
 10
26.170671
 20
63.734845
 30
0.0
  0
SPLINE
  5
155
100
AcDbEntity
  8
0
 62
7
100
AcDbSpline
 70
8
 71
3
 72
8
 73
4
 74
0
 40
0
 40
0
 40
0
 40
0
 40
1
 40
1
 40
1
 40
1
 10
26.170671
 20
63.734845
 30
0.0
 10
24.933064
 20
63.020312
 30
0.0
 10
24.170666
 20
61.699800
 30
0.0
 10
24.170666
 20
60.270734
 30
0.0
  0
SPLINE
  5
156
100
AcDbEntity
  8
0
 62
7
100
AcDbSpline
 70
8
 71
3
 72
8
 73
4
 74
0
 40
0
 40
0
 40
0
 40
0
 40
1
 40
1
 40
1
 40
1
 10
24.170666
 20
60.270734
 30
0.0
 10
24.170666
 20
58.841668
 30
0.0
 10
24.933064
 20
57.521156
 30
0.0
 10
26.170672
 20
56.806623
 30
0.0
  0
SPLINE
  5
157
100
AcDbEntity
  8
0
 62
7
100
AcDbSpline
 70
8
 71
3
 72
8
 73
4
 74
0
 40
0
 40
0
 40
0
 40
0
 40
1
 40
1
 40
1
 40
1
 10
26.170672
 20
56.806623
 30
0.0
 10
27.408279
 20
56.092090
 30
0.0
 10
28.933075
 20
56.092090
 30
0.0
 10
30.170682
 20
56.806623
 30
0.0
  0
SPLINE
  5
158
100
AcDbEntity
  8
0
 62
7
100
AcDbSpline
 70
8
 71
3
 72
8
 73
4
 74
0
 40
0
 40
0
 40
0
 40
0
 40
1
 40
1
 40
1
 40
1
 10
30.170682
 20
56.806623
 30
0.0
 10
31.408290
 20
57.521156
 30
0.0
 10
32.170687
 20
58.841668
 30
0.0
 10
32.170687
 20
60.270734
 30
0.0
  0
LWPOLYLINE
  5
159
100
AcDbEntity
  8
0
 62
7
100
AcDbPolyline
 90
2
 70
0
 10
170.020721
 20
89.879329
 30
0.0
 10
170.020721
 20
143.770747
 30
0.0
  0
LWPOLYLINE
  5
15a
100
AcDbEntity
  8
0
 62
7
100
AcDbPolyline
 90
1
 70
1
 10
32.170687
 20
60.270734
 30
0.0
  0
LWPOLYLINE
  5
15b
100
AcDbEntity
  8
0
 62
7
100
AcDbPolyline
 90
2
 70
0
 10
170.020721
 20
143.770747
 30
0.0
 10
93.770635
 20
143.770747
 30
0.0
  0
LWPOLYLINE
  5
15c
100
AcDbEntity
  8
0
 62
7
100
AcDbPolyline
 90
2
 70
0
 10
93.770635
 20
6.470729
 30
0.0
 10
170.020721
 20
6.470729
 30
0.0
  0
LWPOLYLINE
  5
15d
100
AcDbEntity
  8
0
 62
7
100
AcDbPolyline
 90
2
 70
0
 10
367.820628
 20
237.179326
 30
0.0
 10
357.820648
 20
227.179346
 30
0.0
  0
LWPOLYLINE
  5
15e
100
AcDbEntity
  8
0
 62
7
100
AcDbPolyline
 90
2
 70
0
 10
367.820628
 20
187.662185
 30
0.0
 10
367.820628
 20
237.179326
 30
0.0
  0
LWPOLYLINE
  5
15f
100
AcDbEntity
  8
0
 62
7
100
AcDbPolyline
 90
2
 70
0
 10
357.820648
 20
197.662165
 30
0.0
 10
367.820628
 20
187.662185
 30
0.0
  0
LWPOLYLINE
  5
160
100
AcDbEntity
  8
0
 62
7
100
AcDbPolyline
 90
2
 70
0
 10
357.820648
 20
143.770747
 30
0.0
 10
357.820648
 20
197.662165
 30
0.0
  0
LWPOLYLINE
  5
161
100
AcDbEntity
  8
0
 62
7
100
AcDbPolyline
 90
2
 70
0
 10
93.770635
 20
143.770747
 30
0.0
 10
357.820648
 20
143.770747
 30
0.0
  0
LWPOLYLINE
  5
162
100
AcDbEntity
  8
0
 62
7
100
AcDbPolyline
 90
2
 70
0
 10
93.770635
 20
197.420759
 30
0.0
 10
93.770635
 20
143.770747
 30
0.0
  0
LWPOLYLINE
  5
163
100
AcDbEntity
  8
0
 62
7
100
AcDbPolyline
 90
2
 70
0
 10
103.770615
 20
237.420732
 30
0.0
 10
103.770615
 20
187.420779
 30
0.0
  0
LWPOLYLINE
  5
164
100
AcDbEntity
  8
0
 62
7
100
AcDbPolyline
 90
2
 70
0
 10
93.770635
 20
281.070764
 30
0.0
 10
93.770635
 20
227.420726
 30
0.0
  0
LWPOLYLINE
  5
165
100
AcDbEntity
  8
0
 62
7
100
AcDbPolyline
 90
2
 70
0
 10
357.820648
 20
281.070764
 30
0.0
 10
93.770635
 20
281.070764
 30
0.0
  0
SPLINE
  5
166
100
AcDbEntity
  8
0
 62
7
100
AcDbSpline
 70
8
 71
3
 72
8
 73
4
 74
0
 40
0
 40
0
 40
0
 40
0
 40
1
 40
1
 40
1
 40
1
 10
125.270683
 20
271.070758
 30
0.0
 10
125.270683
 20
271.963925
 30
0.0
 10
124.794184
 20
272.789245
 30
0.0
 10
124.020679
 20
273.235829
 30
0.0
  0
SPLINE
  5
167
100
AcDbEntity
  8
0
 62
7
100
AcDbSpline
 70
8
 71
3
 72
8
 73
4
 74
0
 40
0
 40
0
 40
0
 40
0
 40
1
 40
1
 40
1
 40
1
 10
124.020679
 20
273.235829
 30
0.0
 10
123.247174
 20
273.682412
 30
0.0
 10
122.294176
 20
273.682412
 30
0.0
 10
121.520671
 20
273.235829
 30
0.0
  0
SPLINE
  5
168
100
AcDbEntity
  8
0
 62
7
100
AcDbSpline
 70
8
 71
3
 72
8
 73
4
 74
0
 40
0
 40
0
 40
0
 40
0
 40
1
 40
1
 40
1
 40
1
 10
121.520671
 20
273.235829
 30
0.0
 10
120.747166
 20
272.789245
 30
0.0
 10
120.270667
 20
271.963925
 30
0.0
 10
120.270667
 20
271.070758
 30
0.0
  0
SPLINE
  5
169
100
AcDbEntity
  8
0
 62
7
100
AcDbSpline
 70
8
 71
3
 72
8
 73
4
 74
0
 40
0
 40
0
 40
0
 40
0
 40
1
 40
1
 40
1
 40
1
 10
120.270667
 20
271.070758
 30
0.0
 10
120.270667
 20
270.177591
 30
0.0
 10
120.747166
 20
269.352271
 30
0.0
 10
121.520671
 20
268.905687
 30
0.0
  0
SPLINE
  5
16a
100
AcDbEntity
  8
0
 62
7
100
AcDbSpline
 70
8
 71
3
 72
8
 73
4
 74
0
 40
0
 40
0
 40
0
 40
0
 40
1
 40
1
 40
1
 40
1
 10
121.520671
 20
268.905687
 30
0.0
 10
122.294176
 20
268.459104
 30
0.0
 10
123.247174
 20
268.459104
 30
0.0
 10
124.020679
 20
268.905687
 30
0.0
  0
SPLINE
  5
16b
100
AcDbEntity
  8
0
 62
7
100
AcDbSpline
 70
8
 71
3
 72
8
 73
4
 74
0
 40
0
 40
0
 40
0
 40
0
 40
1
 40
1
 40
1
 40
1
 10
124.020679
 20
268.905687
 30
0.0
 10
124.794184
 20
269.352271
 30
0.0
 10
125.270683
 20
270.177591
 30
0.0
 10
125.270683
 20
271.070758
 30
0.0
  0
LWPOLYLINE
  5
16c
100
AcDbEntity
  8
0
 62
7
100
AcDbPolyline
 90
2
 70
0
 10
357.820648
 20
227.179346
 30
0.0
 10
357.820648
 20
281.070764
 30
0.0
  0
SPLINE
  5
16d
100
AcDbEntity
  8
0
 62
7
100
AcDbSpline
 70
8
 71
3
 72
8
 73
4
 74
0
 40
0
 40
0
 40
0
 40
0
 40
1
 40
1
 40
1
 40
1
 10
227.270680
 20
271.070758
 30
0.0
 10
227.270680
 20
271.963925
 30
0.0
 10
226.794182
 20
272.789245
 30
0.0
 10
226.020676
 20
273.235829
 30
0.0
  0
SPLINE
  5
16e
100
AcDbEntity
  8
0
 62
7
100
AcDbSpline
 70
8
 71
3
 72
8
 73
4
 74
0
 40
0
 40
0
 40
0
 40
0
 40
1
 40
1
 40
1
 40
1
 10
226.020676
 20
273.235829
 30
0.0
 10
225.247171
 20
273.682412
 30
0.0
 10
224.294173
 20
273.682412
 30
0.0
 10
223.520668
 20
273.235829
 30
0.0
  0
SPLINE
  5
16f
100
AcDbEntity
  8
0
 62
7
100
AcDbSpline
 70
8
 71
3
 72
8
 73
4
 74
0
 40
0
 40
0
 40
0
 40
0
 40
1
 40
1
 40
1
 40
1
 10
223.520668
 20
273.235829
 30
0.0
 10
222.747163
 20
272.789245
 30
0.0
 10
222.270664
 20
271.963925
 30
0.0
 10
222.270664
 20
271.070758
 30
0.0
  0
SPLINE
  5
170
100
AcDbEntity
  8
0
 62
7
100
AcDbSpline
 70
8
 71
3
 72
8
 73
4
 74
0
 40
0
 40
0
 40
0
 40
0
 40
1
 40
1
 40
1
 40
1
 10
222.270664
 20
271.070758
 30
0.0
 10
222.270664
 20
270.177591
 30
0.0
 10
222.747163
 20
269.352271
 30
0.0
 10
223.520668
 20
268.905687
 30
0.0
  0
SPLINE
  5
171
100
AcDbEntity
  8
0
 62
7
100
AcDbSpline
 70
8
 71
3
 72
8
 73
4
 74
0
 40
0
 40
0
 40
0
 40
0
 40
1
 40
1
 40
1
 40
1
 10
223.520668
 20
268.905687
 30
0.0
 10
224.294173
 20
268.459104
 30
0.0
 10
225.247171
 20
268.459104
 30
0.0
 10
226.020676
 20
268.905687
 30
0.0
  0
SPLINE
  5
172
100
AcDbEntity
  8
0
 62
7
100
AcDbSpline
 70
8
 71
3
 72
8
 73
4
 74
0
 40
0
 40
0
 40
0
 40
0
 40
1
 40
1
 40
1
 40
1
 10
226.020676
 20
268.905687
 30
0.0
 10
226.794182
 20
269.352271
 30
0.0
 10
227.270680
 20
270.177591
 30
0.0
 10
227.270680
 20
271.070758
 30
0.0
  0
LWPOLYLINE
  5
173
100
AcDbEntity
  8
0
 62
7
100
AcDbPolyline
 90
1
 70
1
 10
125.270683
 20
271.070758
 30
0.0
  0
SPLINE
  5
174
100
AcDbEntity
  8
0
 62
7
100
AcDbSpline
 70
8
 71
3
 72
8
 73
4
 74
0
 40
0
 40
0
 40
0
 40
0
 40
1
 40
1
 40
1
 40
1
 10
227.270680
 20
189.070747
 30
0.0
 10
227.270680
 20
189.963914
 30
0.0
 10
226.794182
 20
190.789234
 30
0.0
 10
226.020676
 20
191.235818
 30
0.0
  0
SPLINE
  5
175
100
AcDbEntity
  8
0
 62
7
100
AcDbSpline
 70
8
 71
3
 72
8
 73
4
 74
0
 40
0
 40
0
 40
0
 40
0
 40
1
 40
1
 40
1
 40
1
 10
226.020676
 20
191.235818
 30
0.0
 10
225.247171
 20
191.682401
 30
0.0
 10
224.294173
 20
191.682401
 30
0.0
 10
223.520668
 20
191.235818
 30
0.0
  0
SPLINE
  5
176
100
AcDbEntity
  8
0
 62
7
100
AcDbSpline
 70
8
 71
3
 72
8
 73
4
 74
0
 40
0
 40
0
 40
0
 40
0
 40
1
 40
1
 40
1
 40
1
 10
223.520668
 20
191.235818
 30
0.0
 10
222.747163
 20
190.789234
 30
0.0
 10
222.270664
 20
189.963914
 30
0.0
 10
222.270664
 20
189.070747
 30
0.0
  0
SPLINE
  5
177
100
AcDbEntity
  8
0
 62
7
100
AcDbSpline
 70
8
 71
3
 72
8
 73
4
 74
0
 40
0
 40
0
 40
0
 40
0
 40
1
 40
1
 40
1
 40
1
 10
222.270664
 20
189.070747
 30
0.0
 10
222.270664
 20
188.177580
 30
0.0
 10
222.747163
 20
187.352260
 30
0.0
 10
223.520668
 20
186.905677
 30
0.0
  0
SPLINE
  5
178
100
AcDbEntity
  8
0
 62
7
100
AcDbSpline
 70
8
 71
3
 72
8
 73
4
 74
0
 40
0
 40
0
 40
0
 40
0
 40
1
 40
1
 40
1
 40
1
 10
223.520668
 20
186.905677
 30
0.0
 10
224.294173
 20
186.459093
 30
0.0
 10
225.247171
 20
186.459093
 30
0.0
 10
226.020676
 20
186.905677
 30
0.0
  0
SPLINE
  5
179
100
AcDbEntity
  8
0
 62
7
100
AcDbSpline
 70
8
 71
3
 72
8
 73
4
 74
0
 40
0
 40
0
 40
0
 40
0
 40
1
 40
1
 40
1
 40
1
 10
226.020676
 20
186.905677
 30
0.0
 10
226.794182
 20
187.352260
 30
0.0
 10
227.270680
 20
188.177580
 30
0.0
 10
227.270680
 20
189.070747
 30
0.0
  0
LWPOLYLINE
  5
17a
100
AcDbEntity
  8
0
 62
7
100
AcDbPolyline
 90
1
 70
1
 10
227.270680
 20
271.070758
 30
0.0
  0
SPLINE
  5
17b
100
AcDbEntity
  8
0
 62
7
100
AcDbSpline
 70
8
 71
3
 72
8
 73
4
 74
0
 40
0
 40
0
 40
0
 40
0
 40
1
 40
1
 40
1
 40
1
 10
220.270679
 20
271.570741
 30
0.0
 10
220.270683
 20
272.896825
 30
0.0
 10
219.743902
 20
274.168597
 30
0.0
 10
218.806222
 20
275.106282
 30
0.0
  0
SPLINE
  5
17c
100
AcDbEntity
  8
0
 62
7
100
AcDbSpline
 70
8
 71
3
 72
8
 73
4
 74
0
 40
0
 40
0
 40
0
 40
0
 40
1
 40
1
 40
1
 40
1
 10
218.806222
 20
275.106282
 30
0.0
 10
217.868542
 20
276.043967
 30
0.0
 10
216.596772
 20
276.570755
 30
0.0
 10
215.270689
 20
276.570758
 30
0.0
  0
LWPOLYLINE
  5
17d
100
AcDbEntity
  8
0
 62
7
100
AcDbPolyline
 90
1
 70
1
 10
227.270680
 20
189.070747
 30
0.0
  0
SPLINE
  5
17e
100
AcDbEntity
  8
0
 62
7
100
AcDbSpline
 70
8
 71
3
 72
8
 73
4
 74
0
 40
0
 40
0
 40
0
 40
0
 40
1
 40
1
 40
1
 40
1
 10
132.270685
 20
276.570758
 30
0.0
 10
130.944597
 20
276.570762
 30
0.0
 10
129.672821
 20
276.043977
 30
0.0
 10
128.735135
 20
275.106291
 30
0.0
  0
SPLINE
  5
17f
100
AcDbEntity
  8
0
 62
7
100
AcDbSpline
 70
8
 71
3
 72
8
 73
4
 74
0
 40
0
 40
0
 40
0
 40
0
 40
1
 40
1
 40
1
 40
1
 10
128.735135
 20
275.106291
 30
0.0
 10
127.797449
 20
274.168605
 30
0.0
 10
127.270664
 20
272.896829
 30
0.0
 10
127.270669
 20
271.570741
 30
0.0
  0
LWPOLYLINE
  5
180
100
AcDbEntity
  8
0
 62
7
100
AcDbPolyline
 90
2
 70
0
 10
215.270662
 20
276.570731
 30
0.0
 10
132.270712
 20
276.570731
 30
0.0
  0
SPLINE
  5
181
100
AcDbEntity
  8
0
 62
7
100
AcDbSpline
 70
8
 71
3
 72
8
 73
4
 74
0
 40
0
 40
0
 40
0
 40
0
 40
1
 40
1
 40
1
 40
1
 10
127.270669
 20
188.570738
 30
0.0
 10
127.270671
 20
187.244654
 30
0.0
 10
127.797459
 20
185.972885
 30
0.0
 10
128.735144
 20
185.035204
 30
0.0
  0
SPLINE
  5
182
100
AcDbEntity
  8
0
 62
7
100
AcDbSpline
 70
8
 71
3
 72
8
 73
4
 74
0
 40
0
 40
0
 40
0
 40
0
 40
1
 40
1
 40
1
 40
1
 10
128.735144
 20
185.035204
 30
0.0
 10
129.672829
 20
184.097524
 30
0.0
 10
130.944602
 20
183.570743
 30
0.0
 10
132.270685
 20
183.570748
 30
0.0
  0
LWPOLYLINE
  5
183
100
AcDbEntity
  8
0
 62
7
100
AcDbPolyline
 90
2
 70
0
 10
127.270589
 20
271.570741
 30
0.0
 10
127.270589
 20
188.570738
 30
0.0
  0
SPLINE
  5
184
100
AcDbEntity
  8
0
 62
7
100
AcDbSpline
 70
8
 71
3
 72
8
 73
4
 74
0
 40
0
 40
0
 40
0
 40
0
 40
1
 40
1
 40
1
 40
1
 10
215.270689
 20
183.570748
 30
0.0
 10
218.032104
 20
183.570753
 30
0.0
 10
220.270673
 20
185.809322
 30
0.0
 10
220.270679
 20
188.570738
 30
0.0
  0
LWPOLYLINE
  5
185
100
AcDbEntity
  8
0
 62
7
100
AcDbPolyline
 90
2
 70
0
 10
132.270712
 20
183.570721
 30
0.0
 10
215.270662
 20
183.570721
 30
0.0
  0
LWPOLYLINE
  5
186
100
AcDbEntity
  8
0
 62
7
100
AcDbPolyline
 90
2
 70
0
 10
220.270758
 20
188.570738
 30
0.0
 10
220.270758
 20
271.570741
 30
0.0
  0
LWPOLYLINE
  5
187
100
AcDbEntity
  8
0
 62
7
100
AcDbPolyline
 90
2
 70
0
 10
93.770635
 20
227.420726
 30
0.0
 10
103.770615
 20
237.420732
 30
0.0
  0
SPLINE
  5
188
100
AcDbEntity
  8
0
 62
7
100
AcDbSpline
 70
8
 71
3
 72
8
 73
4
 74
0
 40
0
 40
0
 40
0
 40
0
 40
1
 40
1
 40
1
 40
1
 10
125.270683
 20
189.070747
 30
0.0
 10
125.270683
 20
189.963914
 30
0.0
 10
124.794184
 20
190.789234
 30
0.0
 10
124.020679
 20
191.235818
 30
0.0
  0
SPLINE
  5
189
100
AcDbEntity
  8
0
 62
7
100
AcDbSpline
 70
8
 71
3
 72
8
 73
4
 74
0
 40
0
 40
0
 40
0
 40
0
 40
1
 40
1
 40
1
 40
1
 10
124.020679
 20
191.235818
 30
0.0
 10
123.247174
 20
191.682401
 30
0.0
 10
122.294176
 20
191.682401
 30
0.0
 10
121.520671
 20
191.235818
 30
0.0
  0
SPLINE
  5
18a
100
AcDbEntity
  8
0
 62
7
100
AcDbSpline
 70
8
 71
3
 72
8
 73
4
 74
0
 40
0
 40
0
 40
0
 40
0
 40
1
 40
1
 40
1
 40
1
 10
121.520671
 20
191.235818
 30
0.0
 10
120.747166
 20
190.789234
 30
0.0
 10
120.270667
 20
189.963914
 30
0.0
 10
120.270667
 20
189.070747
 30
0.0
  0
SPLINE
  5
18b
100
AcDbEntity
  8
0
 62
7
100
AcDbSpline
 70
8
 71
3
 72
8
 73
4
 74
0
 40
0
 40
0
 40
0
 40
0
 40
1
 40
1
 40
1
 40
1
 10
120.270667
 20
189.070747
 30
0.0
 10
120.270667
 20
188.177580
 30
0.0
 10
120.747166
 20
187.352260
 30
0.0
 10
121.520671
 20
186.905677
 30
0.0
  0
SPLINE
  5
18c
100
AcDbEntity
  8
0
 62
7
100
AcDbSpline
 70
8
 71
3
 72
8
 73
4
 74
0
 40
0
 40
0
 40
0
 40
0
 40
1
 40
1
 40
1
 40
1
 10
121.520671
 20
186.905677
 30
0.0
 10
122.294176
 20
186.459093
 30
0.0
 10
123.247174
 20
186.459093
 30
0.0
 10
124.020679
 20
186.905677
 30
0.0
  0
SPLINE
  5
18d
100
AcDbEntity
  8
0
 62
7
100
AcDbSpline
 70
8
 71
3
 72
8
 73
4
 74
0
 40
0
 40
0
 40
0
 40
0
 40
1
 40
1
 40
1
 40
1
 10
124.020679
 20
186.905677
 30
0.0
 10
124.794184
 20
187.352260
 30
0.0
 10
125.270683
 20
188.177580
 30
0.0
 10
125.270683
 20
189.070747
 30
0.0
  0
LWPOLYLINE
  5
18e
100
AcDbEntity
  8
0
 62
7
100
AcDbPolyline
 90
2
 70
0
 10
103.770615
 20
187.420779
 30
0.0
 10
93.770635
 20
197.420759
 30
0.0
  0
SPLINE
  5
18f
100
AcDbEntity
  8
0
 62
7
100
AcDbSpline
 70
8
 71
3
 72
8
 73
4
 74
0
 40
0
 40
0
 40
0
 40
0
 40
1
 40
1
 40
1
 40
1
 10
465.170679
 20
47.000901
 30
0.0
 10
465.172324
 20
48.431058
 30
0.0
 10
464.410288
 20
49.753282
 30
0.0
 10
463.172009
 20
50.468836
 30
0.0
  0
SPLINE
  5
190
100
AcDbEntity
  8
0
 62
7
100
AcDbSpline
 70
8
 71
3
 72
8
 73
4
 74
0
 40
0
 40
0
 40
0
 40
0
 40
1
 40
1
 40
1
 40
1
 10
463.172009
 20
50.468836
 30
0.0
 10
461.933730
 20
51.184390
 30
0.0
 10
460.407633
 20
51.184390
 30
0.0
 10
459.169354
 20
50.468836
 30
0.0
  0
SPLINE
  5
191
100
AcDbEntity
  8
0
 62
7
100
AcDbSpline
 70
8
 71
3
 72
8
 73
4
 74
0
 40
0
 40
0
 40
0
 40
0
 40
1
 40
1
 40
1
 40
1
 10
459.169354
 20
50.468836
 30
0.0
 10
457.931074
 20
49.753282
 30
0.0
 10
457.169039
 20
48.431058
 30
0.0
 10
457.170684
 20
47.000901
 30
0.0
  0
SPLINE
  5
192
100
AcDbEntity
  8
0
 62
7
100
AcDbSpline
 70
8
 71
3
 72
8
 73
4
 74
0
 40
0
 40
0
 40
0
 40
0
 40
1
 40
1
 40
1
 40
1
 10
457.170684
 20
47.000901
 30
0.0
 10
457.169039
 20
45.570744
 30
0.0
 10
457.931074
 20
44.248519
 30
0.0
 10
459.169354
 20
43.532966
 30
0.0
  0
SPLINE
  5
193
100
AcDbEntity
  8
0
 62
7
100
AcDbSpline
 70
8
 71
3
 72
8
 73
4
 74
0
 40
0
 40
0
 40
0
 40
0
 40
1
 40
1
 40
1
 40
1
 10
459.169354
 20
43.532966
 30
0.0
 10
460.407633
 20
42.817412
 30
0.0
 10
461.933730
 20
42.817412
 30
0.0
 10
463.172009
 20
43.532966
 30
0.0
  0
SPLINE
  5
194
100
AcDbEntity
  8
0
 62
7
100
AcDbSpline
 70
8
 71
3
 72
8
 73
4
 74
0
 40
0
 40
0
 40
0
 40
0
 40
1
 40
1
 40
1
 40
1
 10
463.172009
 20
43.532966
 30
0.0
 10
464.410288
 20
44.248519
 30
0.0
 10
465.172324
 20
45.570744
 30
0.0
 10
465.170679
 20
47.000901
 30
0.0
  0
LWPOLYLINE
  5
195
100
AcDbEntity
  8
0
 62
7
100
AcDbPolyline
 90
1
 70
1
 10
125.270683
 20
189.070747
 30
0.0
  0
LWPOLYLINE
  5
196
100
AcDbEntity
  8
0
 62
7
100
AcDbPolyline
 90
1
 70
1
 10
465.170679
 20
47.000901
 30
0.0
  0
LWPOLYLINE
  5
197
100
AcDbEntity
  8
0
 62
7
100
AcDbPolyline
 90
2
 70
0
 10
390.820645
 20
181.000929
 30
0.0
 10
397.170672
 20
181.000929
 30
0.0
  0
LWPOLYLINE
  5
198
100
AcDbEntity
  8
0
 62
7
100
AcDbPolyline
 90
2
 70
0
 10
390.820645
 20
197.350909
 30
0.0
 10
390.820645
 20
181.000929
 30
0.0
  0
LWPOLYLINE
  5
199
100
AcDbEntity
  8
0
 62
7
100
AcDbPolyline
 90
2
 70
0
 10
410.820605
 20
197.350909
 30
0.0
 10
390.820645
 20
197.350909
 30
0.0
  0
LWPOLYLINE
  5
19a
100
AcDbEntity
  8
0
 62
7
100
AcDbPolyline
 90
2
 70
0
 10
410.820605
 20
191.000936
 30
0.0
 10
410.820605
 20
197.350909
 30
0.0
  0
LWPOLYLINE
  5
19b
100
AcDbEntity
  8
0
 62
7
100
AcDbPolyline
 90
2
 70
0
 10
483.520644
 20
191.000936
 30
0.0
 10
410.820605
 20
191.000936
 30
0.0
  0
LWPOLYLINE
  5
19c
100
AcDbEntity
  8
0
 62
7
100
AcDbPolyline
 90
2
 70
0
 10
483.520644
 20
197.350909
 30
0.0
 10
483.520644
 20
191.000936
 30
0.0
  0
LWPOLYLINE
  5
19d
100
AcDbEntity
  8
0
 62
7
100
AcDbPolyline
 90
2
 70
0
 10
503.520631
 20
197.350909
 30
0.0
 10
483.520644
 20
197.350909
 30
0.0
  0
LWPOLYLINE
  5
19e
100
AcDbEntity
  8
0
 62
7
100
AcDbPolyline
 90
2
 70
0
 10
503.520631
 20
177.350923
 30
0.0
 10
503.520631
 20
197.350909
 30
0.0
  0
LWPOLYLINE
  5
19f
100
AcDbEntity
  8
0
 62
7
100
AcDbPolyline
 90
2
 70
0
 10
497.170578
 20
177.350923
 30
0.0
 10
503.520631
 20
177.350923
 30
0.0
  0
LWPOLYLINE
  5
1a0
100
AcDbEntity
  8
0
 62
7
100
AcDbPolyline
 90
2
 70
0
 10
497.170578
 20
60.000885
 30
0.0
 10
497.170578
 20
177.350923
 30
0.0
  0
LWPOLYLINE
  5
1a1
100
AcDbEntity
  8
0
 62
7
100
AcDbPolyline
 90
2
 70
0
 10
503.520631
 20
60.000885
 30
0.0
 10
497.170578
 20
60.000885
 30
0.0
  0
LWPOLYLINE
  5
1a2
100
AcDbEntity
  8
0
 62
7
100
AcDbPolyline
 90
2
 70
0
 10
503.520631
 20
40.000899
 30
0.0
 10
503.520631
 20
60.000885
 30
0.0
  0
SPLINE
  5
1a3
100
AcDbEntity
  8
0
 62
7
100
AcDbSpline
 70
8
 71
3
 72
8
 73
4
 74
0
 40
0
 40
0
 40
0
 40
0
 40
1
 40
1
 40
1
 40
1
 10
454.170680
 20
45.000915
 30
0.0
 10
454.170675
 20
43.674832
 30
0.0
 10
454.697456
 20
42.403060
 30
0.0
 10
455.635136
 20
41.465374
 30
0.0
  0
SPLINE
  5
1a4
100
AcDbEntity
  8
0
 62
7
100
AcDbSpline
 70
8
 71
3
 72
8
 73
4
 74
0
 40
0
 40
0
 40
0
 40
0
 40
1
 40
1
 40
1
 40
1
 10
455.635136
 20
41.465374
 30
0.0
 10
456.572817
 20
40.527689
 30
0.0
 10
457.844586
 20
40.000902
 30
0.0
 10
459.170670
 20
40.000899
 30
0.0
  0
LWPOLYLINE
  5
1a5
100
AcDbEntity
  8
0
 62
7
100
AcDbPolyline
 90
2
 70
0
 10
459.170723
 20
40.000899
 30
0.0
 10
503.520631
 20
40.000899
 30
0.0
  0
SPLINE
  5
1a6
100
AcDbEntity
  8
0
 62
7
100
AcDbSpline
 70
8
 71
3
 72
8
 73
4
 74
0
 40
0
 40
0
 40
0
 40
0
 40
1
 40
1
 40
1
 40
1
 10
455.894493
 20
55.441956
 30
0.0
 10
454.799603
 20
54.492272
 30
0.0
 10
454.170680
 20
53.114217
 30
0.0
 10
454.170680
 20
51.664844
 30
0.0
  0
SPLINE
  5
1a7
100
AcDbEntity
  8
0
 62
7
100
AcDbSpline
 70
8
 71
3
 72
8
 73
4
 74
0
 40
0
 40
0
 40
0
 40
0
 40
1
 40
1
 40
1
 40
1
 10
455.894493
 20
55.441956
 30
0.0
 10
477.077943
 20
73.815879
 30
0.0
 10
483.210393
 20
104.162145
 30
0.0
 10
470.823947
 20
129.319958
 30
0.0
  0
SPLINE
  5
1a8
100
AcDbEntity
  8
0
 62
7
100
AcDbSpline
 70
8
 71
3
 72
8
 73
4
 74
0
 40
0
 40
0
 40
0
 40
0
 40
1
 40
1
 40
1
 40
1
 10
470.823947
 20
129.319958
 30
0.0
 10
458.437500
 20
154.477771
 30
0.0
 10
430.646434
 20
168.121796
 30
0.0
 10
403.166580
 20
162.536346
 30
0.0
  0
SPLINE
  5
1a9
100
AcDbEntity
  8
0
 62
7
100
AcDbSpline
 70
8
 71
3
 72
8
 73
4
 74
0
 40
0
 40
0
 40
0
 40
0
 40
1
 40
1
 40
1
 40
1
 10
397.170672
 20
167.436165
 30
0.0
 10
397.170670
 20
165.935460
 30
0.0
 10
397.844731
 20
164.514113
 30
0.0
 10
399.006775
 20
163.564499
 30
0.0
  0
SPLINE
  5
1aa
100
AcDbEntity
  8
0
 62
7
100
AcDbSpline
 70
8
 71
3
 72
8
 73
4
 74
0
 40
0
 40
0
 40
0
 40
0
 40
1
 40
1
 40
1
 40
1
 10
399.006775
 20
163.564499
 30
0.0
 10
400.168819
 20
162.614884
 30
0.0
 10
401.695946
 20
162.237434
 30
0.0
 10
403.166580
 20
162.536346
 30
0.0
  0
LWPOLYLINE
  5
1ab
100
AcDbEntity
  8
0
 62
7
100
AcDbPolyline
 90
2
 70
0
 10
454.170600
 20
51.664817
 30
0.0
 10
454.170600
 20
45.000889
 30
0.0
  0
SPLINE
  5
1ac
100
AcDbEntity
  8
0
 62
7
100
AcDbSpline
 70
8
 71
3
 72
8
 73
4
 74
0
 40
0
 40
0
 40
0
 40
0
 40
1
 40
1
 40
1
 40
1
 10
492.170667
 20
47.000901
 30
0.0
 10
492.172312
 20
48.431058
 30
0.0
 10
491.410277
 20
49.753282
 30
0.0
 10
490.171998
 20
50.468836
 30
0.0
  0
SPLINE
  5
1ad
100
AcDbEntity
  8
0
 62
7
100
AcDbSpline
 70
8
 71
3
 72
8
 73
4
 74
0
 40
0
 40
0
 40
0
 40
0
 40
1
 40
1
 40
1
 40
1
 10
490.171998
 20
50.468836
 30
0.0
 10
488.933719
 20
51.184390
 30
0.0
 10
487.407621
 20
51.184390
 30
0.0
 10
486.169342
 20
50.468836
 30
0.0
  0
SPLINE
  5
1ae
100
AcDbEntity
  8
0
 62
7
100
AcDbSpline
 70
8
 71
3
 72
8
 73
4
 74
0
 40
0
 40
0
 40
0
 40
0
 40
1
 40
1
 40
1
 40
1
 10
486.169342
 20
50.468836
 30
0.0
 10
484.931063
 20
49.753282
 30
0.0
 10
484.169028
 20
48.431058
 30
0.0
 10
484.170673
 20
47.000901
 30
0.0
  0
SPLINE
  5
1af
100
AcDbEntity
  8
0
 62
7
100
AcDbSpline
 70
8
 71
3
 72
8
 73
4
 74
0
 40
0
 40
0
 40
0
 40
0
 40
1
 40
1
 40
1
 40
1
 10
484.170673
 20
47.000901
 30
0.0
 10
484.169028
 20
45.570744
 30
0.0
 10
484.931063
 20
44.248519
 30
0.0
 10
486.169342
 20
43.532966
 30
0.0
  0
SPLINE
  5
1b0
100
AcDbEntity
  8
0
 62
7
100
AcDbSpline
 70
8
 71
3
 72
8
 73
4
 74
0
 40
0
 40
0
 40
0
 40
0
 40
1
 40
1
 40
1
 40
1
 10
486.169342
 20
43.532966
 30
0.0
 10
487.407621
 20
42.817412
 30
0.0
 10
488.933719
 20
42.817412
 30
0.0
 10
490.171998
 20
43.532966
 30
0.0
  0
SPLINE
  5
1b1
100
AcDbEntity
  8
0
 62
7
100
AcDbSpline
 70
8
 71
3
 72
8
 73
4
 74
0
 40
0
 40
0
 40
0
 40
0
 40
1
 40
1
 40
1
 40
1
 10
490.171998
 20
43.532966
 30
0.0
 10
491.410277
 20
44.248519
 30
0.0
 10
492.172312
 20
45.570744
 30
0.0
 10
492.170667
 20
47.000901
 30
0.0
  0
LWPOLYLINE
  5
1b2
100
AcDbEntity
  8
0
 62
7
100
AcDbPolyline
 90
2
 70
0
 10
397.170672
 20
181.000929
 30
0.0
 10
397.170672
 20
167.436165
 30
0.0
  0
LWPOLYLINE
  5
1b3
100
AcDbEntity
  8
0
 62
7
100
AcDbPolyline
 90
1
 70
1
 10
492.170667
 20
47.000901
 30
0.0
  0
ENDSEC
  0
SECTION
  2
OBJECTS
  0
DICTIONARY
  5
C
330
0
100
AcDbDictionary
  3
ACAD_GROUP
350
D
  3
ACAD_MLINESTYLE
350
17
  0
DICTIONARY
  5
D
330
C
100
AcDbDictionary
  0
DICTIONARY
  5
1A
330
C
100
AcDbDictionary
  0
DICTIONARY
  5
17
330
C
100
AcDbDictionary
  3
STANDARD
350
18
  0
DICTIONARY
  5
19
330
C
100
AcDbDictionary
  0
ENDSEC
  0
EOF
