  0
SECTION
  2
HEADER
  9
$ACADVER
  1
AC1014
  9
$HANDSEED
  5
FFFF
  9
$MEASUREMENT
 70
     1
  0
ENDSEC
  0
SECTION
  2
TABLES
  0
TABLE
  2
VPORT
  5
8
330
0
100
AcDbSymbolTable
 70
     4
  0
VPORT
  5
2E
330
8
100
AcDbSymbolTableRecord
100
AcDbViewportTableRecord
  2
*ACTIVE
 70
     0
 10
0.0
 20
0.0
 11
1.0
 21
1.0
 12
210.0
 22
148.5
 13
0.0
 23
0.0
 14
10.0
 24
10.0
 15
10.0
 25
10.0
 16
0.0
 26
0.0
 36
1.0
 17
0.0
 27
0.0
 37
0.0
 40
341.0
 41
1.24
 42
50.0
 43
0.0
 44
0.0
 50
0.0
 51
0.0
 71
     0
 72
   100
 73
     1
 74
     3
 75
     0
 76
     0
 77
     0
 78
     0
  0
ENDTAB
  0
TABLE
  2
LTYPE
  5
5
330
0
100
AcDbSymbolTable
 70
     1
  0
LTYPE
  5
14
330
5
100
AcDbSymbolTableRecord
100
AcDbLinetypeTableRecord
  2
BYBLOCK
 70
     0
  3

 72
    65
 73
     0
 40
0.0
  0
LTYPE
  5
15
330
5
100
AcDbSymbolTableRecord
100
AcDbLinetypeTableRecord
  2
BYLAYER
 70
     0
  3

 72
    65
 73
     0
 40
0.0
  0
LTYPE
  5
16
330
5
100
AcDbSymbolTableRecord
100
AcDbLinetypeTableRecord
  2
CONTINUOUS
 70
     0
  3
Solid line
 72
    65
 73
     0
 40
0.0
  0
ENDTAB
  0
TABLE
  2
LAYER
  5
2
100
AcDbSymbolTable
 70
2
  0
LAYER
  5
50
100
AcDbSymbolTableRecord
100
AcDbLayerTableRecord
  2
0
 70
0
  6
CONTINUOUS
  0
LAYER
  5
51
100
AcDbSymbolTableRecord
100
AcDbLayerTableRecord
  2
FORMAT
 70
0
  6
CONTINUOUS
  0
ENDTAB
  0
TABLE
  2
STYLE
  5
3
330
0
100
AcDbSymbolTable
 70
     1
  0
STYLE
  5
11
330
3
100
AcDbSymbolTableRecord
100
AcDbTextStyleTableRecord
  2
STANDARD
 70
     0
 40
0.0
 41
1.0
 50
0.0
 71
     0
 42
2.5
  3
txt
  4

  0
ENDTAB
  0
TABLE
  2
VIEW
  5
6
330
0
100
AcDbSymbolTable
 70
     0
  0
ENDTAB
  0
TABLE
  2
UCS
  5
7
330
0
100
AcDbSymbolTable
 70
     0
  0
ENDTAB
  0
TABLE
  2
APPID
  5
9
330
0
100
AcDbSymbolTable
 70
     2
  0
APPID
  5
12
330
9
100
AcDbSymbolTableRecord
100
AcDbRegAppTableRecord
  2
ACAD
 70
     0
  0
ENDTAB
  0
TABLE
  2
DIMSTYLE
  5
A
330
0
100
AcDbSymbolTable
 70
     1
  0
DIMSTYLE
105
27
330
A
100
AcDbSymbolTableRecord
100
AcDbDimStyleTableRecord
  2
ISO-25
 70
     0
  3

  4

  5

  6

  7

 40
1.0
 41
2.5
 42
0.625
 43
3.75
 44
1.25
 45
0.0
 46
0.0
 47
0.0
 48
0.0
140
2.5
141
2.5
142
0.0
143
0.03937007874016
144
1.0
145
0.0
146
1.0
147
0.625
 71
     0
 72
     0
 73
     0
 74
     0
 75
     0
 76
     0
 77
     1
 78
     8
170
     0
171
     3
172
     1
173
     0
174
     0
175
     0
176
     0
177
     0
178
     0
270
     2
271
     2
272
     2
273
     2
274
     3
340
11
275
     0
280
     0
281
     0
282
     0
283
     0
284
     8
285
     0
286
     0
287
     3
288
     0
  0
ENDTAB
  0
TABLE
  2
BLOCK_RECORD
  5
1
330
0
100
AcDbSymbolTable
 70
     1
  0
BLOCK_RECORD
  5
1F
330
1
100
AcDbSymbolTableRecord
100
AcDbBlockTableRecord
  2
*MODEL_SPACE
  0
BLOCK_RECORD
  5
1B
330
1
100
AcDbSymbolTableRecord
100
AcDbBlockTableRecord
  2
*PAPER_SPACE
  0
ENDTAB
  0
ENDSEC
  0
SECTION
  2
BLOCKS
  0
BLOCK
  5
20
330
1F
100
AcDbEntity
  8
0
100
AcDbBlockBegin
  2
*MODEL_SPACE
 70
     0
 10
0.0
 20
0.0
 30
0.0
  3
*MODEL_SPACE
  1

  0
ENDBLK
  5
21
330
1F
100
AcDbEntity
  8
0
100
AcDbBlockEnd
  0
BLOCK
  5
1C
330
1B
100
AcDbEntity
 67
     1
  8
0
100
AcDbBlockBegin
  2
*PAPER_SPACE
  1

  0
ENDBLK
  5
1D
330
1B
100
AcDbEntity
 67
     1
  8
0
100
AcDbBlockEnd
  0
ENDSEC
  0
SECTION
  2
ENTITIES
  0
LWPOLYLINE
  5
100
100
AcDbEntity
  8
0
 62
7
100
AcDbPolyline
 90
4
 70
0
 10
15.506647
 20
14.851171
 30
0.0
 10
7.002013
 20
0.120727
 30
0.0
 10
0.120782
 20
29.801600
 30
0.0
 10
26.187321
 20
44.851169
 30
0.0
  0
LWPOLYLINE
  5
101
100
AcDbEntity
  8
0
 62
7
100
AcDbPolyline
 90
4
 70
0
 10
423.825882
 20
44.851169
 30
0.0
 10
449.892420
 20
29.801600
 30
0.0
 10
443.011190
 20
0.120727
 30
0.0
 10
434.506555
 20
14.851171
 30
0.0
  0
LWPOLYLINE
  5
102
100
AcDbEntity
  8
0
 62
7
100
AcDbPolyline
 90
2
 70
0
 10
423.825882
 20
44.851169
 30
0.0
 10
26.187321
 20
44.851169
 30
0.0
  0
LWPOLYLINE
  5
103
100
AcDbEntity
  8
0
 62
7
100
AcDbPolyline
 90
2
 70
0
 10
434.506555
 20
14.851171
 30
0.0
 10
15.506647
 20
14.851171
 30
0.0
  0
LWPOLYLINE
  5
104
100
AcDbEntity
  8
0
 62
7
100
AcDbPolyline
 90
4
 70
0
 10
434.506555
 20
224.851172
 30
0.0
 10
443.011190
 20
239.581611
 30
0.0
 10
449.892420
 20
209.900732
 30
0.0
 10
423.825882
 20
194.851179
 30
0.0
  0
LWPOLYLINE
  5
105
100
AcDbEntity
  8
0
 62
7
100
AcDbPolyline
 90
2
 70
0
 10
26.187321
 20
194.851179
 30
0.0
 10
423.825882
 20
194.851179
 30
0.0
  0
SPLINE
  5
106
100
AcDbEntity
  8
0
 62
7
100
AcDbSpline
 70
8
 71
3
 72
8
 73
4
 74
0
 40
0
 40
0
 40
0
 40
0
 40
1
 40
1
 40
1
 40
1
 10
41.970669
 20
129.501159
 30
0.0
 10
41.972463
 20
130.395516
 30
0.0
 10
41.496359
 20
131.222703
 30
0.0
 10
40.722121
 20
131.670400
 30
0.0
  0
SPLINE
  5
107
100
AcDbEntity
  8
0
 62
7
100
AcDbSpline
 70
8
 71
3
 72
8
 73
4
 74
0
 40
0
 40
0
 40
0
 40
0
 40
1
 40
1
 40
1
 40
1
 10
40.722121
 20
131.670400
 30
0.0
 10
39.947883
 20
132.118097
 30
0.0
 10
38.993465
 20
132.118097
 30
0.0
 10
38.219227
 20
131.670400
 30
0.0
  0
SPLINE
  5
108
100
AcDbEntity
  8
0
 62
7
100
AcDbSpline
 70
8
 71
3
 72
8
 73
4
 74
0
 40
0
 40
0
 40
0
 40
0
 40
1
 40
1
 40
1
 40
1
 10
38.219227
 20
131.670400
 30
0.0
 10
37.444989
 20
131.222703
 30
0.0
 10
36.968885
 20
130.395516
 30
0.0
 10
36.970679
 20
129.501159
 30
0.0
  0
SPLINE
  5
109
100
AcDbEntity
  8
0
 62
7
100
AcDbSpline
 70
8
 71
3
 72
8
 73
4
 74
0
 40
0
 40
0
 40
0
 40
0
 40
1
 40
1
 40
1
 40
1
 10
36.970679
 20
129.501159
 30
0.0
 10
36.968885
 20
128.606803
 30
0.0
 10
37.444989
 20
127.779615
 30
0.0
 10
38.219227
 20
127.331918
 30
0.0
  0
SPLINE
  5
10a
100
AcDbEntity
  8
0
 62
7
100
AcDbSpline
 70
8
 71
3
 72
8
 73
4
 74
0
 40
0
 40
0
 40
0
 40
0
 40
1
 40
1
 40
1
 40
1
 10
38.219227
 20
127.331918
 30
0.0
 10
38.993465
 20
126.884221
 30
0.0
 10
39.947883
 20
126.884221
 30
0.0
 10
40.722121
 20
127.331918
 30
0.0
  0
SPLINE
  5
10b
100
AcDbEntity
  8
0
 62
7
100
AcDbSpline
 70
8
 71
3
 72
8
 73
4
 74
0
 40
0
 40
0
 40
0
 40
0
 40
1
 40
1
 40
1
 40
1
 10
40.722121
 20
127.331918
 30
0.0
 10
41.496359
 20
127.779615
 30
0.0
 10
41.972463
 20
128.606803
 30
0.0
 10
41.970669
 20
129.501159
 30
0.0
  0
LWPOLYLINE
  5
10c
100
AcDbEntity
  8
0
 62
7
100
AcDbPolyline
 90
5
 70
0
 10
26.187321
 20
194.851179
 30
0.0
 10
0.120782
 20
209.900732
 30
0.0
 10
7.002013
 20
239.581611
 30
0.0
 10
15.506647
 20
224.851172
 30
0.0
 10
434.506555
 20
224.851172
 30
0.0
  0
SPLINE
  5
10d
100
AcDbEntity
  8
0
 62
7
100
AcDbSpline
 70
8
 71
3
 72
8
 73
4
 74
0
 40
0
 40
0
 40
0
 40
0
 40
1
 40
1
 40
1
 40
1
 10
16.970666
 20
129.501159
 30
0.0
 10
16.972460
 20
130.395516
 30
0.0
 10
16.496356
 20
131.222703
 30
0.0
 10
15.722118
 20
131.670400
 30
0.0
  0
SPLINE
  5
10e
100
AcDbEntity
  8
0
 62
7
100
AcDbSpline
 70
8
 71
3
 72
8
 73
4
 74
0
 40
0
 40
0
 40
0
 40
0
 40
1
 40
1
 40
1
 40
1
 10
15.722118
 20
131.670400
 30
0.0
 10
14.947880
 20
132.118097
 30
0.0
 10
13.993462
 20
132.118097
 30
0.0
 10
13.219224
 20
131.670400
 30
0.0
  0
SPLINE
  5
10f
100
AcDbEntity
  8
0
 62
7
100
AcDbSpline
 70
8
 71
3
 72
8
 73
4
 74
0
 40
0
 40
0
 40
0
 40
0
 40
1
 40
1
 40
1
 40
1
 10
13.219224
 20
131.670400
 30
0.0
 10
12.444986
 20
131.222703
 30
0.0
 10
11.968882
 20
130.395516
 30
0.0
 10
11.970676
 20
129.501159
 30
0.0
  0
SPLINE
  5
110
100
AcDbEntity
  8
0
 62
7
100
AcDbSpline
 70
8
 71
3
 72
8
 73
4
 74
0
 40
0
 40
0
 40
0
 40
0
 40
1
 40
1
 40
1
 40
1
 10
11.970676
 20
129.501159
 30
0.0
 10
11.968882
 20
128.606803
 30
0.0
 10
12.444986
 20
127.779615
 30
0.0
 10
13.219224
 20
127.331918
 30
0.0
  0
SPLINE
  5
111
100
AcDbEntity
  8
0
 62
7
100
AcDbSpline
 70
8
 71
3
 72
8
 73
4
 74
0
 40
0
 40
0
 40
0
 40
0
 40
1
 40
1
 40
1
 40
1
 10
13.219224
 20
127.331918
 30
0.0
 10
13.993462
 20
126.884221
 30
0.0
 10
14.947880
 20
126.884221
 30
0.0
 10
15.722118
 20
127.331918
 30
0.0
  0
SPLINE
  5
112
100
AcDbEntity
  8
0
 62
7
100
AcDbSpline
 70
8
 71
3
 72
8
 73
4
 74
0
 40
0
 40
0
 40
0
 40
0
 40
1
 40
1
 40
1
 40
1
 10
15.722118
 20
127.331918
 30
0.0
 10
16.496356
 20
127.779615
 30
0.0
 10
16.972460
 20
128.606803
 30
0.0
 10
16.970666
 20
129.501159
 30
0.0
  0
LWPOLYLINE
  5
113
100
AcDbEntity
  8
0
 62
7
100
AcDbPolyline
 90
1
 70
1
 10
41.970669
 20
129.501159
 30
0.0
  0
SPLINE
  5
114
100
AcDbEntity
  8
0
 62
7
100
AcDbSpline
 70
8
 71
3
 72
8
 73
4
 74
0
 40
0
 40
0
 40
0
 40
0
 40
1
 40
1
 40
1
 40
1
 10
442.270674
 20
129.501159
 30
0.0
 10
442.272467
 20
130.395516
 30
0.0
 10
441.796364
 20
131.222703
 30
0.0
 10
441.022126
 20
131.670400
 30
0.0
  0
SPLINE
  5
115
100
AcDbEntity
  8
0
 62
7
100
AcDbSpline
 70
8
 71
3
 72
8
 73
4
 74
0
 40
0
 40
0
 40
0
 40
0
 40
1
 40
1
 40
1
 40
1
 10
441.022126
 20
131.670400
 30
0.0
 10
440.247888
 20
132.118097
 30
0.0
 10
439.293470
 20
132.118097
 30
0.0
 10
438.519232
 20
131.670400
 30
0.0
  0
SPLINE
  5
116
100
AcDbEntity
  8
0
 62
7
100
AcDbSpline
 70
8
 71
3
 72
8
 73
4
 74
0
 40
0
 40
0
 40
0
 40
0
 40
1
 40
1
 40
1
 40
1
 10
438.519232
 20
131.670400
 30
0.0
 10
437.744994
 20
131.222703
 30
0.0
 10
437.268890
 20
130.395516
 30
0.0
 10
437.270684
 20
129.501159
 30
0.0
  0
SPLINE
  5
117
100
AcDbEntity
  8
0
 62
7
100
AcDbSpline
 70
8
 71
3
 72
8
 73
4
 74
0
 40
0
 40
0
 40
0
 40
0
 40
1
 40
1
 40
1
 40
1
 10
437.270684
 20
129.501159
 30
0.0
 10
437.268890
 20
128.606803
 30
0.0
 10
437.744994
 20
127.779615
 30
0.0
 10
438.519232
 20
127.331918
 30
0.0
  0
SPLINE
  5
118
100
AcDbEntity
  8
0
 62
7
100
AcDbSpline
 70
8
 71
3
 72
8
 73
4
 74
0
 40
0
 40
0
 40
0
 40
0
 40
1
 40
1
 40
1
 40
1
 10
438.519232
 20
127.331918
 30
0.0
 10
439.293470
 20
126.884221
 30
0.0
 10
440.247888
 20
126.884221
 30
0.0
 10
441.022126
 20
127.331918
 30
0.0
  0
SPLINE
  5
119
100
AcDbEntity
  8
0
 62
7
100
AcDbSpline
 70
8
 71
3
 72
8
 73
4
 74
0
 40
0
 40
0
 40
0
 40
0
 40
1
 40
1
 40
1
 40
1
 10
441.022126
 20
127.331918
 30
0.0
 10
441.796364
 20
127.779615
 30
0.0
 10
442.272467
 20
128.606803
 30
0.0
 10
442.270674
 20
129.501159
 30
0.0
  0
LWPOLYLINE
  5
11a
100
AcDbEntity
  8
0
 62
7
100
AcDbPolyline
 90
1
 70
1
 10
16.970666
 20
129.501159
 30
0.0
  0
SPLINE
  5
11b
100
AcDbEntity
  8
0
 62
7
100
AcDbSpline
 70
8
 71
3
 72
8
 73
4
 74
0
 40
0
 40
0
 40
0
 40
0
 40
1
 40
1
 40
1
 40
1
 10
467.270677
 20
129.501159
 30
0.0
 10
467.272470
 20
130.395516
 30
0.0
 10
466.796367
 20
131.222703
 30
0.0
 10
466.022129
 20
131.670400
 30
0.0
  0
SPLINE
  5
11c
100
AcDbEntity
  8
0
 62
7
100
AcDbSpline
 70
8
 71
3
 72
8
 73
4
 74
0
 40
0
 40
0
 40
0
 40
0
 40
1
 40
1
 40
1
 40
1
 10
466.022129
 20
131.670400
 30
0.0
 10
465.247891
 20
132.118097
 30
0.0
 10
464.293472
 20
132.118097
 30
0.0
 10
463.519235
 20
131.670400
 30
0.0
  0
SPLINE
  5
11d
100
AcDbEntity
  8
0
 62
7
100
AcDbSpline
 70
8
 71
3
 72
8
 73
4
 74
0
 40
0
 40
0
 40
0
 40
0
 40
1
 40
1
 40
1
 40
1
 10
463.519235
 20
131.670400
 30
0.0
 10
462.744997
 20
131.222703
 30
0.0
 10
462.268893
 20
130.395516
 30
0.0
 10
462.270687
 20
129.501159
 30
0.0
  0
SPLINE
  5
11e
100
AcDbEntity
  8
0
 62
7
100
AcDbSpline
 70
8
 71
3
 72
8
 73
4
 74
0
 40
0
 40
0
 40
0
 40
0
 40
1
 40
1
 40
1
 40
1
 10
462.270687
 20
129.501159
 30
0.0
 10
462.268893
 20
128.606803
 30
0.0
 10
462.744997
 20
127.779615
 30
0.0
 10
463.519235
 20
127.331918
 30
0.0
  0
SPLINE
  5
11f
100
AcDbEntity
  8
0
 62
7
100
AcDbSpline
 70
8
 71
3
 72
8
 73
4
 74
0
 40
0
 40
0
 40
0
 40
0
 40
1
 40
1
 40
1
 40
1
 10
463.519235
 20
127.331918
 30
0.0
 10
464.293472
 20
126.884221
 30
0.0
 10
465.247891
 20
126.884221
 30
0.0
 10
466.022129
 20
127.331918
 30
0.0
  0
SPLINE
  5
120
100
AcDbEntity
  8
0
 62
7
100
AcDbSpline
 70
8
 71
3
 72
8
 73
4
 74
0
 40
0
 40
0
 40
0
 40
0
 40
1
 40
1
 40
1
 40
1
 10
466.022129
 20
127.331918
 30
0.0
 10
466.796367
 20
127.779615
 30
0.0
 10
467.272470
 20
128.606803
 30
0.0
 10
467.270677
 20
129.501159
 30
0.0
  0
LWPOLYLINE
  5
121
100
AcDbEntity
  8
0
 62
7
100
AcDbPolyline
 90
1
 70
1
 10
442.270674
 20
129.501159
 30
0.0
  0
LWPOLYLINE
  5
122
100
AcDbEntity
  8
0
 62
7
100
AcDbPolyline
 90
1
 70
1
 10
467.270677
 20
129.501159
 30
0.0
  0
LWPOLYLINE
  5
123
100
AcDbEntity
  8
0
 62
7
100
AcDbPolyline
 90
2
 70
0
 10
100.120688
 20
188.501179
 30
0.0
 10
100.120688
 20
194.851179
 30
0.0
  0
LWPOLYLINE
  5
124
100
AcDbEntity
  8
0
 62
7
100
AcDbPolyline
 90
2
 70
0
 10
379.120717
 20
188.501179
 30
0.0
 10
100.120688
 20
188.501179
 30
0.0
  0
LWPOLYLINE
  5
125
100
AcDbEntity
  8
0
 62
7
100
AcDbPolyline
 90
2
 70
0
 10
379.120717
 20
194.851179
 30
0.0
 10
379.120717
 20
188.501179
 30
0.0
  0
LWPOLYLINE
  5
126
100
AcDbEntity
  8
0
 62
7
100
AcDbPolyline
 90
2
 70
0
 10
479.120623
 20
194.851179
 30
0.0
 10
379.120717
 20
194.851179
 30
0.0
  0
LWPOLYLINE
  5
127
100
AcDbEntity
  8
0
 62
7
100
AcDbPolyline
 90
2
 70
0
 10
479.120623
 20
44.851169
 30
0.0
 10
479.120623
 20
194.851179
 30
0.0
  0
LWPOLYLINE
  5
128
100
AcDbEntity
  8
0
 62
7
100
AcDbPolyline
 90
2
 70
0
 10
379.120717
 20
44.851169
 30
0.0
 10
479.120623
 20
44.851169
 30
0.0
  0
LWPOLYLINE
  5
129
100
AcDbEntity
  8
0
 62
7
100
AcDbPolyline
 90
2
 70
0
 10
379.120717
 20
51.201169
 30
0.0
 10
379.120717
 20
44.851169
 30
0.0
  0
LWPOLYLINE
  5
12a
100
AcDbEntity
  8
0
 62
7
100
AcDbPolyline
 90
2
 70
0
 10
100.120688
 20
51.201169
 30
0.0
 10
379.120717
 20
51.201169
 30
0.0
  0
LWPOLYLINE
  5
12b
100
AcDbEntity
  8
0
 62
7
100
AcDbPolyline
 90
2
 70
0
 10
100.120688
 20
44.851169
 30
0.0
 10
100.120688
 20
51.201169
 30
0.0
  0
LWPOLYLINE
  5
12c
100
AcDbEntity
  8
0
 62
7
100
AcDbPolyline
 90
2
 70
0
 10
0.120782
 20
44.851169
 30
0.0
 10
100.120688
 20
44.851169
 30
0.0
  0
LWPOLYLINE
  5
12d
100
AcDbEntity
  8
0
 62
7
100
AcDbPolyline
 90
2
 70
0
 10
0.120782
 20
194.851179
 30
0.0
 10
0.120782
 20
44.851169
 30
0.0
  0
SPLINE
  5
12e
100
AcDbEntity
  8
0
 62
7
100
AcDbSpline
 70
8
 71
3
 72
8
 73
4
 74
0
 40
0
 40
0
 40
0
 40
0
 40
1
 40
1
 40
1
 40
1
 10
148.856541
 20
234.851178
 30
0.0
 10
148.857364
 20
235.566257
 30
0.0
 10
148.476346
 20
236.227369
 30
0.0
 10
147.857207
 20
236.585146
 30
0.0
  0
SPLINE
  5
12f
100
AcDbEntity
  8
0
 62
7
100
AcDbSpline
 70
8
 71
3
 72
8
 73
4
 74
0
 40
0
 40
0
 40
0
 40
0
 40
1
 40
1
 40
1
 40
1
 10
147.857207
 20
236.585146
 30
0.0
 10
147.238067
 20
236.942923
 30
0.0
 10
146.475018
 20
236.942923
 30
0.0
 10
145.855879
 20
236.585146
 30
0.0
  0
SPLINE
  5
130
100
AcDbEntity
  8
0
 62
7
100
AcDbSpline
 70
8
 71
3
 72
8
 73
4
 74
0
 40
0
 40
0
 40
0
 40
0
 40
1
 40
1
 40
1
 40
1
 10
145.855879
 20
236.585146
 30
0.0
 10
145.236739
 20
236.227369
 30
0.0
 10
144.855721
 20
235.566257
 30
0.0
 10
144.856544
 20
234.851178
 30
0.0
  0
SPLINE
  5
131
100
AcDbEntity
  8
0
 62
7
100
AcDbSpline
 70
8
 71
3
 72
8
 73
4
 74
0
 40
0
 40
0
 40
0
 40
0
 40
1
 40
1
 40
1
 40
1
 10
144.856544
 20
234.851178
 30
0.0
 10
144.855721
 20
234.136100
 30
0.0
 10
145.236739
 20
233.474987
 30
0.0
 10
145.855879
 20
233.117211
 30
0.0
  0
SPLINE
  5
132
100
AcDbEntity
  8
0
 62
7
100
AcDbSpline
 70
8
 71
3
 72
8
 73
4
 74
0
 40
0
 40
0
 40
0
 40
0
 40
1
 40
1
 40
1
 40
1
 10
145.855879
 20
233.117211
 30
0.0
 10
146.475018
 20
232.759434
 30
0.0
 10
147.238067
 20
232.759434
 30
0.0
 10
147.857207
 20
233.117211
 30
0.0
  0
SPLINE
  5
133
100
AcDbEntity
  8
0
 62
7
100
AcDbSpline
 70
8
 71
3
 72
8
 73
4
 74
0
 40
0
 40
0
 40
0
 40
0
 40
1
 40
1
 40
1
 40
1
 10
147.857207
 20
233.117211
 30
0.0
 10
148.476346
 20
233.474987
 30
0.0
 10
148.857364
 20
234.136100
 30
0.0
 10
148.856541
 20
234.851178
 30
0.0
  0
LWPOLYLINE
  5
134
100
AcDbEntity
  8
0
 62
7
100
AcDbPolyline
 90
2
 70
0
 10
100.120688
 20
194.851179
 30
0.0
 10
0.120782
 20
194.851179
 30
0.0
  0
LWPOLYLINE
  5
135
100
AcDbEntity
  8
0
 62
7
100
AcDbPolyline
 90
1
 70
1
 10
148.856541
 20
234.851178
 30
0.0
  0
LWPOLYLINE
  5
136
100
AcDbEntity
  8
0
 62
7
100
AcDbPolyline
 90
2
 70
0
 10
21.856435
 20
244.851158
 30
0.0
 10
15.506647
 20
244.851158
 30
0.0
  0
LWPOLYLINE
  5
137
100
AcDbEntity
  8
0
 62
7
100
AcDbPolyline
 90
2
 70
0
 10
21.856435
 20
254.851165
 30
0.0
 10
21.856435
 20
244.851158
 30
0.0
  0
LWPOLYLINE
  5
138
100
AcDbEntity
  8
0
 62
7
100
AcDbPolyline
 90
2
 70
0
 10
86.856491
 20
254.851165
 30
0.0
 10
21.856435
 20
254.851165
 30
0.0
  0
LWPOLYLINE
  5
139
100
AcDbEntity
  8
0
 62
7
100
AcDbPolyline
 90
2
 70
0
 10
86.856491
 20
261.201165
 30
0.0
 10
86.856491
 20
254.851165
 30
0.0
  0
LWPOLYLINE
  5
13a
100
AcDbEntity
  8
0
 62
7
100
AcDbPolyline
 90
2
 70
0
 10
106.856477
 20
261.201165
 30
0.0
 10
86.856491
 20
261.201165
 30
0.0
  0
LWPOLYLINE
  5
13b
100
AcDbEntity
  8
0
 62
7
100
AcDbPolyline
 90
2
 70
0
 10
106.856477
 20
254.851165
 30
0.0
 10
106.856477
 20
261.201165
 30
0.0
  0
LWPOLYLINE
  5
13c
100
AcDbEntity
  8
0
 62
7
100
AcDbPolyline
 90
2
 70
0
 10
171.856532
 20
254.851165
 30
0.0
 10
106.856477
 20
254.851165
 30
0.0
  0
LWPOLYLINE
  5
13d
100
AcDbEntity
  8
0
 62
7
100
AcDbPolyline
 90
2
 70
0
 10
171.856532
 20
244.851158
 30
0.0
 10
171.856532
 20
254.851165
 30
0.0
  0
LWPOLYLINE
  5
13e
100
AcDbEntity
  8
0
 62
7
100
AcDbPolyline
 90
2
 70
0
 10
178.206585
 20
244.851158
 30
0.0
 10
171.856532
 20
244.851158
 30
0.0
  0
LWPOLYLINE
  5
13f
100
AcDbEntity
  8
0
 62
7
100
AcDbPolyline
 90
2
 70
0
 10
178.206585
 20
224.851172
 30
0.0
 10
178.206585
 20
244.851158
 30
0.0
  0
LWPOLYLINE
  5
140
100
AcDbEntity
  8
0
 62
7
100
AcDbPolyline
 90
2
 70
0
 10
15.506647
 20
224.851172
 30
0.0
 10
178.206585
 20
224.851172
 30
0.0
  0
SPLINE
  5
141
100
AcDbEntity
  8
0
 62
7
100
AcDbSpline
 70
8
 71
3
 72
8
 73
4
 74
0
 40
0
 40
0
 40
0
 40
0
 40
1
 40
1
 40
1
 40
1
 10
48.856530
 20
234.851178
 30
0.0
 10
48.857352
 20
235.566257
 30
0.0
 10
48.476334
 20
236.227369
 30
0.0
 10
47.857195
 20
236.585146
 30
0.0
  0
SPLINE
  5
142
100
AcDbEntity
  8
0
 62
7
100
AcDbSpline
 70
8
 71
3
 72
8
 73
4
 74
0
 40
0
 40
0
 40
0
 40
0
 40
1
 40
1
 40
1
 40
1
 10
47.857195
 20
236.585146
 30
0.0
 10
47.238055
 20
236.942923
 30
0.0
 10
46.475007
 20
236.942923
 30
0.0
 10
45.855867
 20
236.585146
 30
0.0
  0
SPLINE
  5
143
100
AcDbEntity
  8
0
 62
7
100
AcDbSpline
 70
8
 71
3
 72
8
 73
4
 74
0
 40
0
 40
0
 40
0
 40
0
 40
1
 40
1
 40
1
 40
1
 10
45.855867
 20
236.585146
 30
0.0
 10
45.236727
 20
236.227369
 30
0.0
 10
44.855710
 20
235.566257
 30
0.0
 10
44.856532
 20
234.851178
 30
0.0
  0
SPLINE
  5
144
100
AcDbEntity
  8
0
 62
7
100
AcDbSpline
 70
8
 71
3
 72
8
 73
4
 74
0
 40
0
 40
0
 40
0
 40
0
 40
1
 40
1
 40
1
 40
1
 10
44.856532
 20
234.851178
 30
0.0
 10
44.855710
 20
234.136100
 30
0.0
 10
45.236727
 20
233.474987
 30
0.0
 10
45.855867
 20
233.117211
 30
0.0
  0
SPLINE
  5
145
100
AcDbEntity
  8
0
 62
7
100
AcDbSpline
 70
8
 71
3
 72
8
 73
4
 74
0
 40
0
 40
0
 40
0
 40
0
 40
1
 40
1
 40
1
 40
1
 10
45.855867
 20
233.117211
 30
0.0
 10
46.475007
 20
232.759434
 30
0.0
 10
47.238055
 20
232.759434
 30
0.0
 10
47.857195
 20
233.117211
 30
0.0
  0
SPLINE
  5
146
100
AcDbEntity
  8
0
 62
7
100
AcDbSpline
 70
8
 71
3
 72
8
 73
4
 74
0
 40
0
 40
0
 40
0
 40
0
 40
1
 40
1
 40
1
 40
1
 10
47.857195
 20
233.117211
 30
0.0
 10
48.476334
 20
233.474987
 30
0.0
 10
48.857352
 20
234.136100
 30
0.0
 10
48.856530
 20
234.851178
 30
0.0
  0
LWPOLYLINE
  5
147
100
AcDbEntity
  8
0
 62
7
100
AcDbPolyline
 90
2
 70
0
 10
15.506647
 20
244.851158
 30
0.0
 10
15.506647
 20
224.851172
 30
0.0
  0
LWPOLYLINE
  5
148
100
AcDbEntity
  8
0
 62
7
100
AcDbPolyline
 90
1
 70
1
 10
48.856530
 20
234.851178
 30
0.0
  0
ENDSEC
  0
SECTION
  2
OBJECTS
  0
DICTIONARY
  5
C
330
0
100
AcDbDictionary
  3
ACAD_GROUP
350
D
  3
ACAD_MLINESTYLE
350
17
  0
DICTIONARY
  5
D
330
C
100
AcDbDictionary
  0
DICTIONARY
  5
1A
330
C
100
AcDbDictionary
  0
DICTIONARY
  5
17
330
C
100
AcDbDictionary
  3
STANDARD
350
18
  0
DICTIONARY
  5
19
330
C
100
AcDbDictionary
  0
ENDSEC
  0
EOF
