  0
SECTION
  2
HEADER
  9
$ACADVER
  1
AC1014
  9
$HANDSEED
  5
FFFF
  9
$MEASUREMENT
 70
     1
  0
ENDSEC
  0
SECTION
  2
TABLES
  0
TABLE
  2
VPORT
  5
8
330
0
100
AcDbSymbolTable
 70
     4
  0
VPORT
  5
2E
330
8
100
AcDbSymbolTableRecord
100
AcDbViewportTableRecord
  2
*ACTIVE
 70
     0
 10
0.0
 20
0.0
 11
1.0
 21
1.0
 12
210.0
 22
148.5
 13
0.0
 23
0.0
 14
10.0
 24
10.0
 15
10.0
 25
10.0
 16
0.0
 26
0.0
 36
1.0
 17
0.0
 27
0.0
 37
0.0
 40
341.0
 41
1.24
 42
50.0
 43
0.0
 44
0.0
 50
0.0
 51
0.0
 71
     0
 72
   100
 73
     1
 74
     3
 75
     0
 76
     0
 77
     0
 78
     0
  0
ENDTAB
  0
TABLE
  2
LTYPE
  5
5
330
0
100
AcDbSymbolTable
 70
     1
  0
LTYPE
  5
14
330
5
100
AcDbSymbolTableRecord
100
AcDbLinetypeTableRecord
  2
BYBLOCK
 70
     0
  3

 72
    65
 73
     0
 40
0.0
  0
LTYPE
  5
15
330
5
100
AcDbSymbolTableRecord
100
AcDbLinetypeTableRecord
  2
BYLAYER
 70
     0
  3

 72
    65
 73
     0
 40
0.0
  0
LTYPE
  5
16
330
5
100
AcDbSymbolTableRecord
100
AcDbLinetypeTableRecord
  2
CONTINUOUS
 70
     0
  3
Solid line
 72
    65
 73
     0
 40
0.0
  0
ENDTAB
  0
TABLE
  2
LAYER
  5
2
100
AcDbSymbolTable
 70
2
  0
LAYER
  5
50
100
AcDbSymbolTableRecord
100
AcDbLayerTableRecord
  2
0
 70
0
  6
CONTINUOUS
  0
LAYER
  5
51
100
AcDbSymbolTableRecord
100
AcDbLayerTableRecord
  2
FORMAT
 70
0
  6
CONTINUOUS
  0
ENDTAB
  0
TABLE
  2
STYLE
  5
3
330
0
100
AcDbSymbolTable
 70
     1
  0
STYLE
  5
11
330
3
100
AcDbSymbolTableRecord
100
AcDbTextStyleTableRecord
  2
STANDARD
 70
     0
 40
0.0
 41
1.0
 50
0.0
 71
     0
 42
2.5
  3
txt
  4

  0
ENDTAB
  0
TABLE
  2
VIEW
  5
6
330
0
100
AcDbSymbolTable
 70
     0
  0
ENDTAB
  0
TABLE
  2
UCS
  5
7
330
0
100
AcDbSymbolTable
 70
     0
  0
ENDTAB
  0
TABLE
  2
APPID
  5
9
330
0
100
AcDbSymbolTable
 70
     2
  0
APPID
  5
12
330
9
100
AcDbSymbolTableRecord
100
AcDbRegAppTableRecord
  2
ACAD
 70
     0
  0
ENDTAB
  0
TABLE
  2
DIMSTYLE
  5
A
330
0
100
AcDbSymbolTable
 70
     1
  0
DIMSTYLE
105
27
330
A
100
AcDbSymbolTableRecord
100
AcDbDimStyleTableRecord
  2
ISO-25
 70
     0
  3

  4

  5

  6

  7

 40
1.0
 41
2.5
 42
0.625
 43
3.75
 44
1.25
 45
0.0
 46
0.0
 47
0.0
 48
0.0
140
2.5
141
2.5
142
0.0
143
0.03937007874016
144
1.0
145
0.0
146
1.0
147
0.625
 71
     0
 72
     0
 73
     0
 74
     0
 75
     0
 76
     0
 77
     1
 78
     8
170
     0
171
     3
172
     1
173
     0
174
     0
175
     0
176
     0
177
     0
178
     0
270
     2
271
     2
272
     2
273
     2
274
     3
340
11
275
     0
280
     0
281
     0
282
     0
283
     0
284
     8
285
     0
286
     0
287
     3
288
     0
  0
ENDTAB
  0
TABLE
  2
BLOCK_RECORD
  5
1
330
0
100
AcDbSymbolTable
 70
     1
  0
BLOCK_RECORD
  5
1F
330
1
100
AcDbSymbolTableRecord
100
AcDbBlockTableRecord
  2
*MODEL_SPACE
  0
BLOCK_RECORD
  5
1B
330
1
100
AcDbSymbolTableRecord
100
AcDbBlockTableRecord
  2
*PAPER_SPACE
  0
ENDTAB
  0
ENDSEC
  0
SECTION
  2
BLOCKS
  0
BLOCK
  5
20
330
1F
100
AcDbEntity
  8
0
100
AcDbBlockBegin
  2
*MODEL_SPACE
 70
     0
 10
0.0
 20
0.0
 30
0.0
  3
*MODEL_SPACE
  1

  0
ENDBLK
  5
21
330
1F
100
AcDbEntity
  8
0
100
AcDbBlockEnd
  0
BLOCK
  5
1C
330
1B
100
AcDbEntity
 67
     1
  8
0
100
AcDbBlockBegin
  2
*PAPER_SPACE
  1

  0
ENDBLK
  5
1D
330
1B
100
AcDbEntity
 67
     1
  8
0
100
AcDbBlockEnd
  0
ENDSEC
  0
SECTION
  2
ENTITIES
  0
LWPOLYLINE
  5
100
100
AcDbEntity
  8
0
 62
7
100
AcDbPolyline
 90
4
 70
0
 10
1079.620535
 20
466.320477
 30
0.0
 10
1071.115906
 20
451.590032
 30
0.0
 10
1064.234669
 20
481.270907
 30
0.0
 10
1090.301210
 20
496.320476
 30
0.0
  0
LWPOLYLINE
  5
101
100
AcDbEntity
  8
0
 62
7
100
AcDbPolyline
 90
4
 70
0
 10
1487.939769
 20
496.320476
 30
0.0
 10
1514.006311
 20
481.270907
 30
0.0
 10
1507.125074
 20
451.590032
 30
0.0
 10
1498.620445
 20
466.320477
 30
0.0
  0
LWPOLYLINE
  5
102
100
AcDbEntity
  8
0
 62
7
100
AcDbPolyline
 90
2
 70
0
 10
1487.939769
 20
496.320476
 30
0.0
 10
1090.301210
 20
496.320476
 30
0.0
  0
LWPOLYLINE
  5
103
100
AcDbEntity
  8
0
 62
7
100
AcDbPolyline
 90
2
 70
0
 10
1498.620445
 20
466.320477
 30
0.0
 10
1079.620535
 20
466.320477
 30
0.0
  0
LWPOLYLINE
  5
104
100
AcDbEntity
  8
0
 62
7
100
AcDbPolyline
 90
4
 70
0
 10
1498.620445
 20
676.320480
 30
0.0
 10
1507.125074
 20
691.050918
 30
0.0
 10
1514.006311
 20
661.370040
 30
0.0
 10
1487.939769
 20
646.320478
 30
0.0
  0
LWPOLYLINE
  5
105
100
AcDbEntity
  8
0
 62
7
100
AcDbPolyline
 90
2
 70
0
 10
1090.301210
 20
646.320478
 30
0.0
 10
1487.939769
 20
646.320478
 30
0.0
  0
LWPOLYLINE
  5
106
100
AcDbEntity
  8
0
 62
7
100
AcDbPolyline
 90
5
 70
0
 10
1090.301210
 20
646.320478
 30
0.0
 10
1064.234669
 20
661.370040
 30
0.0
 10
1071.115906
 20
691.050918
 30
0.0
 10
1079.620535
 20
676.320480
 30
0.0
 10
1498.620445
 20
676.320480
 30
0.0
  0
LWPOLYLINE
  5
107
100
AcDbEntity
  8
0
 62
7
100
AcDbPolyline
 90
2
 70
0
 10
728.234464
 20
1078.090043
 30
0.0
 10
743.234569
 20
1104.070814
 30
0.0
  0
LWPOLYLINE
  5
108
100
AcDbEntity
  8
0
 62
7
100
AcDbPolyline
 90
2
 70
0
 10
264.234597
 20
1104.070814
 30
0.0
 10
279.234583
 20
1078.090043
 30
0.0
  0
LWPOLYLINE
  5
109
100
AcDbEntity
  8
0
 62
7
100
AcDbPolyline
 90
2
 70
0
 10
309.234554
 20
1085.045249
 30
0.0
 10
294.434602
 20
1093.590052
 30
0.0
  0
LWPOLYLINE
  5
10a
100
AcDbEntity
  8
0
 62
7
100
AcDbPolyline
 90
3
 70
0
 10
713.034565
 20
1093.590052
 30
0.0
 10
698.234493
 20
1085.045249
 30
0.0
 10
728.234464
 20
1078.090043
 30
0.0
  0
LWPOLYLINE
  5
10b
100
AcDbEntity
  8
0
 62
7
100
AcDbPolyline
 90
2
 70
0
 10
743.234569
 20
1051.590056
 30
0.0
 10
743.234569
 20
1104.070814
 30
0.0
  0
LWPOLYLINE
  5
10c
100
AcDbEntity
  8
0
 62
7
100
AcDbPolyline
 90
2
 70
0
 10
264.234597
 20
1104.070814
 30
0.0
 10
264.234597
 20
1051.590056
 30
0.0
  0
LWPOLYLINE
  5
10d
100
AcDbEntity
  8
0
 62
7
100
AcDbPolyline
 90
2
 70
0
 10
294.434602
 20
1093.590052
 30
0.0
 10
713.034565
 20
1093.590052
 30
0.0
  0
LWPOLYLINE
  5
10e
100
AcDbEntity
  8
0
 62
7
100
AcDbPolyline
 90
2
 70
0
 10
270.584518
 20
1051.590056
 30
0.0
 10
264.234597
 20
1051.590056
 30
0.0
  0
LWPOLYLINE
  5
10f
100
AcDbEntity
  8
0
 62
7
100
AcDbPolyline
 90
5
 70
0
 10
743.234569
 20
1051.590056
 30
0.0
 10
736.884529
 20
1051.590056
 30
0.0
 10
736.884529
 20
957.940013
 30
0.0
 10
643.234546
 20
957.940013
 30
0.0
 10
643.234546
 20
951.590033
 30
0.0
  0
LWPOLYLINE
  5
110
100
AcDbEntity
  8
0
 62
7
100
AcDbPolyline
 90
2
 70
0
 10
364.234621
 20
951.590033
 30
0.0
 10
643.234546
 20
951.590033
 30
0.0
  0
LWPOLYLINE
  5
111
100
AcDbEntity
  8
0
 62
7
100
AcDbPolyline
 90
4
 70
0
 10
364.234621
 20
951.590033
 30
0.0
 10
364.234621
 20
957.940013
 30
0.0
 10
270.584518
 20
957.940013
 30
0.0
 10
270.584518
 20
1051.590056
 30
0.0
  0
LWPOLYLINE
  5
112
100
AcDbEntity
  8
0
 62
7
100
AcDbPolyline
 90
3
 70
0
 10
547.734553
 20
972.590060
 30
0.0
 10
590.734536
 20
972.590060
 30
0.0
 10
590.734536
 20
1062.590034
 30
0.0
  0
LWPOLYLINE
  5
113
100
AcDbEntity
  8
0
 62
7
100
AcDbPolyline
 90
2
 70
0
 10
547.734553
 20
1062.590034
 30
0.0
 10
547.734553
 20
972.590060
 30
0.0
  0
SPLINE
  5
114
100
AcDbEntity
  8
0
 62
7
100
AcDbSpline
 70
8
 71
3
 72
8
 73
4
 74
0
 40
0
 40
0
 40
0
 40
0
 40
1
 40
1
 40
1
 40
1
 10
533.984573
 20
993.090032
 30
0.0
 10
533.984573
 20
993.536614
 30
0.0
 10
533.746325
 20
993.949273
 30
0.0
 10
533.359573
 20
994.172564
 30
0.0
  0
SPLINE
  5
115
100
AcDbEntity
  8
0
 62
7
100
AcDbSpline
 70
8
 71
3
 72
8
 73
4
 74
0
 40
0
 40
0
 40
0
 40
0
 40
1
 40
1
 40
1
 40
1
 10
533.359573
 20
994.172564
 30
0.0
 10
532.972822
 20
994.395855
 30
0.0
 10
532.496325
 20
994.395855
 30
0.0
 10
532.109573
 20
994.172564
 30
0.0
  0
SPLINE
  5
116
100
AcDbEntity
  8
0
 62
7
100
AcDbSpline
 70
8
 71
3
 72
8
 73
4
 74
0
 40
0
 40
0
 40
0
 40
0
 40
1
 40
1
 40
1
 40
1
 10
532.109573
 20
994.172564
 30
0.0
 10
531.722822
 20
993.949273
 30
0.0
 10
531.484573
 20
993.536614
 30
0.0
 10
531.484573
 20
993.090032
 30
0.0
  0
SPLINE
  5
117
100
AcDbEntity
  8
0
 62
7
100
AcDbSpline
 70
8
 71
3
 72
8
 73
4
 74
0
 40
0
 40
0
 40
0
 40
0
 40
1
 40
1
 40
1
 40
1
 10
531.484573
 20
993.090032
 30
0.0
 10
531.484573
 20
992.643450
 30
0.0
 10
531.722822
 20
992.230792
 30
0.0
 10
532.109573
 20
992.007501
 30
0.0
  0
SPLINE
  5
118
100
AcDbEntity
  8
0
 62
7
100
AcDbSpline
 70
8
 71
3
 72
8
 73
4
 74
0
 40
0
 40
0
 40
0
 40
0
 40
1
 40
1
 40
1
 40
1
 10
532.109573
 20
992.007501
 30
0.0
 10
532.496325
 20
991.784210
 30
0.0
 10
532.972822
 20
991.784210
 30
0.0
 10
533.359573
 20
992.007501
 30
0.0
  0
SPLINE
  5
119
100
AcDbEntity
  8
0
 62
7
100
AcDbSpline
 70
8
 71
3
 72
8
 73
4
 74
0
 40
0
 40
0
 40
0
 40
0
 40
1
 40
1
 40
1
 40
1
 10
533.359573
 20
992.007501
 30
0.0
 10
533.746325
 20
992.230792
 30
0.0
 10
533.984573
 20
992.643450
 30
0.0
 10
533.984573
 20
993.090032
 30
0.0
  0
LWPOLYLINE
  5
11a
100
AcDbEntity
  8
0
 62
7
100
AcDbPolyline
 90
4
 70
1
 10
416.734631
 20
972.590060
 30
0.0
 10
459.734613
 20
972.590060
 30
0.0
 10
459.734613
 20
1062.590034
 30
0.0
 10
416.734631
 20
1062.590034
 30
0.0
  0
SPLINE
  5
11b
100
AcDbEntity
  8
0
 62
7
100
AcDbSpline
 70
8
 71
3
 72
8
 73
4
 74
0
 40
0
 40
0
 40
0
 40
0
 40
1
 40
1
 40
1
 40
1
 10
475.984573
 20
1042.090033
 30
0.0
 10
475.984573
 20
1042.536614
 30
0.0
 10
475.746324
 20
1042.949273
 30
0.0
 10
475.359573
 20
1043.172564
 30
0.0
  0
SPLINE
  5
11c
100
AcDbEntity
  8
0
 62
7
100
AcDbSpline
 70
8
 71
3
 72
8
 73
4
 74
0
 40
0
 40
0
 40
0
 40
0
 40
1
 40
1
 40
1
 40
1
 10
475.359573
 20
1043.172564
 30
0.0
 10
474.972822
 20
1043.395855
 30
0.0
 10
474.496325
 20
1043.395855
 30
0.0
 10
474.109573
 20
1043.172564
 30
0.0
  0
SPLINE
  5
11d
100
AcDbEntity
  8
0
 62
7
100
AcDbSpline
 70
8
 71
3
 72
8
 73
4
 74
0
 40
0
 40
0
 40
0
 40
0
 40
1
 40
1
 40
1
 40
1
 10
474.109573
 20
1043.172564
 30
0.0
 10
473.722822
 20
1042.949273
 30
0.0
 10
473.484573
 20
1042.536614
 30
0.0
 10
473.484573
 20
1042.090033
 30
0.0
  0
SPLINE
  5
11e
100
AcDbEntity
  8
0
 62
7
100
AcDbSpline
 70
8
 71
3
 72
8
 73
4
 74
0
 40
0
 40
0
 40
0
 40
0
 40
1
 40
1
 40
1
 40
1
 10
473.484573
 20
1042.090033
 30
0.0
 10
473.484573
 20
1041.643451
 30
0.0
 10
473.722822
 20
1041.230792
 30
0.0
 10
474.109573
 20
1041.007501
 30
0.0
  0
SPLINE
  5
11f
100
AcDbEntity
  8
0
 62
7
100
AcDbSpline
 70
8
 71
3
 72
8
 73
4
 74
0
 40
0
 40
0
 40
0
 40
0
 40
1
 40
1
 40
1
 40
1
 10
474.109573
 20
1041.007501
 30
0.0
 10
474.496325
 20
1040.784210
 30
0.0
 10
474.972822
 20
1040.784210
 30
0.0
 10
475.359573
 20
1041.007501
 30
0.0
  0
SPLINE
  5
120
100
AcDbEntity
  8
0
 62
7
100
AcDbSpline
 70
8
 71
3
 72
8
 73
4
 74
0
 40
0
 40
0
 40
0
 40
0
 40
1
 40
1
 40
1
 40
1
 10
475.359573
 20
1041.007501
 30
0.0
 10
475.746324
 20
1041.230792
 30
0.0
 10
475.984573
 20
1041.643451
 30
0.0
 10
475.984573
 20
1042.090033
 30
0.0
  0
LWPOLYLINE
  5
121
100
AcDbEntity
  8
0
 62
7
100
AcDbPolyline
 90
1
 70
1
 10
533.984573
 20
993.090032
 30
0.0
  0
SPLINE
  5
122
100
AcDbEntity
  8
0
 62
7
100
AcDbSpline
 70
8
 71
3
 72
8
 73
4
 74
0
 40
0
 40
0
 40
0
 40
0
 40
1
 40
1
 40
1
 40
1
 10
475.984573
 20
993.090032
 30
0.0
 10
475.984573
 20
993.536614
 30
0.0
 10
475.746324
 20
993.949273
 30
0.0
 10
475.359573
 20
994.172564
 30
0.0
  0
SPLINE
  5
123
100
AcDbEntity
  8
0
 62
7
100
AcDbSpline
 70
8
 71
3
 72
8
 73
4
 74
0
 40
0
 40
0
 40
0
 40
0
 40
1
 40
1
 40
1
 40
1
 10
475.359573
 20
994.172564
 30
0.0
 10
474.972822
 20
994.395855
 30
0.0
 10
474.496325
 20
994.395855
 30
0.0
 10
474.109573
 20
994.172564
 30
0.0
  0
SPLINE
  5
124
100
AcDbEntity
  8
0
 62
7
100
AcDbSpline
 70
8
 71
3
 72
8
 73
4
 74
0
 40
0
 40
0
 40
0
 40
0
 40
1
 40
1
 40
1
 40
1
 10
474.109573
 20
994.172564
 30
0.0
 10
473.722822
 20
993.949273
 30
0.0
 10
473.484573
 20
993.536614
 30
0.0
 10
473.484573
 20
993.090032
 30
0.0
  0
SPLINE
  5
125
100
AcDbEntity
  8
0
 62
7
100
AcDbSpline
 70
8
 71
3
 72
8
 73
4
 74
0
 40
0
 40
0
 40
0
 40
0
 40
1
 40
1
 40
1
 40
1
 10
473.484573
 20
993.090032
 30
0.0
 10
473.484573
 20
992.643450
 30
0.0
 10
473.722822
 20
992.230792
 30
0.0
 10
474.109573
 20
992.007501
 30
0.0
  0
SPLINE
  5
126
100
AcDbEntity
  8
0
 62
7
100
AcDbSpline
 70
8
 71
3
 72
8
 73
4
 74
0
 40
0
 40
0
 40
0
 40
0
 40
1
 40
1
 40
1
 40
1
 10
474.109573
 20
992.007501
 30
0.0
 10
474.496325
 20
991.784210
 30
0.0
 10
474.972822
 20
991.784210
 30
0.0
 10
475.359573
 20
992.007501
 30
0.0
  0
SPLINE
  5
127
100
AcDbEntity
  8
0
 62
7
100
AcDbSpline
 70
8
 71
3
 72
8
 73
4
 74
0
 40
0
 40
0
 40
0
 40
0
 40
1
 40
1
 40
1
 40
1
 10
475.359573
 20
992.007501
 30
0.0
 10
475.746324
 20
992.230792
 30
0.0
 10
475.984573
 20
992.643450
 30
0.0
 10
475.984573
 20
993.090032
 30
0.0
  0
LWPOLYLINE
  5
128
100
AcDbEntity
  8
0
 62
7
100
AcDbPolyline
 90
1
 70
1
 10
475.984573
 20
1042.090033
 30
0.0
  0
SPLINE
  5
129
100
AcDbEntity
  8
0
 62
7
100
AcDbSpline
 70
8
 71
3
 72
8
 73
4
 74
0
 40
0
 40
0
 40
0
 40
0
 40
1
 40
1
 40
1
 40
1
 10
533.984573
 20
1042.090033
 30
0.0
 10
533.984573
 20
1042.536614
 30
0.0
 10
533.746325
 20
1042.949273
 30
0.0
 10
533.359573
 20
1043.172564
 30
0.0
  0
SPLINE
  5
12a
100
AcDbEntity
  8
0
 62
7
100
AcDbSpline
 70
8
 71
3
 72
8
 73
4
 74
0
 40
0
 40
0
 40
0
 40
0
 40
1
 40
1
 40
1
 40
1
 10
533.359573
 20
1043.172564
 30
0.0
 10
532.972822
 20
1043.395855
 30
0.0
 10
532.496325
 20
1043.395855
 30
0.0
 10
532.109573
 20
1043.172564
 30
0.0
  0
SPLINE
  5
12b
100
AcDbEntity
  8
0
 62
7
100
AcDbSpline
 70
8
 71
3
 72
8
 73
4
 74
0
 40
0
 40
0
 40
0
 40
0
 40
1
 40
1
 40
1
 40
1
 10
532.109573
 20
1043.172564
 30
0.0
 10
531.722822
 20
1042.949273
 30
0.0
 10
531.484573
 20
1042.536614
 30
0.0
 10
531.484573
 20
1042.090033
 30
0.0
  0
SPLINE
  5
12c
100
AcDbEntity
  8
0
 62
7
100
AcDbSpline
 70
8
 71
3
 72
8
 73
4
 74
0
 40
0
 40
0
 40
0
 40
0
 40
1
 40
1
 40
1
 40
1
 10
531.484573
 20
1042.090033
 30
0.0
 10
531.484573
 20
1041.643451
 30
0.0
 10
531.722822
 20
1041.230792
 30
0.0
 10
532.109573
 20
1041.007501
 30
0.0
  0
SPLINE
  5
12d
100
AcDbEntity
  8
0
 62
7
100
AcDbSpline
 70
8
 71
3
 72
8
 73
4
 74
0
 40
0
 40
0
 40
0
 40
0
 40
1
 40
1
 40
1
 40
1
 10
532.109573
 20
1041.007501
 30
0.0
 10
532.496325
 20
1040.784210
 30
0.0
 10
532.972822
 20
1040.784210
 30
0.0
 10
533.359573
 20
1041.007501
 30
0.0
  0
SPLINE
  5
12e
100
AcDbEntity
  8
0
 62
7
100
AcDbSpline
 70
8
 71
3
 72
8
 73
4
 74
0
 40
0
 40
0
 40
0
 40
0
 40
1
 40
1
 40
1
 40
1
 10
533.359573
 20
1041.007501
 30
0.0
 10
533.746325
 20
1041.230792
 30
0.0
 10
533.984573
 20
1041.643451
 30
0.0
 10
533.984573
 20
1042.090033
 30
0.0
  0
LWPOLYLINE
  5
12f
100
AcDbEntity
  8
0
 62
7
100
AcDbPolyline
 90
1
 70
1
 10
475.984573
 20
993.090032
 30
0.0
  0
LWPOLYLINE
  5
130
100
AcDbEntity
  8
0
 62
7
100
AcDbPolyline
 90
1
 70
1
 10
533.984573
 20
1042.090033
 30
0.0
  0
LWPOLYLINE
  5
131
100
AcDbEntity
  8
0
 62
7
100
AcDbPolyline
 90
2
 70
0
 10
279.234583
 20
1078.090043
 30
0.0
 10
309.234554
 20
1085.045249
 30
0.0
  0
LWPOLYLINE
  5
132
100
AcDbEntity
  8
0
 62
7
100
AcDbPolyline
 90
2
 70
0
 10
590.734536
 20
1062.590034
 30
0.0
 10
547.734553
 20
1062.590034
 30
0.0
  0
LWPOLYLINE
  5
133
100
AcDbEntity
  8
0
 62
7
100
AcDbPolyline
 90
2
 70
0
 10
-535.765415
 20
1022.070796
 30
0.0
 10
-535.765415
 20
951.590033
 30
0.0
  0
LWPOLYLINE
  5
134
100
AcDbEntity
  8
0
 62
7
100
AcDbPolyline
 90
2
 70
0
 10
-156.765407
 20
1122.070820
 30
0.0
 10
-435.765451
 20
1122.070820
 30
0.0
  0
LWPOLYLINE
  5
135
100
AcDbEntity
  8
0
 62
7
100
AcDbPolyline
 90
2
 70
0
 10
-56.765383
 20
951.590033
 30
0.0
 10
-56.765383
 20
1022.070796
 30
0.0
  0
LWPOLYLINE
  5
136
100
AcDbEntity
  8
0
 62
7
100
AcDbPolyline
 90
3
 70
0
 10
-490.765398
 20
970.615597
 30
0.0
 10
-520.765429
 20
977.570803
 30
0.0
 10
-535.765415
 20
951.590033
 30
0.0
  0
LWPOLYLINE
  5
137
100
AcDbEntity
  8
0
 62
7
100
AcDbPolyline
 90
2
 70
0
 10
-505.565410
 20
962.070794
 30
0.0
 10
-490.765398
 20
970.615597
 30
0.0
  0
LWPOLYLINE
  5
138
100
AcDbEntity
  8
0
 62
7
100
AcDbPolyline
 90
2
 70
0
 10
-71.765368
 20
977.570803
 30
0.0
 10
-101.765459
 20
970.615597
 30
0.0
  0
LWPOLYLINE
  5
139
100
AcDbEntity
  8
0
 62
7
100
AcDbPolyline
 90
2
 70
0
 10
-56.765383
 20
951.590033
 30
0.0
 10
-71.765368
 20
977.570803
 30
0.0
  0
SPLINE
  5
13a
100
AcDbEntity
  8
0
 62
7
100
AcDbSpline
 70
8
 71
3
 72
8
 73
4
 74
0
 40
0
 40
0
 40
0
 40
0
 40
1
 40
1
 40
1
 40
1
 10
-128.570427
 20
992.690795
 30
0.0
 10
-128.570427
 20
993.182035
 30
0.0
 10
-128.832500
 20
993.635959
 30
0.0
 10
-129.257927
 20
993.881580
 30
0.0
  0
SPLINE
  5
13b
100
AcDbEntity
  8
0
 62
7
100
AcDbSpline
 70
8
 71
3
 72
8
 73
4
 74
0
 40
0
 40
0
 40
0
 40
0
 40
1
 40
1
 40
1
 40
1
 10
-129.257927
 20
993.881580
 30
0.0
 10
-129.683353
 20
994.127200
 30
0.0
 10
-130.207500
 20
994.127200
 30
0.0
 10
-130.632927
 20
993.881580
 30
0.0
  0
SPLINE
  5
13c
100
AcDbEntity
  8
0
 62
7
100
AcDbSpline
 70
8
 71
3
 72
8
 73
4
 74
0
 40
0
 40
0
 40
0
 40
0
 40
1
 40
1
 40
1
 40
1
 10
-130.632927
 20
993.881580
 30
0.0
 10
-131.058353
 20
993.635959
 30
0.0
 10
-131.320427
 20
993.182035
 30
0.0
 10
-131.320427
 20
992.690795
 30
0.0
  0
SPLINE
  5
13d
100
AcDbEntity
  8
0
 62
7
100
AcDbSpline
 70
8
 71
3
 72
8
 73
4
 74
0
 40
0
 40
0
 40
0
 40
0
 40
1
 40
1
 40
1
 40
1
 10
-131.320427
 20
992.690795
 30
0.0
 10
-131.320427
 20
992.199555
 30
0.0
 10
-131.058353
 20
991.745630
 30
0.0
 10
-130.632927
 20
991.500010
 30
0.0
  0
SPLINE
  5
13e
100
AcDbEntity
  8
0
 62
7
100
AcDbSpline
 70
8
 71
3
 72
8
 73
4
 74
0
 40
0
 40
0
 40
0
 40
0
 40
1
 40
1
 40
1
 40
1
 10
-130.632927
 20
991.500010
 30
0.0
 10
-130.207500
 20
991.254390
 30
0.0
 10
-129.683353
 20
991.254390
 30
0.0
 10
-129.257927
 20
991.500010
 30
0.0
  0
SPLINE
  5
13f
100
AcDbEntity
  8
0
 62
7
100
AcDbSpline
 70
8
 71
3
 72
8
 73
4
 74
0
 40
0
 40
0
 40
0
 40
0
 40
1
 40
1
 40
1
 40
1
 10
-129.257927
 20
991.500010
 30
0.0
 10
-128.832500
 20
991.745630
 30
0.0
 10
-128.570427
 20
992.199555
 30
0.0
 10
-128.570427
 20
992.690795
 30
0.0
  0
LWPOLYLINE
  5
140
100
AcDbEntity
  8
0
 62
7
100
AcDbPolyline
 90
2
 70
0
 10
-101.765459
 20
970.615597
 30
0.0
 10
-86.965388
 20
962.070794
 30
0.0
  0
SPLINE
  5
141
100
AcDbEntity
  8
0
 62
7
100
AcDbSpline
 70
8
 71
3
 72
8
 73
4
 74
0
 40
0
 40
0
 40
0
 40
0
 40
1
 40
1
 40
1
 40
1
 10
-93.010427
 20
992.690795
 30
0.0
 10
-93.010427
 20
993.182035
 30
0.0
 10
-93.272500
 20
993.635959
 30
0.0
 10
-93.697927
 20
993.881580
 30
0.0
  0
SPLINE
  5
142
100
AcDbEntity
  8
0
 62
7
100
AcDbSpline
 70
8
 71
3
 72
8
 73
4
 74
0
 40
0
 40
0
 40
0
 40
0
 40
1
 40
1
 40
1
 40
1
 10
-93.697927
 20
993.881580
 30
0.0
 10
-94.123353
 20
994.127200
 30
0.0
 10
-94.647500
 20
994.127200
 30
0.0
 10
-95.072927
 20
993.881580
 30
0.0
  0
SPLINE
  5
143
100
AcDbEntity
  8
0
 62
7
100
AcDbSpline
 70
8
 71
3
 72
8
 73
4
 74
0
 40
0
 40
0
 40
0
 40
0
 40
1
 40
1
 40
1
 40
1
 10
-95.072927
 20
993.881580
 30
0.0
 10
-95.498353
 20
993.635959
 30
0.0
 10
-95.760427
 20
993.182035
 30
0.0
 10
-95.760427
 20
992.690795
 30
0.0
  0
SPLINE
  5
144
100
AcDbEntity
  8
0
 62
7
100
AcDbSpline
 70
8
 71
3
 72
8
 73
4
 74
0
 40
0
 40
0
 40
0
 40
0
 40
1
 40
1
 40
1
 40
1
 10
-95.760427
 20
992.690795
 30
0.0
 10
-95.760427
 20
992.199555
 30
0.0
 10
-95.498353
 20
991.745630
 30
0.0
 10
-95.072927
 20
991.500010
 30
0.0
  0
SPLINE
  5
145
100
AcDbEntity
  8
0
 62
7
100
AcDbSpline
 70
8
 71
3
 72
8
 73
4
 74
0
 40
0
 40
0
 40
0
 40
0
 40
1
 40
1
 40
1
 40
1
 10
-95.072927
 20
991.500010
 30
0.0
 10
-94.647500
 20
991.254390
 30
0.0
 10
-94.123353
 20
991.254390
 30
0.0
 10
-93.697927
 20
991.500010
 30
0.0
  0
SPLINE
  5
146
100
AcDbEntity
  8
0
 62
7
100
AcDbSpline
 70
8
 71
3
 72
8
 73
4
 74
0
 40
0
 40
0
 40
0
 40
0
 40
1
 40
1
 40
1
 40
1
 10
-93.697927
 20
991.500010
 30
0.0
 10
-93.272500
 20
991.745630
 30
0.0
 10
-93.010427
 20
992.199555
 30
0.0
 10
-93.010427
 20
992.690795
 30
0.0
  0
LWPOLYLINE
  5
147
100
AcDbEntity
  8
0
 62
7
100
AcDbPolyline
 90
1
 70
1
 10
-128.570427
 20
992.690795
 30
0.0
  0
LWPOLYLINE
  5
148
100
AcDbEntity
  8
0
 62
7
100
AcDbPolyline
 90
1
 70
1
 10
-93.010427
 20
992.690795
 30
0.0
  0
LWPOLYLINE
  5
149
100
AcDbEntity
  8
0
 62
7
100
AcDbPolyline
 90
5
 70
0
 10
-156.765407
 20
1122.070820
 30
0.0
 10
-156.765407
 20
1115.720780
 30
0.0
 10
-63.115423
 20
1115.720780
 30
0.0
 10
-63.115423
 20
1022.070796
 30
0.0
 10
-56.765383
 20
1022.070796
 30
0.0
  0
LWPOLYLINE
  5
14a
100
AcDbEntity
  8
0
 62
7
100
AcDbPolyline
 90
5
 70
0
 10
-535.765415
 20
1022.070796
 30
0.0
 10
-529.415434
 20
1022.070796
 30
0.0
 10
-529.415434
 20
1115.720780
 30
0.0
 10
-435.765451
 20
1115.720780
 30
0.0
 10
-435.765451
 20
1122.070820
 30
0.0
  0
LWPOLYLINE
  5
14b
100
AcDbEntity
  8
0
 62
7
100
AcDbPolyline
 90
2
 70
0
 10
-86.965388
 20
962.070794
 30
0.0
 10
-505.565410
 20
962.070794
 30
0.0
  0
LWPOLYLINE
  5
14c
100
AcDbEntity
  8
0
 62
7
100
AcDbPolyline
 90
2
 70
0
 10
1144.234592
 20
1211.590023
 30
0.0
 10
1064.234669
 20
1211.590023
 30
0.0
  0
LWPOLYLINE
  5
14d
100
AcDbEntity
  8
0
 62
7
100
AcDbPolyline
 90
2
 70
0
 10
1144.234592
 20
1131.590040
 30
0.0
 10
1144.234592
 20
1211.590023
 30
0.0
  0
LWPOLYLINE
  5
14e
100
AcDbEntity
  8
0
 62
7
100
AcDbPolyline
 90
2
 70
0
 10
1114.234621
 20
1131.590040
 30
0.0
 10
1144.234592
 20
1131.590040
 30
0.0
  0
LWPOLYLINE
  5
14f
100
AcDbEntity
  8
0
 62
7
100
AcDbPolyline
 90
2
 70
0
 10
1114.234621
 20
1181.590051
 30
0.0
 10
1114.234621
 20
1131.590040
 30
0.0
  0
LWPOLYLINE
  5
150
100
AcDbEntity
  8
0
 62
7
100
AcDbPolyline
 90
2
 70
0
 10
1064.234669
 20
1181.590051
 30
0.0
 10
1114.234621
 20
1181.590051
 30
0.0
  0
LWPOLYLINE
  5
151
100
AcDbEntity
  8
0
 62
7
100
AcDbPolyline
 90
2
 70
0
 10
1064.234669
 20
1211.590023
 30
0.0
 10
1064.234669
 20
1181.590051
 30
0.0
  0
LWPOLYLINE
  5
152
100
AcDbEntity
  8
0
 62
7
100
AcDbPolyline
 90
2
 70
0
 10
-904.265439
 20
1131.590040
 30
0.0
 10
-954.265421
 20
1131.590040
 30
0.0
  0
LWPOLYLINE
  5
153
100
AcDbEntity
  8
0
 62
7
100
AcDbPolyline
 90
2
 70
0
 10
-874.265438
 20
1101.590009
 30
0.0
 10
-874.265438
 20
1181.590051
 30
0.0
  0
LWPOLYLINE
  5
154
100
AcDbEntity
  8
0
 62
7
100
AcDbPolyline
 90
2
 70
0
 10
-954.265421
 20
1101.590009
 30
0.0
 10
-874.265438
 20
1101.590009
 30
0.0
  0
LWPOLYLINE
  5
155
100
AcDbEntity
  8
0
 62
7
100
AcDbPolyline
 90
2
 70
0
 10
-954.265421
 20
1131.590040
 30
0.0
 10
-954.265421
 20
1101.590009
 30
0.0
  0
LWPOLYLINE
  5
156
100
AcDbEntity
  8
0
 62
7
100
AcDbPolyline
 90
3
 70
0
 10
-874.265438
 20
1181.590051
 30
0.0
 10
-904.265439
 20
1181.590051
 30
0.0
 10
-904.265439
 20
1131.590040
 30
0.0
  0
LWPOLYLINE
  5
157
100
AcDbEntity
  8
0
 62
7
100
AcDbPolyline
 90
2
 70
0
 10
-126.765435
 20
1145.720811
 30
0.0
 10
-126.765435
 20
1195.720823
 30
0.0
  0
LWPOLYLINE
  5
158
100
AcDbEntity
  8
0
 62
7
100
AcDbPolyline
 90
2
 70
0
 10
-76.765483
 20
1145.720811
 30
0.0
 10
-126.765435
 20
1145.720811
 30
0.0
  0
LWPOLYLINE
  5
159
100
AcDbEntity
  8
0
 62
7
100
AcDbPolyline
 90
2
 70
0
 10
-76.765483
 20
1115.720780
 30
0.0
 10
-76.765483
 20
1145.720811
 30
0.0
  0
LWPOLYLINE
  5
15a
100
AcDbEntity
  8
0
 62
7
100
AcDbPolyline
 90
2
 70
0
 10
-156.765407
 20
1115.720780
 30
0.0
 10
-76.765483
 20
1115.720780
 30
0.0
  0
LWPOLYLINE
  5
15b
100
AcDbEntity
  8
0
 62
7
100
AcDbPolyline
 90
2
 70
0
 10
-156.765407
 20
1195.720823
 30
0.0
 10
-156.765407
 20
1115.720780
 30
0.0
  0
LWPOLYLINE
  5
15c
100
AcDbEntity
  8
0
 62
7
100
AcDbPolyline
 90
2
 70
0
 10
-126.765435
 20
1195.720823
 30
0.0
 10
-156.765407
 20
1195.720823
 30
0.0
  0
LWPOLYLINE
  5
15d
100
AcDbEntity
  8
0
 62
7
100
AcDbPolyline
 90
2
 70
0
 10
1094.234640
 20
1131.590040
 30
0.0
 10
1094.234640
 20
1181.590051
 30
0.0
  0
LWPOLYLINE
  5
15e
100
AcDbEntity
  8
0
 62
7
100
AcDbPolyline
 90
2
 70
0
 10
1144.234592
 20
1131.590040
 30
0.0
 10
1094.234640
 20
1131.590040
 30
0.0
  0
LWPOLYLINE
  5
15f
100
AcDbEntity
  8
0
 62
7
100
AcDbPolyline
 90
2
 70
0
 10
1144.234592
 20
1101.590009
 30
0.0
 10
1144.234592
 20
1131.590040
 30
0.0
  0
LWPOLYLINE
  5
160
100
AcDbEntity
  8
0
 62
7
100
AcDbPolyline
 90
2
 70
0
 10
1064.234669
 20
1101.590009
 30
0.0
 10
1144.234592
 20
1101.590009
 30
0.0
  0
LWPOLYLINE
  5
161
100
AcDbEntity
  8
0
 62
7
100
AcDbPolyline
 90
2
 70
0
 10
1064.234669
 20
1181.590051
 30
0.0
 10
1064.234669
 20
1101.590009
 30
0.0
  0
SPLINE
  5
162
100
AcDbEntity
  8
0
 62
7
100
AcDbSpline
 70
8
 71
3
 72
8
 73
4
 74
0
 40
0
 40
0
 40
0
 40
0
 40
1
 40
1
 40
1
 40
1
 10
1198.534573
 20
1186.390032
 30
0.0
 10
1198.534573
 20
1186.925931
 30
0.0
 10
1198.248675
 20
1187.421121
 30
0.0
 10
1197.784573
 20
1187.689070
 30
0.0
  0
SPLINE
  5
163
100
AcDbEntity
  8
0
 62
7
100
AcDbSpline
 70
8
 71
3
 72
8
 73
4
 74
0
 40
0
 40
0
 40
0
 40
0
 40
1
 40
1
 40
1
 40
1
 10
1197.784573
 20
1187.689070
 30
0.0
 10
1197.320472
 20
1187.957020
 30
0.0
 10
1196.748675
 20
1187.957020
 30
0.0
 10
1196.284573
 20
1187.689070
 30
0.0
  0
SPLINE
  5
164
100
AcDbEntity
  8
0
 62
7
100
AcDbSpline
 70
8
 71
3
 72
8
 73
4
 74
0
 40
0
 40
0
 40
0
 40
0
 40
1
 40
1
 40
1
 40
1
 10
1196.284573
 20
1187.689070
 30
0.0
 10
1195.820472
 20
1187.421121
 30
0.0
 10
1195.534573
 20
1186.925931
 30
0.0
 10
1195.534573
 20
1186.390032
 30
0.0
  0
SPLINE
  5
165
100
AcDbEntity
  8
0
 62
7
100
AcDbSpline
 70
8
 71
3
 72
8
 73
4
 74
0
 40
0
 40
0
 40
0
 40
0
 40
1
 40
1
 40
1
 40
1
 10
1195.534573
 20
1186.390032
 30
0.0
 10
1195.534573
 20
1185.854134
 30
0.0
 10
1195.820472
 20
1185.358943
 30
0.0
 10
1196.284573
 20
1185.090994
 30
0.0
  0
SPLINE
  5
166
100
AcDbEntity
  8
0
 62
7
100
AcDbSpline
 70
8
 71
3
 72
8
 73
4
 74
0
 40
0
 40
0
 40
0
 40
0
 40
1
 40
1
 40
1
 40
1
 10
1196.284573
 20
1185.090994
 30
0.0
 10
1196.748675
 20
1184.823045
 30
0.0
 10
1197.320472
 20
1184.823045
 30
0.0
 10
1197.784573
 20
1185.090994
 30
0.0
  0
SPLINE
  5
167
100
AcDbEntity
  8
0
 62
7
100
AcDbSpline
 70
8
 71
3
 72
8
 73
4
 74
0
 40
0
 40
0
 40
0
 40
0
 40
1
 40
1
 40
1
 40
1
 10
1197.784573
 20
1185.090994
 30
0.0
 10
1198.248675
 20
1185.358943
 30
0.0
 10
1198.534573
 20
1185.854134
 30
0.0
 10
1198.534573
 20
1186.390032
 30
0.0
  0
LWPOLYLINE
  5
168
100
AcDbEntity
  8
0
 62
7
100
AcDbPolyline
 90
2
 70
0
 10
1094.234640
 20
1181.590051
 30
0.0
 10
1064.234669
 20
1181.590051
 30
0.0
  0
SPLINE
  5
169
100
AcDbEntity
  8
0
 62
7
100
AcDbSpline
 70
8
 71
3
 72
8
 73
4
 74
0
 40
0
 40
0
 40
0
 40
0
 40
1
 40
1
 40
1
 40
1
 10
1229.534573
 20
1186.390032
 30
0.0
 10
1229.534573
 20
1186.925931
 30
0.0
 10
1229.248675
 20
1187.421121
 30
0.0
 10
1228.784573
 20
1187.689070
 30
0.0
  0
SPLINE
  5
16a
100
AcDbEntity
  8
0
 62
7
100
AcDbSpline
 70
8
 71
3
 72
8
 73
4
 74
0
 40
0
 40
0
 40
0
 40
0
 40
1
 40
1
 40
1
 40
1
 10
1228.784573
 20
1187.689070
 30
0.0
 10
1228.320472
 20
1187.957020
 30
0.0
 10
1227.748675
 20
1187.957020
 30
0.0
 10
1227.284573
 20
1187.689070
 30
0.0
  0
SPLINE
  5
16b
100
AcDbEntity
  8
0
 62
7
100
AcDbSpline
 70
8
 71
3
 72
8
 73
4
 74
0
 40
0
 40
0
 40
0
 40
0
 40
1
 40
1
 40
1
 40
1
 10
1227.284573
 20
1187.689070
 30
0.0
 10
1226.820472
 20
1187.421121
 30
0.0
 10
1226.534573
 20
1186.925931
 30
0.0
 10
1226.534573
 20
1186.390032
 30
0.0
  0
SPLINE
  5
16c
100
AcDbEntity
  8
0
 62
7
100
AcDbSpline
 70
8
 71
3
 72
8
 73
4
 74
0
 40
0
 40
0
 40
0
 40
0
 40
1
 40
1
 40
1
 40
1
 10
1226.534573
 20
1186.390032
 30
0.0
 10
1226.534573
 20
1185.854134
 30
0.0
 10
1226.820472
 20
1185.358943
 30
0.0
 10
1227.284573
 20
1185.090994
 30
0.0
  0
SPLINE
  5
16d
100
AcDbEntity
  8
0
 62
7
100
AcDbSpline
 70
8
 71
3
 72
8
 73
4
 74
0
 40
0
 40
0
 40
0
 40
0
 40
1
 40
1
 40
1
 40
1
 10
1227.284573
 20
1185.090994
 30
0.0
 10
1227.748675
 20
1184.823045
 30
0.0
 10
1228.320472
 20
1184.823045
 30
0.0
 10
1228.784573
 20
1185.090994
 30
0.0
  0
SPLINE
  5
16e
100
AcDbEntity
  8
0
 62
7
100
AcDbSpline
 70
8
 71
3
 72
8
 73
4
 74
0
 40
0
 40
0
 40
0
 40
0
 40
1
 40
1
 40
1
 40
1
 10
1228.784573
 20
1185.090994
 30
0.0
 10
1229.248675
 20
1185.358943
 30
0.0
 10
1229.534573
 20
1185.854134
 30
0.0
 10
1229.534573
 20
1186.390032
 30
0.0
  0
LWPOLYLINE
  5
16f
100
AcDbEntity
  8
0
 62
7
100
AcDbPolyline
 90
1
 70
1
 10
1198.534573
 20
1186.390032
 30
0.0
  0
SPLINE
  5
170
100
AcDbEntity
  8
0
 62
7
100
AcDbSpline
 70
8
 71
3
 72
8
 73
4
 74
0
 40
0
 40
0
 40
0
 40
0
 40
1
 40
1
 40
1
 40
1
 10
1229.534573
 20
1217.390033
 30
0.0
 10
1229.534573
 20
1217.925931
 30
0.0
 10
1229.248675
 20
1218.421121
 30
0.0
 10
1228.784573
 20
1218.689071
 30
0.0
  0
SPLINE
  5
171
100
AcDbEntity
  8
0
 62
7
100
AcDbSpline
 70
8
 71
3
 72
8
 73
4
 74
0
 40
0
 40
0
 40
0
 40
0
 40
1
 40
1
 40
1
 40
1
 10
1228.784573
 20
1218.689071
 30
0.0
 10
1228.320472
 20
1218.957020
 30
0.0
 10
1227.748675
 20
1218.957020
 30
0.0
 10
1227.284573
 20
1218.689071
 30
0.0
  0
SPLINE
  5
172
100
AcDbEntity
  8
0
 62
7
100
AcDbSpline
 70
8
 71
3
 72
8
 73
4
 74
0
 40
0
 40
0
 40
0
 40
0
 40
1
 40
1
 40
1
 40
1
 10
1227.284573
 20
1218.689071
 30
0.0
 10
1226.820472
 20
1218.421121
 30
0.0
 10
1226.534573
 20
1217.925931
 30
0.0
 10
1226.534573
 20
1217.390033
 30
0.0
  0
SPLINE
  5
173
100
AcDbEntity
  8
0
 62
7
100
AcDbSpline
 70
8
 71
3
 72
8
 73
4
 74
0
 40
0
 40
0
 40
0
 40
0
 40
1
 40
1
 40
1
 40
1
 10
1226.534573
 20
1217.390033
 30
0.0
 10
1226.534573
 20
1216.854134
 30
0.0
 10
1226.820472
 20
1216.358944
 30
0.0
 10
1227.284573
 20
1216.090994
 30
0.0
  0
SPLINE
  5
174
100
AcDbEntity
  8
0
 62
7
100
AcDbSpline
 70
8
 71
3
 72
8
 73
4
 74
0
 40
0
 40
0
 40
0
 40
0
 40
1
 40
1
 40
1
 40
1
 10
1227.284573
 20
1216.090994
 30
0.0
 10
1227.748675
 20
1215.823045
 30
0.0
 10
1228.320472
 20
1215.823045
 30
0.0
 10
1228.784573
 20
1216.090994
 30
0.0
  0
SPLINE
  5
175
100
AcDbEntity
  8
0
 62
7
100
AcDbSpline
 70
8
 71
3
 72
8
 73
4
 74
0
 40
0
 40
0
 40
0
 40
0
 40
1
 40
1
 40
1
 40
1
 10
1228.784573
 20
1216.090994
 30
0.0
 10
1229.248675
 20
1216.358944
 30
0.0
 10
1229.534573
 20
1216.854134
 30
0.0
 10
1229.534573
 20
1217.390033
 30
0.0
  0
LWPOLYLINE
  5
176
100
AcDbEntity
  8
0
 62
7
100
AcDbPolyline
 90
1
 70
1
 10
1229.534573
 20
1186.390032
 30
0.0
  0
SPLINE
  5
177
100
AcDbEntity
  8
0
 62
7
100
AcDbSpline
 70
8
 71
3
 72
8
 73
4
 74
0
 40
0
 40
0
 40
0
 40
0
 40
1
 40
1
 40
1
 40
1
 10
1198.534573
 20
1217.390033
 30
0.0
 10
1198.534573
 20
1217.925931
 30
0.0
 10
1198.248675
 20
1218.421121
 30
0.0
 10
1197.784573
 20
1218.689071
 30
0.0
  0
SPLINE
  5
178
100
AcDbEntity
  8
0
 62
7
100
AcDbSpline
 70
8
 71
3
 72
8
 73
4
 74
0
 40
0
 40
0
 40
0
 40
0
 40
1
 40
1
 40
1
 40
1
 10
1197.784573
 20
1218.689071
 30
0.0
 10
1197.320472
 20
1218.957020
 30
0.0
 10
1196.748675
 20
1218.957020
 30
0.0
 10
1196.284573
 20
1218.689071
 30
0.0
  0
SPLINE
  5
179
100
AcDbEntity
  8
0
 62
7
100
AcDbSpline
 70
8
 71
3
 72
8
 73
4
 74
0
 40
0
 40
0
 40
0
 40
0
 40
1
 40
1
 40
1
 40
1
 10
1196.284573
 20
1218.689071
 30
0.0
 10
1195.820472
 20
1218.421121
 30
0.0
 10
1195.534573
 20
1217.925931
 30
0.0
 10
1195.534573
 20
1217.390033
 30
0.0
  0
SPLINE
  5
17a
100
AcDbEntity
  8
0
 62
7
100
AcDbSpline
 70
8
 71
3
 72
8
 73
4
 74
0
 40
0
 40
0
 40
0
 40
0
 40
1
 40
1
 40
1
 40
1
 10
1195.534573
 20
1217.390033
 30
0.0
 10
1195.534573
 20
1216.854134
 30
0.0
 10
1195.820472
 20
1216.358944
 30
0.0
 10
1196.284573
 20
1216.090994
 30
0.0
  0
SPLINE
  5
17b
100
AcDbEntity
  8
0
 62
7
100
AcDbSpline
 70
8
 71
3
 72
8
 73
4
 74
0
 40
0
 40
0
 40
0
 40
0
 40
1
 40
1
 40
1
 40
1
 10
1196.284573
 20
1216.090994
 30
0.0
 10
1196.748675
 20
1215.823045
 30
0.0
 10
1197.320472
 20
1215.823045
 30
0.0
 10
1197.784573
 20
1216.090994
 30
0.0
  0
SPLINE
  5
17c
100
AcDbEntity
  8
0
 62
7
100
AcDbSpline
 70
8
 71
3
 72
8
 73
4
 74
0
 40
0
 40
0
 40
0
 40
0
 40
1
 40
1
 40
1
 40
1
 10
1197.784573
 20
1216.090994
 30
0.0
 10
1198.248675
 20
1216.358944
 30
0.0
 10
1198.534573
 20
1216.854134
 30
0.0
 10
1198.534573
 20
1217.390033
 30
0.0
  0
LWPOLYLINE
  5
17d
100
AcDbEntity
  8
0
 62
7
100
AcDbPolyline
 90
1
 70
1
 10
1229.534573
 20
1217.390033
 30
0.0
  0
SPLINE
  5
17e
100
AcDbEntity
  8
0
 62
7
100
AcDbSpline
 70
8
 71
3
 72
8
 73
4
 74
0
 40
0
 40
0
 40
0
 40
0
 40
1
 40
1
 40
1
 40
1
 10
1225.034573
 20
1201.890033
 30
0.0
 10
1225.034573
 20
1206.355852
 30
0.0
 10
1222.652086
 20
1210.482440
 30
0.0
 10
1218.784573
 20
1212.715350
 30
0.0
  0
SPLINE
  5
17f
100
AcDbEntity
  8
0
 62
7
100
AcDbSpline
 70
8
 71
3
 72
8
 73
4
 74
0
 40
0
 40
0
 40
0
 40
0
 40
1
 40
1
 40
1
 40
1
 10
1218.784573
 20
1212.715350
 30
0.0
 10
1214.917060
 20
1214.948260
 30
0.0
 10
1210.152087
 20
1214.948260
 30
0.0
 10
1206.284573
 20
1212.715350
 30
0.0
  0
SPLINE
  5
180
100
AcDbEntity
  8
0
 62
7
100
AcDbSpline
 70
8
 71
3
 72
8
 73
4
 74
0
 40
0
 40
0
 40
0
 40
0
 40
1
 40
1
 40
1
 40
1
 10
1206.284573
 20
1212.715350
 30
0.0
 10
1202.417060
 20
1210.482440
 30
0.0
 10
1200.034573
 20
1206.355852
 30
0.0
 10
1200.034573
 20
1201.890033
 30
0.0
  0
SPLINE
  5
181
100
AcDbEntity
  8
0
 62
7
100
AcDbSpline
 70
8
 71
3
 72
8
 73
4
 74
0
 40
0
 40
0
 40
0
 40
0
 40
1
 40
1
 40
1
 40
1
 10
1200.034573
 20
1201.890033
 30
0.0
 10
1200.034573
 20
1197.424213
 30
0.0
 10
1202.417060
 20
1193.297625
 30
0.0
 10
1206.284573
 20
1191.064715
 30
0.0
  0
SPLINE
  5
182
100
AcDbEntity
  8
0
 62
7
100
AcDbSpline
 70
8
 71
3
 72
8
 73
4
 74
0
 40
0
 40
0
 40
0
 40
0
 40
1
 40
1
 40
1
 40
1
 10
1206.284573
 20
1191.064715
 30
0.0
 10
1210.152087
 20
1188.831805
 30
0.0
 10
1214.917060
 20
1188.831805
 30
0.0
 10
1218.784573
 20
1191.064715
 30
0.0
  0
SPLINE
  5
183
100
AcDbEntity
  8
0
 62
7
100
AcDbSpline
 70
8
 71
3
 72
8
 73
4
 74
0
 40
0
 40
0
 40
0
 40
0
 40
1
 40
1
 40
1
 40
1
 10
1218.784573
 20
1191.064715
 30
0.0
 10
1222.652087
 20
1193.297625
 30
0.0
 10
1225.034573
 20
1197.424213
 30
0.0
 10
1225.034573
 20
1201.890033
 30
0.0
  0
LWPOLYLINE
  5
184
100
AcDbEntity
  8
0
 62
7
100
AcDbPolyline
 90
1
 70
1
 10
1198.534573
 20
1217.390033
 30
0.0
  0
LWPOLYLINE
  5
185
100
AcDbEntity
  8
0
 62
7
100
AcDbPolyline
 90
1
 70
1
 10
1225.034573
 20
1201.890033
 30
0.0
  0
LWPOLYLINE
  5
186
100
AcDbEntity
  8
0
 62
7
100
AcDbPolyline
 90
2
 70
0
 10
1223.684484
 20
1174.390049
 30
0.0
 10
1233.684475
 20
1174.390049
 30
0.0
  0
LWPOLYLINE
  5
187
100
AcDbEntity
  8
0
 62
7
100
AcDbPolyline
 90
2
 70
0
 10
1223.684484
 20
1180.740030
 30
0.0
 10
1223.684484
 20
1174.390049
 30
0.0
  0
LWPOLYLINE
  5
188
100
AcDbEntity
  8
0
 62
7
100
AcDbPolyline
 90
2
 70
0
 10
1201.384479
 20
1180.740030
 30
0.0
 10
1223.684484
 20
1180.740030
 30
0.0
  0
LWPOLYLINE
  5
189
100
AcDbEntity
  8
0
 62
7
100
AcDbPolyline
 90
2
 70
0
 10
1201.384479
 20
1174.390049
 30
0.0
 10
1201.384479
 20
1180.740030
 30
0.0
  0
LWPOLYLINE
  5
18a
100
AcDbEntity
  8
0
 62
7
100
AcDbPolyline
 90
2
 70
0
 10
1191.384489
 20
1174.390049
 30
0.0
 10
1201.384479
 20
1174.390049
 30
0.0
  0
LWPOLYLINE
  5
18b
100
AcDbEntity
  8
0
 62
7
100
AcDbPolyline
 90
2
 70
0
 10
1191.384489
 20
1223.040016
 30
0.0
 10
1191.384489
 20
1174.390049
 30
0.0
  0
LWPOLYLINE
  5
18c
100
AcDbEntity
  8
0
 62
7
100
AcDbPolyline
 90
2
 70
0
 10
1233.684475
 20
1223.040016
 30
0.0
 10
1191.384489
 20
1223.040016
 30
0.0
  0
SPLINE
  5
18d
100
AcDbEntity
  8
0
 62
7
100
AcDbSpline
 70
8
 71
3
 72
8
 73
4
 74
0
 40
0
 40
0
 40
0
 40
0
 40
1
 40
1
 40
1
 40
1
 10
1374.034573
 20
1011.740032
 30
0.0
 10
1374.034573
 20
1013.169095
 30
0.0
 10
1373.272178
 20
1014.489603
 30
0.0
 10
1372.034573
 20
1015.204134
 30
0.0
  0
SPLINE
  5
18e
100
AcDbEntity
  8
0
 62
7
100
AcDbSpline
 70
8
 71
3
 72
8
 73
4
 74
0
 40
0
 40
0
 40
0
 40
0
 40
1
 40
1
 40
1
 40
1
 10
1372.034573
 20
1015.204134
 30
0.0
 10
1370.796969
 20
1015.918665
 30
0.0
 10
1369.272178
 20
1015.918665
 30
0.0
 10
1368.034573
 20
1015.204134
 30
0.0
  0
SPLINE
  5
18f
100
AcDbEntity
  8
0
 62
7
100
AcDbSpline
 70
8
 71
3
 72
8
 73
4
 74
0
 40
0
 40
0
 40
0
 40
0
 40
1
 40
1
 40
1
 40
1
 10
1368.034573
 20
1015.204134
 30
0.0
 10
1366.796969
 20
1014.489603
 30
0.0
 10
1366.034573
 20
1013.169095
 30
0.0
 10
1366.034573
 20
1011.740032
 30
0.0
  0
SPLINE
  5
190
100
AcDbEntity
  8
0
 62
7
100
AcDbSpline
 70
8
 71
3
 72
8
 73
4
 74
0
 40
0
 40
0
 40
0
 40
0
 40
1
 40
1
 40
1
 40
1
 10
1366.034573
 20
1011.740032
 30
0.0
 10
1366.034573
 20
1010.310970
 30
0.0
 10
1366.796969
 20
1008.990462
 30
0.0
 10
1368.034573
 20
1008.275931
 30
0.0
  0
SPLINE
  5
191
100
AcDbEntity
  8
0
 62
7
100
AcDbSpline
 70
8
 71
3
 72
8
 73
4
 74
0
 40
0
 40
0
 40
0
 40
0
 40
1
 40
1
 40
1
 40
1
 10
1368.034573
 20
1008.275931
 30
0.0
 10
1369.272178
 20
1007.561400
 30
0.0
 10
1370.796969
 20
1007.561400
 30
0.0
 10
1372.034573
 20
1008.275931
 30
0.0
  0
SPLINE
  5
192
100
AcDbEntity
  8
0
 62
7
100
AcDbSpline
 70
8
 71
3
 72
8
 73
4
 74
0
 40
0
 40
0
 40
0
 40
0
 40
1
 40
1
 40
1
 40
1
 10
1372.034573
 20
1008.275931
 30
0.0
 10
1373.272178
 20
1008.990462
 30
0.0
 10
1374.034573
 20
1010.310970
 30
0.0
 10
1374.034573
 20
1011.740032
 30
0.0
  0
LWPOLYLINE
  5
193
100
AcDbEntity
  8
0
 62
7
100
AcDbPolyline
 90
2
 70
0
 10
1233.684475
 20
1174.390049
 30
0.0
 10
1233.684475
 20
1223.040016
 30
0.0
  0
LWPOLYLINE
  5
194
100
AcDbEntity
  8
0
 62
7
100
AcDbPolyline
 90
1
 70
1
 10
1374.034573
 20
1011.740032
 30
0.0
  0
LWPOLYLINE
  5
195
100
AcDbEntity
  8
0
 62
7
100
AcDbPolyline
 90
2
 70
0
 10
1254.134590
 20
1001.590044
 30
0.0
 10
1244.134600
 20
1011.590035
 30
0.0
  0
LWPOLYLINE
  5
196
100
AcDbEntity
  8
0
 62
7
100
AcDbPolyline
 90
2
 70
0
 10
1254.134590
 20
1051.590056
 30
0.0
 10
1254.134590
 20
1001.590044
 30
0.0
  0
LWPOLYLINE
  5
197
100
AcDbEntity
  8
0
 62
7
100
AcDbPolyline
 90
2
 70
0
 10
1244.134600
 20
1041.590006
 30
0.0
 10
1254.134590
 20
1051.590056
 30
0.0
  0
LWPOLYLINE
  5
198
100
AcDbEntity
  8
0
 62
7
100
AcDbPolyline
 90
2
 70
0
 10
1244.134600
 20
1095.240028
 30
0.0
 10
1244.134600
 20
1041.590006
 30
0.0
  0
LWPOLYLINE
  5
199
100
AcDbEntity
  8
0
 62
7
100
AcDbPolyline
 90
2
 70
0
 10
1424.634630
 20
1095.240028
 30
0.0
 10
1244.134600
 20
1095.240028
 30
0.0
  0
LWPOLYLINE
  5
19a
100
AcDbEntity
  8
0
 62
7
100
AcDbPolyline
 90
2
 70
0
 10
1244.134600
 20
957.940013
 30
0.0
 10
1424.634630
 20
957.940013
 30
0.0
  0
LWPOLYLINE
  5
19b
100
AcDbEntity
  8
0
 62
7
100
AcDbPolyline
 90
2
 70
0
 10
1244.134600
 20
1011.590035
 30
0.0
 10
1244.134600
 20
957.940013
 30
0.0
  0
LWPOLYLINE
  5
19c
100
AcDbEntity
  8
0
 62
7
100
AcDbPolyline
 90
2
 70
0
 10
1424.634630
 20
1101.590009
 30
0.0
 10
1424.634630
 20
1095.240028
 30
0.0
  0
LWPOLYLINE
  5
19d
100
AcDbEntity
  8
0
 62
7
100
AcDbPolyline
 90
2
 70
0
 10
1518.284494
 20
1101.590009
 30
0.0
 10
1424.634630
 20
1101.590009
 30
0.0
  0
LWPOLYLINE
  5
19e
100
AcDbEntity
  8
0
 62
7
100
AcDbPolyline
 90
2
 70
0
 10
1518.284494
 20
951.590033
 30
0.0
 10
1518.284494
 20
1101.590009
 30
0.0
  0
LWPOLYLINE
  5
19f
100
AcDbEntity
  8
0
 62
7
100
AcDbPolyline
 90
2
 70
0
 10
1424.634630
 20
951.590033
 30
0.0
 10
1518.284494
 20
951.590033
 30
0.0
  0
LWPOLYLINE
  5
1a0
100
AcDbEntity
  8
0
 62
7
100
AcDbPolyline
 90
2
 70
0
 10
1424.634630
 20
957.940013
 30
0.0
 10
1424.634630
 20
951.590033
 30
0.0
  0
LWPOLYLINE
  5
1a1
100
AcDbEntity
  8
0
 62
7
100
AcDbPolyline
 90
2
 70
0
 10
724.235708
 20
1193.348617
 30
0.0
 10
714.235718
 20
1183.348627
 30
0.0
  0
LWPOLYLINE
  5
1a2
100
AcDbEntity
  8
0
 62
7
100
AcDbPolyline
 90
2
 70
0
 10
724.235708
 20
1143.831463
 30
0.0
 10
724.235708
 20
1193.348617
 30
0.0
  0
LWPOLYLINE
  5
1a3
100
AcDbEntity
  8
0
 62
7
100
AcDbPolyline
 90
2
 70
0
 10
714.235718
 20
1153.831453
 30
0.0
 10
724.235708
 20
1143.831463
 30
0.0
  0
LWPOLYLINE
  5
1a4
100
AcDbEntity
  8
0
 62
7
100
AcDbPolyline
 90
2
 70
0
 10
714.235718
 20
1099.940033
 30
0.0
 10
714.235718
 20
1153.831453
 30
0.0
  0
LWPOLYLINE
  5
1a5
100
AcDbEntity
  8
0
 62
7
100
AcDbPolyline
 90
2
 70
0
 10
637.985641
 20
1093.590052
 30
0.0
 10
637.985641
 20
1099.940033
 30
0.0
  0
LWPOLYLINE
  5
1a6
100
AcDbEntity
  8
0
 62
7
100
AcDbPolyline
 90
2
 70
0
 10
544.335658
 20
1093.590052
 30
0.0
 10
637.985641
 20
1093.590052
 30
0.0
  0
LWPOLYLINE
  5
1a7
100
AcDbEntity
  8
0
 62
7
100
AcDbPolyline
 90
2
 70
0
 10
544.335658
 20
1243.590028
 30
0.0
 10
544.335658
 20
1093.590052
 30
0.0
  0
LWPOLYLINE
  5
1a8
100
AcDbEntity
  8
0
 62
7
100
AcDbPolyline
 90
2
 70
0
 10
637.985641
 20
1243.590028
 30
0.0
 10
544.335658
 20
1243.590028
 30
0.0
  0
LWPOLYLINE
  5
1a9
100
AcDbEntity
  8
0
 62
7
100
AcDbPolyline
 90
2
 70
0
 10
637.985641
 20
1237.240047
 30
0.0
 10
637.985641
 20
1243.590028
 30
0.0
  0
SPLINE
  5
1aa
100
AcDbEntity
  8
0
 62
7
100
AcDbSpline
 70
8
 71
3
 72
8
 73
4
 74
0
 40
0
 40
0
 40
0
 40
0
 40
1
 40
1
 40
1
 40
1
 10
576.385644
 20
1153.740033
 30
0.0
 10
576.385644
 20
1155.169095
 30
0.0
 10
575.623248
 20
1156.489603
 30
0.0
 10
574.385644
 20
1157.204134
 30
0.0
  0
SPLINE
  5
1ab
100
AcDbEntity
  8
0
 62
7
100
AcDbSpline
 70
8
 71
3
 72
8
 73
4
 74
0
 40
0
 40
0
 40
0
 40
0
 40
1
 40
1
 40
1
 40
1
 10
574.385644
 20
1157.204134
 30
0.0
 10
573.148040
 20
1157.918665
 30
0.0
 10
571.623248
 20
1157.918665
 30
0.0
 10
570.385644
 20
1157.204134
 30
0.0
  0
SPLINE
  5
1ac
100
AcDbEntity
  8
0
 62
7
100
AcDbSpline
 70
8
 71
3
 72
8
 73
4
 74
0
 40
0
 40
0
 40
0
 40
0
 40
1
 40
1
 40
1
 40
1
 10
570.385644
 20
1157.204134
 30
0.0
 10
569.148040
 20
1156.489603
 30
0.0
 10
568.385644
 20
1155.169095
 30
0.0
 10
568.385644
 20
1153.740033
 30
0.0
  0
SPLINE
  5
1ad
100
AcDbEntity
  8
0
 62
7
100
AcDbSpline
 70
8
 71
3
 72
8
 73
4
 74
0
 40
0
 40
0
 40
0
 40
0
 40
1
 40
1
 40
1
 40
1
 10
568.385644
 20
1153.740033
 30
0.0
 10
568.385644
 20
1152.310970
 30
0.0
 10
569.148040
 20
1150.990462
 30
0.0
 10
570.385644
 20
1150.275931
 30
0.0
  0
SPLINE
  5
1ae
100
AcDbEntity
  8
0
 62
7
100
AcDbSpline
 70
8
 71
3
 72
8
 73
4
 74
0
 40
0
 40
0
 40
0
 40
0
 40
1
 40
1
 40
1
 40
1
 10
570.385644
 20
1150.275931
 30
0.0
 10
571.623248
 20
1149.561400
 30
0.0
 10
573.148040
 20
1149.561400
 30
0.0
 10
574.385644
 20
1150.275931
 30
0.0
  0
SPLINE
  5
1af
100
AcDbEntity
  8
0
 62
7
100
AcDbSpline
 70
8
 71
3
 72
8
 73
4
 74
0
 40
0
 40
0
 40
0
 40
0
 40
1
 40
1
 40
1
 40
1
 10
574.385644
 20
1150.275931
 30
0.0
 10
575.623248
 20
1150.990462
 30
0.0
 10
576.385644
 20
1152.310970
 30
0.0
 10
576.385644
 20
1153.740033
 30
0.0
  0
LWPOLYLINE
  5
1b0
100
AcDbEntity
  8
0
 62
7
100
AcDbPolyline
 90
2
 70
0
 10
714.235718
 20
1183.348627
 30
0.0
 10
714.235718
 20
1237.240047
 30
0.0
  0
LWPOLYLINE
  5
1b1
100
AcDbEntity
  8
0
 62
7
100
AcDbPolyline
 90
1
 70
1
 10
576.385644
 20
1153.740033
 30
0.0
  0
LWPOLYLINE
  5
1b2
100
AcDbEntity
  8
0
 62
7
100
AcDbPolyline
 90
2
 70
0
 10
714.235718
 20
1237.240047
 30
0.0
 10
637.985641
 20
1237.240047
 30
0.0
  0
SPLINE
  5
1b3
100
AcDbEntity
  8
0
 62
7
100
AcDbSpline
 70
8
 71
3
 72
8
 73
4
 74
0
 40
0
 40
0
 40
0
 40
0
 40
1
 40
1
 40
1
 40
1
 10
-1205.865427
 20
1155.390032
 30
0.0
 10
-1205.865427
 20
1156.819095
 30
0.0
 10
-1206.627823
 20
1158.139603
 30
0.0
 10
-1207.865427
 20
1158.854134
 30
0.0
  0
SPLINE
  5
1b4
100
AcDbEntity
  8
0
 62
7
100
AcDbSpline
 70
8
 71
3
 72
8
 73
4
 74
0
 40
0
 40
0
 40
0
 40
0
 40
1
 40
1
 40
1
 40
1
 10
-1207.865427
 20
1158.854134
 30
0.0
 10
-1209.103031
 20
1159.568665
 30
0.0
 10
-1210.627823
 20
1159.568665
 30
0.0
 10
-1211.865427
 20
1158.854134
 30
0.0
  0
SPLINE
  5
1b5
100
AcDbEntity
  8
0
 62
7
100
AcDbSpline
 70
8
 71
3
 72
8
 73
4
 74
0
 40
0
 40
0
 40
0
 40
0
 40
1
 40
1
 40
1
 40
1
 10
-1211.865427
 20
1158.854134
 30
0.0
 10
-1213.103031
 20
1158.139603
 30
0.0
 10
-1213.865427
 20
1156.819095
 30
0.0
 10
-1213.865427
 20
1155.390032
 30
0.0
  0
SPLINE
  5
1b6
100
AcDbEntity
  8
0
 62
7
100
AcDbSpline
 70
8
 71
3
 72
8
 73
4
 74
0
 40
0
 40
0
 40
0
 40
0
 40
1
 40
1
 40
1
 40
1
 10
-1213.865427
 20
1155.390032
 30
0.0
 10
-1213.865427
 20
1153.960970
 30
0.0
 10
-1213.103031
 20
1152.640462
 30
0.0
 10
-1211.865427
 20
1151.925931
 30
0.0
  0
SPLINE
  5
1b7
100
AcDbEntity
  8
0
 62
7
100
AcDbSpline
 70
8
 71
3
 72
8
 73
4
 74
0
 40
0
 40
0
 40
0
 40
0
 40
1
 40
1
 40
1
 40
1
 10
-1211.865427
 20
1151.925931
 30
0.0
 10
-1210.627822
 20
1151.211400
 30
0.0
 10
-1209.103031
 20
1151.211400
 30
0.0
 10
-1207.865427
 20
1151.925931
 30
0.0
  0
SPLINE
  5
1b8
100
AcDbEntity
  8
0
 62
7
100
AcDbSpline
 70
8
 71
3
 72
8
 73
4
 74
0
 40
0
 40
0
 40
0
 40
0
 40
1
 40
1
 40
1
 40
1
 10
-1207.865427
 20
1151.925931
 30
0.0
 10
-1206.627823
 20
1152.640462
 30
0.0
 10
-1205.865427
 20
1153.960970
 30
0.0
 10
-1205.865427
 20
1155.390032
 30
0.0
  0
LWPOLYLINE
  5
1b9
100
AcDbEntity
  8
0
 62
7
100
AcDbPolyline
 90
2
 70
0
 10
637.985641
 20
1099.940033
 30
0.0
 10
714.235718
 20
1099.940033
 30
0.0
  0
LWPOLYLINE
  5
1ba
100
AcDbEntity
  8
0
 62
7
100
AcDbPolyline
 90
1
 70
1
 10
-1205.865427
 20
1155.390032
 30
0.0
  0
LWPOLYLINE
  5
1bb
100
AcDbEntity
  8
0
 62
7
100
AcDbPolyline
 90
2
 70
0
 10
-1325.765427
 20
1145.240040
 30
0.0
 10
-1335.765427
 20
1155.240030
 30
0.0
  0
LWPOLYLINE
  5
1bc
100
AcDbEntity
  8
0
 62
7
100
AcDbPolyline
 90
2
 70
0
 10
-1325.765427
 20
1195.240052
 30
0.0
 10
-1325.765427
 20
1145.240040
 30
0.0
  0
LWPOLYLINE
  5
1bd
100
AcDbEntity
  8
0
 62
7
100
AcDbPolyline
 90
2
 70
0
 10
-1335.765427
 20
1185.240061
 30
0.0
 10
-1325.765427
 20
1195.240052
 30
0.0
  0
LWPOLYLINE
  5
1be
100
AcDbEntity
  8
0
 62
7
100
AcDbPolyline
 90
2
 70
0
 10
-1335.765427
 20
1238.890023
 30
0.0
 10
-1335.765427
 20
1185.240061
 30
0.0
  0
LWPOLYLINE
  5
1bf
100
AcDbEntity
  8
0
 62
7
100
AcDbPolyline
 90
2
 70
0
 10
-1155.265426
 20
1238.890023
 30
0.0
 10
-1335.765427
 20
1238.890023
 30
0.0
  0
LWPOLYLINE
  5
1c0
100
AcDbEntity
  8
0
 62
7
100
AcDbPolyline
 90
2
 70
0
 10
-1335.765427
 20
1101.590009
 30
0.0
 10
-1155.265426
 20
1101.590009
 30
0.0
  0
LWPOLYLINE
  5
1c1
100
AcDbEntity
  8
0
 62
7
100
AcDbPolyline
 90
2
 70
0
 10
-1335.765427
 20
1155.240030
 30
0.0
 10
-1335.765427
 20
1101.590009
 30
0.0
  0
LWPOLYLINE
  5
1c2
100
AcDbEntity
  8
0
 62
7
100
AcDbPolyline
 90
2
 70
0
 10
-1155.265426
 20
1245.240004
 30
0.0
 10
-1155.265426
 20
1238.890023
 30
0.0
  0
LWPOLYLINE
  5
1c3
100
AcDbEntity
  8
0
 62
7
100
AcDbPolyline
 90
2
 70
0
 10
-1061.615413
 20
1245.240004
 30
0.0
 10
-1155.265426
 20
1245.240004
 30
0.0
  0
LWPOLYLINE
  5
1c4
100
AcDbEntity
  8
0
 62
7
100
AcDbPolyline
 90
2
 70
0
 10
-1061.615413
 20
1095.240028
 30
0.0
 10
-1061.615413
 20
1245.240004
 30
0.0
  0
LWPOLYLINE
  5
1c5
100
AcDbEntity
  8
0
 62
7
100
AcDbPolyline
 90
2
 70
0
 10
-1155.265426
 20
1095.240028
 30
0.0
 10
-1061.615413
 20
1095.240028
 30
0.0
  0
LWPOLYLINE
  5
1c6
100
AcDbEntity
  8
0
 62
7
100
AcDbPolyline
 90
2
 70
0
 10
-1155.265426
 20
1101.590009
 30
0.0
 10
-1155.265426
 20
1095.240028
 30
0.0
  0
LWPOLYLINE
  5
1c7
100
AcDbEntity
  8
0
 62
7
100
AcDbPolyline
 90
2
 70
0
 10
544.335658
 20
1186.998637
 30
0.0
 10
534.335667
 20
1176.998587
 30
0.0
  0
LWPOLYLINE
  5
1c8
100
AcDbEntity
  8
0
 62
7
100
AcDbPolyline
 90
2
 70
0
 10
544.335658
 20
1137.481482
 30
0.0
 10
544.335658
 20
1186.998637
 30
0.0
  0
LWPOLYLINE
  5
1c9
100
AcDbEntity
  8
0
 62
7
100
AcDbPolyline
 90
2
 70
0
 10
534.335667
 20
1147.481472
 30
0.0
 10
544.335658
 20
1137.481482
 30
0.0
  0
LWPOLYLINE
  5
1ca
100
AcDbEntity
  8
0
 62
7
100
AcDbPolyline
 90
2
 70
0
 10
534.335667
 20
1093.590052
 30
0.0
 10
534.335667
 20
1147.481472
 30
0.0
  0
LWPOLYLINE
  5
1cb
100
AcDbEntity
  8
0
 62
7
100
AcDbPolyline
 90
2
 70
0
 10
270.285661
 20
1093.590052
 30
0.0
 10
534.335667
 20
1093.590052
 30
0.0
  0
LWPOLYLINE
  5
1cc
100
AcDbEntity
  8
0
 62
7
100
AcDbPolyline
 90
2
 70
0
 10
270.285661
 20
1147.240014
 30
0.0
 10
270.285661
 20
1093.590052
 30
0.0
  0
LWPOLYLINE
  5
1cd
100
AcDbEntity
  8
0
 62
7
100
AcDbPolyline
 90
2
 70
0
 10
280.285651
 20
1137.240023
 30
0.0
 10
270.285661
 20
1147.240014
 30
0.0
  0
LWPOLYLINE
  5
1ce
100
AcDbEntity
  8
0
 62
7
100
AcDbPolyline
 90
2
 70
0
 10
280.285651
 20
1187.240035
 30
0.0
 10
280.285651
 20
1137.240023
 30
0.0
  0
LWPOLYLINE
  5
1cf
100
AcDbEntity
  8
0
 62
7
100
AcDbPolyline
 90
2
 70
0
 10
270.285661
 20
1177.240045
 30
0.0
 10
280.285651
 20
1187.240035
 30
0.0
  0
LWPOLYLINE
  5
1d0
100
AcDbEntity
  8
0
 62
7
100
AcDbPolyline
 90
2
 70
0
 10
270.285661
 20
1230.890007
 30
0.0
 10
270.285661
 20
1177.240045
 30
0.0
  0
LWPOLYLINE
  5
1d1
100
AcDbEntity
  8
0
 62
7
100
AcDbPolyline
 90
2
 70
0
 10
534.335667
 20
1230.890007
 30
0.0
 10
270.285661
 20
1230.890007
 30
0.0
  0
LWPOLYLINE
  5
1d2
100
AcDbEntity
  8
0
 62
7
100
AcDbPolyline
 90
2
 70
0
 10
534.335667
 20
1176.998587
 30
0.0
 10
534.335667
 20
1230.890007
 30
0.0
  0
LWPOLYLINE
  5
1d3
100
AcDbEntity
  8
0
 62
7
100
AcDbPolyline
 90
2
 70
0
 10
1244.134600
 20
1051.348598
 30
0.0
 10
1234.134609
 20
1041.348607
 30
0.0
  0
LWPOLYLINE
  5
1d4
100
AcDbEntity
  8
0
 62
7
100
AcDbPolyline
 90
2
 70
0
 10
1244.134600
 20
1001.831443
 30
0.0
 10
1244.134600
 20
1051.348598
 30
0.0
  0
LWPOLYLINE
  5
1d5
100
AcDbEntity
  8
0
 62
7
100
AcDbPolyline
 90
2
 70
0
 10
1234.134609
 20
1011.831434
 30
0.0
 10
1244.134600
 20
1001.831443
 30
0.0
  0
LWPOLYLINE
  5
1d6
100
AcDbEntity
  8
0
 62
7
100
AcDbPolyline
 90
2
 70
0
 10
1234.134609
 20
957.940013
 30
0.0
 10
1234.134609
 20
1011.831434
 30
0.0
  0
LWPOLYLINE
  5
1d7
100
AcDbEntity
  8
0
 62
7
100
AcDbPolyline
 90
2
 70
0
 10
1157.884533
 20
951.590033
 30
0.0
 10
1157.884533
 20
957.940013
 30
0.0
  0
LWPOLYLINE
  5
1d8
100
AcDbEntity
  8
0
 62
7
100
AcDbPolyline
 90
2
 70
0
 10
1064.234669
 20
951.590033
 30
0.0
 10
1157.884533
 20
951.590033
 30
0.0
  0
LWPOLYLINE
  5
1d9
100
AcDbEntity
  8
0
 62
7
100
AcDbPolyline
 90
2
 70
0
 10
1064.234669
 20
1101.590009
 30
0.0
 10
1064.234669
 20
951.590033
 30
0.0
  0
LWPOLYLINE
  5
1da
100
AcDbEntity
  8
0
 62
7
100
AcDbPolyline
 90
2
 70
0
 10
1157.884533
 20
1101.590009
 30
0.0
 10
1064.234669
 20
1101.590009
 30
0.0
  0
LWPOLYLINE
  5
1db
100
AcDbEntity
  8
0
 62
7
100
AcDbPolyline
 90
2
 70
0
 10
1157.884533
 20
1095.240028
 30
0.0
 10
1157.884533
 20
1101.590009
 30
0.0
  0
SPLINE
  5
1dc
100
AcDbEntity
  8
0
 62
7
100
AcDbSpline
 70
8
 71
3
 72
8
 73
4
 74
0
 40
0
 40
0
 40
0
 40
0
 40
1
 40
1
 40
1
 40
1
 10
1096.284573
 20
1011.740032
 30
0.0
 10
1096.284573
 20
1013.169095
 30
0.0
 10
1095.522178
 20
1014.489603
 30
0.0
 10
1094.284573
 20
1015.204134
 30
0.0
  0
SPLINE
  5
1dd
100
AcDbEntity
  8
0
 62
7
100
AcDbSpline
 70
8
 71
3
 72
8
 73
4
 74
0
 40
0
 40
0
 40
0
 40
0
 40
1
 40
1
 40
1
 40
1
 10
1094.284573
 20
1015.204134
 30
0.0
 10
1093.046969
 20
1015.918665
 30
0.0
 10
1091.522178
 20
1015.918665
 30
0.0
 10
1090.284573
 20
1015.204134
 30
0.0
  0
SPLINE
  5
1de
100
AcDbEntity
  8
0
 62
7
100
AcDbSpline
 70
8
 71
3
 72
8
 73
4
 74
0
 40
0
 40
0
 40
0
 40
0
 40
1
 40
1
 40
1
 40
1
 10
1090.284573
 20
1015.204134
 30
0.0
 10
1089.046969
 20
1014.489603
 30
0.0
 10
1088.284573
 20
1013.169095
 30
0.0
 10
1088.284573
 20
1011.740032
 30
0.0
  0
SPLINE
  5
1df
100
AcDbEntity
  8
0
 62
7
100
AcDbSpline
 70
8
 71
3
 72
8
 73
4
 74
0
 40
0
 40
0
 40
0
 40
0
 40
1
 40
1
 40
1
 40
1
 10
1088.284573
 20
1011.740032
 30
0.0
 10
1088.284573
 20
1010.310970
 30
0.0
 10
1089.046969
 20
1008.990462
 30
0.0
 10
1090.284573
 20
1008.275931
 30
0.0
  0
SPLINE
  5
1e0
100
AcDbEntity
  8
0
 62
7
100
AcDbSpline
 70
8
 71
3
 72
8
 73
4
 74
0
 40
0
 40
0
 40
0
 40
0
 40
1
 40
1
 40
1
 40
1
 10
1090.284573
 20
1008.275931
 30
0.0
 10
1091.522178
 20
1007.561400
 30
0.0
 10
1093.046969
 20
1007.561400
 30
0.0
 10
1094.284573
 20
1008.275931
 30
0.0
  0
SPLINE
  5
1e1
100
AcDbEntity
  8
0
 62
7
100
AcDbSpline
 70
8
 71
3
 72
8
 73
4
 74
0
 40
0
 40
0
 40
0
 40
0
 40
1
 40
1
 40
1
 40
1
 10
1094.284573
 20
1008.275931
 30
0.0
 10
1095.522178
 20
1008.990462
 30
0.0
 10
1096.284573
 20
1010.310970
 30
0.0
 10
1096.284573
 20
1011.740032
 30
0.0
  0
LWPOLYLINE
  5
1e2
100
AcDbEntity
  8
0
 62
7
100
AcDbPolyline
 90
2
 70
0
 10
1234.134609
 20
1041.348607
 30
0.0
 10
1234.134609
 20
1095.240028
 30
0.0
  0
LWPOLYLINE
  5
1e3
100
AcDbEntity
  8
0
 62
7
100
AcDbPolyline
 90
1
 70
1
 10
1096.284573
 20
1011.740032
 30
0.0
  0
LWPOLYLINE
  5
1e4
100
AcDbEntity
  8
0
 62
7
100
AcDbPolyline
 90
2
 70
0
 10
1234.134609
 20
1095.240028
 30
0.0
 10
1157.884533
 20
1095.240028
 30
0.0
  0
LWPOLYLINE
  5
1e5
100
AcDbEntity
  8
0
 62
7
100
AcDbPolyline
 90
2
 70
0
 10
1157.884533
 20
957.940013
 30
0.0
 10
1234.134609
 20
957.940013
 30
0.0
  0
LWPOLYLINE
  5
1e6
100
AcDbEntity
  8
0
 62
7
100
AcDbPolyline
 90
4
 70
1
 10
-993.115431
 20
988.890023
 30
0.0
 10
-973.115420
 20
988.890023
 30
0.0
 10
-973.115420
 20
995.240004
 30
0.0
 10
-993.115431
 20
995.240004
 30
0.0
  0
LWPOLYLINE
  5
1e7
100
AcDbEntity
  8
0
 62
7
100
AcDbPolyline
 90
4
 70
0
 10
-908.115422
 20
1101.590009
 30
0.0
 10
-908.115422
 20
1081.590028
 30
0.0
 10
-901.765441
 20
1081.590028
 30
0.0
 10
-901.765441
 20
1101.590009
 30
0.0
  0
LWPOLYLINE
  5
1e8
100
AcDbEntity
  8
0
 62
7
100
AcDbPolyline
 90
4
 70
0
 10
-1064.465439
 20
1095.240028
 30
0.0
 10
-1064.465439
 20
1081.590028
 30
0.0
 10
-1058.115428
 20
1081.590028
 30
0.0
 10
-1058.115428
 20
1095.240028
 30
0.0
  0
SPLINE
  5
1e9
100
AcDbEntity
  8
0
 62
7
100
AcDbSpline
 70
8
 71
3
 72
8
 73
4
 74
0
 40
0
 40
0
 40
0
 40
0
 40
1
 40
1
 40
1
 40
1
 10
-1103.725427
 20
1088.160032
 30
0.0
 10
-1103.725427
 20
1088.874564
 30
0.0
 10
-1104.106625
 20
1089.534818
 30
0.0
 10
-1104.725427
 20
1089.892083
 30
0.0
  0
SPLINE
  5
1ea
100
AcDbEntity
  8
0
 62
7
100
AcDbSpline
 70
8
 71
3
 72
8
 73
4
 74
0
 40
0
 40
0
 40
0
 40
0
 40
1
 40
1
 40
1
 40
1
 10
-1104.725427
 20
1089.892083
 30
0.0
 10
-1105.344229
 20
1090.249349
 30
0.0
 10
-1106.106625
 20
1090.249349
 30
0.0
 10
-1106.725427
 20
1089.892083
 30
0.0
  0
SPLINE
  5
1eb
100
AcDbEntity
  8
0
 62
7
100
AcDbSpline
 70
8
 71
3
 72
8
 73
4
 74
0
 40
0
 40
0
 40
0
 40
0
 40
1
 40
1
 40
1
 40
1
 10
-1106.725427
 20
1089.892083
 30
0.0
 10
-1107.344229
 20
1089.534818
 30
0.0
 10
-1107.725427
 20
1088.874564
 30
0.0
 10
-1107.725427
 20
1088.160032
 30
0.0
  0
LWPOLYLINE
  5
1ec
100
AcDbEntity
  8
0
 62
7
100
AcDbPolyline
 90
2
 70
0
 10
-1103.725424
 20
1078.160019
 30
0.0
 10
-1103.725424
 20
1088.160009
 30
0.0
  0
SPLINE
  5
1ed
100
AcDbEntity
  8
0
 62
7
100
AcDbSpline
 70
8
 71
3
 72
8
 73
4
 74
0
 40
0
 40
0
 40
0
 40
0
 40
1
 40
1
 40
1
 40
1
 10
-1107.725427
 20
1078.160033
 30
0.0
 10
-1107.725427
 20
1077.445501
 30
0.0
 10
-1107.344229
 20
1076.785247
 30
0.0
 10
-1106.725427
 20
1076.427982
 30
0.0
  0
SPLINE
  5
1ee
100
AcDbEntity
  8
0
 62
7
100
AcDbSpline
 70
8
 71
3
 72
8
 73
4
 74
0
 40
0
 40
0
 40
0
 40
0
 40
1
 40
1
 40
1
 40
1
 10
-1106.725427
 20
1076.427982
 30
0.0
 10
-1106.106625
 20
1076.070716
 30
0.0
 10
-1105.344229
 20
1076.070716
 30
0.0
 10
-1104.725427
 20
1076.427982
 30
0.0
  0
SPLINE
  5
1ef
100
AcDbEntity
  8
0
 62
7
100
AcDbSpline
 70
8
 71
3
 72
8
 73
4
 74
0
 40
0
 40
0
 40
0
 40
0
 40
1
 40
1
 40
1
 40
1
 10
-1104.725427
 20
1076.427982
 30
0.0
 10
-1104.106625
 20
1076.785247
 30
0.0
 10
-1103.725427
 20
1077.445501
 30
0.0
 10
-1103.725427
 20
1078.160033
 30
0.0
  0
LWPOLYLINE
  5
1f0
100
AcDbEntity
  8
0
 62
7
100
AcDbPolyline
 90
2
 70
0
 10
-1107.725432
 20
1088.160009
 30
0.0
 10
-1107.725432
 20
1078.160019
 30
0.0
  0
SPLINE
  5
1f1
100
AcDbEntity
  8
0
 62
7
100
AcDbSpline
 70
8
 71
3
 72
8
 73
4
 74
0
 40
0
 40
0
 40
0
 40
0
 40
1
 40
1
 40
1
 40
1
 10
-1143.725427
 20
1088.160032
 30
0.0
 10
-1143.725427
 20
1088.874564
 30
0.0
 10
-1144.106625
 20
1089.534818
 30
0.0
 10
-1144.725427
 20
1089.892083
 30
0.0
  0
SPLINE
  5
1f2
100
AcDbEntity
  8
0
 62
7
100
AcDbSpline
 70
8
 71
3
 72
8
 73
4
 74
0
 40
0
 40
0
 40
0
 40
0
 40
1
 40
1
 40
1
 40
1
 10
-1144.725427
 20
1089.892083
 30
0.0
 10
-1145.344229
 20
1090.249349
 30
0.0
 10
-1146.106625
 20
1090.249349
 30
0.0
 10
-1146.725427
 20
1089.892083
 30
0.0
  0
SPLINE
  5
1f3
100
AcDbEntity
  8
0
 62
7
100
AcDbSpline
 70
8
 71
3
 72
8
 73
4
 74
0
 40
0
 40
0
 40
0
 40
0
 40
1
 40
1
 40
1
 40
1
 10
-1146.725427
 20
1089.892083
 30
0.0
 10
-1147.344229
 20
1089.534818
 30
0.0
 10
-1147.725427
 20
1088.874564
 30
0.0
 10
-1147.725427
 20
1088.160032
 30
0.0
  0
LWPOLYLINE
  5
1f4
100
AcDbEntity
  8
0
 62
7
100
AcDbPolyline
 90
2
 70
0
 10
-1143.725430
 20
1078.160019
 30
0.0
 10
-1143.725430
 20
1088.160009
 30
0.0
  0
SPLINE
  5
1f5
100
AcDbEntity
  8
0
 62
7
100
AcDbSpline
 70
8
 71
3
 72
8
 73
4
 74
0
 40
0
 40
0
 40
0
 40
0
 40
1
 40
1
 40
1
 40
1
 10
-1147.725427
 20
1078.160033
 30
0.0
 10
-1147.725427
 20
1077.445501
 30
0.0
 10
-1147.344229
 20
1076.785247
 30
0.0
 10
-1146.725427
 20
1076.427982
 30
0.0
  0
SPLINE
  5
1f6
100
AcDbEntity
  8
0
 62
7
100
AcDbSpline
 70
8
 71
3
 72
8
 73
4
 74
0
 40
0
 40
0
 40
0
 40
0
 40
1
 40
1
 40
1
 40
1
 10
-1146.725427
 20
1076.427982
 30
0.0
 10
-1146.106625
 20
1076.070716
 30
0.0
 10
-1145.344229
 20
1076.070716
 30
0.0
 10
-1144.725427
 20
1076.427982
 30
0.0
  0
SPLINE
  5
1f7
100
AcDbEntity
  8
0
 62
7
100
AcDbSpline
 70
8
 71
3
 72
8
 73
4
 74
0
 40
0
 40
0
 40
0
 40
0
 40
1
 40
1
 40
1
 40
1
 10
-1144.725427
 20
1076.427982
 30
0.0
 10
-1144.106625
 20
1076.785247
 30
0.0
 10
-1143.725427
 20
1077.445501
 30
0.0
 10
-1143.725427
 20
1078.160033
 30
0.0
  0
SPLINE
  5
1f8
100
AcDbEntity
  8
0
 62
7
100
AcDbSpline
 70
8
 71
3
 72
8
 73
4
 74
0
 40
0
 40
0
 40
0
 40
0
 40
1
 40
1
 40
1
 40
1
 10
-1246.440427
 20
1089.430032
 30
0.0
 10
-1246.440427
 20
1089.921273
 30
0.0
 10
-1246.702500
 20
1090.375197
 30
0.0
 10
-1247.127927
 20
1090.620817
 30
0.0
  0
SPLINE
  5
1f9
100
AcDbEntity
  8
0
 62
7
100
AcDbSpline
 70
8
 71
3
 72
8
 73
4
 74
0
 40
0
 40
0
 40
0
 40
0
 40
1
 40
1
 40
1
 40
1
 10
-1247.127927
 20
1090.620817
 30
0.0
 10
-1247.553353
 20
1090.866437
 30
0.0
 10
-1248.077500
 20
1090.866437
 30
0.0
 10
-1248.502927
 20
1090.620817
 30
0.0
  0
SPLINE
  5
1fa
100
AcDbEntity
  8
0
 62
7
100
AcDbSpline
 70
8
 71
3
 72
8
 73
4
 74
0
 40
0
 40
0
 40
0
 40
0
 40
1
 40
1
 40
1
 40
1
 10
-1248.502927
 20
1090.620817
 30
0.0
 10
-1248.928353
 20
1090.375197
 30
0.0
 10
-1249.190427
 20
1089.921273
 30
0.0
 10
-1249.190427
 20
1089.430032
 30
0.0
  0
SPLINE
  5
1fb
100
AcDbEntity
  8
0
 62
7
100
AcDbSpline
 70
8
 71
3
 72
8
 73
4
 74
0
 40
0
 40
0
 40
0
 40
0
 40
1
 40
1
 40
1
 40
1
 10
-1249.190427
 20
1089.430032
 30
0.0
 10
-1249.190427
 20
1088.938792
 30
0.0
 10
-1248.928353
 20
1088.484868
 30
0.0
 10
-1248.502927
 20
1088.239248
 30
0.0
  0
SPLINE
  5
1fc
100
AcDbEntity
  8
0
 62
7
100
AcDbSpline
 70
8
 71
3
 72
8
 73
4
 74
0
 40
0
 40
0
 40
0
 40
0
 40
1
 40
1
 40
1
 40
1
 10
-1248.502927
 20
1088.239248
 30
0.0
 10
-1248.077500
 20
1087.993627
 30
0.0
 10
-1247.553353
 20
1087.993627
 30
0.0
 10
-1247.127927
 20
1088.239248
 30
0.0
  0
SPLINE
  5
1fd
100
AcDbEntity
  8
0
 62
7
100
AcDbSpline
 70
8
 71
3
 72
8
 73
4
 74
0
 40
0
 40
0
 40
0
 40
0
 40
1
 40
1
 40
1
 40
1
 10
-1247.127927
 20
1088.239248
 30
0.0
 10
-1246.702500
 20
1088.484868
 30
0.0
 10
-1246.440427
 20
1088.938792
 30
0.0
 10
-1246.440427
 20
1089.430032
 30
0.0
  0
LWPOLYLINE
  5
1fe
100
AcDbEntity
  8
0
 62
7
100
AcDbPolyline
 90
2
 70
0
 10
-1147.725424
 20
1088.160009
 30
0.0
 10
-1147.725424
 20
1078.160019
 30
0.0
  0
SPLINE
  5
1ff
100
AcDbEntity
  8
0
 62
7
100
AcDbSpline
 70
8
 71
3
 72
8
 73
4
 74
0
 40
0
 40
0
 40
0
 40
0
 40
1
 40
1
 40
1
 40
1
 10
-1246.440427
 20
1046.250032
 30
0.0
 10
-1246.440427
 20
1046.741273
 30
0.0
 10
-1246.702500
 20
1047.195197
 30
0.0
 10
-1247.127927
 20
1047.440817
 30
0.0
  0
SPLINE
  5
200
100
AcDbEntity
  8
0
 62
7
100
AcDbSpline
 70
8
 71
3
 72
8
 73
4
 74
0
 40
0
 40
0
 40
0
 40
0
 40
1
 40
1
 40
1
 40
1
 10
-1247.127927
 20
1047.440817
 30
0.0
 10
-1247.553353
 20
1047.686437
 30
0.0
 10
-1248.077500
 20
1047.686437
 30
0.0
 10
-1248.502927
 20
1047.440817
 30
0.0
  0
SPLINE
  5
201
100
AcDbEntity
  8
0
 62
7
100
AcDbSpline
 70
8
 71
3
 72
8
 73
4
 74
0
 40
0
 40
0
 40
0
 40
0
 40
1
 40
1
 40
1
 40
1
 10
-1248.502927
 20
1047.440817
 30
0.0
 10
-1248.928353
 20
1047.195197
 30
0.0
 10
-1249.190427
 20
1046.741273
 30
0.0
 10
-1249.190427
 20
1046.250032
 30
0.0
  0
SPLINE
  5
202
100
AcDbEntity
  8
0
 62
7
100
AcDbSpline
 70
8
 71
3
 72
8
 73
4
 74
0
 40
0
 40
0
 40
0
 40
0
 40
1
 40
1
 40
1
 40
1
 10
-1249.190427
 20
1046.250032
 30
0.0
 10
-1249.190427
 20
1045.758792
 30
0.0
 10
-1248.928353
 20
1045.304868
 30
0.0
 10
-1248.502927
 20
1045.059248
 30
0.0
  0
SPLINE
  5
203
100
AcDbEntity
  8
0
 62
7
100
AcDbSpline
 70
8
 71
3
 72
8
 73
4
 74
0
 40
0
 40
0
 40
0
 40
0
 40
1
 40
1
 40
1
 40
1
 10
-1248.502927
 20
1045.059248
 30
0.0
 10
-1248.077500
 20
1044.813627
 30
0.0
 10
-1247.553353
 20
1044.813627
 30
0.0
 10
-1247.127927
 20
1045.059248
 30
0.0
  0
SPLINE
  5
204
100
AcDbEntity
  8
0
 62
7
100
AcDbSpline
 70
8
 71
3
 72
8
 73
4
 74
0
 40
0
 40
0
 40
0
 40
0
 40
1
 40
1
 40
1
 40
1
 10
-1247.127927
 20
1045.059248
 30
0.0
 10
-1246.702500
 20
1045.304868
 30
0.0
 10
-1246.440427
 20
1045.758792
 30
0.0
 10
-1246.440427
 20
1046.250032
 30
0.0
  0
LWPOLYLINE
  5
205
100
AcDbEntity
  8
0
 62
7
100
AcDbPolyline
 90
1
 70
1
 10
-1246.440427
 20
1089.430032
 30
0.0
  0
SPLINE
  5
206
100
AcDbEntity
  8
0
 62
7
100
AcDbSpline
 70
8
 71
3
 72
8
 73
4
 74
0
 40
0
 40
0
 40
0
 40
0
 40
1
 40
1
 40
1
 40
1
 10
-1209.610427
 20
1046.250032
 30
0.0
 10
-1209.610427
 20
1046.741273
 30
0.0
 10
-1209.872500
 20
1047.195197
 30
0.0
 10
-1210.297927
 20
1047.440817
 30
0.0
  0
SPLINE
  5
207
100
AcDbEntity
  8
0
 62
7
100
AcDbSpline
 70
8
 71
3
 72
8
 73
4
 74
0
 40
0
 40
0
 40
0
 40
0
 40
1
 40
1
 40
1
 40
1
 10
-1210.297927
 20
1047.440817
 30
0.0
 10
-1210.723353
 20
1047.686437
 30
0.0
 10
-1211.247500
 20
1047.686437
 30
0.0
 10
-1211.672927
 20
1047.440817
 30
0.0
  0
SPLINE
  5
208
100
AcDbEntity
  8
0
 62
7
100
AcDbSpline
 70
8
 71
3
 72
8
 73
4
 74
0
 40
0
 40
0
 40
0
 40
0
 40
1
 40
1
 40
1
 40
1
 10
-1211.672927
 20
1047.440817
 30
0.0
 10
-1212.098353
 20
1047.195197
 30
0.0
 10
-1212.360427
 20
1046.741273
 30
0.0
 10
-1212.360427
 20
1046.250032
 30
0.0
  0
SPLINE
  5
209
100
AcDbEntity
  8
0
 62
7
100
AcDbSpline
 70
8
 71
3
 72
8
 73
4
 74
0
 40
0
 40
0
 40
0
 40
0
 40
1
 40
1
 40
1
 40
1
 10
-1212.360427
 20
1046.250032
 30
0.0
 10
-1212.360427
 20
1045.758792
 30
0.0
 10
-1212.098353
 20
1045.304868
 30
0.0
 10
-1211.672927
 20
1045.059248
 30
0.0
  0
SPLINE
  5
20a
100
AcDbEntity
  8
0
 62
7
100
AcDbSpline
 70
8
 71
3
 72
8
 73
4
 74
0
 40
0
 40
0
 40
0
 40
0
 40
1
 40
1
 40
1
 40
1
 10
-1211.672927
 20
1045.059248
 30
0.0
 10
-1211.247500
 20
1044.813627
 30
0.0
 10
-1210.723353
 20
1044.813627
 30
0.0
 10
-1210.297927
 20
1045.059248
 30
0.0
  0
SPLINE
  5
20b
100
AcDbEntity
  8
0
 62
7
100
AcDbSpline
 70
8
 71
3
 72
8
 73
4
 74
0
 40
0
 40
0
 40
0
 40
0
 40
1
 40
1
 40
1
 40
1
 10
-1210.297927
 20
1045.059248
 30
0.0
 10
-1209.872500
 20
1045.304868
 30
0.0
 10
-1209.610427
 20
1045.758792
 30
0.0
 10
-1209.610427
 20
1046.250032
 30
0.0
  0
LWPOLYLINE
  5
20c
100
AcDbEntity
  8
0
 62
7
100
AcDbPolyline
 90
1
 70
1
 10
-1246.440427
 20
1046.250032
 30
0.0
  0
SPLINE
  5
20d
100
AcDbEntity
  8
0
 62
7
100
AcDbSpline
 70
8
 71
3
 72
8
 73
4
 74
0
 40
0
 40
0
 40
0
 40
0
 40
1
 40
1
 40
1
 40
1
 10
-1209.610427
 20
1090.070032
 30
0.0
 10
-1209.610427
 20
1090.561273
 30
0.0
 10
-1209.872500
 20
1091.015197
 30
0.0
 10
-1210.297927
 20
1091.260817
 30
0.0
  0
SPLINE
  5
20e
100
AcDbEntity
  8
0
 62
7
100
AcDbSpline
 70
8
 71
3
 72
8
 73
4
 74
0
 40
0
 40
0
 40
0
 40
0
 40
1
 40
1
 40
1
 40
1
 10
-1210.297927
 20
1091.260817
 30
0.0
 10
-1210.723353
 20
1091.506437
 30
0.0
 10
-1211.247500
 20
1091.506437
 30
0.0
 10
-1211.672927
 20
1091.260817
 30
0.0
  0
SPLINE
  5
20f
100
AcDbEntity
  8
0
 62
7
100
AcDbSpline
 70
8
 71
3
 72
8
 73
4
 74
0
 40
0
 40
0
 40
0
 40
0
 40
1
 40
1
 40
1
 40
1
 10
-1211.672927
 20
1091.260817
 30
0.0
 10
-1212.098353
 20
1091.015197
 30
0.0
 10
-1212.360427
 20
1090.561273
 30
0.0
 10
-1212.360427
 20
1090.070032
 30
0.0
  0
SPLINE
  5
210
100
AcDbEntity
  8
0
 62
7
100
AcDbSpline
 70
8
 71
3
 72
8
 73
4
 74
0
 40
0
 40
0
 40
0
 40
0
 40
1
 40
1
 40
1
 40
1
 10
-1212.360427
 20
1090.070032
 30
0.0
 10
-1212.360427
 20
1089.578792
 30
0.0
 10
-1212.098353
 20
1089.124868
 30
0.0
 10
-1211.672927
 20
1088.879248
 30
0.0
  0
SPLINE
  5
211
100
AcDbEntity
  8
0
 62
7
100
AcDbSpline
 70
8
 71
3
 72
8
 73
4
 74
0
 40
0
 40
0
 40
0
 40
0
 40
1
 40
1
 40
1
 40
1
 10
-1211.672927
 20
1088.879248
 30
0.0
 10
-1211.247500
 20
1088.633628
 30
0.0
 10
-1210.723353
 20
1088.633628
 30
0.0
 10
-1210.297927
 20
1088.879248
 30
0.0
  0
SPLINE
  5
212
100
AcDbEntity
  8
0
 62
7
100
AcDbSpline
 70
8
 71
3
 72
8
 73
4
 74
0
 40
0
 40
0
 40
0
 40
0
 40
1
 40
1
 40
1
 40
1
 10
-1210.297927
 20
1088.879248
 30
0.0
 10
-1209.872500
 20
1089.124868
 30
0.0
 10
-1209.610427
 20
1089.578792
 30
0.0
 10
-1209.610427
 20
1090.070032
 30
0.0
  0
LWPOLYLINE
  5
213
100
AcDbEntity
  8
0
 62
7
100
AcDbPolyline
 90
1
 70
1
 10
-1209.610427
 20
1046.250032
 30
0.0
  0
LWPOLYLINE
  5
214
100
AcDbEntity
  8
0
 62
7
100
AcDbPolyline
 90
1
 70
1
 10
-1209.610427
 20
1090.070032
 30
0.0
  0
LWPOLYLINE
  5
215
100
AcDbEntity
  8
0
 62
7
100
AcDbPolyline
 90
4
 70
1
 10
-913.115417
 20
1090.240033
 30
0.0
 10
-1053.115433
 20
1090.240033
 30
0.0
 10
-1053.115433
 20
1015.240044
 30
0.0
 10
-913.115417
 20
1015.240044
 30
0.0
  0
LWPOLYLINE
  5
216
100
AcDbEntity
  8
0
 62
7
100
AcDbPolyline
 90
4
 70
1
 10
-901.765441
 20
1008.890004
 30
0.0
 10
-908.115422
 20
1008.890004
 30
0.0
 10
-908.115422
 20
988.890023
 30
0.0
 10
-901.765441
 20
988.890023
 30
0.0
  0
SPLINE
  5
217
100
AcDbEntity
  8
0
 62
7
100
AcDbSpline
 70
8
 71
3
 72
8
 73
4
 74
0
 40
0
 40
0
 40
0
 40
0
 40
1
 40
1
 40
1
 40
1
 10
-1170.720427
 20
1088.160032
 30
0.0
 10
-1170.720427
 20
1088.651273
 30
0.0
 10
-1170.982500
 20
1089.105197
 30
0.0
 10
-1171.407927
 20
1089.350817
 30
0.0
  0
SPLINE
  5
218
100
AcDbEntity
  8
0
 62
7
100
AcDbSpline
 70
8
 71
3
 72
8
 73
4
 74
0
 40
0
 40
0
 40
0
 40
0
 40
1
 40
1
 40
1
 40
1
 10
-1171.407927
 20
1089.350817
 30
0.0
 10
-1171.833353
 20
1089.596437
 30
0.0
 10
-1172.357500
 20
1089.596437
 30
0.0
 10
-1172.782927
 20
1089.350817
 30
0.0
  0
SPLINE
  5
219
100
AcDbEntity
  8
0
 62
7
100
AcDbSpline
 70
8
 71
3
 72
8
 73
4
 74
0
 40
0
 40
0
 40
0
 40
0
 40
1
 40
1
 40
1
 40
1
 10
-1172.782927
 20
1089.350817
 30
0.0
 10
-1173.208353
 20
1089.105197
 30
0.0
 10
-1173.470427
 20
1088.651273
 30
0.0
 10
-1173.470427
 20
1088.160032
 30
0.0
  0
SPLINE
  5
21a
100
AcDbEntity
  8
0
 62
7
100
AcDbSpline
 70
8
 71
3
 72
8
 73
4
 74
0
 40
0
 40
0
 40
0
 40
0
 40
1
 40
1
 40
1
 40
1
 10
-1173.470427
 20
1088.160032
 30
0.0
 10
-1173.470427
 20
1087.668792
 30
0.0
 10
-1173.208353
 20
1087.214868
 30
0.0
 10
-1172.782927
 20
1086.969248
 30
0.0
  0
SPLINE
  5
21b
100
AcDbEntity
  8
0
 62
7
100
AcDbSpline
 70
8
 71
3
 72
8
 73
4
 74
0
 40
0
 40
0
 40
0
 40
0
 40
1
 40
1
 40
1
 40
1
 10
-1172.782927
 20
1086.969248
 30
0.0
 10
-1172.357500
 20
1086.723627
 30
0.0
 10
-1171.833353
 20
1086.723627
 30
0.0
 10
-1171.407927
 20
1086.969248
 30
0.0
  0
SPLINE
  5
21c
100
AcDbEntity
  8
0
 62
7
100
AcDbSpline
 70
8
 71
3
 72
8
 73
4
 74
0
 40
0
 40
0
 40
0
 40
0
 40
1
 40
1
 40
1
 40
1
 10
-1171.407927
 20
1086.969248
 30
0.0
 10
-1170.982500
 20
1087.214868
 30
0.0
 10
-1170.720427
 20
1087.668792
 30
0.0
 10
-1170.720427
 20
1088.160032
 30
0.0
  0
LWPOLYLINE
  5
21d
100
AcDbEntity
  8
0
 62
7
100
AcDbPolyline
 90
4
 70
1
 10
-1058.115428
 20
1008.890004
 30
0.0
 10
-1064.465439
 20
1008.890004
 30
0.0
 10
-1064.465439
 20
988.890023
 30
0.0
 10
-1058.115428
 20
988.890023
 30
0.0
  0
SPLINE
  5
21e
100
AcDbEntity
  8
0
 62
7
100
AcDbSpline
 70
8
 71
3
 72
8
 73
4
 74
0
 40
0
 40
0
 40
0
 40
0
 40
1
 40
1
 40
1
 40
1
 10
-1081.820427
 20
1088.160032
 30
0.0
 10
-1081.820427
 20
1088.651273
 30
0.0
 10
-1082.082500
 20
1089.105197
 30
0.0
 10
-1082.507927
 20
1089.350817
 30
0.0
  0
SPLINE
  5
21f
100
AcDbEntity
  8
0
 62
7
100
AcDbSpline
 70
8
 71
3
 72
8
 73
4
 74
0
 40
0
 40
0
 40
0
 40
0
 40
1
 40
1
 40
1
 40
1
 10
-1082.507927
 20
1089.350817
 30
0.0
 10
-1082.933353
 20
1089.596437
 30
0.0
 10
-1083.457500
 20
1089.596437
 30
0.0
 10
-1083.882927
 20
1089.350817
 30
0.0
  0
SPLINE
  5
220
100
AcDbEntity
  8
0
 62
7
100
AcDbSpline
 70
8
 71
3
 72
8
 73
4
 74
0
 40
0
 40
0
 40
0
 40
0
 40
1
 40
1
 40
1
 40
1
 10
-1083.882927
 20
1089.350817
 30
0.0
 10
-1084.308353
 20
1089.105197
 30
0.0
 10
-1084.570427
 20
1088.651273
 30
0.0
 10
-1084.570427
 20
1088.160032
 30
0.0
  0
SPLINE
  5
221
100
AcDbEntity
  8
0
 62
7
100
AcDbSpline
 70
8
 71
3
 72
8
 73
4
 74
0
 40
0
 40
0
 40
0
 40
0
 40
1
 40
1
 40
1
 40
1
 10
-1084.570427
 20
1088.160032
 30
0.0
 10
-1084.570427
 20
1087.668792
 30
0.0
 10
-1084.308353
 20
1087.214868
 30
0.0
 10
-1083.882927
 20
1086.969248
 30
0.0
  0
SPLINE
  5
222
100
AcDbEntity
  8
0
 62
7
100
AcDbSpline
 70
8
 71
3
 72
8
 73
4
 74
0
 40
0
 40
0
 40
0
 40
0
 40
1
 40
1
 40
1
 40
1
 10
-1083.882927
 20
1086.969248
 30
0.0
 10
-1083.457500
 20
1086.723627
 30
0.0
 10
-1082.933353
 20
1086.723627
 30
0.0
 10
-1082.507927
 20
1086.969248
 30
0.0
  0
SPLINE
  5
223
100
AcDbEntity
  8
0
 62
7
100
AcDbSpline
 70
8
 71
3
 72
8
 73
4
 74
0
 40
0
 40
0
 40
0
 40
0
 40
1
 40
1
 40
1
 40
1
 10
-1082.507927
 20
1086.969248
 30
0.0
 10
-1082.082500
 20
1087.214868
 30
0.0
 10
-1081.820427
 20
1087.668792
 30
0.0
 10
-1081.820427
 20
1088.160032
 30
0.0
  0
LWPOLYLINE
  5
224
100
AcDbEntity
  8
0
 62
7
100
AcDbPolyline
 90
1
 70
1
 10
-1170.720427
 20
1088.160032
 30
0.0
  0
SPLINE
  5
225
100
AcDbEntity
  8
0
 62
7
100
AcDbSpline
 70
8
 71
3
 72
8
 73
4
 74
0
 40
0
 40
0
 40
0
 40
0
 40
1
 40
1
 40
1
 40
1
 10
-1081.820427
 20
1023.390032
 30
0.0
 10
-1081.820427
 20
1023.881273
 30
0.0
 10
-1082.082500
 20
1024.335197
 30
0.0
 10
-1082.507927
 20
1024.580817
 30
0.0
  0
SPLINE
  5
226
100
AcDbEntity
  8
0
 62
7
100
AcDbSpline
 70
8
 71
3
 72
8
 73
4
 74
0
 40
0
 40
0
 40
0
 40
0
 40
1
 40
1
 40
1
 40
1
 10
-1082.507927
 20
1024.580817
 30
0.0
 10
-1082.933353
 20
1024.826437
 30
0.0
 10
-1083.457500
 20
1024.826437
 30
0.0
 10
-1083.882927
 20
1024.580817
 30
0.0
  0
SPLINE
  5
227
100
AcDbEntity
  8
0
 62
7
100
AcDbSpline
 70
8
 71
3
 72
8
 73
4
 74
0
 40
0
 40
0
 40
0
 40
0
 40
1
 40
1
 40
1
 40
1
 10
-1083.882927
 20
1024.580817
 30
0.0
 10
-1084.308353
 20
1024.335197
 30
0.0
 10
-1084.570427
 20
1023.881273
 30
0.0
 10
-1084.570427
 20
1023.390032
 30
0.0
  0
SPLINE
  5
228
100
AcDbEntity
  8
0
 62
7
100
AcDbSpline
 70
8
 71
3
 72
8
 73
4
 74
0
 40
0
 40
0
 40
0
 40
0
 40
1
 40
1
 40
1
 40
1
 10
-1084.570427
 20
1023.390032
 30
0.0
 10
-1084.570427
 20
1022.898792
 30
0.0
 10
-1084.308353
 20
1022.444868
 30
0.0
 10
-1083.882927
 20
1022.199248
 30
0.0
  0
SPLINE
  5
229
100
AcDbEntity
  8
0
 62
7
100
AcDbSpline
 70
8
 71
3
 72
8
 73
4
 74
0
 40
0
 40
0
 40
0
 40
0
 40
1
 40
1
 40
1
 40
1
 10
-1083.882927
 20
1022.199248
 30
0.0
 10
-1083.457500
 20
1021.953627
 30
0.0
 10
-1082.933353
 20
1021.953627
 30
0.0
 10
-1082.507927
 20
1022.199248
 30
0.0
  0
SPLINE
  5
22a
100
AcDbEntity
  8
0
 62
7
100
AcDbSpline
 70
8
 71
3
 72
8
 73
4
 74
0
 40
0
 40
0
 40
0
 40
0
 40
1
 40
1
 40
1
 40
1
 10
-1082.507927
 20
1022.199248
 30
0.0
 10
-1082.082500
 20
1022.444868
 30
0.0
 10
-1081.820427
 20
1022.898792
 30
0.0
 10
-1081.820427
 20
1023.390032
 30
0.0
  0
LWPOLYLINE
  5
22b
100
AcDbEntity
  8
0
 62
7
100
AcDbPolyline
 90
1
 70
1
 10
-1081.820427
 20
1088.160032
 30
0.0
  0
SPLINE
  5
22c
100
AcDbEntity
  8
0
 62
7
100
AcDbSpline
 70
8
 71
3
 72
8
 73
4
 74
0
 40
0
 40
0
 40
0
 40
0
 40
1
 40
1
 40
1
 40
1
 10
-1170.720427
 20
1023.390032
 30
0.0
 10
-1170.720427
 20
1023.881273
 30
0.0
 10
-1170.982500
 20
1024.335197
 30
0.0
 10
-1171.407927
 20
1024.580817
 30
0.0
  0
SPLINE
  5
22d
100
AcDbEntity
  8
0
 62
7
100
AcDbSpline
 70
8
 71
3
 72
8
 73
4
 74
0
 40
0
 40
0
 40
0
 40
0
 40
1
 40
1
 40
1
 40
1
 10
-1171.407927
 20
1024.580817
 30
0.0
 10
-1171.833353
 20
1024.826437
 30
0.0
 10
-1172.357500
 20
1024.826437
 30
0.0
 10
-1172.782927
 20
1024.580817
 30
0.0
  0
SPLINE
  5
22e
100
AcDbEntity
  8
0
 62
7
100
AcDbSpline
 70
8
 71
3
 72
8
 73
4
 74
0
 40
0
 40
0
 40
0
 40
0
 40
1
 40
1
 40
1
 40
1
 10
-1172.782927
 20
1024.580817
 30
0.0
 10
-1173.208353
 20
1024.335197
 30
0.0
 10
-1173.470427
 20
1023.881273
 30
0.0
 10
-1173.470427
 20
1023.390032
 30
0.0
  0
SPLINE
  5
22f
100
AcDbEntity
  8
0
 62
7
100
AcDbSpline
 70
8
 71
3
 72
8
 73
4
 74
0
 40
0
 40
0
 40
0
 40
0
 40
1
 40
1
 40
1
 40
1
 10
-1173.470427
 20
1023.390032
 30
0.0
 10
-1173.470427
 20
1022.898792
 30
0.0
 10
-1173.208353
 20
1022.444868
 30
0.0
 10
-1172.782927
 20
1022.199248
 30
0.0
  0
SPLINE
  5
230
100
AcDbEntity
  8
0
 62
7
100
AcDbSpline
 70
8
 71
3
 72
8
 73
4
 74
0
 40
0
 40
0
 40
0
 40
0
 40
1
 40
1
 40
1
 40
1
 10
-1172.782927
 20
1022.199248
 30
0.0
 10
-1172.357500
 20
1021.953627
 30
0.0
 10
-1171.833353
 20
1021.953627
 30
0.0
 10
-1171.407927
 20
1022.199248
 30
0.0
  0
SPLINE
  5
231
100
AcDbEntity
  8
0
 62
7
100
AcDbSpline
 70
8
 71
3
 72
8
 73
4
 74
0
 40
0
 40
0
 40
0
 40
0
 40
1
 40
1
 40
1
 40
1
 10
-1171.407927
 20
1022.199248
 30
0.0
 10
-1170.982500
 20
1022.444868
 30
0.0
 10
-1170.720427
 20
1022.898792
 30
0.0
 10
-1170.720427
 20
1023.390032
 30
0.0
  0
LWPOLYLINE
  5
232
100
AcDbEntity
  8
0
 62
7
100
AcDbPolyline
 90
1
 70
1
 10
-1081.820427
 20
1023.390032
 30
0.0
  0
SPLINE
  5
233
100
AcDbEntity
  8
0
 62
7
100
AcDbSpline
 70
8
 71
3
 72
8
 73
4
 74
0
 40
0
 40
0
 40
0
 40
0
 40
1
 40
1
 40
1
 40
1
 10
-1137.700427
 20
1023.390032
 30
0.0
 10
-1137.700427
 20
1023.881273
 30
0.0
 10
-1137.962500
 20
1024.335197
 30
0.0
 10
-1138.387927
 20
1024.580817
 30
0.0
  0
SPLINE
  5
234
100
AcDbEntity
  8
0
 62
7
100
AcDbSpline
 70
8
 71
3
 72
8
 73
4
 74
0
 40
0
 40
0
 40
0
 40
0
 40
1
 40
1
 40
1
 40
1
 10
-1138.387927
 20
1024.580817
 30
0.0
 10
-1138.813353
 20
1024.826437
 30
0.0
 10
-1139.337500
 20
1024.826437
 30
0.0
 10
-1139.762927
 20
1024.580817
 30
0.0
  0
SPLINE
  5
235
100
AcDbEntity
  8
0
 62
7
100
AcDbSpline
 70
8
 71
3
 72
8
 73
4
 74
0
 40
0
 40
0
 40
0
 40
0
 40
1
 40
1
 40
1
 40
1
 10
-1139.762927
 20
1024.580817
 30
0.0
 10
-1140.188353
 20
1024.335197
 30
0.0
 10
-1140.450427
 20
1023.881273
 30
0.0
 10
-1140.450427
 20
1023.390032
 30
0.0
  0
SPLINE
  5
236
100
AcDbEntity
  8
0
 62
7
100
AcDbSpline
 70
8
 71
3
 72
8
 73
4
 74
0
 40
0
 40
0
 40
0
 40
0
 40
1
 40
1
 40
1
 40
1
 10
-1140.450427
 20
1023.390032
 30
0.0
 10
-1140.450427
 20
1022.898792
 30
0.0
 10
-1140.188353
 20
1022.444868
 30
0.0
 10
-1139.762927
 20
1022.199248
 30
0.0
  0
SPLINE
  5
237
100
AcDbEntity
  8
0
 62
7
100
AcDbSpline
 70
8
 71
3
 72
8
 73
4
 74
0
 40
0
 40
0
 40
0
 40
0
 40
1
 40
1
 40
1
 40
1
 10
-1139.762927
 20
1022.199248
 30
0.0
 10
-1139.337500
 20
1021.953627
 30
0.0
 10
-1138.813353
 20
1021.953627
 30
0.0
 10
-1138.387927
 20
1022.199248
 30
0.0
  0
SPLINE
  5
238
100
AcDbEntity
  8
0
 62
7
100
AcDbSpline
 70
8
 71
3
 72
8
 73
4
 74
0
 40
0
 40
0
 40
0
 40
0
 40
1
 40
1
 40
1
 40
1
 10
-1138.387927
 20
1022.199248
 30
0.0
 10
-1137.962500
 20
1022.444868
 30
0.0
 10
-1137.700427
 20
1022.898792
 30
0.0
 10
-1137.700427
 20
1023.390032
 30
0.0
  0
LWPOLYLINE
  5
239
100
AcDbEntity
  8
0
 62
7
100
AcDbPolyline
 90
1
 70
1
 10
-1170.720427
 20
1023.390032
 30
0.0
  0
SPLINE
  5
23a
100
AcDbEntity
  8
0
 62
7
100
AcDbSpline
 70
8
 71
3
 72
8
 73
4
 74
0
 40
0
 40
0
 40
0
 40
0
 40
1
 40
1
 40
1
 40
1
 10
-1293.915427
 20
1036.240032
 30
0.0
 10
-1293.915136
 20
1037.133390
 30
0.0
 10
-1294.391570
 20
1037.959011
 30
0.0
 10
-1295.165192
 20
1038.405774
 30
0.0
  0
SPLINE
  5
23b
100
AcDbEntity
  8
0
 62
7
100
AcDbSpline
 70
8
 71
3
 72
8
 73
4
 74
0
 40
0
 40
0
 40
0
 40
0
 40
1
 40
1
 40
1
 40
1
 10
-1295.165192
 20
1038.405774
 30
0.0
 10
-1295.938814
 20
1038.852536
 30
0.0
 10
-1296.892040
 20
1038.852536
 30
0.0
 10
-1297.665662
 20
1038.405774
 30
0.0
  0
SPLINE
  5
23c
100
AcDbEntity
  8
0
 62
7
100
AcDbSpline
 70
8
 71
3
 72
8
 73
4
 74
0
 40
0
 40
0
 40
0
 40
0
 40
1
 40
1
 40
1
 40
1
 10
-1297.665662
 20
1038.405774
 30
0.0
 10
-1298.439284
 20
1037.959011
 30
0.0
 10
-1298.915717
 20
1037.133390
 30
0.0
 10
-1298.915427
 20
1036.240032
 30
0.0
  0
SPLINE
  5
23d
100
AcDbEntity
  8
0
 62
7
100
AcDbSpline
 70
8
 71
3
 72
8
 73
4
 74
0
 40
0
 40
0
 40
0
 40
0
 40
1
 40
1
 40
1
 40
1
 10
-1298.915427
 20
1036.240032
 30
0.0
 10
-1298.915717
 20
1035.346675
 30
0.0
 10
-1298.439284
 20
1034.521054
 30
0.0
 10
-1297.665662
 20
1034.074291
 30
0.0
  0
SPLINE
  5
23e
100
AcDbEntity
  8
0
 62
7
100
AcDbSpline
 70
8
 71
3
 72
8
 73
4
 74
0
 40
0
 40
0
 40
0
 40
0
 40
1
 40
1
 40
1
 40
1
 10
-1297.665662
 20
1034.074291
 30
0.0
 10
-1296.892040
 20
1033.627528
 30
0.0
 10
-1295.938814
 20
1033.627528
 30
0.0
 10
-1295.165192
 20
1034.074291
 30
0.0
  0
SPLINE
  5
23f
100
AcDbEntity
  8
0
 62
7
100
AcDbSpline
 70
8
 71
3
 72
8
 73
4
 74
0
 40
0
 40
0
 40
0
 40
0
 40
1
 40
1
 40
1
 40
1
 10
-1295.165192
 20
1034.074291
 30
0.0
 10
-1294.391570
 20
1034.521054
 30
0.0
 10
-1293.915136
 20
1035.346675
 30
0.0
 10
-1293.915427
 20
1036.240032
 30
0.0
  0
LWPOLYLINE
  5
240
100
AcDbEntity
  8
0
 62
7
100
AcDbPolyline
 90
1
 70
1
 10
-1137.700427
 20
1023.390032
 30
0.0
  0
SPLINE
  5
241
100
AcDbEntity
  8
0
 62
7
100
AcDbSpline
 70
8
 71
3
 72
8
 73
4
 74
0
 40
0
 40
0
 40
0
 40
0
 40
1
 40
1
 40
1
 40
1
 10
-1318.915427
 20
1036.240032
 30
0.0
 10
-1318.915136
 20
1037.133390
 30
0.0
 10
-1319.391570
 20
1037.959011
 30
0.0
 10
-1320.165192
 20
1038.405774
 30
0.0
  0
SPLINE
  5
242
100
AcDbEntity
  8
0
 62
7
100
AcDbSpline
 70
8
 71
3
 72
8
 73
4
 74
0
 40
0
 40
0
 40
0
 40
0
 40
1
 40
1
 40
1
 40
1
 10
-1320.165192
 20
1038.405774
 30
0.0
 10
-1320.938814
 20
1038.852536
 30
0.0
 10
-1321.892040
 20
1038.852536
 30
0.0
 10
-1322.665662
 20
1038.405774
 30
0.0
  0
SPLINE
  5
243
100
AcDbEntity
  8
0
 62
7
100
AcDbSpline
 70
8
 71
3
 72
8
 73
4
 74
0
 40
0
 40
0
 40
0
 40
0
 40
1
 40
1
 40
1
 40
1
 10
-1322.665662
 20
1038.405774
 30
0.0
 10
-1323.439284
 20
1037.959011
 30
0.0
 10
-1323.915717
 20
1037.133390
 30
0.0
 10
-1323.915427
 20
1036.240032
 30
0.0
  0
SPLINE
  5
244
100
AcDbEntity
  8
0
 62
7
100
AcDbSpline
 70
8
 71
3
 72
8
 73
4
 74
0
 40
0
 40
0
 40
0
 40
0
 40
1
 40
1
 40
1
 40
1
 10
-1323.915427
 20
1036.240032
 30
0.0
 10
-1323.915717
 20
1035.346675
 30
0.0
 10
-1323.439284
 20
1034.521054
 30
0.0
 10
-1322.665662
 20
1034.074291
 30
0.0
  0
SPLINE
  5
245
100
AcDbEntity
  8
0
 62
7
100
AcDbSpline
 70
8
 71
3
 72
8
 73
4
 74
0
 40
0
 40
0
 40
0
 40
0
 40
1
 40
1
 40
1
 40
1
 10
-1322.665662
 20
1034.074291
 30
0.0
 10
-1321.892040
 20
1033.627528
 30
0.0
 10
-1320.938814
 20
1033.627528
 30
0.0
 10
-1320.165192
 20
1034.074291
 30
0.0
  0
SPLINE
  5
246
100
AcDbEntity
  8
0
 62
7
100
AcDbSpline
 70
8
 71
3
 72
8
 73
4
 74
0
 40
0
 40
0
 40
0
 40
0
 40
1
 40
1
 40
1
 40
1
 10
-1320.165192
 20
1034.074291
 30
0.0
 10
-1319.391570
 20
1034.521054
 30
0.0
 10
-1318.915136
 20
1035.346675
 30
0.0
 10
-1318.915427
 20
1036.240032
 30
0.0
  0
LWPOLYLINE
  5
247
100
AcDbEntity
  8
0
 62
7
100
AcDbPolyline
 90
1
 70
1
 10
-1293.915427
 20
1036.240032
 30
0.0
  0
SPLINE
  5
248
100
AcDbEntity
  8
0
 62
7
100
AcDbSpline
 70
8
 71
3
 72
8
 73
4
 74
0
 40
0
 40
0
 40
0
 40
0
 40
1
 40
1
 40
1
 40
1
 10
-893.615427
 20
1036.240032
 30
0.0
 10
-893.615427
 20
1037.133196
 30
0.0
 10
-894.091924
 20
1037.958514
 30
0.0
 10
-894.865427
 20
1038.405096
 30
0.0
  0
SPLINE
  5
249
100
AcDbEntity
  8
0
 62
7
100
AcDbSpline
 70
8
 71
3
 72
8
 73
4
 74
0
 40
0
 40
0
 40
0
 40
0
 40
1
 40
1
 40
1
 40
1
 10
-894.865427
 20
1038.405096
 30
0.0
 10
-895.638930
 20
1038.851678
 30
0.0
 10
-896.591924
 20
1038.851678
 30
0.0
 10
-897.365427
 20
1038.405096
 30
0.0
  0
SPLINE
  5
24a
100
AcDbEntity
  8
0
 62
7
100
AcDbSpline
 70
8
 71
3
 72
8
 73
4
 74
0
 40
0
 40
0
 40
0
 40
0
 40
1
 40
1
 40
1
 40
1
 10
-897.365427
 20
1038.405096
 30
0.0
 10
-898.138930
 20
1037.958514
 30
0.0
 10
-898.615427
 20
1037.133196
 30
0.0
 10
-898.615427
 20
1036.240032
 30
0.0
  0
SPLINE
  5
24b
100
AcDbEntity
  8
0
 62
7
100
AcDbSpline
 70
8
 71
3
 72
8
 73
4
 74
0
 40
0
 40
0
 40
0
 40
0
 40
1
 40
1
 40
1
 40
1
 10
-898.615427
 20
1036.240032
 30
0.0
 10
-898.615427
 20
1035.346868
 30
0.0
 10
-898.138930
 20
1034.521551
 30
0.0
 10
-897.365427
 20
1034.074969
 30
0.0
  0
SPLINE
  5
24c
100
AcDbEntity
  8
0
 62
7
100
AcDbSpline
 70
8
 71
3
 72
8
 73
4
 74
0
 40
0
 40
0
 40
0
 40
0
 40
1
 40
1
 40
1
 40
1
 10
-897.365427
 20
1034.074969
 30
0.0
 10
-896.591924
 20
1033.628387
 30
0.0
 10
-895.638930
 20
1033.628387
 30
0.0
 10
-894.865427
 20
1034.074969
 30
0.0
  0
SPLINE
  5
24d
100
AcDbEntity
  8
0
 62
7
100
AcDbSpline
 70
8
 71
3
 72
8
 73
4
 74
0
 40
0
 40
0
 40
0
 40
0
 40
1
 40
1
 40
1
 40
1
 10
-894.865427
 20
1034.074969
 30
0.0
 10
-894.091924
 20
1034.521551
 30
0.0
 10
-893.615427
 20
1035.346868
 30
0.0
 10
-893.615427
 20
1036.240032
 30
0.0
  0
LWPOLYLINE
  5
24e
100
AcDbEntity
  8
0
 62
7
100
AcDbPolyline
 90
1
 70
1
 10
-1318.915427
 20
1036.240032
 30
0.0
  0
SPLINE
  5
24f
100
AcDbEntity
  8
0
 62
7
100
AcDbSpline
 70
8
 71
3
 72
8
 73
4
 74
0
 40
0
 40
0
 40
0
 40
0
 40
1
 40
1
 40
1
 40
1
 10
-868.615427
 20
1036.240032
 30
0.0
 10
-868.615427
 20
1037.133196
 30
0.0
 10
-869.091924
 20
1037.958514
 30
0.0
 10
-869.865427
 20
1038.405096
 30
0.0
  0
SPLINE
  5
250
100
AcDbEntity
  8
0
 62
7
100
AcDbSpline
 70
8
 71
3
 72
8
 73
4
 74
0
 40
0
 40
0
 40
0
 40
0
 40
1
 40
1
 40
1
 40
1
 10
-869.865427
 20
1038.405096
 30
0.0
 10
-870.638930
 20
1038.851678
 30
0.0
 10
-871.591924
 20
1038.851678
 30
0.0
 10
-872.365427
 20
1038.405096
 30
0.0
  0
SPLINE
  5
251
100
AcDbEntity
  8
0
 62
7
100
AcDbSpline
 70
8
 71
3
 72
8
 73
4
 74
0
 40
0
 40
0
 40
0
 40
0
 40
1
 40
1
 40
1
 40
1
 10
-872.365427
 20
1038.405096
 30
0.0
 10
-873.138930
 20
1037.958514
 30
0.0
 10
-873.615427
 20
1037.133196
 30
0.0
 10
-873.615427
 20
1036.240032
 30
0.0
  0
SPLINE
  5
252
100
AcDbEntity
  8
0
 62
7
100
AcDbSpline
 70
8
 71
3
 72
8
 73
4
 74
0
 40
0
 40
0
 40
0
 40
0
 40
1
 40
1
 40
1
 40
1
 10
-873.615427
 20
1036.240032
 30
0.0
 10
-873.615427
 20
1035.346868
 30
0.0
 10
-873.138930
 20
1034.521551
 30
0.0
 10
-872.365427
 20
1034.074969
 30
0.0
  0
SPLINE
  5
253
100
AcDbEntity
  8
0
 62
7
100
AcDbSpline
 70
8
 71
3
 72
8
 73
4
 74
0
 40
0
 40
0
 40
0
 40
0
 40
1
 40
1
 40
1
 40
1
 10
-872.365427
 20
1034.074969
 30
0.0
 10
-871.591924
 20
1033.628387
 30
0.0
 10
-870.638930
 20
1033.628387
 30
0.0
 10
-869.865427
 20
1034.074969
 30
0.0
  0
SPLINE
  5
254
100
AcDbEntity
  8
0
 62
7
100
AcDbSpline
 70
8
 71
3
 72
8
 73
4
 74
0
 40
0
 40
0
 40
0
 40
0
 40
1
 40
1
 40
1
 40
1
 10
-869.865427
 20
1034.074969
 30
0.0
 10
-869.091924
 20
1034.521551
 30
0.0
 10
-868.615427
 20
1035.346868
 30
0.0
 10
-868.615427
 20
1036.240032
 30
0.0
  0
LWPOLYLINE
  5
255
100
AcDbEntity
  8
0
 62
7
100
AcDbPolyline
 90
1
 70
1
 10
-893.615427
 20
1036.240032
 30
0.0
  0
LWPOLYLINE
  5
256
100
AcDbEntity
  8
0
 62
7
100
AcDbPolyline
 90
1
 70
1
 10
-868.615427
 20
1036.240032
 30
0.0
  0
LWPOLYLINE
  5
257
100
AcDbEntity
  8
0
 62
7
100
AcDbPolyline
 90
2
 70
0
 10
-1235.765425
 20
1095.240028
 30
0.0
 10
-1235.765425
 20
1101.590009
 30
0.0
  0
LWPOLYLINE
  5
258
100
AcDbEntity
  8
0
 62
7
100
AcDbPolyline
 90
2
 70
0
 10
-1064.465439
 20
1095.240028
 30
0.0
 10
-1235.765425
 20
1095.240028
 30
0.0
  0
LWPOLYLINE
  5
259
100
AcDbEntity
  8
0
 62
7
100
AcDbPolyline
 90
2
 70
0
 10
-956.765419
 20
1101.590009
 30
0.0
 10
-956.765419
 20
1095.240028
 30
0.0
  0
LWPOLYLINE
  5
25a
100
AcDbEntity
  8
0
 62
7
100
AcDbPolyline
 90
2
 70
0
 10
-908.115422
 20
1101.590009
 30
0.0
 10
-956.765419
 20
1101.590009
 30
0.0
  0
LWPOLYLINE
  5
25b
100
AcDbEntity
  8
0
 62
7
100
AcDbPolyline
 90
2
 70
0
 10
-856.765425
 20
951.590033
 30
0.0
 10
-856.765425
 20
1101.590009
 30
0.0
  0
LWPOLYLINE
  5
25c
100
AcDbEntity
  8
0
 62
7
100
AcDbPolyline
 90
2
 70
0
 10
-956.765419
 20
951.590033
 30
0.0
 10
-856.765425
 20
951.590033
 30
0.0
  0
LWPOLYLINE
  5
25d
100
AcDbEntity
  8
0
 62
7
100
AcDbPolyline
 90
2
 70
0
 10
-956.765419
 20
957.940013
 30
0.0
 10
-956.765419
 20
951.590033
 30
0.0
  0
LWPOLYLINE
  5
25e
100
AcDbEntity
  8
0
 62
7
100
AcDbPolyline
 90
2
 70
0
 10
-1235.765425
 20
957.940013
 30
0.0
 10
-956.765419
 20
957.940013
 30
0.0
  0
LWPOLYLINE
  5
25f
100
AcDbEntity
  8
0
 62
7
100
AcDbPolyline
 90
2
 70
0
 10
-1235.765425
 20
951.590033
 30
0.0
 10
-1235.765425
 20
957.940013
 30
0.0
  0
LWPOLYLINE
  5
260
100
AcDbEntity
  8
0
 62
7
100
AcDbPolyline
 90
2
 70
0
 10
-1335.765427
 20
951.590033
 30
0.0
 10
-1235.765425
 20
951.590033
 30
0.0
  0
LWPOLYLINE
  5
261
100
AcDbEntity
  8
0
 62
7
100
AcDbPolyline
 90
2
 70
0
 10
-1335.765427
 20
1101.590009
 30
0.0
 10
-1335.765427
 20
951.590033
 30
0.0
  0
LWPOLYLINE
  5
262
100
AcDbEntity
  8
0
 62
7
100
AcDbPolyline
 90
2
 70
0
 10
-1235.765425
 20
1101.590009
 30
0.0
 10
-1335.765427
 20
1101.590009
 30
0.0
  0
LWPOLYLINE
  5
263
100
AcDbEntity
  8
0
 62
7
100
AcDbPolyline
 90
2
 70
0
 10
-956.765419
 20
1095.240028
 30
0.0
 10
-1058.115428
 20
1095.240028
 30
0.0
  0
SPLINE
  5
264
100
AcDbEntity
  8
0
 62
7
100
AcDbSpline
 70
8
 71
3
 72
8
 73
4
 74
0
 40
0
 40
0
 40
0
 40
0
 40
1
 40
1
 40
1
 40
1
 10
1106.084573
 20
580.970476
 30
0.0
 10
1106.084573
 20
581.863640
 30
0.0
 10
1105.608076
 20
582.688958
 30
0.0
 10
1104.834573
 20
583.135540
 30
0.0
  0
SPLINE
  5
265
100
AcDbEntity
  8
0
 62
7
100
AcDbSpline
 70
8
 71
3
 72
8
 73
4
 74
0
 40
0
 40
0
 40
0
 40
0
 40
1
 40
1
 40
1
 40
1
 10
1104.834573
 20
583.135540
 30
0.0
 10
1104.061070
 20
583.582122
 30
0.0
 10
1103.108076
 20
583.582122
 30
0.0
 10
1102.334573
 20
583.135540
 30
0.0
  0
SPLINE
  5
266
100
AcDbEntity
  8
0
 62
7
100
AcDbSpline
 70
8
 71
3
 72
8
 73
4
 74
0
 40
0
 40
0
 40
0
 40
0
 40
1
 40
1
 40
1
 40
1
 10
1102.334573
 20
583.135540
 30
0.0
 10
1101.561070
 20
582.688958
 30
0.0
 10
1101.084573
 20
581.863640
 30
0.0
 10
1101.084573
 20
580.970476
 30
0.0
  0
SPLINE
  5
267
100
AcDbEntity
  8
0
 62
7
100
AcDbSpline
 70
8
 71
3
 72
8
 73
4
 74
0
 40
0
 40
0
 40
0
 40
0
 40
1
 40
1
 40
1
 40
1
 10
1101.084573
 20
580.970476
 30
0.0
 10
1101.084573
 20
580.077312
 30
0.0
 10
1101.561070
 20
579.251995
 30
0.0
 10
1102.334573
 20
578.805413
 30
0.0
  0
SPLINE
  5
268
100
AcDbEntity
  8
0
 62
7
100
AcDbSpline
 70
8
 71
3
 72
8
 73
4
 74
0
 40
0
 40
0
 40
0
 40
0
 40
1
 40
1
 40
1
 40
1
 10
1102.334573
 20
578.805413
 30
0.0
 10
1103.108076
 20
578.358831
 30
0.0
 10
1104.061070
 20
578.358831
 30
0.0
 10
1104.834573
 20
578.805413
 30
0.0
  0
SPLINE
  5
269
100
AcDbEntity
  8
0
 62
7
100
AcDbSpline
 70
8
 71
3
 72
8
 73
4
 74
0
 40
0
 40
0
 40
0
 40
0
 40
1
 40
1
 40
1
 40
1
 10
1104.834573
 20
578.805413
 30
0.0
 10
1105.608076
 20
579.251995
 30
0.0
 10
1106.084573
 20
580.077312
 30
0.0
 10
1106.084573
 20
580.970476
 30
0.0
  0
LWPOLYLINE
  5
26a
100
AcDbEntity
  8
0
 62
7
100
AcDbPolyline
 90
2
 70
0
 10
-856.765425
 20
1101.590009
 30
0.0
 10
-901.765441
 20
1101.590009
 30
0.0
  0
SPLINE
  5
26b
100
AcDbEntity
  8
0
 62
7
100
AcDbSpline
 70
8
 71
3
 72
8
 73
4
 74
0
 40
0
 40
0
 40
0
 40
0
 40
1
 40
1
 40
1
 40
1
 10
1081.084573
 20
580.970476
 30
0.0
 10
1081.084573
 20
581.863640
 30
0.0
 10
1080.608076
 20
582.688958
 30
0.0
 10
1079.834573
 20
583.135540
 30
0.0
  0
SPLINE
  5
26c
100
AcDbEntity
  8
0
 62
7
100
AcDbSpline
 70
8
 71
3
 72
8
 73
4
 74
0
 40
0
 40
0
 40
0
 40
0
 40
1
 40
1
 40
1
 40
1
 10
1079.834573
 20
583.135540
 30
0.0
 10
1079.061070
 20
583.582122
 30
0.0
 10
1078.108076
 20
583.582122
 30
0.0
 10
1077.334573
 20
583.135540
 30
0.0
  0
SPLINE
  5
26d
100
AcDbEntity
  8
0
 62
7
100
AcDbSpline
 70
8
 71
3
 72
8
 73
4
 74
0
 40
0
 40
0
 40
0
 40
0
 40
1
 40
1
 40
1
 40
1
 10
1077.334573
 20
583.135540
 30
0.0
 10
1076.561070
 20
582.688958
 30
0.0
 10
1076.084573
 20
581.863640
 30
0.0
 10
1076.084573
 20
580.970476
 30
0.0
  0
SPLINE
  5
26e
100
AcDbEntity
  8
0
 62
7
100
AcDbSpline
 70
8
 71
3
 72
8
 73
4
 74
0
 40
0
 40
0
 40
0
 40
0
 40
1
 40
1
 40
1
 40
1
 10
1076.084573
 20
580.970476
 30
0.0
 10
1076.084573
 20
580.077312
 30
0.0
 10
1076.561070
 20
579.251995
 30
0.0
 10
1077.334573
 20
578.805413
 30
0.0
  0
SPLINE
  5
26f
100
AcDbEntity
  8
0
 62
7
100
AcDbSpline
 70
8
 71
3
 72
8
 73
4
 74
0
 40
0
 40
0
 40
0
 40
0
 40
1
 40
1
 40
1
 40
1
 10
1077.334573
 20
578.805413
 30
0.0
 10
1078.108076
 20
578.358831
 30
0.0
 10
1079.061070
 20
578.358831
 30
0.0
 10
1079.834573
 20
578.805413
 30
0.0
  0
SPLINE
  5
270
100
AcDbEntity
  8
0
 62
7
100
AcDbSpline
 70
8
 71
3
 72
8
 73
4
 74
0
 40
0
 40
0
 40
0
 40
0
 40
1
 40
1
 40
1
 40
1
 10
1079.834573
 20
578.805413
 30
0.0
 10
1080.608076
 20
579.251995
 30
0.0
 10
1081.084573
 20
580.077312
 30
0.0
 10
1081.084573
 20
580.970476
 30
0.0
  0
LWPOLYLINE
  5
271
100
AcDbEntity
  8
0
 62
7
100
AcDbPolyline
 90
1
 70
1
 10
1106.084573
 20
580.970476
 30
0.0
  0
SPLINE
  5
272
100
AcDbEntity
  8
0
 62
7
100
AcDbSpline
 70
8
 71
3
 72
8
 73
4
 74
0
 40
0
 40
0
 40
0
 40
0
 40
1
 40
1
 40
1
 40
1
 10
1506.384573
 20
580.970476
 30
0.0
 10
1506.384574
 20
581.863640
 30
0.0
 10
1505.908076
 20
582.688958
 30
0.0
 10
1505.134573
 20
583.135541
 30
0.0
  0
SPLINE
  5
273
100
AcDbEntity
  8
0
 62
7
100
AcDbSpline
 70
8
 71
3
 72
8
 73
4
 74
0
 40
0
 40
0
 40
0
 40
0
 40
1
 40
1
 40
1
 40
1
 10
1505.134573
 20
583.135541
 30
0.0
 10
1504.361071
 20
583.582123
 30
0.0
 10
1503.408076
 20
583.582123
 30
0.0
 10
1502.634573
 20
583.135541
 30
0.0
  0
SPLINE
  5
274
100
AcDbEntity
  8
0
 62
7
100
AcDbSpline
 70
8
 71
3
 72
8
 73
4
 74
0
 40
0
 40
0
 40
0
 40
0
 40
1
 40
1
 40
1
 40
1
 10
1502.634573
 20
583.135541
 30
0.0
 10
1501.861070
 20
582.688958
 30
0.0
 10
1501.384573
 20
581.863640
 30
0.0
 10
1501.384573
 20
580.970476
 30
0.0
  0
SPLINE
  5
275
100
AcDbEntity
  8
0
 62
7
100
AcDbSpline
 70
8
 71
3
 72
8
 73
4
 74
0
 40
0
 40
0
 40
0
 40
0
 40
1
 40
1
 40
1
 40
1
 10
1501.384573
 20
580.970476
 30
0.0
 10
1501.384573
 20
580.077312
 30
0.0
 10
1501.861070
 20
579.251994
 30
0.0
 10
1502.634573
 20
578.805412
 30
0.0
  0
SPLINE
  5
276
100
AcDbEntity
  8
0
 62
7
100
AcDbSpline
 70
8
 71
3
 72
8
 73
4
 74
0
 40
0
 40
0
 40
0
 40
0
 40
1
 40
1
 40
1
 40
1
 10
1502.634573
 20
578.805412
 30
0.0
 10
1503.408076
 20
578.358830
 30
0.0
 10
1504.361071
 20
578.358830
 30
0.0
 10
1505.134573
 20
578.805412
 30
0.0
  0
SPLINE
  5
277
100
AcDbEntity
  8
0
 62
7
100
AcDbSpline
 70
8
 71
3
 72
8
 73
4
 74
0
 40
0
 40
0
 40
0
 40
0
 40
1
 40
1
 40
1
 40
1
 10
1505.134573
 20
578.805412
 30
0.0
 10
1505.908076
 20
579.251994
 30
0.0
 10
1506.384574
 20
580.077312
 30
0.0
 10
1506.384573
 20
580.970476
 30
0.0
  0
LWPOLYLINE
  5
278
100
AcDbEntity
  8
0
 62
7
100
AcDbPolyline
 90
1
 70
1
 10
1081.084573
 20
580.970476
 30
0.0
  0
SPLINE
  5
279
100
AcDbEntity
  8
0
 62
7
100
AcDbSpline
 70
8
 71
3
 72
8
 73
4
 74
0
 40
0
 40
0
 40
0
 40
0
 40
1
 40
1
 40
1
 40
1
 10
1531.384573
 20
580.970476
 30
0.0
 10
1531.384574
 20
581.863640
 30
0.0
 10
1530.908076
 20
582.688958
 30
0.0
 10
1530.134573
 20
583.135541
 30
0.0
  0
SPLINE
  5
27a
100
AcDbEntity
  8
0
 62
7
100
AcDbSpline
 70
8
 71
3
 72
8
 73
4
 74
0
 40
0
 40
0
 40
0
 40
0
 40
1
 40
1
 40
1
 40
1
 10
1530.134573
 20
583.135541
 30
0.0
 10
1529.361071
 20
583.582123
 30
0.0
 10
1528.408076
 20
583.582123
 30
0.0
 10
1527.634573
 20
583.135541
 30
0.0
  0
SPLINE
  5
27b
100
AcDbEntity
  8
0
 62
7
100
AcDbSpline
 70
8
 71
3
 72
8
 73
4
 74
0
 40
0
 40
0
 40
0
 40
0
 40
1
 40
1
 40
1
 40
1
 10
1527.634573
 20
583.135541
 30
0.0
 10
1526.861070
 20
582.688958
 30
0.0
 10
1526.384573
 20
581.863640
 30
0.0
 10
1526.384573
 20
580.970476
 30
0.0
  0
SPLINE
  5
27c
100
AcDbEntity
  8
0
 62
7
100
AcDbSpline
 70
8
 71
3
 72
8
 73
4
 74
0
 40
0
 40
0
 40
0
 40
0
 40
1
 40
1
 40
1
 40
1
 10
1526.384573
 20
580.970476
 30
0.0
 10
1526.384573
 20
580.077312
 30
0.0
 10
1526.861070
 20
579.251994
 30
0.0
 10
1527.634573
 20
578.805412
 30
0.0
  0
SPLINE
  5
27d
100
AcDbEntity
  8
0
 62
7
100
AcDbSpline
 70
8
 71
3
 72
8
 73
4
 74
0
 40
0
 40
0
 40
0
 40
0
 40
1
 40
1
 40
1
 40
1
 10
1527.634573
 20
578.805412
 30
0.0
 10
1528.408076
 20
578.358830
 30
0.0
 10
1529.361071
 20
578.358830
 30
0.0
 10
1530.134573
 20
578.805412
 30
0.0
  0
SPLINE
  5
27e
100
AcDbEntity
  8
0
 62
7
100
AcDbSpline
 70
8
 71
3
 72
8
 73
4
 74
0
 40
0
 40
0
 40
0
 40
0
 40
1
 40
1
 40
1
 40
1
 10
1530.134573
 20
578.805412
 30
0.0
 10
1530.908076
 20
579.251994
 30
0.0
 10
1531.384574
 20
580.077312
 30
0.0
 10
1531.384573
 20
580.970476
 30
0.0
  0
LWPOLYLINE
  5
27f
100
AcDbEntity
  8
0
 62
7
100
AcDbPolyline
 90
1
 70
1
 10
1506.384573
 20
580.970476
 30
0.0
  0
LWPOLYLINE
  5
280
100
AcDbEntity
  8
0
 62
7
100
AcDbPolyline
 90
1
 70
1
 10
1531.384573
 20
580.970476
 30
0.0
  0
LWPOLYLINE
  5
281
100
AcDbEntity
  8
0
 62
7
100
AcDbPolyline
 90
2
 70
0
 10
1164.234573
 20
639.970482
 30
0.0
 10
1164.234573
 20
646.320478
 30
0.0
  0
LWPOLYLINE
  5
282
100
AcDbEntity
  8
0
 62
7
100
AcDbPolyline
 90
2
 70
0
 10
1443.234617
 20
639.970482
 30
0.0
 10
1164.234573
 20
639.970482
 30
0.0
  0
LWPOLYLINE
  5
283
100
AcDbEntity
  8
0
 62
7
100
AcDbPolyline
 90
2
 70
0
 10
1443.234617
 20
646.320478
 30
0.0
 10
1443.234617
 20
639.970482
 30
0.0
  0
LWPOLYLINE
  5
284
100
AcDbEntity
  8
0
 62
7
100
AcDbPolyline
 90
2
 70
0
 10
1543.234522
 20
646.320478
 30
0.0
 10
1443.234617
 20
646.320478
 30
0.0
  0
LWPOLYLINE
  5
285
100
AcDbEntity
  8
0
 62
7
100
AcDbPolyline
 90
2
 70
0
 10
1543.234522
 20
496.320476
 30
0.0
 10
1543.234522
 20
646.320478
 30
0.0
  0
LWPOLYLINE
  5
286
100
AcDbEntity
  8
0
 62
7
100
AcDbPolyline
 90
2
 70
0
 10
1443.234617
 20
496.320476
 30
0.0
 10
1543.234522
 20
496.320476
 30
0.0
  0
LWPOLYLINE
  5
287
100
AcDbEntity
  8
0
 62
7
100
AcDbPolyline
 90
2
 70
0
 10
1443.234617
 20
502.670475
 30
0.0
 10
1443.234617
 20
496.320476
 30
0.0
  0
LWPOLYLINE
  5
288
100
AcDbEntity
  8
0
 62
7
100
AcDbPolyline
 90
2
 70
0
 10
1164.234573
 20
502.670475
 30
0.0
 10
1443.234617
 20
502.670475
 30
0.0
  0
LWPOLYLINE
  5
289
100
AcDbEntity
  8
0
 62
7
100
AcDbPolyline
 90
2
 70
0
 10
1164.234573
 20
496.320476
 30
0.0
 10
1164.234573
 20
502.670475
 30
0.0
  0
LWPOLYLINE
  5
28a
100
AcDbEntity
  8
0
 62
7
100
AcDbPolyline
 90
2
 70
0
 10
1064.234669
 20
496.320476
 30
0.0
 10
1164.234573
 20
496.320476
 30
0.0
  0
LWPOLYLINE
  5
28b
100
AcDbEntity
  8
0
 62
7
100
AcDbPolyline
 90
2
 70
0
 10
1064.234669
 20
646.320478
 30
0.0
 10
1064.234669
 20
496.320476
 30
0.0
  0
LWPOLYLINE
  5
28c
100
AcDbEntity
  8
0
 62
7
100
AcDbPolyline
 90
2
 70
0
 10
1164.234573
 20
646.320478
 30
0.0
 10
1064.234669
 20
646.320478
 30
0.0
  0
LWPOLYLINE
  5
28d
100
AcDbEntity
  8
0
 62
7
100
AcDbPolyline
 90
2
 70
0
 10
1431.934530
 20
1188.648612
 30
0.0
 10
1421.934540
 20
1178.648622
 30
0.0
  0
LWPOLYLINE
  5
28e
100
AcDbEntity
  8
0
 62
7
100
AcDbPolyline
 90
2
 70
0
 10
1431.934530
 20
1139.131458
 30
0.0
 10
1431.934530
 20
1188.648612
 30
0.0
  0
LWPOLYLINE
  5
28f
100
AcDbEntity
  8
0
 62
7
100
AcDbPolyline
 90
2
 70
0
 10
1421.934540
 20
1149.131448
 30
0.0
 10
1431.934530
 20
1139.131458
 30
0.0
  0
LWPOLYLINE
  5
290
100
AcDbEntity
  8
0
 62
7
100
AcDbPolyline
 90
2
 70
0
 10
1421.934540
 20
1095.240028
 30
0.0
 10
1421.934540
 20
1149.131448
 30
0.0
  0
LWPOLYLINE
  5
291
100
AcDbEntity
  8
0
 62
7
100
AcDbPolyline
 90
2
 70
0
 10
1157.884533
 20
1095.240028
 30
0.0
 10
1421.934540
 20
1095.240028
 30
0.0
  0
LWPOLYLINE
  5
292
100
AcDbEntity
  8
0
 62
7
100
AcDbPolyline
 90
2
 70
0
 10
1157.884533
 20
1148.890049
 30
0.0
 10
1157.884533
 20
1095.240028
 30
0.0
  0
LWPOLYLINE
  5
293
100
AcDbEntity
  8
0
 62
7
100
AcDbPolyline
 90
2
 70
0
 10
1167.884523
 20
1188.890011
 30
0.0
 10
1167.884523
 20
1138.890059
 30
0.0
  0
LWPOLYLINE
  5
294
100
AcDbEntity
  8
0
 62
7
100
AcDbPolyline
 90
2
 70
0
 10
1157.884533
 20
1232.540042
 30
0.0
 10
1157.884533
 20
1178.890021
 30
0.0
  0
LWPOLYLINE
  5
295
100
AcDbEntity
  8
0
 62
7
100
AcDbPolyline
 90
2
 70
0
 10
1421.934540
 20
1232.540042
 30
0.0
 10
1157.884533
 20
1232.540042
 30
0.0
  0
SPLINE
  5
296
100
AcDbEntity
  8
0
 62
7
100
AcDbSpline
 70
8
 71
3
 72
8
 73
4
 74
0
 40
0
 40
0
 40
0
 40
0
 40
1
 40
1
 40
1
 40
1
 10
1189.384573
 20
1222.540033
 30
0.0
 10
1189.384573
 20
1223.433197
 30
0.0
 10
1188.908076
 20
1224.258514
 30
0.0
 10
1188.134573
 20
1224.705096
 30
0.0
  0
SPLINE
  5
297
100
AcDbEntity
  8
0
 62
7
100
AcDbSpline
 70
8
 71
3
 72
8
 73
4
 74
0
 40
0
 40
0
 40
0
 40
0
 40
1
 40
1
 40
1
 40
1
 10
1188.134573
 20
1224.705096
 30
0.0
 10
1187.361071
 20
1225.151678
 30
0.0
 10
1186.408076
 20
1225.151678
 30
0.0
 10
1185.634573
 20
1224.705096
 30
0.0
  0
SPLINE
  5
298
100
AcDbEntity
  8
0
 62
7
100
AcDbSpline
 70
8
 71
3
 72
8
 73
4
 74
0
 40
0
 40
0
 40
0
 40
0
 40
1
 40
1
 40
1
 40
1
 10
1185.634573
 20
1224.705096
 30
0.0
 10
1184.861071
 20
1224.258514
 30
0.0
 10
1184.384573
 20
1223.433197
 30
0.0
 10
1184.384573
 20
1222.540033
 30
0.0
  0
SPLINE
  5
299
100
AcDbEntity
  8
0
 62
7
100
AcDbSpline
 70
8
 71
3
 72
8
 73
4
 74
0
 40
0
 40
0
 40
0
 40
0
 40
1
 40
1
 40
1
 40
1
 10
1184.384573
 20
1222.540033
 30
0.0
 10
1184.384573
 20
1221.646869
 30
0.0
 10
1184.861071
 20
1220.821551
 30
0.0
 10
1185.634573
 20
1220.374969
 30
0.0
  0
SPLINE
  5
29a
100
AcDbEntity
  8
0
 62
7
100
AcDbSpline
 70
8
 71
3
 72
8
 73
4
 74
0
 40
0
 40
0
 40
0
 40
0
 40
1
 40
1
 40
1
 40
1
 10
1185.634573
 20
1220.374969
 30
0.0
 10
1186.408076
 20
1219.928387
 30
0.0
 10
1187.361071
 20
1219.928387
 30
0.0
 10
1188.134573
 20
1220.374969
 30
0.0
  0
SPLINE
  5
29b
100
AcDbEntity
  8
0
 62
7
100
AcDbSpline
 70
8
 71
3
 72
8
 73
4
 74
0
 40
0
 40
0
 40
0
 40
0
 40
1
 40
1
 40
1
 40
1
 10
1188.134573
 20
1220.374969
 30
0.0
 10
1188.908076
 20
1220.821551
 30
0.0
 10
1189.384573
 20
1221.646869
 30
0.0
 10
1189.384573
 20
1222.540033
 30
0.0
  0
LWPOLYLINE
  5
29c
100
AcDbEntity
  8
0
 62
7
100
AcDbPolyline
 90
2
 70
0
 10
1421.934540
 20
1178.648622
 30
0.0
 10
1421.934540
 20
1232.540042
 30
0.0
  0
SPLINE
  5
29d
100
AcDbEntity
  8
0
 62
7
100
AcDbSpline
 70
8
 71
3
 72
8
 73
4
 74
0
 40
0
 40
0
 40
0
 40
0
 40
1
 40
1
 40
1
 40
1
 10
1291.384573
 20
1222.540033
 30
0.0
 10
1291.384573
 20
1223.433197
 30
0.0
 10
1290.908076
 20
1224.258514
 30
0.0
 10
1290.134573
 20
1224.705096
 30
0.0
  0
SPLINE
  5
29e
100
AcDbEntity
  8
0
 62
7
100
AcDbSpline
 70
8
 71
3
 72
8
 73
4
 74
0
 40
0
 40
0
 40
0
 40
0
 40
1
 40
1
 40
1
 40
1
 10
1290.134573
 20
1224.705096
 30
0.0
 10
1289.361071
 20
1225.151678
 30
0.0
 10
1288.408076
 20
1225.151678
 30
0.0
 10
1287.634573
 20
1224.705096
 30
0.0
  0
SPLINE
  5
29f
100
AcDbEntity
  8
0
 62
7
100
AcDbSpline
 70
8
 71
3
 72
8
 73
4
 74
0
 40
0
 40
0
 40
0
 40
0
 40
1
 40
1
 40
1
 40
1
 10
1287.634573
 20
1224.705096
 30
0.0
 10
1286.861071
 20
1224.258514
 30
0.0
 10
1286.384573
 20
1223.433197
 30
0.0
 10
1286.384573
 20
1222.540033
 30
0.0
  0
SPLINE
  5
2a0
100
AcDbEntity
  8
0
 62
7
100
AcDbSpline
 70
8
 71
3
 72
8
 73
4
 74
0
 40
0
 40
0
 40
0
 40
0
 40
1
 40
1
 40
1
 40
1
 10
1286.384573
 20
1222.540033
 30
0.0
 10
1286.384573
 20
1221.646869
 30
0.0
 10
1286.861071
 20
1220.821551
 30
0.0
 10
1287.634573
 20
1220.374969
 30
0.0
  0
SPLINE
  5
2a1
100
AcDbEntity
  8
0
 62
7
100
AcDbSpline
 70
8
 71
3
 72
8
 73
4
 74
0
 40
0
 40
0
 40
0
 40
0
 40
1
 40
1
 40
1
 40
1
 10
1287.634573
 20
1220.374969
 30
0.0
 10
1288.408076
 20
1219.928387
 30
0.0
 10
1289.361071
 20
1219.928387
 30
0.0
 10
1290.134573
 20
1220.374969
 30
0.0
  0
SPLINE
  5
2a2
100
AcDbEntity
  8
0
 62
7
100
AcDbSpline
 70
8
 71
3
 72
8
 73
4
 74
0
 40
0
 40
0
 40
0
 40
0
 40
1
 40
1
 40
1
 40
1
 10
1290.134573
 20
1220.374969
 30
0.0
 10
1290.908076
 20
1220.821551
 30
0.0
 10
1291.384573
 20
1221.646869
 30
0.0
 10
1291.384573
 20
1222.540033
 30
0.0
  0
LWPOLYLINE
  5
2a3
100
AcDbEntity
  8
0
 62
7
100
AcDbPolyline
 90
1
 70
1
 10
1189.384573
 20
1222.540033
 30
0.0
  0
SPLINE
  5
2a4
100
AcDbEntity
  8
0
 62
7
100
AcDbSpline
 70
8
 71
3
 72
8
 73
4
 74
0
 40
0
 40
0
 40
0
 40
0
 40
1
 40
1
 40
1
 40
1
 10
1291.384573
 20
1140.540033
 30
0.0
 10
1291.384573
 20
1141.433196
 30
0.0
 10
1290.908076
 20
1142.258514
 30
0.0
 10
1290.134573
 20
1142.705096
 30
0.0
  0
SPLINE
  5
2a5
100
AcDbEntity
  8
0
 62
7
100
AcDbSpline
 70
8
 71
3
 72
8
 73
4
 74
0
 40
0
 40
0
 40
0
 40
0
 40
1
 40
1
 40
1
 40
1
 10
1290.134573
 20
1142.705096
 30
0.0
 10
1289.361071
 20
1143.151678
 30
0.0
 10
1288.408076
 20
1143.151678
 30
0.0
 10
1287.634573
 20
1142.705096
 30
0.0
  0
SPLINE
  5
2a6
100
AcDbEntity
  8
0
 62
7
100
AcDbSpline
 70
8
 71
3
 72
8
 73
4
 74
0
 40
0
 40
0
 40
0
 40
0
 40
1
 40
1
 40
1
 40
1
 10
1287.634573
 20
1142.705096
 30
0.0
 10
1286.861071
 20
1142.258514
 30
0.0
 10
1286.384573
 20
1141.433196
 30
0.0
 10
1286.384573
 20
1140.540033
 30
0.0
  0
SPLINE
  5
2a7
100
AcDbEntity
  8
0
 62
7
100
AcDbSpline
 70
8
 71
3
 72
8
 73
4
 74
0
 40
0
 40
0
 40
0
 40
0
 40
1
 40
1
 40
1
 40
1
 10
1286.384573
 20
1140.540033
 30
0.0
 10
1286.384573
 20
1139.646869
 30
0.0
 10
1286.861071
 20
1138.821551
 30
0.0
 10
1287.634573
 20
1138.374969
 30
0.0
  0
SPLINE
  5
2a8
100
AcDbEntity
  8
0
 62
7
100
AcDbSpline
 70
8
 71
3
 72
8
 73
4
 74
0
 40
0
 40
0
 40
0
 40
0
 40
1
 40
1
 40
1
 40
1
 10
1287.634573
 20
1138.374969
 30
0.0
 10
1288.408076
 20
1137.928387
 30
0.0
 10
1289.361071
 20
1137.928387
 30
0.0
 10
1290.134573
 20
1138.374969
 30
0.0
  0
SPLINE
  5
2a9
100
AcDbEntity
  8
0
 62
7
100
AcDbSpline
 70
8
 71
3
 72
8
 73
4
 74
0
 40
0
 40
0
 40
0
 40
0
 40
1
 40
1
 40
1
 40
1
 10
1290.134573
 20
1138.374969
 30
0.0
 10
1290.908076
 20
1138.821551
 30
0.0
 10
1291.384573
 20
1139.646869
 30
0.0
 10
1291.384573
 20
1140.540033
 30
0.0
  0
LWPOLYLINE
  5
2aa
100
AcDbEntity
  8
0
 62
7
100
AcDbPolyline
 90
1
 70
1
 10
1291.384573
 20
1222.540033
 30
0.0
  0
SPLINE
  5
2ab
100
AcDbEntity
  8
0
 62
7
100
AcDbSpline
 70
8
 71
3
 72
8
 73
4
 74
0
 40
0
 40
0
 40
0
 40
0
 40
1
 40
1
 40
1
 40
1
 10
1284.384573
 20
1223.040032
 30
0.0
 10
1284.384573
 20
1225.801456
 30
0.0
 10
1282.145997
 20
1228.040032
 30
0.0
 10
1279.384573
 20
1228.040032
 30
0.0
  0
LWPOLYLINE
  5
2ac
100
AcDbEntity
  8
0
 62
7
100
AcDbPolyline
 90
1
 70
1
 10
1291.384573
 20
1140.540033
 30
0.0
  0
SPLINE
  5
2ad
100
AcDbEntity
  8
0
 62
7
100
AcDbSpline
 70
8
 71
3
 72
8
 73
4
 74
0
 40
0
 40
0
 40
0
 40
0
 40
1
 40
1
 40
1
 40
1
 10
1196.384573
 20
1228.040032
 30
0.0
 10
1195.058491
 20
1228.040032
 30
0.0
 10
1193.786721
 20
1227.513248
 30
0.0
 10
1192.849039
 20
1226.575566
 30
0.0
  0
SPLINE
  5
2ae
100
AcDbEntity
  8
0
 62
7
100
AcDbSpline
 70
8
 71
3
 72
8
 73
4
 74
0
 40
0
 40
0
 40
0
 40
0
 40
1
 40
1
 40
1
 40
1
 10
1192.849039
 20
1226.575566
 30
0.0
 10
1191.911357
 20
1225.637884
 30
0.0
 10
1191.384573
 20
1224.366115
 30
0.0
 10
1191.384573
 20
1223.040032
 30
0.0
  0
LWPOLYLINE
  5
2af
100
AcDbEntity
  8
0
 62
7
100
AcDbPolyline
 90
2
 70
0
 10
1279.384548
 20
1228.040011
 30
0.0
 10
1196.384603
 20
1228.040011
 30
0.0
  0
SPLINE
  5
2b0
100
AcDbEntity
  8
0
 62
7
100
AcDbSpline
 70
8
 71
3
 72
8
 73
4
 74
0
 40
0
 40
0
 40
0
 40
0
 40
1
 40
1
 40
1
 40
1
 10
1191.384573
 20
1140.040032
 30
0.0
 10
1191.384573
 20
1138.713950
 30
0.0
 10
1191.911357
 20
1137.442180
 30
0.0
 10
1192.849039
 20
1136.504498
 30
0.0
  0
SPLINE
  5
2b1
100
AcDbEntity
  8
0
 62
7
100
AcDbSpline
 70
8
 71
3
 72
8
 73
4
 74
0
 40
0
 40
0
 40
0
 40
0
 40
1
 40
1
 40
1
 40
1
 10
1192.849039
 20
1136.504498
 30
0.0
 10
1193.786721
 20
1135.566817
 30
0.0
 10
1195.058491
 20
1135.040032
 30
0.0
 10
1196.384573
 20
1135.040032
 30
0.0
  0
LWPOLYLINE
  5
2b2
100
AcDbEntity
  8
0
 62
7
100
AcDbPolyline
 90
2
 70
0
 10
1191.384489
 20
1223.040016
 30
0.0
 10
1191.384489
 20
1140.040011
 30
0.0
  0
SPLINE
  5
2b3
100
AcDbEntity
  8
0
 62
7
100
AcDbSpline
 70
8
 71
3
 72
8
 73
4
 74
0
 40
0
 40
0
 40
0
 40
0
 40
1
 40
1
 40
1
 40
1
 10
1279.384573
 20
1135.040032
 30
0.0
 10
1282.145997
 20
1135.040032
 30
0.0
 10
1284.384573
 20
1137.278609
 30
0.0
 10
1284.384573
 20
1140.040032
 30
0.0
  0
LWPOLYLINE
  5
2b4
100
AcDbEntity
  8
0
 62
7
100
AcDbPolyline
 90
2
 70
0
 10
1196.384603
 20
1135.040016
 30
0.0
 10
1279.384548
 20
1135.040016
 30
0.0
  0
LWPOLYLINE
  5
2b5
100
AcDbEntity
  8
0
 62
7
100
AcDbPolyline
 90
2
 70
0
 10
1284.384662
 20
1140.040011
 30
0.0
 10
1284.384662
 20
1223.040016
 30
0.0
  0
LWPOLYLINE
  5
2b6
100
AcDbEntity
  8
0
 62
7
100
AcDbPolyline
 90
2
 70
0
 10
1157.884533
 20
1178.890021
 30
0.0
 10
1167.884523
 20
1188.890011
 30
0.0
  0
SPLINE
  5
2b7
100
AcDbEntity
  8
0
 62
7
100
AcDbSpline
 70
8
 71
3
 72
8
 73
4
 74
0
 40
0
 40
0
 40
0
 40
0
 40
1
 40
1
 40
1
 40
1
 10
1189.384573
 20
1140.540033
 30
0.0
 10
1189.384573
 20
1141.433196
 30
0.0
 10
1188.908076
 20
1142.258514
 30
0.0
 10
1188.134573
 20
1142.705096
 30
0.0
  0
SPLINE
  5
2b8
100
AcDbEntity
  8
0
 62
7
100
AcDbSpline
 70
8
 71
3
 72
8
 73
4
 74
0
 40
0
 40
0
 40
0
 40
0
 40
1
 40
1
 40
1
 40
1
 10
1188.134573
 20
1142.705096
 30
0.0
 10
1187.361071
 20
1143.151678
 30
0.0
 10
1186.408076
 20
1143.151678
 30
0.0
 10
1185.634573
 20
1142.705096
 30
0.0
  0
SPLINE
  5
2b9
100
AcDbEntity
  8
0
 62
7
100
AcDbSpline
 70
8
 71
3
 72
8
 73
4
 74
0
 40
0
 40
0
 40
0
 40
0
 40
1
 40
1
 40
1
 40
1
 10
1185.634573
 20
1142.705096
 30
0.0
 10
1184.861071
 20
1142.258514
 30
0.0
 10
1184.384573
 20
1141.433196
 30
0.0
 10
1184.384573
 20
1140.540033
 30
0.0
  0
SPLINE
  5
2ba
100
AcDbEntity
  8
0
 62
7
100
AcDbSpline
 70
8
 71
3
 72
8
 73
4
 74
0
 40
0
 40
0
 40
0
 40
0
 40
1
 40
1
 40
1
 40
1
 10
1184.384573
 20
1140.540033
 30
0.0
 10
1184.384573
 20
1139.646869
 30
0.0
 10
1184.861071
 20
1138.821551
 30
0.0
 10
1185.634573
 20
1138.374969
 30
0.0
  0
SPLINE
  5
2bb
100
AcDbEntity
  8
0
 62
7
100
AcDbSpline
 70
8
 71
3
 72
8
 73
4
 74
0
 40
0
 40
0
 40
0
 40
0
 40
1
 40
1
 40
1
 40
1
 10
1185.634573
 20
1138.374969
 30
0.0
 10
1186.408076
 20
1137.928387
 30
0.0
 10
1187.361071
 20
1137.928387
 30
0.0
 10
1188.134573
 20
1138.374969
 30
0.0
  0
SPLINE
  5
2bc
100
AcDbEntity
  8
0
 62
7
100
AcDbSpline
 70
8
 71
3
 72
8
 73
4
 74
0
 40
0
 40
0
 40
0
 40
0
 40
1
 40
1
 40
1
 40
1
 10
1188.134573
 20
1138.374969
 30
0.0
 10
1188.908076
 20
1138.821551
 30
0.0
 10
1189.384573
 20
1139.646869
 30
0.0
 10
1189.384573
 20
1140.540033
 30
0.0
  0
LWPOLYLINE
  5
2bd
100
AcDbEntity
  8
0
 62
7
100
AcDbPolyline
 90
2
 70
0
 10
1167.884523
 20
1138.890059
 30
0.0
 10
1157.884533
 20
1148.890049
 30
0.0
  0
LWPOLYLINE
  5
2be
100
AcDbEntity
  8
0
 62
7
100
AcDbPolyline
 90
1
 70
1
 10
1189.384573
 20
1140.540033
 30
0.0
  0
LWPOLYLINE
  5
2bf
100
AcDbEntity
  8
0
 62
7
100
AcDbPolyline
 90
2
 70
0
 10
-361.765450
 20
1150.245816
 30
0.0
 10
-361.765450
 20
1163.420768
 30
0.0
  0
LWPOLYLINE
  5
2c0
100
AcDbEntity
  8
0
 62
7
100
AcDbPolyline
 90
3
 70
0
 10
-361.765450
 20
1150.245816
 30
0.0
 10
-368.115431
 20
1150.245816
 30
0.0
 10
-368.115431
 20
1135.245771
 30
0.0
  0
LWPOLYLINE
  5
2c1
100
AcDbEntity
  8
0
 62
7
100
AcDbPolyline
 90
2
 70
0
 10
-361.765450
 20
1122.070820
 30
0.0
 10
-361.765450
 20
1135.245771
 30
0.0
  0
LWPOLYLINE
  5
2c2
100
AcDbEntity
  8
0
 62
7
100
AcDbPolyline
 90
2
 70
0
 10
-535.765415
 20
1122.070820
 30
0.0
 10
-361.765450
 20
1122.070820
 30
0.0
  0
LWPOLYLINE
  5
2c3
100
AcDbEntity
  8
0
 62
7
100
AcDbPolyline
 90
2
 70
0
 10
-535.765415
 20
1135.245771
 30
0.0
 10
-535.765415
 20
1122.070820
 30
0.0
  0
LWPOLYLINE
  5
2c4
100
AcDbEntity
  8
0
 62
7
100
AcDbPolyline
 90
2
 70
0
 10
-529.415434
 20
1150.245816
 30
0.0
 10
-535.765415
 20
1150.245816
 30
0.0
  0
LWPOLYLINE
  5
2c5
100
AcDbEntity
  8
0
 62
7
100
AcDbPolyline
 90
2
 70
0
 10
-535.765415
 20
1163.420768
 30
0.0
 10
-535.765415
 20
1150.245816
 30
0.0
  0
LWPOLYLINE
  5
2c6
100
AcDbEntity
  8
0
 62
7
100
AcDbPolyline
 90
2
 70
0
 10
-492.765432
 20
1163.420768
 30
0.0
 10
-535.765415
 20
1163.420768
 30
0.0
  0
LWPOLYLINE
  5
2c7
100
AcDbEntity
  8
0
 62
7
100
AcDbPolyline
 90
2
 70
0
 10
-404.765432
 20
1157.070787
 30
0.0
 10
-404.765432
 20
1163.420768
 30
0.0
  0
LWPOLYLINE
  5
2c8
100
AcDbEntity
  8
0
 62
7
100
AcDbPolyline
 90
2
 70
0
 10
-361.765450
 20
1163.420768
 30
0.0
 10
-404.765432
 20
1163.420768
 30
0.0
  0
LWPOLYLINE
  5
2c9
100
AcDbEntity
  8
0
 62
7
100
AcDbPolyline
 90
2
 70
0
 10
-492.765432
 20
1157.070787
 30
0.0
 10
-404.765432
 20
1157.070787
 30
0.0
  0
LWPOLYLINE
  5
2ca
100
AcDbEntity
  8
0
 62
7
100
AcDbPolyline
 90
2
 70
0
 10
-529.415434
 20
1135.245771
 30
0.0
 10
-529.415434
 20
1150.245816
 30
0.0
  0
LWPOLYLINE
  5
2cb
100
AcDbEntity
  8
0
 62
7
100
AcDbPolyline
 90
2
 70
0
 10
-535.765415
 20
1135.245771
 30
0.0
 10
-529.415434
 20
1135.245771
 30
0.0
  0
LWPOLYLINE
  5
2cc
100
AcDbEntity
  8
0
 62
7
100
AcDbPolyline
 90
2
 70
0
 10
-492.765432
 20
1163.420768
 30
0.0
 10
-492.765432
 20
1157.070787
 30
0.0
  0
LWPOLYLINE
  5
2cd
100
AcDbEntity
  8
0
 62
7
100
AcDbPolyline
 90
2
 70
0
 10
-368.115431
 20
1135.245771
 30
0.0
 10
-361.765450
 20
1135.245771
 30
0.0
  0
LWPOLYLINE
  5
2ce
100
AcDbEntity
  8
0
 62
7
100
AcDbPolyline
 90
2
 70
0
 10
-187.765425
 20
1150.245816
 30
0.0
 10
-187.765425
 20
1163.420768
 30
0.0
  0
LWPOLYLINE
  5
2cf
100
AcDbEntity
  8
0
 62
7
100
AcDbPolyline
 90
4
 70
0
 10
-187.765425
 20
1150.245816
 30
0.0
 10
-194.115465
 20
1150.245816
 30
0.0
 10
-194.115465
 20
1135.245771
 30
0.0
 10
-187.765425
 20
1135.245771
 30
0.0
  0
LWPOLYLINE
  5
2d0
100
AcDbEntity
  8
0
 62
7
100
AcDbPolyline
 90
2
 70
0
 10
-187.765425
 20
1122.070820
 30
0.0
 10
-187.765425
 20
1135.245771
 30
0.0
  0
LWPOLYLINE
  5
2d1
100
AcDbEntity
  8
0
 62
7
100
AcDbPolyline
 90
2
 70
0
 10
-361.765450
 20
1122.070820
 30
0.0
 10
-187.765425
 20
1122.070820
 30
0.0
  0
LWPOLYLINE
  5
2d2
100
AcDbEntity
  8
0
 62
7
100
AcDbPolyline
 90
2
 70
0
 10
-318.765467
 20
1163.420768
 30
0.0
 10
-361.765450
 20
1163.420768
 30
0.0
  0
LWPOLYLINE
  5
2d3
100
AcDbEntity
  8
0
 62
7
100
AcDbPolyline
 90
2
 70
0
 10
-318.765467
 20
1163.420768
 30
0.0
 10
-318.765467
 20
1157.070787
 30
0.0
  0
LWPOLYLINE
  5
2d4
100
AcDbEntity
  8
0
 62
7
100
AcDbPolyline
 90
2
 70
0
 10
-187.765425
 20
1163.420768
 30
0.0
 10
-230.765408
 20
1163.420768
 30
0.0
  0
LWPOLYLINE
  5
2d5
100
AcDbEntity
  8
0
 62
7
100
AcDbPolyline
 90
2
 70
0
 10
-230.765408
 20
1157.070787
 30
0.0
 10
-230.765408
 20
1163.420768
 30
0.0
  0
LWPOLYLINE
  5
2d6
100
AcDbEntity
  8
0
 62
7
100
AcDbPolyline
 90
4
 70
0
 10
-361.765450
 20
1135.245771
 30
0.0
 10
-355.415409
 20
1135.245771
 30
0.0
 10
-355.415409
 20
1150.245816
 30
0.0
 10
-361.765450
 20
1150.245816
 30
0.0
  0
LWPOLYLINE
  5
2d7
100
AcDbEntity
  8
0
 62
7
100
AcDbPolyline
 90
2
 70
0
 10
-318.765467
 20
1157.070787
 30
0.0
 10
-230.765408
 20
1157.070787
 30
0.0
  0
LWPOLYLINE
  5
2d8
100
AcDbEntity
  8
0
 62
7
100
AcDbPolyline
 90
3
 70
0
 10
-318.765467
 20
1157.070787
 30
0.0
 10
-318.765467
 20
1170.245797
 30
0.0
 10
-325.115388
 20
1170.245797
 30
0.0
  0
LWPOLYLINE
  5
2d9
100
AcDbEntity
  8
0
 62
7
100
AcDbPolyline
 90
3
 70
0
 10
-325.115388
 20
1185.245783
 30
0.0
 10
-318.765467
 20
1185.245783
 30
0.0
 10
-318.765467
 20
1198.420794
 30
0.0
  0
LWPOLYLINE
  5
2da
100
AcDbEntity
  8
0
 62
7
100
AcDbPolyline
 90
3
 70
0
 10
-241.465395
 20
1198.420794
 30
0.0
 10
-241.465395
 20
1185.245783
 30
0.0
 10
-235.115474
 20
1185.245783
 30
0.0
  0
LWPOLYLINE
  5
2db
100
AcDbEntity
  8
0
 62
7
100
AcDbPolyline
 90
3
 70
0
 10
-235.115474
 20
1170.245797
 30
0.0
 10
-241.465395
 20
1170.245797
 30
0.0
 10
-241.465395
 20
1157.070787
 30
0.0
  0
LWPOLYLINE
  5
2dc
100
AcDbEntity
  8
0
 62
7
100
AcDbPolyline
 90
2
 70
0
 10
-318.765467
 20
1157.070787
 30
0.0
 10
-241.465395
 20
1157.070787
 30
0.0
  0
LWPOLYLINE
  5
2dd
100
AcDbEntity
  8
0
 62
7
100
AcDbPolyline
 90
2
 70
0
 10
-325.115388
 20
1185.245783
 30
0.0
 10
-325.115388
 20
1170.245797
 30
0.0
  0
LWPOLYLINE
  5
2de
100
AcDbEntity
  8
0
 62
7
100
AcDbPolyline
 90
2
 70
0
 10
-241.465395
 20
1198.420794
 30
0.0
 10
-318.765467
 20
1198.420794
 30
0.0
  0
LWPOLYLINE
  5
2df
100
AcDbEntity
  8
0
 62
7
100
AcDbPolyline
 90
2
 70
0
 10
-235.115474
 20
1170.245797
 30
0.0
 10
-235.115474
 20
1185.245783
 30
0.0
  0
LWPOLYLINE
  5
2e0
100
AcDbEntity
  8
0
 62
7
100
AcDbPolyline
 90
3
 70
0
 10
-492.765432
 20
1157.070787
 30
0.0
 10
-492.765432
 20
1170.245797
 30
0.0
 10
-499.115413
 20
1170.245797
 30
0.0
  0
LWPOLYLINE
  5
2e1
100
AcDbEntity
  8
0
 62
7
100
AcDbPolyline
 90
3
 70
0
 10
-499.115413
 20
1185.245783
 30
0.0
 10
-492.765432
 20
1185.245783
 30
0.0
 10
-492.765432
 20
1198.420794
 30
0.0
  0
LWPOLYLINE
  5
2e2
100
AcDbEntity
  8
0
 62
7
100
AcDbPolyline
 90
2
 70
0
 10
-492.765432
 20
1157.070787
 30
0.0
 10
-415.465420
 20
1157.070787
 30
0.0
  0
LWPOLYLINE
  5
2e3
100
AcDbEntity
  8
0
 62
7
100
AcDbPolyline
 90
2
 70
0
 10
-499.115413
 20
1185.245783
 30
0.0
 10
-499.115413
 20
1170.245797
 30
0.0
  0
LWPOLYLINE
  5
2e4
100
AcDbEntity
  8
0
 62
7
100
AcDbPolyline
 90
2
 70
0
 10
-415.465420
 20
1198.420794
 30
0.0
 10
-492.765432
 20
1198.420794
 30
0.0
  0
LWPOLYLINE
  5
2e5
100
AcDbEntity
  8
0
 62
7
100
AcDbPolyline
 90
2
 70
0
 10
-409.115439
 20
1170.245797
 30
0.0
 10
-409.115439
 20
1185.245783
 30
0.0
  0
LWPOLYLINE
  5
2e6
100
AcDbEntity
  8
0
 62
7
100
AcDbPolyline
 90
4
 70
1
 10
-464.605456
 20
1173.438222
 30
0.0
 10
-479.105418
 20
1173.438222
 30
0.0
 10
-479.105418
 20
1189.538212
 30
0.0
 10
-464.605456
 20
1189.538212
 30
0.0
  0
LWPOLYLINE
  5
2e7
100
AcDbEntity
  8
0
 62
7
100
AcDbPolyline
 90
3
 70
0
 10
-409.115439
 20
1170.245797
 30
0.0
 10
-415.465420
 20
1170.245797
 30
0.0
 10
-415.465420
 20
1157.070787
 30
0.0
  0
SPLINE
  5
2e8
100
AcDbEntity
  8
0
 62
7
100
AcDbSpline
 70
8
 71
3
 72
8
 73
4
 74
0
 40
0
 40
0
 40
0
 40
0
 40
1
 40
1
 40
1
 40
1
 10
1212.970429
 20
686.320476
 30
0.0
 10
1212.970429
 20
687.035007
 30
0.0
 10
1212.589231
 20
687.695261
 30
0.0
 10
1211.970429
 20
688.052527
 30
0.0
  0
SPLINE
  5
2e9
100
AcDbEntity
  8
0
 62
7
100
AcDbSpline
 70
8
 71
3
 72
8
 73
4
 74
0
 40
0
 40
0
 40
0
 40
0
 40
1
 40
1
 40
1
 40
1
 10
1211.970429
 20
688.052527
 30
0.0
 10
1211.351627
 20
688.409793
 30
0.0
 10
1210.589231
 20
688.409793
 30
0.0
 10
1209.970429
 20
688.052527
 30
0.0
  0
SPLINE
  5
2ea
100
AcDbEntity
  8
0
 62
7
100
AcDbSpline
 70
8
 71
3
 72
8
 73
4
 74
0
 40
0
 40
0
 40
0
 40
0
 40
1
 40
1
 40
1
 40
1
 10
1209.970429
 20
688.052527
 30
0.0
 10
1209.351627
 20
687.695261
 30
0.0
 10
1208.970429
 20
687.035007
 30
0.0
 10
1208.970429
 20
686.320476
 30
0.0
  0
SPLINE
  5
2eb
100
AcDbEntity
  8
0
 62
7
100
AcDbSpline
 70
8
 71
3
 72
8
 73
4
 74
0
 40
0
 40
0
 40
0
 40
0
 40
1
 40
1
 40
1
 40
1
 10
1208.970429
 20
686.320476
 30
0.0
 10
1208.970429
 20
685.605945
 30
0.0
 10
1209.351626
 20
684.945691
 30
0.0
 10
1209.970429
 20
684.588425
 30
0.0
  0
SPLINE
  5
2ec
100
AcDbEntity
  8
0
 62
7
100
AcDbSpline
 70
8
 71
3
 72
8
 73
4
 74
0
 40
0
 40
0
 40
0
 40
0
 40
1
 40
1
 40
1
 40
1
 10
1209.970429
 20
684.588425
 30
0.0
 10
1210.589231
 20
684.231159
 30
0.0
 10
1211.351627
 20
684.231159
 30
0.0
 10
1211.970429
 20
684.588425
 30
0.0
  0
SPLINE
  5
2ed
100
AcDbEntity
  8
0
 62
7
100
AcDbSpline
 70
8
 71
3
 72
8
 73
4
 74
0
 40
0
 40
0
 40
0
 40
0
 40
1
 40
1
 40
1
 40
1
 10
1211.970429
 20
684.588425
 30
0.0
 10
1212.589231
 20
684.945691
 30
0.0
 10
1212.970429
 20
685.605945
 30
0.0
 10
1212.970429
 20
686.320476
 30
0.0
  0
LWPOLYLINE
  5
2ee
100
AcDbEntity
  8
0
 62
7
100
AcDbPolyline
 90
3
 70
0
 10
-415.465420
 20
1198.420794
 30
0.0
 10
-415.465420
 20
1185.245783
 30
0.0
 10
-409.115439
 20
1185.245783
 30
0.0
  0
LWPOLYLINE
  5
2ef
100
AcDbEntity
  8
0
 62
7
100
AcDbPolyline
 90
1
 70
1
 10
1212.970429
 20
686.320476
 30
0.0
  0
LWPOLYLINE
  5
2f0
100
AcDbEntity
  8
0
 62
7
100
AcDbPolyline
 90
2
 70
0
 10
1085.970337
 20
696.320475
 30
0.0
 10
1079.620535
 20
696.320475
 30
0.0
  0
LWPOLYLINE
  5
2f1
100
AcDbEntity
  8
0
 62
7
100
AcDbPolyline
 90
2
 70
0
 10
1085.970337
 20
706.320466
 30
0.0
 10
1085.970337
 20
696.320475
 30
0.0
  0
LWPOLYLINE
  5
2f2
100
AcDbEntity
  8
0
 62
7
100
AcDbPolyline
 90
2
 70
0
 10
1150.970394
 20
706.320466
 30
0.0
 10
1085.970337
 20
706.320466
 30
0.0
  0
LWPOLYLINE
  5
2f3
100
AcDbEntity
  8
0
 62
7
100
AcDbPolyline
 90
2
 70
0
 10
1150.970394
 20
712.670476
 30
0.0
 10
1150.970394
 20
706.320466
 30
0.0
  0
LWPOLYLINE
  5
2f4
100
AcDbEntity
  8
0
 62
7
100
AcDbPolyline
 90
2
 70
0
 10
1170.970375
 20
712.670476
 30
0.0
 10
1150.970394
 20
712.670476
 30
0.0
  0
LWPOLYLINE
  5
2f5
100
AcDbEntity
  8
0
 62
7
100
AcDbPolyline
 90
2
 70
0
 10
1170.970375
 20
706.320466
 30
0.0
 10
1170.970375
 20
712.670476
 30
0.0
  0
LWPOLYLINE
  5
2f6
100
AcDbEntity
  8
0
 62
7
100
AcDbPolyline
 90
2
 70
0
 10
1235.970432
 20
706.320466
 30
0.0
 10
1170.970375
 20
706.320466
 30
0.0
  0
LWPOLYLINE
  5
2f7
100
AcDbEntity
  8
0
 62
7
100
AcDbPolyline
 90
2
 70
0
 10
1235.970432
 20
696.320475
 30
0.0
 10
1235.970432
 20
706.320466
 30
0.0
  0
LWPOLYLINE
  5
2f8
100
AcDbEntity
  8
0
 62
7
100
AcDbPolyline
 90
2
 70
0
 10
1242.320473
 20
696.320475
 30
0.0
 10
1235.970432
 20
696.320475
 30
0.0
  0
LWPOLYLINE
  5
2f9
100
AcDbEntity
  8
0
 62
7
100
AcDbPolyline
 90
2
 70
0
 10
1242.320473
 20
676.320480
 30
0.0
 10
1242.320473
 20
696.320475
 30
0.0
  0
LWPOLYLINE
  5
2fa
100
AcDbEntity
  8
0
 62
7
100
AcDbPolyline
 90
2
 70
0
 10
1079.620535
 20
676.320480
 30
0.0
 10
1242.320473
 20
676.320480
 30
0.0
  0
SPLINE
  5
2fb
100
AcDbEntity
  8
0
 62
7
100
AcDbSpline
 70
8
 71
3
 72
8
 73
4
 74
0
 40
0
 40
0
 40
0
 40
0
 40
1
 40
1
 40
1
 40
1
 10
1112.970429
 20
686.320476
 30
0.0
 10
1112.970429
 20
687.035007
 30
0.0
 10
1112.589231
 20
687.695261
 30
0.0
 10
1111.970429
 20
688.052527
 30
0.0
  0
SPLINE
  5
2fc
100
AcDbEntity
  8
0
 62
7
100
AcDbSpline
 70
8
 71
3
 72
8
 73
4
 74
0
 40
0
 40
0
 40
0
 40
0
 40
1
 40
1
 40
1
 40
1
 10
1111.970429
 20
688.052527
 30
0.0
 10
1111.351627
 20
688.409793
 30
0.0
 10
1110.589231
 20
688.409793
 30
0.0
 10
1109.970429
 20
688.052527
 30
0.0
  0
SPLINE
  5
2fd
100
AcDbEntity
  8
0
 62
7
100
AcDbSpline
 70
8
 71
3
 72
8
 73
4
 74
0
 40
0
 40
0
 40
0
 40
0
 40
1
 40
1
 40
1
 40
1
 10
1109.970429
 20
688.052527
 30
0.0
 10
1109.351627
 20
687.695261
 30
0.0
 10
1108.970429
 20
687.035007
 30
0.0
 10
1108.970429
 20
686.320476
 30
0.0
  0
SPLINE
  5
2fe
100
AcDbEntity
  8
0
 62
7
100
AcDbSpline
 70
8
 71
3
 72
8
 73
4
 74
0
 40
0
 40
0
 40
0
 40
0
 40
1
 40
1
 40
1
 40
1
 10
1108.970429
 20
686.320476
 30
0.0
 10
1108.970429
 20
685.605945
 30
0.0
 10
1109.351627
 20
684.945691
 30
0.0
 10
1109.970429
 20
684.588425
 30
0.0
  0
SPLINE
  5
2ff
100
AcDbEntity
  8
0
 62
7
100
AcDbSpline
 70
8
 71
3
 72
8
 73
4
 74
0
 40
0
 40
0
 40
0
 40
0
 40
1
 40
1
 40
1
 40
1
 10
1109.970429
 20
684.588425
 30
0.0
 10
1110.589231
 20
684.231160
 30
0.0
 10
1111.351627
 20
684.231160
 30
0.0
 10
1111.970429
 20
684.588425
 30
0.0
  0
SPLINE
  5
300
100
AcDbEntity
  8
0
 62
7
100
AcDbSpline
 70
8
 71
3
 72
8
 73
4
 74
0
 40
0
 40
0
 40
0
 40
0
 40
1
 40
1
 40
1
 40
1
 10
1111.970429
 20
684.588425
 30
0.0
 10
1112.589231
 20
684.945691
 30
0.0
 10
1112.970429
 20
685.605945
 30
0.0
 10
1112.970429
 20
686.320476
 30
0.0
  0
LWPOLYLINE
  5
301
100
AcDbEntity
  8
0
 62
7
100
AcDbPolyline
 90
2
 70
0
 10
1079.620535
 20
696.320475
 30
0.0
 10
1079.620535
 20
676.320480
 30
0.0
  0
SPLINE
  5
302
100
AcDbEntity
  8
0
 62
7
100
AcDbSpline
 70
8
 71
3
 72
8
 73
4
 74
0
 40
0
 40
0
 40
0
 40
0
 40
1
 40
1
 40
1
 40
1
 10
1529.284573
 20
998.470195
 30
0.0
 10
1529.284573
 20
999.899257
 30
0.0
 10
1528.522178
 20
1001.219765
 30
0.0
 10
1527.284573
 20
1001.934297
 30
0.0
  0
SPLINE
  5
303
100
AcDbEntity
  8
0
 62
7
100
AcDbSpline
 70
8
 71
3
 72
8
 73
4
 74
0
 40
0
 40
0
 40
0
 40
0
 40
1
 40
1
 40
1
 40
1
 10
1527.284573
 20
1001.934297
 30
0.0
 10
1526.046969
 20
1002.648828
 30
0.0
 10
1524.522178
 20
1002.648828
 30
0.0
 10
1523.284573
 20
1001.934297
 30
0.0
  0
SPLINE
  5
304
100
AcDbEntity
  8
0
 62
7
100
AcDbSpline
 70
8
 71
3
 72
8
 73
4
 74
0
 40
0
 40
0
 40
0
 40
0
 40
1
 40
1
 40
1
 40
1
 10
1523.284573
 20
1001.934297
 30
0.0
 10
1522.046969
 20
1001.219765
 30
0.0
 10
1521.284573
 20
999.899257
 30
0.0
 10
1521.284573
 20
998.470195
 30
0.0
  0
SPLINE
  5
305
100
AcDbEntity
  8
0
 62
7
100
AcDbSpline
 70
8
 71
3
 72
8
 73
4
 74
0
 40
0
 40
0
 40
0
 40
0
 40
1
 40
1
 40
1
 40
1
 10
1521.284573
 20
998.470195
 30
0.0
 10
1521.284573
 20
997.041132
 30
0.0
 10
1522.046969
 20
995.720624
 30
0.0
 10
1523.284573
 20
995.006093
 30
0.0
  0
SPLINE
  5
306
100
AcDbEntity
  8
0
 62
7
100
AcDbSpline
 70
8
 71
3
 72
8
 73
4
 74
0
 40
0
 40
0
 40
0
 40
0
 40
1
 40
1
 40
1
 40
1
 10
1523.284573
 20
995.006093
 30
0.0
 10
1524.522177
 20
994.291561
 30
0.0
 10
1526.046969
 20
994.291561
 30
0.0
 10
1527.284573
 20
995.006093
 30
0.0
  0
SPLINE
  5
307
100
AcDbEntity
  8
0
 62
7
100
AcDbSpline
 70
8
 71
3
 72
8
 73
4
 74
0
 40
0
 40
0
 40
0
 40
0
 40
1
 40
1
 40
1
 40
1
 10
1527.284573
 20
995.006093
 30
0.0
 10
1528.522178
 20
995.720624
 30
0.0
 10
1529.284574
 20
997.041132
 30
0.0
 10
1529.284573
 20
998.470195
 30
0.0
  0
LWPOLYLINE
  5
308
100
AcDbEntity
  8
0
 62
7
100
AcDbPolyline
 90
1
 70
1
 10
1112.970429
 20
686.320476
 30
0.0
  0
LWPOLYLINE
  5
309
100
AcDbEntity
  8
0
 62
7
100
AcDbPolyline
 90
1
 70
1
 10
1529.284573
 20
998.470195
 30
0.0
  0
LWPOLYLINE
  5
30a
100
AcDbEntity
  8
0
 62
7
100
AcDbPolyline
 90
2
 70
0
 10
1454.934532
 20
1132.470222
 30
0.0
 10
1461.284572
 20
1132.470222
 30
0.0
  0
LWPOLYLINE
  5
30b
100
AcDbEntity
  8
0
 62
7
100
AcDbPolyline
 90
2
 70
0
 10
1454.934532
 20
1148.820193
 30
0.0
 10
1454.934532
 20
1132.470222
 30
0.0
  0
LWPOLYLINE
  5
30c
100
AcDbEntity
  8
0
 62
7
100
AcDbPolyline
 90
2
 70
0
 10
1474.934513
 20
1148.820193
 30
0.0
 10
1454.934532
 20
1148.820193
 30
0.0
  0
LWPOLYLINE
  5
30d
100
AcDbEntity
  8
0
 62
7
100
AcDbPolyline
 90
2
 70
0
 10
1474.934513
 20
1142.470212
 30
0.0
 10
1474.934513
 20
1148.820193
 30
0.0
  0
LWPOLYLINE
  5
30e
100
AcDbEntity
  8
0
 62
7
100
AcDbPolyline
 90
2
 70
0
 10
1547.634536
 20
1142.470212
 30
0.0
 10
1474.934513
 20
1142.470212
 30
0.0
  0
LWPOLYLINE
  5
30f
100
AcDbEntity
  8
0
 62
7
100
AcDbPolyline
 90
2
 70
0
 10
1547.634536
 20
1148.820193
 30
0.0
 10
1547.634536
 20
1142.470212
 30
0.0
  0
LWPOLYLINE
  5
310
100
AcDbEntity
  8
0
 62
7
100
AcDbPolyline
 90
2
 70
0
 10
1567.634517
 20
1148.820193
 30
0.0
 10
1547.634536
 20
1148.820193
 30
0.0
  0
LWPOLYLINE
  5
311
100
AcDbEntity
  8
0
 62
7
100
AcDbPolyline
 90
2
 70
0
 10
1567.634517
 20
1128.820212
 30
0.0
 10
1567.634517
 20
1148.820193
 30
0.0
  0
LWPOLYLINE
  5
312
100
AcDbEntity
  8
0
 62
7
100
AcDbPolyline
 90
2
 70
0
 10
1561.284477
 20
1128.820212
 30
0.0
 10
1567.634517
 20
1128.820212
 30
0.0
  0
LWPOLYLINE
  5
313
100
AcDbEntity
  8
0
 62
7
100
AcDbPolyline
 90
2
 70
0
 10
1561.284477
 20
1011.470170
 30
0.0
 10
1561.284477
 20
1128.820212
 30
0.0
  0
LWPOLYLINE
  5
314
100
AcDbEntity
  8
0
 62
7
100
AcDbPolyline
 90
2
 70
0
 10
1567.634517
 20
1011.470170
 30
0.0
 10
1561.284477
 20
1011.470170
 30
0.0
  0
LWPOLYLINE
  5
315
100
AcDbEntity
  8
0
 62
7
100
AcDbPolyline
 90
2
 70
0
 10
1567.634517
 20
991.470189
 30
0.0
 10
1567.634517
 20
1011.470170
 30
0.0
  0
SPLINE
  5
316
100
AcDbEntity
  8
0
 62
7
100
AcDbSpline
 70
8
 71
3
 72
8
 73
4
 74
0
 40
0
 40
0
 40
0
 40
0
 40
1
 40
1
 40
1
 40
1
 10
1518.284573
 20
996.470195
 30
0.0
 10
1518.284573
 20
995.144113
 30
0.0
 10
1518.811357
 20
993.872343
 30
0.0
 10
1519.749039
 20
992.934661
 30
0.0
  0
SPLINE
  5
317
100
AcDbEntity
  8
0
 62
7
100
AcDbSpline
 70
8
 71
3
 72
8
 73
4
 74
0
 40
0
 40
0
 40
0
 40
0
 40
1
 40
1
 40
1
 40
1
 10
1519.749039
 20
992.934661
 30
0.0
 10
1520.686721
 20
991.996979
 30
0.0
 10
1521.958491
 20
991.470195
 30
0.0
 10
1523.284573
 20
991.470195
 30
0.0
  0
LWPOLYLINE
  5
318
100
AcDbEntity
  8
0
 62
7
100
AcDbPolyline
 90
2
 70
0
 10
1523.284609
 20
991.470189
 30
0.0
 10
1567.634517
 20
991.470189
 30
0.0
  0
SPLINE
  5
319
100
AcDbEntity
  8
0
 62
7
100
AcDbSpline
 70
8
 71
3
 72
8
 73
4
 74
0
 40
0
 40
0
 40
0
 40
0
 40
1
 40
1
 40
1
 40
1
 10
1520.008399
 20
1006.911250
 30
0.0
 10
1518.913501
 20
1005.961566
 30
0.0
 10
1518.284573
 20
1004.583504
 30
0.0
 10
1518.284573
 20
1003.134124
 30
0.0
  0
SPLINE
  5
31a
100
AcDbEntity
  8
0
 62
7
100
AcDbSpline
 70
8
 71
3
 72
8
 73
4
 74
0
 40
0
 40
0
 40
0
 40
0
 40
1
 40
1
 40
1
 40
1
 10
1520.008399
 20
1006.911250
 30
0.0
 10
1541.191837
 20
1025.285176
 30
0.0
 10
1547.324279
 20
1055.631432
 30
0.0
 10
1534.937835
 20
1080.789238
 30
0.0
  0
SPLINE
  5
31b
100
AcDbEntity
  8
0
 62
7
100
AcDbSpline
 70
8
 71
3
 72
8
 73
4
 74
0
 40
0
 40
0
 40
0
 40
0
 40
1
 40
1
 40
1
 40
1
 10
1534.937835
 20
1080.789238
 30
0.0
 10
1522.551391
 20
1105.947043
 30
0.0
 10
1494.760336
 20
1119.591068
 30
0.0
 10
1467.280488
 20
1114.005628
 30
0.0
  0
SPLINE
  5
31c
100
AcDbEntity
  8
0
 62
7
100
AcDbSpline
 70
8
 71
3
 72
8
 73
4
 74
0
 40
0
 40
0
 40
0
 40
0
 40
1
 40
1
 40
1
 40
1
 10
1461.284573
 20
1118.905439
 30
0.0
 10
1461.284573
 20
1117.404734
 30
0.0
 10
1461.958636
 20
1115.983388
 30
0.0
 10
1463.120681
 20
1115.033774
 30
0.0
  0
SPLINE
  5
31d
100
AcDbEntity
  8
0
 62
7
100
AcDbSpline
 70
8
 71
3
 72
8
 73
4
 74
0
 40
0
 40
0
 40
0
 40
0
 40
1
 40
1
 40
1
 40
1
 10
1463.120681
 20
1115.033774
 30
0.0
 10
1464.282727
 20
1114.084161
 30
0.0
 10
1465.809854
 20
1113.706713
 30
0.0
 10
1467.280488
 20
1114.005628
 30
0.0
  0
LWPOLYLINE
  5
31e
100
AcDbEntity
  8
0
 62
7
100
AcDbPolyline
 90
2
 70
0
 10
1518.284494
 20
1003.134103
 30
0.0
 10
1518.284494
 20
996.470184
 30
0.0
  0
SPLINE
  5
31f
100
AcDbEntity
  8
0
 62
7
100
AcDbSpline
 70
8
 71
3
 72
8
 73
4
 74
0
 40
0
 40
0
 40
0
 40
0
 40
1
 40
1
 40
1
 40
1
 10
1556.284573
 20
998.470195
 30
0.0
 10
1556.284573
 20
999.899257
 30
0.0
 10
1555.522177
 20
1001.219765
 30
0.0
 10
1554.284573
 20
1001.934297
 30
0.0
  0
SPLINE
  5
320
100
AcDbEntity
  8
0
 62
7
100
AcDbSpline
 70
8
 71
3
 72
8
 73
4
 74
0
 40
0
 40
0
 40
0
 40
0
 40
1
 40
1
 40
1
 40
1
 10
1554.284573
 20
1001.934297
 30
0.0
 10
1553.046969
 20
1002.648828
 30
0.0
 10
1551.522178
 20
1002.648828
 30
0.0
 10
1550.284573
 20
1001.934297
 30
0.0
  0
SPLINE
  5
321
100
AcDbEntity
  8
0
 62
7
100
AcDbSpline
 70
8
 71
3
 72
8
 73
4
 74
0
 40
0
 40
0
 40
0
 40
0
 40
1
 40
1
 40
1
 40
1
 10
1550.284573
 20
1001.934297
 30
0.0
 10
1549.046969
 20
1001.219765
 30
0.0
 10
1548.284573
 20
999.899257
 30
0.0
 10
1548.284573
 20
998.470195
 30
0.0
  0
SPLINE
  5
322
100
AcDbEntity
  8
0
 62
7
100
AcDbSpline
 70
8
 71
3
 72
8
 73
4
 74
0
 40
0
 40
0
 40
0
 40
0
 40
1
 40
1
 40
1
 40
1
 10
1548.284573
 20
998.470195
 30
0.0
 10
1548.284573
 20
997.041133
 30
0.0
 10
1549.046969
 20
995.720625
 30
0.0
 10
1550.284573
 20
995.006093
 30
0.0
  0
SPLINE
  5
323
100
AcDbEntity
  8
0
 62
7
100
AcDbSpline
 70
8
 71
3
 72
8
 73
4
 74
0
 40
0
 40
0
 40
0
 40
0
 40
1
 40
1
 40
1
 40
1
 10
1550.284573
 20
995.006093
 30
0.0
 10
1551.522178
 20
994.291562
 30
0.0
 10
1553.046969
 20
994.291562
 30
0.0
 10
1554.284573
 20
995.006093
 30
0.0
  0
SPLINE
  5
324
100
AcDbEntity
  8
0
 62
7
100
AcDbSpline
 70
8
 71
3
 72
8
 73
4
 74
0
 40
0
 40
0
 40
0
 40
0
 40
1
 40
1
 40
1
 40
1
 10
1554.284573
 20
995.006093
 30
0.0
 10
1555.522177
 20
995.720625
 30
0.0
 10
1556.284573
 20
997.041133
 30
0.0
 10
1556.284573
 20
998.470195
 30
0.0
  0
LWPOLYLINE
  5
325
100
AcDbEntity
  8
0
 62
7
100
AcDbPolyline
 90
2
 70
0
 10
1461.284572
 20
1132.470222
 30
0.0
 10
1461.284572
 20
1118.905456
 30
0.0
  0
LWPOLYLINE
  5
326
100
AcDbEntity
  8
0
 62
7
100
AcDbPolyline
 90
1
 70
1
 10
1556.284573
 20
998.470195
 30
0.0
  0
LWPOLYLINE
  5
327
100
AcDbEntity
  8
0
 62
7
100
AcDbPolyline
 90
2
 70
0
 10
-1061.615413
 20
1207.940013
 30
0.0
 10
-1061.615413
 20
1187.940032
 30
0.0
  0
LWPOLYLINE
  5
328
100
AcDbEntity
  8
0
 62
7
100
AcDbPolyline
 90
2
 70
0
 10
-1041.615432
 20
1207.940013
 30
0.0
 10
-1061.615413
 20
1207.940013
 30
0.0
  0
SPLINE
  5
329
100
AcDbEntity
  8
0
 62
7
100
AcDbSpline
 70
8
 71
3
 72
8
 73
4
 74
0
 40
0
 40
0
 40
0
 40
0
 40
1
 40
1
 40
1
 40
1
 10
-919.706482
 20
1160.313858
 30
0.0
 10
-938.080407
 20
1181.497296
 30
0.0
 10
-968.426664
 20
1187.629738
 30
0.0
 10
-993.584469
 20
1175.243294
 30
0.0
  0
SPLINE
  5
32a
100
AcDbEntity
  8
0
 62
7
100
AcDbSpline
 70
8
 71
3
 72
8
 73
4
 74
0
 40
0
 40
0
 40
0
 40
0
 40
1
 40
1
 40
1
 40
1
 10
-993.584469
 20
1175.243294
 30
0.0
 10
-1018.742274
 20
1162.856850
 30
0.0
 10
-1032.386299
 20
1135.065795
 30
0.0
 10
-1026.800859
 20
1107.585948
 30
0.0
  0
SPLINE
  5
32b
100
AcDbEntity
  8
0
 62
7
100
AcDbSpline
 70
8
 71
3
 72
8
 73
4
 74
0
 40
0
 40
0
 40
0
 40
0
 40
1
 40
1
 40
1
 40
1
 10
-907.265427
 20
1192.590032
 30
0.0
 10
-907.265427
 20
1194.019095
 30
0.0
 10
-908.027822
 20
1195.339603
 30
0.0
 10
-909.265427
 20
1196.054134
 30
0.0
  0
SPLINE
  5
32c
100
AcDbEntity
  8
0
 62
7
100
AcDbSpline
 70
8
 71
3
 72
8
 73
4
 74
0
 40
0
 40
0
 40
0
 40
0
 40
1
 40
1
 40
1
 40
1
 10
-909.265427
 20
1196.054134
 30
0.0
 10
-910.503031
 20
1196.768665
 30
0.0
 10
-912.027822
 20
1196.768665
 30
0.0
 10
-913.265427
 20
1196.054134
 30
0.0
  0
SPLINE
  5
32d
100
AcDbEntity
  8
0
 62
7
100
AcDbSpline
 70
8
 71
3
 72
8
 73
4
 74
0
 40
0
 40
0
 40
0
 40
0
 40
1
 40
1
 40
1
 40
1
 10
-913.265427
 20
1196.054134
 30
0.0
 10
-914.503031
 20
1195.339603
 30
0.0
 10
-915.265427
 20
1194.019095
 30
0.0
 10
-915.265427
 20
1192.590032
 30
0.0
  0
SPLINE
  5
32e
100
AcDbEntity
  8
0
 62
7
100
AcDbSpline
 70
8
 71
3
 72
8
 73
4
 74
0
 40
0
 40
0
 40
0
 40
0
 40
1
 40
1
 40
1
 40
1
 10
-915.265427
 20
1192.590032
 30
0.0
 10
-915.265427
 20
1191.160970
 30
0.0
 10
-914.503031
 20
1189.840462
 30
0.0
 10
-913.265427
 20
1189.125931
 30
0.0
  0
SPLINE
  5
32f
100
AcDbEntity
  8
0
 62
7
100
AcDbSpline
 70
8
 71
3
 72
8
 73
4
 74
0
 40
0
 40
0
 40
0
 40
0
 40
1
 40
1
 40
1
 40
1
 10
-913.265427
 20
1189.125931
 30
0.0
 10
-912.027822
 20
1188.411400
 30
0.0
 10
-910.503031
 20
1188.411400
 30
0.0
 10
-909.265427
 20
1189.125931
 30
0.0
  0
SPLINE
  5
330
100
AcDbEntity
  8
0
 62
7
100
AcDbSpline
 70
8
 71
3
 72
8
 73
4
 74
0
 40
0
 40
0
 40
0
 40
0
 40
1
 40
1
 40
1
 40
1
 10
-909.265427
 20
1189.125931
 30
0.0
 10
-908.027822
 20
1189.840462
 30
0.0
 10
-907.265427
 20
1191.160970
 30
0.0
 10
-907.265427
 20
1192.590032
 30
0.0
  0
LWPOLYLINE
  5
331
100
AcDbEntity
  8
0
 62
7
100
AcDbPolyline
 90
2
 70
0
 10
-915.929353
 20
1158.590050
 30
0.0
 10
-909.265434
 20
1158.590050
 30
0.0
  0
LWPOLYLINE
  5
332
100
AcDbEntity
  8
0
 62
7
100
AcDbPolyline
 90
1
 70
1
 10
-907.265427
 20
1192.590032
 30
0.0
  0
LWPOLYLINE
  5
333
100
AcDbEntity
  8
0
 62
7
100
AcDbPolyline
 90
2
 70
0
 10
-924.265420
 20
1207.940013
 30
0.0
 10
-924.265420
 20
1201.590032
 30
0.0
  0
SPLINE
  5
334
100
AcDbEntity
  8
0
 62
7
100
AcDbSpline
 70
8
 71
3
 72
8
 73
4
 74
0
 40
0
 40
0
 40
0
 40
0
 40
1
 40
1
 40
1
 40
1
 10
-907.265427
 20
1165.590032
 30
0.0
 10
-907.265427
 20
1167.019095
 30
0.0
 10
-908.027822
 20
1168.339603
 30
0.0
 10
-909.265427
 20
1169.054134
 30
0.0
  0
SPLINE
  5
335
100
AcDbEntity
  8
0
 62
7
100
AcDbSpline
 70
8
 71
3
 72
8
 73
4
 74
0
 40
0
 40
0
 40
0
 40
0
 40
1
 40
1
 40
1
 40
1
 10
-909.265427
 20
1169.054134
 30
0.0
 10
-910.503031
 20
1169.768665
 30
0.0
 10
-912.027822
 20
1169.768665
 30
0.0
 10
-913.265427
 20
1169.054134
 30
0.0
  0
SPLINE
  5
336
100
AcDbEntity
  8
0
 62
7
100
AcDbSpline
 70
8
 71
3
 72
8
 73
4
 74
0
 40
0
 40
0
 40
0
 40
0
 40
1
 40
1
 40
1
 40
1
 10
-913.265427
 20
1169.054134
 30
0.0
 10
-914.503031
 20
1168.339603
 30
0.0
 10
-915.265427
 20
1167.019095
 30
0.0
 10
-915.265427
 20
1165.590032
 30
0.0
  0
SPLINE
  5
337
100
AcDbEntity
  8
0
 62
7
100
AcDbSpline
 70
8
 71
3
 72
8
 73
4
 74
0
 40
0
 40
0
 40
0
 40
0
 40
1
 40
1
 40
1
 40
1
 10
-915.265427
 20
1165.590032
 30
0.0
 10
-915.265427
 20
1164.160970
 30
0.0
 10
-914.503031
 20
1162.840462
 30
0.0
 10
-913.265427
 20
1162.125931
 30
0.0
  0
SPLINE
  5
338
100
AcDbEntity
  8
0
 62
7
100
AcDbSpline
 70
8
 71
3
 72
8
 73
4
 74
0
 40
0
 40
0
 40
0
 40
0
 40
1
 40
1
 40
1
 40
1
 10
-913.265427
 20
1162.125931
 30
0.0
 10
-912.027822
 20
1161.411400
 30
0.0
 10
-910.503031
 20
1161.411400
 30
0.0
 10
-909.265427
 20
1162.125931
 30
0.0
  0
SPLINE
  5
339
100
AcDbEntity
  8
0
 62
7
100
AcDbSpline
 70
8
 71
3
 72
8
 73
4
 74
0
 40
0
 40
0
 40
0
 40
0
 40
1
 40
1
 40
1
 40
1
 10
-909.265427
 20
1162.125931
 30
0.0
 10
-908.027822
 20
1162.840462
 30
0.0
 10
-907.265427
 20
1164.160970
 30
0.0
 10
-907.265427
 20
1165.590032
 30
0.0
  0
LWPOLYLINE
  5
33a
100
AcDbEntity
  8
0
 62
7
100
AcDbPolyline
 90
2
 70
0
 10
-1061.615413
 20
1115.240009
 30
0.0
 10
-1061.615413
 20
1095.240028
 30
0.0
  0
LWPOLYLINE
  5
33b
100
AcDbEntity
  8
0
 62
7
100
AcDbPolyline
 90
1
 70
1
 10
-907.265427
 20
1165.590032
 30
0.0
  0
LWPOLYLINE
  5
33c
100
AcDbEntity
  8
0
 62
7
100
AcDbPolyline
 90
2
 70
0
 10
-1045.265442
 20
1101.590009
 30
0.0
 10
-1031.700676
 20
1101.590009
 30
0.0
  0
SPLINE
  5
33d
100
AcDbEntity
  8
0
 62
7
100
AcDbSpline
 70
8
 71
3
 72
8
 73
4
 74
0
 40
0
 40
0
 40
0
 40
0
 40
1
 40
1
 40
1
 40
1
 10
-919.706482
 20
1160.313858
 30
0.0
 10
-918.756797
 20
1159.218960
 30
0.0
 10
-917.378736
 20
1158.590032
 30
0.0
 10
-915.929356
 20
1158.590032
 30
0.0
  0
LWPOLYLINE
  5
33e
100
AcDbEntity
  8
0
 62
7
100
AcDbPolyline
 90
2
 70
0
 10
-1045.265442
 20
1095.240028
 30
0.0
 10
-1045.265442
 20
1101.590009
 30
0.0
  0
LWPOLYLINE
  5
33f
100
AcDbEntity
  8
0
 62
7
100
AcDbPolyline
 90
2
 70
0
 10
-1061.615413
 20
1187.940032
 30
0.0
 10
-1055.265432
 20
1187.940032
 30
0.0
  0
LWPOLYLINE
  5
340
100
AcDbEntity
  8
0
 62
7
100
AcDbPolyline
 90
2
 70
0
 10
-1055.265432
 20
1115.240009
 30
0.0
 10
-1061.615413
 20
1115.240009
 30
0.0
  0
LWPOLYLINE
  5
341
100
AcDbEntity
  8
0
 62
7
100
AcDbPolyline
 90
2
 70
0
 10
-1055.265432
 20
1187.940032
 30
0.0
 10
-1055.265432
 20
1115.240009
 30
0.0
  0
LWPOLYLINE
  5
342
100
AcDbEntity
  8
0
 62
7
100
AcDbPolyline
 90
2
 70
0
 10
-1041.615432
 20
1201.590032
 30
0.0
 10
-1041.615432
 20
1207.940013
 30
0.0
  0
LWPOLYLINE
  5
343
100
AcDbEntity
  8
0
 62
7
100
AcDbPolyline
 90
2
 70
0
 10
-924.265420
 20
1201.590032
 30
0.0
 10
-1041.615432
 20
1201.590032
 30
0.0
  0
LWPOLYLINE
  5
344
100
AcDbEntity
  8
0
 62
7
100
AcDbPolyline
 90
2
 70
0
 10
-904.265439
 20
1207.940013
 30
0.0
 10
-924.265420
 20
1207.940013
 30
0.0
  0
SPLINE
  5
345
100
AcDbEntity
  8
0
 62
7
100
AcDbSpline
 70
8
 71
3
 72
8
 73
4
 74
0
 40
0
 40
0
 40
0
 40
0
 40
1
 40
1
 40
1
 40
1
 10
-1031.700671
 20
1101.590032
 30
0.0
 10
-1030.199966
 20
1101.590032
 30
0.0
 10
-1028.778620
 20
1102.264095
 30
0.0
 10
-1027.829006
 20
1103.426141
 30
0.0
  0
SPLINE
  5
346
100
AcDbEntity
  8
0
 62
7
100
AcDbSpline
 70
8
 71
3
 72
8
 73
4
 74
0
 40
0
 40
0
 40
0
 40
0
 40
1
 40
1
 40
1
 40
1
 10
-1027.829006
 20
1103.426141
 30
0.0
 10
-1026.879393
 20
1104.588186
 30
0.0
 10
-1026.501944
 20
1106.115314
 30
0.0
 10
-1026.800859
 20
1107.585948
 30
0.0
  0
LWPOLYLINE
  5
347
100
AcDbEntity
  8
0
 62
7
100
AcDbPolyline
 90
2
 70
0
 10
-904.265439
 20
1163.590045
 30
0.0
 10
-904.265439
 20
1207.940013
 30
0.0
  0
SPLINE
  5
348
100
AcDbEntity
  8
0
 62
7
100
AcDbSpline
 70
8
 71
3
 72
8
 73
4
 74
0
 40
0
 40
0
 40
0
 40
0
 40
1
 40
1
 40
1
 40
1
 10
-909.265427
 20
1158.590032
 30
0.0
 10
-907.939344
 20
1158.590032
 30
0.0
 10
-906.667575
 20
1159.116817
 30
0.0
 10
-905.729893
 20
1160.054498
 30
0.0
  0
SPLINE
  5
349
100
AcDbEntity
  8
0
 62
7
100
AcDbSpline
 70
8
 71
3
 72
8
 73
4
 74
0
 40
0
 40
0
 40
0
 40
0
 40
1
 40
1
 40
1
 40
1
 10
-905.729893
 20
1160.054498
 30
0.0
 10
-904.792211
 20
1160.992180
 30
0.0
 10
-904.265427
 20
1162.263950
 30
0.0
 10
-904.265427
 20
1163.590032
 30
0.0
  0
LWPOLYLINE
  5
34a
100
AcDbEntity
  8
0
 62
7
100
AcDbPolyline
 90
2
 70
0
 10
-1061.615413
 20
1095.240028
 30
0.0
 10
-1045.265442
 20
1095.240028
 30
0.0
  0
LWPOLYLINE
  5
34b
100
AcDbEntity
  8
0
 62
7
100
AcDbPolyline
 90
3
 70
0
 10
-535.765415
 20
700.123371
 30
0.0
 10
-409.190660
 20
700.123371
 30
0.0
 10
-434.190696
 20
725.123377
 30
0.0
  0
LWPOLYLINE
  5
34c
100
AcDbEntity
  8
0
 62
7
100
AcDbPolyline
 90
7
 70
0
 10
-334.673470
 20
725.123377
 30
0.0
 10
-359.673505
 20
700.123371
 30
0.0
 10
-233.340209
 20
700.123371
 30
0.0
 10
-258.340185
 20
675.123365
 30
0.0
 10
-157.857364
 20
675.123365
 30
0.0
 10
-182.857340
 20
700.123371
 30
0.0
 10
-56.765383
 20
700.123371
 30
0.0
  0
LWPOLYLINE
  5
34d
100
AcDbEntity
  8
0
 62
7
100
AcDbPolyline
 90
2
 70
0
 10
-56.765383
 20
476.590033
 30
0.0
 10
-56.765383
 20
700.123371
 30
0.0
  0
LWPOLYLINE
  5
34e
100
AcDbEntity
  8
0
 62
7
100
AcDbPolyline
 90
6
 70
0
 10
-56.765383
 20
476.590033
 30
0.0
 10
-183.098739
 20
476.590033
 30
0.0
 10
-158.098763
 20
451.590032
 30
0.0
 10
-258.098787
 20
451.590032
 30
0.0
 10
-233.098810
 20
476.590033
 30
0.0
 10
-359.432107
 20
476.590033
 30
0.0
  0
LWPOLYLINE
  5
34f
100
AcDbEntity
  8
0
 62
7
100
AcDbPolyline
 90
2
 70
0
 10
-409.432119
 20
476.590033
 30
0.0
 10
-535.765415
 20
476.590033
 30
0.0
  0
LWPOLYLINE
  5
350
100
AcDbEntity
  8
0
 62
7
100
AcDbPolyline
 90
2
 70
0
 10
-535.765415
 20
700.123371
 30
0.0
 10
-535.765415
 20
476.590033
 30
0.0
  0
LWPOLYLINE
  5
351
100
AcDbEntity
  8
0
 62
7
100
AcDbPolyline
 90
2
 70
0
 10
-434.432095
 20
501.590033
 30
0.0
 10
-409.432119
 20
476.590033
 30
0.0
  0
LWPOLYLINE
  5
352
100
AcDbEntity
  8
0
 62
7
100
AcDbPolyline
 90
3
 70
0
 10
-359.432107
 20
476.590033
 30
0.0
 10
-334.432071
 20
501.590033
 30
0.0
 10
-434.432095
 20
501.590033
 30
0.0
  0
LWPOLYLINE
  5
353
100
AcDbEntity
  8
0
 62
7
100
AcDbPolyline
 90
2
 70
0
 10
-434.190696
 20
725.123377
 30
0.0
 10
-334.673470
 20
725.123377
 30
0.0
  0
LWPOLYLINE
  5
354
100
AcDbEntity
  8
0
 62
7
100
AcDbPolyline
 90
3
 70
0
 10
743.234569
 20
551.590034
 30
0.0
 10
736.884529
 20
551.590034
 30
0.0
 10
736.884529
 20
457.940032
 30
0.0
  0
LWPOLYLINE
  5
355
100
AcDbEntity
  8
0
 62
7
100
AcDbPolyline
 90
2
 70
0
 10
643.234546
 20
457.940032
 30
0.0
 10
643.234546
 20
451.590032
 30
0.0
  0
LWPOLYLINE
  5
356
100
AcDbEntity
  8
0
 62
7
100
AcDbPolyline
 90
5
 70
0
 10
390.809352
 20
700.223373
 30
0.0
 10
365.809375
 20
725.223364
 30
0.0
 10
465.326483
 20
725.223364
 30
0.0
 10
440.326506
 20
700.223373
 30
0.0
 10
566.659862
 20
700.223373
 30
0.0
  0
LWPOLYLINE
  5
357
100
AcDbEntity
  8
0
 62
7
100
AcDbPolyline
 90
3
 70
0
 10
642.142708
 20
675.223366
 30
0.0
 10
617.142612
 20
700.223373
 30
0.0
 10
743.234569
 20
700.223373
 30
0.0
  0
LWPOLYLINE
  5
358
100
AcDbEntity
  8
0
 62
7
100
AcDbPolyline
 90
2
 70
0
 10
743.234569
 20
551.590034
 30
0.0
 10
743.234569
 20
700.223373
 30
0.0
  0
LWPOLYLINE
  5
359
100
AcDbEntity
  8
0
 62
7
100
AcDbPolyline
 90
2
 70
0
 10
566.659862
 20
700.223373
 30
0.0
 10
541.659767
 20
675.223366
 30
0.0
  0
LWPOLYLINE
  5
35a
100
AcDbEntity
  8
0
 62
7
100
AcDbPolyline
 90
2
 70
0
 10
264.234597
 20
700.223373
 30
0.0
 10
390.809352
 20
700.223373
 30
0.0
  0
LWPOLYLINE
  5
35b
100
AcDbEntity
  8
0
 62
7
100
AcDbPolyline
 90
2
 70
0
 10
364.234621
 20
457.940032
 30
0.0
 10
270.584518
 20
457.940032
 30
0.0
  0
LWPOLYLINE
  5
35c
100
AcDbEntity
  8
0
 62
7
100
AcDbPolyline
 90
2
 70
0
 10
736.884529
 20
457.940032
 30
0.0
 10
643.234546
 20
457.940032
 30
0.0
  0
LWPOLYLINE
  5
35d
100
AcDbEntity
  8
0
 62
7
100
AcDbPolyline
 90
2
 70
0
 10
364.234621
 20
451.590032
 30
0.0
 10
643.234546
 20
451.590032
 30
0.0
  0
LWPOLYLINE
  5
35e
100
AcDbEntity
  8
0
 62
7
100
AcDbPolyline
 90
2
 70
0
 10
264.234597
 20
700.223373
 30
0.0
 10
264.234597
 20
551.590034
 30
0.0
  0
LWPOLYLINE
  5
35f
100
AcDbEntity
  8
0
 62
7
100
AcDbPolyline
 90
2
 70
0
 10
541.659767
 20
675.223366
 30
0.0
 10
642.142708
 20
675.223366
 30
0.0
  0
LWPOLYLINE
  5
360
100
AcDbEntity
  8
0
 62
7
100
AcDbPolyline
 90
2
 70
0
 10
364.234621
 20
451.590032
 30
0.0
 10
364.234621
 20
457.940032
 30
0.0
  0
LWPOLYLINE
  5
361
100
AcDbEntity
  8
0
 62
7
100
AcDbPolyline
 90
2
 70
0
 10
270.584518
 20
551.590034
 30
0.0
 10
264.234597
 20
551.590034
 30
0.0
  0
LWPOLYLINE
  5
362
100
AcDbEntity
  8
0
 62
7
100
AcDbPolyline
 90
2
 70
0
 10
270.584518
 20
457.940032
 30
0.0
 10
270.584518
 20
551.590034
 30
0.0
  0
LWPOLYLINE
  5
363
100
AcDbEntity
  8
0
 62
7
100
AcDbPolyline
 90
2
 70
0
 10
-1134.415423
 20
705.223353
 30
0.0
 10
-1134.415423
 20
725.223364
 30
0.0
  0
LWPOLYLINE
  5
364
100
AcDbEntity
  8
0
 62
7
100
AcDbPolyline
 90
2
 70
0
 10
-1128.065428
 20
705.223353
 30
0.0
 10
-1134.415423
 20
705.223353
 30
0.0
  0
LWPOLYLINE
  5
365
100
AcDbEntity
  8
0
 62
7
100
AcDbPolyline
 90
2
 70
0
 10
-1128.065428
 20
725.223364
 30
0.0
 10
-1128.065428
 20
705.223353
 30
0.0
  0
LWPOLYLINE
  5
366
100
AcDbEntity
  8
0
 62
7
100
AcDbPolyline
 90
2
 70
0
 10
-956.765419
 20
725.223364
 30
0.0
 10
-1128.065428
 20
725.223364
 30
0.0
  0
LWPOLYLINE
  5
367
100
AcDbEntity
  8
0
 62
7
100
AcDbPolyline
 90
4
 70
0
 10
-956.765419
 20
718.873353
 30
0.0
 10
-863.115435
 20
718.873353
 30
0.0
 10
-863.115435
 20
625.223369
 30
0.0
 10
-856.765425
 20
625.223369
 30
0.0
  0
LWPOLYLINE
  5
368
100
AcDbEntity
  8
0
 62
7
100
AcDbPolyline
 90
2
 70
0
 10
-856.765425
 20
476.590033
 30
0.0
 10
-856.765425
 20
625.223369
 30
0.0
  0
LWPOLYLINE
  5
369
100
AcDbEntity
  8
0
 62
7
100
AcDbPolyline
 90
10
 70
0
 10
-856.765425
 20
476.590033
 30
0.0
 10
-983.098751
 20
476.590033
 30
0.0
 10
-958.098775
 20
451.590032
 30
0.0
 10
-1058.098769
 20
451.590032
 30
0.0
 10
-1033.098763
 20
476.590033
 30
0.0
 10
-1159.432089
 20
476.590033
 30
0.0
 10
-1134.432098
 20
501.590033
 30
0.0
 10
-1234.432092
 20
501.590033
 30
0.0
 10
-1209.432101
 20
476.590033
 30
0.0
 10
-1335.765427
 20
476.590033
 30
0.0
  0
LWPOLYLINE
  5
36a
100
AcDbEntity
  8
0
 62
7
100
AcDbPolyline
 90
2
 70
0
 10
-1335.765427
 20
625.223369
 30
0.0
 10
-1335.765427
 20
476.590033
 30
0.0
  0
LWPOLYLINE
  5
36b
100
AcDbEntity
  8
0
 62
7
100
AcDbPolyline
 90
2
 70
0
 10
-1134.415423
 20
567.873367
 30
0.0
 10
-1134.415423
 20
587.873371
 30
0.0
  0
LWPOLYLINE
  5
36c
100
AcDbEntity
  8
0
 62
7
100
AcDbPolyline
 90
2
 70
0
 10
-1128.065428
 20
567.873367
 30
0.0
 10
-1134.415423
 20
567.873367
 30
0.0
  0
LWPOLYLINE
  5
36d
100
AcDbEntity
  8
0
 62
7
100
AcDbPolyline
 90
2
 70
0
 10
-878.115421
 20
674.523369
 30
0.0
 10
-868.115430
 20
674.523369
 30
0.0
  0
LWPOLYLINE
  5
36e
100
AcDbEntity
  8
0
 62
7
100
AcDbPolyline
 90
2
 70
0
 10
-878.115421
 20
668.173359
 30
0.0
 10
-878.115421
 20
674.523369
 30
0.0
  0
LWPOLYLINE
  5
36f
100
AcDbEntity
  8
0
 62
7
100
AcDbPolyline
 90
2
 70
0
 10
-868.115430
 20
668.173359
 30
0.0
 10
-878.115421
 20
668.173359
 30
0.0
  0
LWPOLYLINE
  5
370
100
AcDbEntity
  8
0
 62
7
100
AcDbPolyline
 90
2
 70
0
 10
-868.115430
 20
674.523369
 30
0.0
 10
-868.115430
 20
668.173359
 30
0.0
  0
LWPOLYLINE
  5
371
100
AcDbEntity
  8
0
 62
7
100
AcDbPolyline
 90
2
 70
0
 10
-1284.415426
 20
567.873367
 30
0.0
 10
-1290.765425
 20
567.873367
 30
0.0
  0
LWPOLYLINE
  5
372
100
AcDbEntity
  8
0
 62
7
100
AcDbPolyline
 90
2
 70
0
 10
-1284.415426
 20
587.873371
 30
0.0
 10
-1284.415426
 20
567.873367
 30
0.0
  0
LWPOLYLINE
  5
373
100
AcDbEntity
  8
0
 62
7
100
AcDbPolyline
 90
2
 70
0
 10
-1290.765425
 20
587.873371
 30
0.0
 10
-1284.415426
 20
587.873371
 30
0.0
  0
LWPOLYLINE
  5
374
100
AcDbEntity
  8
0
 62
7
100
AcDbPolyline
 90
2
 70
0
 10
-900.415426
 20
674.523369
 30
0.0
 10
-900.415426
 20
668.173359
 30
0.0
  0
LWPOLYLINE
  5
375
100
AcDbEntity
  8
0
 62
7
100
AcDbPolyline
 90
2
 70
0
 10
-910.415416
 20
674.523369
 30
0.0
 10
-900.415426
 20
674.523369
 30
0.0
  0
LWPOLYLINE
  5
376
100
AcDbEntity
  8
0
 62
7
100
AcDbPolyline
 90
2
 70
0
 10
-910.415416
 20
668.173359
 30
0.0
 10
-910.415416
 20
674.523369
 30
0.0
  0
LWPOLYLINE
  5
377
100
AcDbEntity
  8
0
 62
7
100
AcDbPolyline
 90
2
 70
0
 10
-900.415426
 20
668.173359
 30
0.0
 10
-910.415416
 20
668.173359
 30
0.0
  0
LWPOLYLINE
  5
378
100
AcDbEntity
  8
0
 62
7
100
AcDbPolyline
 90
4
 70
0
 10
-1335.765427
 20
625.223369
 30
0.0
 10
-1329.415427
 20
625.223369
 30
0.0
 10
-1329.415427
 20
718.873353
 30
0.0
 10
-1290.765425
 20
718.873353
 30
0.0
  0
LWPOLYLINE
  5
379
100
AcDbEntity
  8
0
 62
7
100
AcDbPolyline
 90
2
 70
0
 10
-1290.765425
 20
705.223353
 30
0.0
 10
-1290.765425
 20
718.873353
 30
0.0
  0
LWPOLYLINE
  5
37a
100
AcDbEntity
  8
0
 62
7
100
AcDbPolyline
 90
2
 70
0
 10
-1284.415426
 20
705.223353
 30
0.0
 10
-1290.765425
 20
705.223353
 30
0.0
  0
LWPOLYLINE
  5
37b
100
AcDbEntity
  8
0
 62
7
100
AcDbPolyline
 90
2
 70
0
 10
-1284.415426
 20
718.873353
 30
0.0
 10
-1284.415426
 20
705.223353
 30
0.0
  0
LWPOLYLINE
  5
37c
100
AcDbEntity
  8
0
 62
7
100
AcDbPolyline
 90
3
 70
0
 10
-1284.415426
 20
718.873353
 30
0.0
 10
-1235.765425
 20
718.873353
 30
0.0
 10
-1235.765425
 20
725.223364
 30
0.0
  0
LWPOLYLINE
  5
37d
100
AcDbEntity
  8
0
 62
7
100
AcDbPolyline
 90
2
 70
0
 10
-956.765419
 20
725.223364
 30
0.0
 10
-956.765419
 20
718.873353
 30
0.0
  0
LWPOLYLINE
  5
37e
100
AcDbEntity
  8
0
 62
7
100
AcDbPolyline
 90
2
 70
0
 10
-1134.415423
 20
587.873371
 30
0.0
 10
-1128.065428
 20
587.873371
 30
0.0
  0
LWPOLYLINE
  5
37f
100
AcDbEntity
  8
0
 62
7
100
AcDbPolyline
 90
2
 70
0
 10
-1290.765425
 20
567.873367
 30
0.0
 10
-1290.765425
 20
587.873371
 30
0.0
  0
LWPOLYLINE
  5
380
100
AcDbEntity
  8
0
 62
7
100
AcDbPolyline
 90
2
 70
0
 10
-1134.415423
 20
725.223364
 30
0.0
 10
-1235.765425
 20
725.223364
 30
0.0
  0
SPLINE
  5
381
100
AcDbEntity
  8
0
 62
7
100
AcDbSpline
 70
8
 71
3
 72
8
 73
4
 74
0
 40
0
 40
0
 40
0
 40
0
 40
1
 40
1
 40
1
 40
1
 10
-1045.615427
 20
1060.240032
 30
0.0
 10
-1045.615427
 20
1061.133196
 30
0.0
 10
-1046.091924
 20
1061.958514
 30
0.0
 10
-1046.865427
 20
1062.405096
 30
0.0
  0
SPLINE
  5
382
100
AcDbEntity
  8
0
 62
7
100
AcDbSpline
 70
8
 71
3
 72
8
 73
4
 74
0
 40
0
 40
0
 40
0
 40
0
 40
1
 40
1
 40
1
 40
1
 10
-1046.865427
 20
1062.405096
 30
0.0
 10
-1047.638930
 20
1062.851678
 30
0.0
 10
-1048.591924
 20
1062.851678
 30
0.0
 10
-1049.365427
 20
1062.405096
 30
0.0
  0
SPLINE
  5
383
100
AcDbEntity
  8
0
 62
7
100
AcDbSpline
 70
8
 71
3
 72
8
 73
4
 74
0
 40
0
 40
0
 40
0
 40
0
 40
1
 40
1
 40
1
 40
1
 10
-1049.365427
 20
1062.405096
 30
0.0
 10
-1050.138930
 20
1061.958514
 30
0.0
 10
-1050.615427
 20
1061.133196
 30
0.0
 10
-1050.615427
 20
1060.240032
 30
0.0
  0
SPLINE
  5
384
100
AcDbEntity
  8
0
 62
7
100
AcDbSpline
 70
8
 71
3
 72
8
 73
4
 74
0
 40
0
 40
0
 40
0
 40
0
 40
1
 40
1
 40
1
 40
1
 10
-1050.615427
 20
1060.240032
 30
0.0
 10
-1050.615427
 20
1059.346869
 30
0.0
 10
-1050.138930
 20
1058.521551
 30
0.0
 10
-1049.365427
 20
1058.074969
 30
0.0
  0
SPLINE
  5
385
100
AcDbEntity
  8
0
 62
7
100
AcDbSpline
 70
8
 71
3
 72
8
 73
4
 74
0
 40
0
 40
0
 40
0
 40
0
 40
1
 40
1
 40
1
 40
1
 10
-1049.365427
 20
1058.074969
 30
0.0
 10
-1048.591924
 20
1057.628387
 30
0.0
 10
-1047.638930
 20
1057.628387
 30
0.0
 10
-1046.865427
 20
1058.074969
 30
0.0
  0
SPLINE
  5
386
100
AcDbEntity
  8
0
 62
7
100
AcDbSpline
 70
8
 71
3
 72
8
 73
4
 74
0
 40
0
 40
0
 40
0
 40
0
 40
1
 40
1
 40
1
 40
1
 10
-1046.865427
 20
1058.074969
 30
0.0
 10
-1046.091924
 20
1058.521551
 30
0.0
 10
-1045.615427
 20
1059.346869
 30
0.0
 10
-1045.615427
 20
1060.240032
 30
0.0
  0
LWPOLYLINE
  5
387
100
AcDbEntity
  8
0
 62
7
100
AcDbPolyline
 90
2
 70
0
 10
-1128.065428
 20
587.873371
 30
0.0
 10
-1128.065428
 20
567.873367
 30
0.0
  0
SPLINE
  5
388
100
AcDbEntity
  8
0
 62
7
100
AcDbSpline
 70
8
 71
3
 72
8
 73
4
 74
0
 40
0
 40
0
 40
0
 40
0
 40
1
 40
1
 40
1
 40
1
 10
-1020.615427
 20
1060.240032
 30
0.0
 10
-1020.615427
 20
1061.133196
 30
0.0
 10
-1021.091924
 20
1061.958514
 30
0.0
 10
-1021.865427
 20
1062.405096
 30
0.0
  0
SPLINE
  5
389
100
AcDbEntity
  8
0
 62
7
100
AcDbSpline
 70
8
 71
3
 72
8
 73
4
 74
0
 40
0
 40
0
 40
0
 40
0
 40
1
 40
1
 40
1
 40
1
 10
-1021.865427
 20
1062.405096
 30
0.0
 10
-1022.638930
 20
1062.851678
 30
0.0
 10
-1023.591924
 20
1062.851678
 30
0.0
 10
-1024.365427
 20
1062.405096
 30
0.0
  0
SPLINE
  5
38a
100
AcDbEntity
  8
0
 62
7
100
AcDbSpline
 70
8
 71
3
 72
8
 73
4
 74
0
 40
0
 40
0
 40
0
 40
0
 40
1
 40
1
 40
1
 40
1
 10
-1024.365427
 20
1062.405096
 30
0.0
 10
-1025.138930
 20
1061.958514
 30
0.0
 10
-1025.615427
 20
1061.133196
 30
0.0
 10
-1025.615427
 20
1060.240032
 30
0.0
  0
SPLINE
  5
38b
100
AcDbEntity
  8
0
 62
7
100
AcDbSpline
 70
8
 71
3
 72
8
 73
4
 74
0
 40
0
 40
0
 40
0
 40
0
 40
1
 40
1
 40
1
 40
1
 10
-1025.615427
 20
1060.240032
 30
0.0
 10
-1025.615427
 20
1059.346869
 30
0.0
 10
-1025.138930
 20
1058.521551
 30
0.0
 10
-1024.365427
 20
1058.074969
 30
0.0
  0
SPLINE
  5
38c
100
AcDbEntity
  8
0
 62
7
100
AcDbSpline
 70
8
 71
3
 72
8
 73
4
 74
0
 40
0
 40
0
 40
0
 40
0
 40
1
 40
1
 40
1
 40
1
 10
-1024.365427
 20
1058.074969
 30
0.0
 10
-1023.591924
 20
1057.628387
 30
0.0
 10
-1022.638930
 20
1057.628387
 30
0.0
 10
-1021.865427
 20
1058.074969
 30
0.0
  0
SPLINE
  5
38d
100
AcDbEntity
  8
0
 62
7
100
AcDbSpline
 70
8
 71
3
 72
8
 73
4
 74
0
 40
0
 40
0
 40
0
 40
0
 40
1
 40
1
 40
1
 40
1
 10
-1021.865427
 20
1058.074969
 30
0.0
 10
-1021.091924
 20
1058.521551
 30
0.0
 10
-1020.615427
 20
1059.346869
 30
0.0
 10
-1020.615427
 20
1060.240032
 30
0.0
  0
LWPOLYLINE
  5
38e
100
AcDbEntity
  8
0
 62
7
100
AcDbPolyline
 90
1
 70
1
 10
-1045.615427
 20
1060.240032
 30
0.0
  0
SPLINE
  5
38f
100
AcDbEntity
  8
0
 62
7
100
AcDbSpline
 70
8
 71
3
 72
8
 73
4
 74
0
 40
0
 40
0
 40
0
 40
0
 40
1
 40
1
 40
1
 40
1
 10
-1028.615427
 20
1060.240032
 30
0.0
 10
-1028.615427
 20
1062.740892
 30
0.0
 10
-1029.949619
 20
1065.051781
 30
0.0
 10
-1032.115427
 20
1066.302210
 30
0.0
  0
SPLINE
  5
390
100
AcDbEntity
  8
0
 62
7
100
AcDbSpline
 70
8
 71
3
 72
8
 73
4
 74
0
 40
0
 40
0
 40
0
 40
0
 40
1
 40
1
 40
1
 40
1
 10
-1032.115427
 20
1066.302210
 30
0.0
 10
-1034.281234
 20
1067.552640
 30
0.0
 10
-1036.949619
 20
1067.552640
 30
0.0
 10
-1039.115427
 20
1066.302210
 30
0.0
  0
SPLINE
  5
391
100
AcDbEntity
  8
0
 62
7
100
AcDbSpline
 70
8
 71
3
 72
8
 73
4
 74
0
 40
0
 40
0
 40
0
 40
0
 40
1
 40
1
 40
1
 40
1
 10
-1039.115427
 20
1066.302210
 30
0.0
 10
-1041.281234
 20
1065.051781
 30
0.0
 10
-1042.615427
 20
1062.740892
 30
0.0
 10
-1042.615427
 20
1060.240032
 30
0.0
  0
SPLINE
  5
392
100
AcDbEntity
  8
0
 62
7
100
AcDbSpline
 70
8
 71
3
 72
8
 73
4
 74
0
 40
0
 40
0
 40
0
 40
0
 40
1
 40
1
 40
1
 40
1
 10
-1042.615427
 20
1060.240032
 30
0.0
 10
-1042.615427
 20
1057.739173
 30
0.0
 10
-1041.281234
 20
1055.428284
 30
0.0
 10
-1039.115427
 20
1054.177855
 30
0.0
  0
SPLINE
  5
393
100
AcDbEntity
  8
0
 62
7
100
AcDbSpline
 70
8
 71
3
 72
8
 73
4
 74
0
 40
0
 40
0
 40
0
 40
0
 40
1
 40
1
 40
1
 40
1
 10
-1039.115427
 20
1054.177855
 30
0.0
 10
-1036.949619
 20
1052.927425
 30
0.0
 10
-1034.281234
 20
1052.927425
 30
0.0
 10
-1032.115427
 20
1054.177855
 30
0.0
  0
SPLINE
  5
394
100
AcDbEntity
  8
0
 62
7
100
AcDbSpline
 70
8
 71
3
 72
8
 73
4
 74
0
 40
0
 40
0
 40
0
 40
0
 40
1
 40
1
 40
1
 40
1
 10
-1032.115427
 20
1054.177855
 30
0.0
 10
-1029.949619
 20
1055.428284
 30
0.0
 10
-1028.615427
 20
1057.739173
 30
0.0
 10
-1028.615427
 20
1060.240032
 30
0.0
  0
LWPOLYLINE
  5
395
100
AcDbEntity
  8
0
 62
7
100
AcDbPolyline
 90
1
 70
1
 10
-1020.615427
 20
1060.240032
 30
0.0
  0
LWPOLYLINE
  5
396
100
AcDbEntity
  8
0
 62
7
100
AcDbPolyline
 90
1
 70
1
 10
-1028.615427
 20
1060.240032
 30
0.0
  0
LWPOLYLINE
  5
397
100
AcDbEntity
  8
0
 62
7
100
AcDbPolyline
 90
2
 70
0
 10
-1053.115433
 20
1050.240011
 30
0.0
 10
-1018.115436
 20
1050.240011
 30
0.0
  0
LWPOLYLINE
  5
398
100
AcDbEntity
  8
0
 62
7
100
AcDbPolyline
 90
2
 70
0
 10
-1053.115433
 20
1070.240052
 30
0.0
 10
-1053.115433
 20
1050.240011
 30
0.0
  0
LWPOLYLINE
  5
399
100
AcDbEntity
  8
0
 62
7
100
AcDbPolyline
 90
2
 70
0
 10
-1018.115436
 20
1070.240052
 30
0.0
 10
-1053.115433
 20
1070.240052
 30
0.0
  0
SPLINE
  5
39a
100
AcDbEntity
  8
0
 62
7
100
AcDbSpline
 70
8
 71
3
 72
8
 73
4
 74
0
 40
0
 40
0
 40
0
 40
0
 40
1
 40
1
 40
1
 40
1
 10
-1045.615427
 20
1080.240032
 30
0.0
 10
-1045.615427
 20
1081.133196
 30
0.0
 10
-1046.091924
 20
1081.958514
 30
0.0
 10
-1046.865427
 20
1082.405096
 30
0.0
  0
SPLINE
  5
39b
100
AcDbEntity
  8
0
 62
7
100
AcDbSpline
 70
8
 71
3
 72
8
 73
4
 74
0
 40
0
 40
0
 40
0
 40
0
 40
1
 40
1
 40
1
 40
1
 10
-1046.865427
 20
1082.405096
 30
0.0
 10
-1047.638930
 20
1082.851678
 30
0.0
 10
-1048.591924
 20
1082.851678
 30
0.0
 10
-1049.365427
 20
1082.405096
 30
0.0
  0
SPLINE
  5
39c
100
AcDbEntity
  8
0
 62
7
100
AcDbSpline
 70
8
 71
3
 72
8
 73
4
 74
0
 40
0
 40
0
 40
0
 40
0
 40
1
 40
1
 40
1
 40
1
 10
-1049.365427
 20
1082.405096
 30
0.0
 10
-1050.138930
 20
1081.958514
 30
0.0
 10
-1050.615427
 20
1081.133196
 30
0.0
 10
-1050.615427
 20
1080.240032
 30
0.0
  0
SPLINE
  5
39d
100
AcDbEntity
  8
0
 62
7
100
AcDbSpline
 70
8
 71
3
 72
8
 73
4
 74
0
 40
0
 40
0
 40
0
 40
0
 40
1
 40
1
 40
1
 40
1
 10
-1050.615427
 20
1080.240032
 30
0.0
 10
-1050.615427
 20
1079.346868
 30
0.0
 10
-1050.138930
 20
1078.521551
 30
0.0
 10
-1049.365427
 20
1078.074969
 30
0.0
  0
SPLINE
  5
39e
100
AcDbEntity
  8
0
 62
7
100
AcDbSpline
 70
8
 71
3
 72
8
 73
4
 74
0
 40
0
 40
0
 40
0
 40
0
 40
1
 40
1
 40
1
 40
1
 10
-1049.365427
 20
1078.074969
 30
0.0
 10
-1048.591924
 20
1077.628387
 30
0.0
 10
-1047.638930
 20
1077.628387
 30
0.0
 10
-1046.865427
 20
1078.074969
 30
0.0
  0
SPLINE
  5
39f
100
AcDbEntity
  8
0
 62
7
100
AcDbSpline
 70
8
 71
3
 72
8
 73
4
 74
0
 40
0
 40
0
 40
0
 40
0
 40
1
 40
1
 40
1
 40
1
 10
-1046.865427
 20
1078.074969
 30
0.0
 10
-1046.091924
 20
1078.521551
 30
0.0
 10
-1045.615427
 20
1079.346868
 30
0.0
 10
-1045.615427
 20
1080.240032
 30
0.0
  0
LWPOLYLINE
  5
3a0
100
AcDbEntity
  8
0
 62
7
100
AcDbPolyline
 90
2
 70
0
 10
-1018.115436
 20
1050.240011
 30
0.0
 10
-1018.115436
 20
1070.240052
 30
0.0
  0
SPLINE
  5
3a1
100
AcDbEntity
  8
0
 62
7
100
AcDbSpline
 70
8
 71
3
 72
8
 73
4
 74
0
 40
0
 40
0
 40
0
 40
0
 40
1
 40
1
 40
1
 40
1
 10
-1020.615427
 20
1080.240032
 30
0.0
 10
-1020.615427
 20
1081.133196
 30
0.0
 10
-1021.091924
 20
1081.958514
 30
0.0
 10
-1021.865427
 20
1082.405096
 30
0.0
  0
SPLINE
  5
3a2
100
AcDbEntity
  8
0
 62
7
100
AcDbSpline
 70
8
 71
3
 72
8
 73
4
 74
0
 40
0
 40
0
 40
0
 40
0
 40
1
 40
1
 40
1
 40
1
 10
-1021.865427
 20
1082.405096
 30
0.0
 10
-1022.638930
 20
1082.851678
 30
0.0
 10
-1023.591924
 20
1082.851678
 30
0.0
 10
-1024.365427
 20
1082.405096
 30
0.0
  0
SPLINE
  5
3a3
100
AcDbEntity
  8
0
 62
7
100
AcDbSpline
 70
8
 71
3
 72
8
 73
4
 74
0
 40
0
 40
0
 40
0
 40
0
 40
1
 40
1
 40
1
 40
1
 10
-1024.365427
 20
1082.405096
 30
0.0
 10
-1025.138930
 20
1081.958514
 30
0.0
 10
-1025.615427
 20
1081.133196
 30
0.0
 10
-1025.615427
 20
1080.240032
 30
0.0
  0
SPLINE
  5
3a4
100
AcDbEntity
  8
0
 62
7
100
AcDbSpline
 70
8
 71
3
 72
8
 73
4
 74
0
 40
0
 40
0
 40
0
 40
0
 40
1
 40
1
 40
1
 40
1
 10
-1025.615427
 20
1080.240032
 30
0.0
 10
-1025.615427
 20
1079.346868
 30
0.0
 10
-1025.138930
 20
1078.521551
 30
0.0
 10
-1024.365427
 20
1078.074969
 30
0.0
  0
SPLINE
  5
3a5
100
AcDbEntity
  8
0
 62
7
100
AcDbSpline
 70
8
 71
3
 72
8
 73
4
 74
0
 40
0
 40
0
 40
0
 40
0
 40
1
 40
1
 40
1
 40
1
 10
-1024.365427
 20
1078.074969
 30
0.0
 10
-1023.591924
 20
1077.628387
 30
0.0
 10
-1022.638930
 20
1077.628387
 30
0.0
 10
-1021.865427
 20
1078.074969
 30
0.0
  0
SPLINE
  5
3a6
100
AcDbEntity
  8
0
 62
7
100
AcDbSpline
 70
8
 71
3
 72
8
 73
4
 74
0
 40
0
 40
0
 40
0
 40
0
 40
1
 40
1
 40
1
 40
1
 10
-1021.865427
 20
1078.074969
 30
0.0
 10
-1021.091924
 20
1078.521551
 30
0.0
 10
-1020.615427
 20
1079.346868
 30
0.0
 10
-1020.615427
 20
1080.240032
 30
0.0
  0
LWPOLYLINE
  5
3a7
100
AcDbEntity
  8
0
 62
7
100
AcDbPolyline
 90
1
 70
1
 10
-1045.615427
 20
1080.240032
 30
0.0
  0
SPLINE
  5
3a8
100
AcDbEntity
  8
0
 62
7
100
AcDbSpline
 70
8
 71
3
 72
8
 73
4
 74
0
 40
0
 40
0
 40
0
 40
0
 40
1
 40
1
 40
1
 40
1
 10
-1028.615427
 20
1080.240032
 30
0.0
 10
-1028.615427
 20
1082.740892
 30
0.0
 10
-1029.949619
 20
1085.051781
 30
0.0
 10
-1032.115427
 20
1086.302210
 30
0.0
  0
SPLINE
  5
3a9
100
AcDbEntity
  8
0
 62
7
100
AcDbSpline
 70
8
 71
3
 72
8
 73
4
 74
0
 40
0
 40
0
 40
0
 40
0
 40
1
 40
1
 40
1
 40
1
 10
-1032.115427
 20
1086.302210
 30
0.0
 10
-1034.281234
 20
1087.552640
 30
0.0
 10
-1036.949619
 20
1087.552640
 30
0.0
 10
-1039.115427
 20
1086.302210
 30
0.0
  0
SPLINE
  5
3aa
100
AcDbEntity
  8
0
 62
7
100
AcDbSpline
 70
8
 71
3
 72
8
 73
4
 74
0
 40
0
 40
0
 40
0
 40
0
 40
1
 40
1
 40
1
 40
1
 10
-1039.115427
 20
1086.302210
 30
0.0
 10
-1041.281234
 20
1085.051781
 30
0.0
 10
-1042.615427
 20
1082.740892
 30
0.0
 10
-1042.615427
 20
1080.240032
 30
0.0
  0
SPLINE
  5
3ab
100
AcDbEntity
  8
0
 62
7
100
AcDbSpline
 70
8
 71
3
 72
8
 73
4
 74
0
 40
0
 40
0
 40
0
 40
0
 40
1
 40
1
 40
1
 40
1
 10
-1042.615427
 20
1080.240032
 30
0.0
 10
-1042.615427
 20
1077.739173
 30
0.0
 10
-1041.281234
 20
1075.428284
 30
0.0
 10
-1039.115427
 20
1074.177855
 30
0.0
  0
SPLINE
  5
3ac
100
AcDbEntity
  8
0
 62
7
100
AcDbSpline
 70
8
 71
3
 72
8
 73
4
 74
0
 40
0
 40
0
 40
0
 40
0
 40
1
 40
1
 40
1
 40
1
 10
-1039.115427
 20
1074.177855
 30
0.0
 10
-1036.949619
 20
1072.927425
 30
0.0
 10
-1034.281234
 20
1072.927425
 30
0.0
 10
-1032.115427
 20
1074.177855
 30
0.0
  0
SPLINE
  5
3ad
100
AcDbEntity
  8
0
 62
7
100
AcDbSpline
 70
8
 71
3
 72
8
 73
4
 74
0
 40
0
 40
0
 40
0
 40
0
 40
1
 40
1
 40
1
 40
1
 10
-1032.115427
 20
1074.177855
 30
0.0
 10
-1029.949619
 20
1075.428284
 30
0.0
 10
-1028.615427
 20
1077.739173
 30
0.0
 10
-1028.615427
 20
1080.240032
 30
0.0
  0
LWPOLYLINE
  5
3ae
100
AcDbEntity
  8
0
 62
7
100
AcDbPolyline
 90
1
 70
1
 10
-1020.615427
 20
1080.240032
 30
0.0
  0
LWPOLYLINE
  5
3af
100
AcDbEntity
  8
0
 62
7
100
AcDbPolyline
 90
1
 70
1
 10
-1028.615427
 20
1080.240032
 30
0.0
  0
LWPOLYLINE
  5
3b0
100
AcDbEntity
  8
0
 62
7
100
AcDbPolyline
 90
2
 70
0
 10
-1053.115433
 20
1090.240033
 30
0.0
 10
-1053.115433
 20
1070.240052
 30
0.0
  0
LWPOLYLINE
  5
3b1
100
AcDbEntity
  8
0
 62
7
100
AcDbPolyline
 90
2
 70
0
 10
-1018.115436
 20
1090.240033
 30
0.0
 10
-1053.115433
 20
1090.240033
 30
0.0
  0
LWPOLYLINE
  5
3b2
100
AcDbEntity
  8
0
 62
7
100
AcDbPolyline
 90
2
 70
0
 10
-1018.115436
 20
1070.240052
 30
0.0
 10
-1018.115436
 20
1090.240033
 30
0.0
  0
LWPOLYLINE
  5
3b3
100
AcDbEntity
  8
0
 62
7
100
AcDbPolyline
 90
2
 70
0
 10
-1018.115436
 20
1050.240011
 30
0.0
 10
-983.115440
 20
1050.240011
 30
0.0
  0
LWPOLYLINE
  5
3b4
100
AcDbEntity
  8
0
 62
7
100
AcDbPolyline
 90
2
 70
0
 10
-983.115440
 20
1070.240052
 30
0.0
 10
-1018.115436
 20
1070.240052
 30
0.0
  0
SPLINE
  5
3b5
100
AcDbEntity
  8
0
 62
7
100
AcDbSpline
 70
8
 71
3
 72
8
 73
4
 74
0
 40
0
 40
0
 40
0
 40
0
 40
1
 40
1
 40
1
 40
1
 10
-985.615427
 20
1060.240032
 30
0.0
 10
-985.615427
 20
1061.133196
 30
0.0
 10
-986.091924
 20
1061.958514
 30
0.0
 10
-986.865427
 20
1062.405096
 30
0.0
  0
SPLINE
  5
3b6
100
AcDbEntity
  8
0
 62
7
100
AcDbSpline
 70
8
 71
3
 72
8
 73
4
 74
0
 40
0
 40
0
 40
0
 40
0
 40
1
 40
1
 40
1
 40
1
 10
-986.865427
 20
1062.405096
 30
0.0
 10
-987.638929
 20
1062.851678
 30
0.0
 10
-988.591924
 20
1062.851678
 30
0.0
 10
-989.365427
 20
1062.405096
 30
0.0
  0
SPLINE
  5
3b7
100
AcDbEntity
  8
0
 62
7
100
AcDbSpline
 70
8
 71
3
 72
8
 73
4
 74
0
 40
0
 40
0
 40
0
 40
0
 40
1
 40
1
 40
1
 40
1
 10
-989.365427
 20
1062.405096
 30
0.0
 10
-990.138929
 20
1061.958514
 30
0.0
 10
-990.615427
 20
1061.133196
 30
0.0
 10
-990.615427
 20
1060.240032
 30
0.0
  0
SPLINE
  5
3b8
100
AcDbEntity
  8
0
 62
7
100
AcDbSpline
 70
8
 71
3
 72
8
 73
4
 74
0
 40
0
 40
0
 40
0
 40
0
 40
1
 40
1
 40
1
 40
1
 10
-990.615427
 20
1060.240032
 30
0.0
 10
-990.615427
 20
1059.346869
 30
0.0
 10
-990.138929
 20
1058.521551
 30
0.0
 10
-989.365427
 20
1058.074969
 30
0.0
  0
SPLINE
  5
3b9
100
AcDbEntity
  8
0
 62
7
100
AcDbSpline
 70
8
 71
3
 72
8
 73
4
 74
0
 40
0
 40
0
 40
0
 40
0
 40
1
 40
1
 40
1
 40
1
 10
-989.365427
 20
1058.074969
 30
0.0
 10
-988.591924
 20
1057.628387
 30
0.0
 10
-987.638929
 20
1057.628387
 30
0.0
 10
-986.865427
 20
1058.074969
 30
0.0
  0
SPLINE
  5
3ba
100
AcDbEntity
  8
0
 62
7
100
AcDbSpline
 70
8
 71
3
 72
8
 73
4
 74
0
 40
0
 40
0
 40
0
 40
0
 40
1
 40
1
 40
1
 40
1
 10
-986.865427
 20
1058.074969
 30
0.0
 10
-986.091924
 20
1058.521551
 30
0.0
 10
-985.615427
 20
1059.346869
 30
0.0
 10
-985.615427
 20
1060.240032
 30
0.0
  0
LWPOLYLINE
  5
3bb
100
AcDbEntity
  8
0
 62
7
100
AcDbPolyline
 90
2
 70
0
 10
-983.115440
 20
1050.240011
 30
0.0
 10
-983.115440
 20
1070.240052
 30
0.0
  0
SPLINE
  5
3bc
100
AcDbEntity
  8
0
 62
7
100
AcDbSpline
 70
8
 71
3
 72
8
 73
4
 74
0
 40
0
 40
0
 40
0
 40
0
 40
1
 40
1
 40
1
 40
1
 10
-993.615427
 20
1060.240032
 30
0.0
 10
-993.614941
 20
1062.741216
 30
0.0
 10
-994.949027
 20
1065.052612
 30
0.0
 10
-997.115034
 20
1066.303344
 30
0.0
  0
SPLINE
  5
3bd
100
AcDbEntity
  8
0
 62
7
100
AcDbSpline
 70
8
 71
3
 72
8
 73
4
 74
0
 40
0
 40
0
 40
0
 40
0
 40
1
 40
1
 40
1
 40
1
 10
-997.115034
 20
1066.303344
 30
0.0
 10
-999.281041
 20
1067.554076
 30
0.0
 10
-1001.949812
 20
1067.554076
 30
0.0
 10
-1004.115820
 20
1066.303344
 30
0.0
  0
SPLINE
  5
3be
100
AcDbEntity
  8
0
 62
7
100
AcDbSpline
 70
8
 71
3
 72
8
 73
4
 74
0
 40
0
 40
0
 40
0
 40
0
 40
1
 40
1
 40
1
 40
1
 10
-1004.115820
 20
1066.303344
 30
0.0
 10
-1006.281827
 20
1065.052612
 30
0.0
 10
-1007.615913
 20
1062.741216
 30
0.0
 10
-1007.615427
 20
1060.240032
 30
0.0
  0
SPLINE
  5
3bf
100
AcDbEntity
  8
0
 62
7
100
AcDbSpline
 70
8
 71
3
 72
8
 73
4
 74
0
 40
0
 40
0
 40
0
 40
0
 40
1
 40
1
 40
1
 40
1
 10
-1007.615427
 20
1060.240032
 30
0.0
 10
-1007.615913
 20
1057.738849
 30
0.0
 10
-1006.281827
 20
1055.427453
 30
0.0
 10
-1004.115820
 20
1054.176721
 30
0.0
  0
SPLINE
  5
3c0
100
AcDbEntity
  8
0
 62
7
100
AcDbSpline
 70
8
 71
3
 72
8
 73
4
 74
0
 40
0
 40
0
 40
0
 40
0
 40
1
 40
1
 40
1
 40
1
 10
-1004.115820
 20
1054.176721
 30
0.0
 10
-1001.949812
 20
1052.925989
 30
0.0
 10
-999.281041
 20
1052.925989
 30
0.0
 10
-997.115034
 20
1054.176721
 30
0.0
  0
SPLINE
  5
3c1
100
AcDbEntity
  8
0
 62
7
100
AcDbSpline
 70
8
 71
3
 72
8
 73
4
 74
0
 40
0
 40
0
 40
0
 40
0
 40
1
 40
1
 40
1
 40
1
 10
-997.115034
 20
1054.176721
 30
0.0
 10
-994.949027
 20
1055.427453
 30
0.0
 10
-993.614941
 20
1057.738849
 30
0.0
 10
-993.615427
 20
1060.240032
 30
0.0
  0
LWPOLYLINE
  5
3c2
100
AcDbEntity
  8
0
 62
7
100
AcDbPolyline
 90
1
 70
1
 10
-985.615427
 20
1060.240032
 30
0.0
  0
SPLINE
  5
3c3
100
AcDbEntity
  8
0
 62
7
100
AcDbSpline
 70
8
 71
3
 72
8
 73
4
 74
0
 40
0
 40
0
 40
0
 40
0
 40
1
 40
1
 40
1
 40
1
 10
-1010.615427
 20
1060.240032
 30
0.0
 10
-1010.615427
 20
1061.133197
 30
0.0
 10
-1011.091924
 20
1061.958514
 30
0.0
 10
-1011.865427
 20
1062.405097
 30
0.0
  0
SPLINE
  5
3c4
100
AcDbEntity
  8
0
 62
7
100
AcDbSpline
 70
8
 71
3
 72
8
 73
4
 74
0
 40
0
 40
0
 40
0
 40
0
 40
1
 40
1
 40
1
 40
1
 10
-1011.865427
 20
1062.405097
 30
0.0
 10
-1012.638929
 20
1062.851679
 30
0.0
 10
-1013.591924
 20
1062.851679
 30
0.0
 10
-1014.365427
 20
1062.405097
 30
0.0
  0
SPLINE
  5
3c5
100
AcDbEntity
  8
0
 62
7
100
AcDbSpline
 70
8
 71
3
 72
8
 73
4
 74
0
 40
0
 40
0
 40
0
 40
0
 40
1
 40
1
 40
1
 40
1
 10
-1014.365427
 20
1062.405097
 30
0.0
 10
-1015.138930
 20
1061.958514
 30
0.0
 10
-1015.615427
 20
1061.133197
 30
0.0
 10
-1015.615427
 20
1060.240032
 30
0.0
  0
SPLINE
  5
3c6
100
AcDbEntity
  8
0
 62
7
100
AcDbSpline
 70
8
 71
3
 72
8
 73
4
 74
0
 40
0
 40
0
 40
0
 40
0
 40
1
 40
1
 40
1
 40
1
 10
-1015.615427
 20
1060.240032
 30
0.0
 10
-1015.615427
 20
1059.346868
 30
0.0
 10
-1015.138930
 20
1058.521550
 30
0.0
 10
-1014.365427
 20
1058.074968
 30
0.0
  0
SPLINE
  5
3c7
100
AcDbEntity
  8
0
 62
7
100
AcDbSpline
 70
8
 71
3
 72
8
 73
4
 74
0
 40
0
 40
0
 40
0
 40
0
 40
1
 40
1
 40
1
 40
1
 10
-1014.365427
 20
1058.074968
 30
0.0
 10
-1013.591924
 20
1057.628386
 30
0.0
 10
-1012.638929
 20
1057.628386
 30
0.0
 10
-1011.865427
 20
1058.074968
 30
0.0
  0
SPLINE
  5
3c8
100
AcDbEntity
  8
0
 62
7
100
AcDbSpline
 70
8
 71
3
 72
8
 73
4
 74
0
 40
0
 40
0
 40
0
 40
0
 40
1
 40
1
 40
1
 40
1
 10
-1011.865427
 20
1058.074968
 30
0.0
 10
-1011.091924
 20
1058.521550
 30
0.0
 10
-1010.615426
 20
1059.346868
 30
0.0
 10
-1010.615427
 20
1060.240032
 30
0.0
  0
LWPOLYLINE
  5
3c9
100
AcDbEntity
  8
0
 62
7
100
AcDbPolyline
 90
1
 70
1
 10
-993.615427
 20
1060.240032
 30
0.0
  0
SPLINE
  5
3ca
100
AcDbEntity
  8
0
 62
7
100
AcDbSpline
 70
8
 71
3
 72
8
 73
4
 74
0
 40
0
 40
0
 40
0
 40
0
 40
1
 40
1
 40
1
 40
1
 10
-985.615427
 20
1080.240032
 30
0.0
 10
-985.615427
 20
1081.133196
 30
0.0
 10
-986.091924
 20
1081.958514
 30
0.0
 10
-986.865427
 20
1082.405096
 30
0.0
  0
SPLINE
  5
3cb
100
AcDbEntity
  8
0
 62
7
100
AcDbSpline
 70
8
 71
3
 72
8
 73
4
 74
0
 40
0
 40
0
 40
0
 40
0
 40
1
 40
1
 40
1
 40
1
 10
-986.865427
 20
1082.405096
 30
0.0
 10
-987.638929
 20
1082.851678
 30
0.0
 10
-988.591924
 20
1082.851678
 30
0.0
 10
-989.365427
 20
1082.405096
 30
0.0
  0
SPLINE
  5
3cc
100
AcDbEntity
  8
0
 62
7
100
AcDbSpline
 70
8
 71
3
 72
8
 73
4
 74
0
 40
0
 40
0
 40
0
 40
0
 40
1
 40
1
 40
1
 40
1
 10
-989.365427
 20
1082.405096
 30
0.0
 10
-990.138929
 20
1081.958514
 30
0.0
 10
-990.615427
 20
1081.133196
 30
0.0
 10
-990.615427
 20
1080.240032
 30
0.0
  0
SPLINE
  5
3cd
100
AcDbEntity
  8
0
 62
7
100
AcDbSpline
 70
8
 71
3
 72
8
 73
4
 74
0
 40
0
 40
0
 40
0
 40
0
 40
1
 40
1
 40
1
 40
1
 10
-990.615427
 20
1080.240032
 30
0.0
 10
-990.615427
 20
1079.346868
 30
0.0
 10
-990.138929
 20
1078.521551
 30
0.0
 10
-989.365427
 20
1078.074969
 30
0.0
  0
SPLINE
  5
3ce
100
AcDbEntity
  8
0
 62
7
100
AcDbSpline
 70
8
 71
3
 72
8
 73
4
 74
0
 40
0
 40
0
 40
0
 40
0
 40
1
 40
1
 40
1
 40
1
 10
-989.365427
 20
1078.074969
 30
0.0
 10
-988.591924
 20
1077.628387
 30
0.0
 10
-987.638929
 20
1077.628387
 30
0.0
 10
-986.865427
 20
1078.074969
 30
0.0
  0
SPLINE
  5
3cf
100
AcDbEntity
  8
0
 62
7
100
AcDbSpline
 70
8
 71
3
 72
8
 73
4
 74
0
 40
0
 40
0
 40
0
 40
0
 40
1
 40
1
 40
1
 40
1
 10
-986.865427
 20
1078.074969
 30
0.0
 10
-986.091924
 20
1078.521551
 30
0.0
 10
-985.615427
 20
1079.346868
 30
0.0
 10
-985.615427
 20
1080.240032
 30
0.0
  0
LWPOLYLINE
  5
3d0
100
AcDbEntity
  8
0
 62
7
100
AcDbPolyline
 90
1
 70
1
 10
-1010.615427
 20
1060.240032
 30
0.0
  0
SPLINE
  5
3d1
100
AcDbEntity
  8
0
 62
7
100
AcDbSpline
 70
8
 71
3
 72
8
 73
4
 74
0
 40
0
 40
0
 40
0
 40
0
 40
1
 40
1
 40
1
 40
1
 10
-993.615427
 20
1080.240032
 30
0.0
 10
-993.614941
 20
1082.741216
 30
0.0
 10
-994.949027
 20
1085.052612
 30
0.0
 10
-997.115034
 20
1086.303344
 30
0.0
  0
SPLINE
  5
3d2
100
AcDbEntity
  8
0
 62
7
100
AcDbSpline
 70
8
 71
3
 72
8
 73
4
 74
0
 40
0
 40
0
 40
0
 40
0
 40
1
 40
1
 40
1
 40
1
 10
-997.115034
 20
1086.303344
 30
0.0
 10
-999.281041
 20
1087.554076
 30
0.0
 10
-1001.949812
 20
1087.554076
 30
0.0
 10
-1004.115820
 20
1086.303344
 30
0.0
  0
SPLINE
  5
3d3
100
AcDbEntity
  8
0
 62
7
100
AcDbSpline
 70
8
 71
3
 72
8
 73
4
 74
0
 40
0
 40
0
 40
0
 40
0
 40
1
 40
1
 40
1
 40
1
 10
-1004.115820
 20
1086.303344
 30
0.0
 10
-1006.281827
 20
1085.052612
 30
0.0
 10
-1007.615913
 20
1082.741216
 30
0.0
 10
-1007.615427
 20
1080.240032
 30
0.0
  0
SPLINE
  5
3d4
100
AcDbEntity
  8
0
 62
7
100
AcDbSpline
 70
8
 71
3
 72
8
 73
4
 74
0
 40
0
 40
0
 40
0
 40
0
 40
1
 40
1
 40
1
 40
1
 10
-1007.615427
 20
1080.240032
 30
0.0
 10
-1007.615913
 20
1077.738849
 30
0.0
 10
-1006.281827
 20
1075.427453
 30
0.0
 10
-1004.115820
 20
1074.176721
 30
0.0
  0
SPLINE
  5
3d5
100
AcDbEntity
  8
0
 62
7
100
AcDbSpline
 70
8
 71
3
 72
8
 73
4
 74
0
 40
0
 40
0
 40
0
 40
0
 40
1
 40
1
 40
1
 40
1
 10
-1004.115820
 20
1074.176721
 30
0.0
 10
-1001.949812
 20
1072.925989
 30
0.0
 10
-999.281041
 20
1072.925989
 30
0.0
 10
-997.115034
 20
1074.176721
 30
0.0
  0
SPLINE
  5
3d6
100
AcDbEntity
  8
0
 62
7
100
AcDbSpline
 70
8
 71
3
 72
8
 73
4
 74
0
 40
0
 40
0
 40
0
 40
0
 40
1
 40
1
 40
1
 40
1
 10
-997.115034
 20
1074.176721
 30
0.0
 10
-994.949027
 20
1075.427453
 30
0.0
 10
-993.614941
 20
1077.738849
 30
0.0
 10
-993.615427
 20
1080.240032
 30
0.0
  0
LWPOLYLINE
  5
3d7
100
AcDbEntity
  8
0
 62
7
100
AcDbPolyline
 90
1
 70
1
 10
-985.615427
 20
1080.240032
 30
0.0
  0
LWPOLYLINE
  5
3d8
100
AcDbEntity
  8
0
 62
7
100
AcDbPolyline
 90
1
 70
1
 10
-993.615427
 20
1080.240032
 30
0.0
  0
LWPOLYLINE
  5
3d9
100
AcDbEntity
  8
0
 62
7
100
AcDbPolyline
 90
2
 70
0
 10
-983.115440
 20
1090.240033
 30
0.0
 10
-1018.115436
 20
1090.240033
 30
0.0
  0
SPLINE
  5
3da
100
AcDbEntity
  8
0
 62
7
100
AcDbSpline
 70
8
 71
3
 72
8
 73
4
 74
0
 40
0
 40
0
 40
0
 40
0
 40
1
 40
1
 40
1
 40
1
 10
-1010.615427
 20
1080.240032
 30
0.0
 10
-1010.615427
 20
1081.133197
 30
0.0
 10
-1011.091924
 20
1081.958514
 30
0.0
 10
-1011.865427
 20
1082.405096
 30
0.0
  0
SPLINE
  5
3db
100
AcDbEntity
  8
0
 62
7
100
AcDbSpline
 70
8
 71
3
 72
8
 73
4
 74
0
 40
0
 40
0
 40
0
 40
0
 40
1
 40
1
 40
1
 40
1
 10
-1011.865427
 20
1082.405096
 30
0.0
 10
-1012.638929
 20
1082.851679
 30
0.0
 10
-1013.591924
 20
1082.851679
 30
0.0
 10
-1014.365427
 20
1082.405096
 30
0.0
  0
SPLINE
  5
3dc
100
AcDbEntity
  8
0
 62
7
100
AcDbSpline
 70
8
 71
3
 72
8
 73
4
 74
0
 40
0
 40
0
 40
0
 40
0
 40
1
 40
1
 40
1
 40
1
 10
-1014.365427
 20
1082.405096
 30
0.0
 10
-1015.138930
 20
1081.958514
 30
0.0
 10
-1015.615427
 20
1081.133197
 30
0.0
 10
-1015.615427
 20
1080.240032
 30
0.0
  0
SPLINE
  5
3dd
100
AcDbEntity
  8
0
 62
7
100
AcDbSpline
 70
8
 71
3
 72
8
 73
4
 74
0
 40
0
 40
0
 40
0
 40
0
 40
1
 40
1
 40
1
 40
1
 10
-1015.615427
 20
1080.240032
 30
0.0
 10
-1015.615427
 20
1079.346868
 30
0.0
 10
-1015.138930
 20
1078.521550
 30
0.0
 10
-1014.365427
 20
1078.074968
 30
0.0
  0
SPLINE
  5
3de
100
AcDbEntity
  8
0
 62
7
100
AcDbSpline
 70
8
 71
3
 72
8
 73
4
 74
0
 40
0
 40
0
 40
0
 40
0
 40
1
 40
1
 40
1
 40
1
 10
-1014.365427
 20
1078.074968
 30
0.0
 10
-1013.591924
 20
1077.628386
 30
0.0
 10
-1012.638929
 20
1077.628386
 30
0.0
 10
-1011.865427
 20
1078.074968
 30
0.0
  0
SPLINE
  5
3df
100
AcDbEntity
  8
0
 62
7
100
AcDbSpline
 70
8
 71
3
 72
8
 73
4
 74
0
 40
0
 40
0
 40
0
 40
0
 40
1
 40
1
 40
1
 40
1
 10
-1011.865427
 20
1078.074968
 30
0.0
 10
-1011.091924
 20
1078.521550
 30
0.0
 10
-1010.615426
 20
1079.346868
 30
0.0
 10
-1010.615427
 20
1080.240032
 30
0.0
  0
LWPOLYLINE
  5
3e0
100
AcDbEntity
  8
0
 62
7
100
AcDbPolyline
 90
2
 70
0
 10
-983.115440
 20
1070.240052
 30
0.0
 10
-983.115440
 20
1090.240033
 30
0.0
  0
LWPOLYLINE
  5
3e1
100
AcDbEntity
  8
0
 62
7
100
AcDbPolyline
 90
1
 70
1
 10
-1010.615427
 20
1080.240032
 30
0.0
  0
ENDSEC
  0
SECTION
  2
OBJECTS
  0
DICTIONARY
  5
C
330
0
100
AcDbDictionary
  3
ACAD_GROUP
350
D
  3
ACAD_MLINESTYLE
350
17
  0
DICTIONARY
  5
D
330
C
100
AcDbDictionary
  0
DICTIONARY
  5
1A
330
C
100
AcDbDictionary
  0
DICTIONARY
  5
17
330
C
100
AcDbDictionary
  3
STANDARD
350
18
  0
DICTIONARY
  5
19
330
C
100
AcDbDictionary
  0
ENDSEC
  0
EOF
